<svg id="Layer_1" data-name="Layer 1" xmlns="http://www.w3.org/2000/svg" viewBox="0 0 450 450"><title>contacto</title><rect width="450" height="450" style="fill:#95d8e0"/><rect x="102.3" y="340.47" width="245.39" height="10.21" style="fill:#f2f2f2"/><rect x="118.82" y="350.68" width="212.36" height="15.4" style="fill:#d9d9d9"/><path d="M152.75,340.47h144.5s3.42-54.84-7.75-67.71c-6-7-35.65-9.3-35.65-9.3H196.15s-29.61,2.34-35.65,9.3C149.33,285.63,152.75,340.47,152.75,340.47Z" style="fill:#275f66"/><rect x="206.75" y="230.9" width="36.5" height="36.5" style="fill:#fdd5ab"/><path d="M206.75,246.51a27.71,27.71,0,0,0,36.5,0V230.9h-36.5Z" style="fill:#bea080"/><path d="M261.16,202.73c0,23.77-16.19,46.76-36.16,46.76s-36.16-23-36.16-46.76S205,163.41,225,163.41,261.16,179,261.16,202.73Z" style="fill:#fdd5ab"/><polygon points="243.45 258.01 225 267.02 240.05 281.77 253.85 263.47 243.45 258.01" style="fill:#fff"/><polygon points="196.15 263.47 209.95 281.77 225 267.02 206.55 258.01 196.15 263.47" style="fill:#fff"/><polygon points="225 267.02 209.95 281.77 225 340.48 240.05 281.77 225 267.02" style="fill:#fff"/><path d="M262.8,196.87q0-1.12-.07-2.3a18.85,18.85,0,0,0-.24-2.39l-.34-2.49a40.3,40.3,0,0,0-3.6-10.62c-.36-.7-.76-1.4-1.17-2.1s-1-1.67-1.48-2.51a37.94,37.94,0,0,0-7.68-8.28,29.64,29.64,0,0,0-2.45-1.74l-1.27-.84-1.35-.72c-.92-.46-1.8-1-2.77-1.39l-2.92-1.13c-1-.33-2-.58-3-.87a20.91,20.91,0,0,0-3.22-.64,28.11,28.11,0,0,0-3.16-.38l-3-.16a42.15,42.15,0,0,0-12.46,2.06l-2.92,1.14c-1,.37-1.85.93-2.77,1.39l-1.35.72-1.27.84-1.25.85a11.5,11.5,0,0,0-1.2.89l-2.24,1.91a28.51,28.51,0,0,0-2,2.06l-1,1c-.31.35-.57.73-.85,1.1-.56.73-1.1,1.46-1.62,2.18-.34.55-.67,1.1-1,1.64-.61,1-1.18,2-1.69,3a40.31,40.31,0,0,0-3.6,10.62l-.34,2.5a18.25,18.25,0,0,0-.24,2.37q0,1.16-.07,2.25a16.06,16.06,0,0,0,0,2.11c.1,1.37.18,2.63.28,3.79,0,0,0,.09,0,.08v.08l0,.1,0,.21.07.41.14.79.27,1.47.25,1.32c.1.42.23.81.33,1.18l.53,1.83.46,1.5s0-.54.07-1.56c0-.5,0-1.12.06-1.85,0-.36,0-.75,0-1.16l.13-1.34.29-3.07.6-3.53c.2-1.2.57-2.45.88-3.76a14.52,14.52,0,0,1,10.46-8.22c4.09-.92,7.81-1.68,11.63-3.61a37.35,37.35,0,0,0,7.4-4.85,44.83,44.83,0,0,0,13.21,9.69c5.45,2.75,12.26,5.43,18.5,4.92a10.67,10.67,0,0,1,5,.39c.17.51.33,1,.45,1.5l.49,2a17.22,17.22,0,0,1,.42,1.92l.6,3.64.29,3q.07.7.13,1.32t0,1.19c0,.74,0,1.37.06,1.88l.07,1.56.46-1.5.52-1.8c.1-.36.22-.73.33-1.15l.25-1.34.27-1.51.14-.82.07-.42,0-.22,0-.11v-.08s0-.13,0-.09c.09-1.14.19-2.37.29-3.68A15.07,15.07,0,0,0,262.8,196.87Z" style="fill:#7d4b17"/><path d="M211.11,241.74c-7.37-.13-12.41-1.64-15.39-4.61l-.08-.09c-6.18-7.94-7-18.69-7.3-28.13l1.84-.06c.3,9.56,1.07,19.52,6.88,27,2.63,2.6,7.24,3.92,14.08,4Z" style="fill:#3a3a3a"/><path d="M262.47,209l.1-1.66.12-2a23.26,23.26,0,0,0,.07-2.69c0-1,0-2.1-.05-3.31v-.45c0-.09,0-.29,0-.44,0-.32-.06-.64-.09-1-.06-.66-.12-1.34-.19-2a39.25,39.25,0,0,0-.69-4.34l-.21-1.14-.31-1.16-.64-2.39a43.19,43.19,0,0,0-4.42-9.8l-.73-1.23c-.28-.39-.58-.77-.86-1.17l-.87-1.17a9,9,0,0,0-.93-1.15c-.67-.73-1.34-1.47-2-2.22l-2.25-2.05a36.32,36.32,0,0,0-10.84-6.23,22.1,22.1,0,0,0-3.06-1l-1.57-.39-.79-.19-.8-.11c-1.07-.13-2.14-.35-3.23-.42l-1.63-.07-.81,0-.41,0h-.36s-.15,0,.06,0l-3.46.15a12.31,12.31,0,0,0-1.61.19l-1.56.23-.78.11-.79.19-1.57.39a22,22,0,0,0-3.07,1,36.46,36.46,0,0,0-10.84,6.23l-2.25,2.05q-1,1.13-2,2.22a9.15,9.15,0,0,0-.93,1.15l-.87,1.17c-.29.39-.59.77-.86,1.16l-.74,1.23a43.21,43.21,0,0,0-4.42,9.8,53.89,53.89,0,0,0-1.85,9c-.11,1.37-.3,2.7-.33,3.85s0,2.34-.05,3.35a23.13,23.13,0,0,0,.07,2.68l.12,2,.1,1.66L187,207.4l-.42-2-.26-1.26c-.09-.45-.11-.92-.17-1.43l-.36-3.33,0-.46c0-.22,0-.33,0-.51s0-.65,0-1q0-1,0-2.08a47,47,0,0,1,1.06-9.6c.13-.88.46-1.74.69-2.64l.39-1.36a9.8,9.8,0,0,1,.45-1.36l1.1-2.74c.36-.94.91-1.81,1.37-2.73a37.21,37.21,0,0,1,8-10.32,37.91,37.91,0,0,1,12-7.35,26.11,26.11,0,0,1,3.44-1.13l1.76-.46.88-.22.92-.15,1.86-.28a16.39,16.39,0,0,1,1.82-.23l3.46-.19,3.77.19c1.22.09,2.42.34,3.62.51l.9.14.89.22,1.76.46a26,26,0,0,1,3.44,1.13,38.08,38.08,0,0,1,12,7.35,37.23,37.23,0,0,1,8,10.32c.46.93,1,1.8,1.37,2.73l1.1,2.74a9.41,9.41,0,0,1,.45,1.36l.39,1.36c.23.9.56,1.76.69,2.64a47,47,0,0,1,1.06,9.62q0,1.06,0,2c0,.33,0,.65,0,1s0,.28,0,.5,0,.31-.05.47c-.13,1.23-.25,2.36-.37,3.38-.06.51-.09,1-.17,1.43l-.26,1.24-.42,2Z" style="fill:#737373"/><ellipse cx="263.32" cy="209.23" rx="12.65" ry="3.28" transform="translate(10.48 431.02) rotate(-79.73)" style="fill:#3a3a3a"/><path d="M257.29,221l3.77.68,4.51-24.88-3.77-.68a1.7,1.7,0,0,0-2,1.37L255.92,219A1.7,1.7,0,0,0,257.29,221Z" style="fill:#737373"/><ellipse cx="186.68" cy="209.23" rx="3.27" ry="12.65" transform="translate(-34.33 36.65) rotate(-10.27)" style="fill:#3a3a3a"/><path d="M192.71,221l-3.77.68-4.51-24.88,3.77-.68a1.7,1.7,0,0,1,2,1.37L194.08,219A1.7,1.7,0,0,1,192.71,221Z" style="fill:#737373"/><path d="M210.68,236.25h3.55a.7.7,0,0,1,.7.7v7.74a.71.71,0,0,1-.71.71h-3.55a.7.7,0,0,1-.7-.7V237A.71.71,0,0,1,210.68,236.25Z" transform="translate(-44.75 433.12) rotate(-85.37)" style="fill:#737373"/><polygon points="229.17 279.13 229.66 279.13 234.03 275.87 225 267.02 215.97 275.87 220.34 279.13 220.83 279.13 217.11 309.69 225 340.48 232.89 309.69 229.17 279.13" style="fill:#f04950"/><path d="M337.5,267.19H243.12A4.11,4.11,0,0,0,239,271.3v62.24H341.62V271.3A4.12,4.12,0,0,0,337.5,267.19Z" style="fill:#d9d9d9"/><path d="M243.12,340.3H337.5a4.11,4.11,0,0,0,4.12-4.12v-2.64H239v2.64A4.11,4.11,0,0,0,243.12,340.3Z" style="fill:#404040"/><path d="M399.53,366.59H50.46a.5.5,0,0,1,0-1H399.53a.5.5,0,0,1,0,1Z" style="fill:#4ebecc"/><path d="M209.35,76.17a15.55,15.55,0,0,0,3.5,9.84c1.72,2.12,3.67,5.51,3.67,8.24v4.83a2,2,0,0,0,2,2h13a2,2,0,0,0,2-2V94.26c0-2.73,1.95-6.12,3.67-8.24a15.64,15.64,0,1,0-27.8-9.84Z" style="fill:#fff"/><circle cx="225" cy="110.31" r="3.36" style="fill:#404040"/><path d="M221.47,110.31h7.06a5,5,0,0,0,5-5V97.11h-17v8.25A5,5,0,0,0,221.47,110.31Z" style="fill:#3d5b75"/><path d="M232.94,79.41a.53.53,0,0,1-.49-.33l-2.68-6.27-2.68,6.27a.54.54,0,0,1-.49.33h0a.54.54,0,0,1-.5-.33l-2.68-6.27-2.68,6.27a.54.54,0,0,1-.49.33h0a.54.54,0,0,1-.5-.33l-3.17-7.43a.54.54,0,0,1,1-.42l2.68,6.27,2.68-6.27a.54.54,0,0,1,1,0l2.68,6.27,2.68-6.27a.54.54,0,0,1,1,0l3.18,7.43a.54.54,0,0,1-.49.75Z" style="fill:#f9962e"/><path d="M225,57.32a1.25,1.25,0,0,1-1.25-1.25V50.5a1.26,1.26,0,0,1,2.51,0v5.57A1.26,1.26,0,0,1,225,57.32Z" style="fill:#fff"/><path d="M214.78,60.07a1.25,1.25,0,0,1-1.09-.63l-2.79-4.82a1.26,1.26,0,1,1,2.17-1.26l2.78,4.82a1.26,1.26,0,0,1-1.09,1.88Z" style="fill:#fff"/><path d="M207.34,67.54a1.25,1.25,0,0,1-.63-.17l-4.82-2.79a1.26,1.26,0,0,1,1.26-2.17L208,65.2a1.26,1.26,0,0,1-.63,2.34Z" style="fill:#fff"/><path d="M204.63,77.73h-5.57a1.25,1.25,0,1,1,0-2.51h5.57a1.26,1.26,0,0,1,0,2.51Z" style="fill:#fff"/><path d="M202.56,90.7a1.26,1.26,0,0,1-.63-2.34l4.82-2.78A1.26,1.26,0,1,1,208,87.74l-4.82,2.79A1.24,1.24,0,0,1,202.56,90.7Z" style="fill:#fff"/><path d="M247.48,90.62a1.25,1.25,0,0,1-.63-.17L242,87.66a1.26,1.26,0,0,1,1.26-2.17l4.82,2.79a1.26,1.26,0,0,1-.63,2.34Z" style="fill:#fff"/><path d="M250.94,77.64h-5.57a1.26,1.26,0,0,1,0-2.51h5.57a1.26,1.26,0,0,1,0,2.51Z" style="fill:#fff"/><path d="M242.62,67.47a1.25,1.25,0,0,1-.63-2.34l4.82-2.78a1.26,1.26,0,1,1,1.25,2.17l-4.82,2.78A1.26,1.26,0,0,1,242.62,67.47Z" style="fill:#fff"/><path d="M235.14,60a1.26,1.26,0,0,1-1.09-1.88l2.78-4.82A1.26,1.26,0,1,1,239,54.58l-2.78,4.82A1.26,1.26,0,0,1,235.14,60Z" style="fill:#fff"/><path d="M225,126a43.69,43.69,0,0,1-4.69-.25.5.5,0,1,1,.11-1A42.74,42.74,0,0,0,225,125h.35a.5.5,0,0,1,0,1Zm5.33-.33a.5.5,0,0,1-.06-1,42,42,0,0,0,4.85-.9.5.5,0,1,1,.24,1,43,43,0,0,1-5,.92Zm-14.9-.75h-.11a42.94,42.94,0,0,1-4.85-1.42.5.5,0,0,1,.34-.94,41.85,41.85,0,0,0,4.74,1.39.5.5,0,0,1-.11,1ZM240,123.32a.5.5,0,0,1-.18-1,41.79,41.79,0,0,0,4.51-2,.5.5,0,0,1,.46.89,43,43,0,0,1-4.62,2.06A.5.5,0,0,1,240,123.32Zm-34-1.72a.5.5,0,0,1-.22-.05,43,43,0,0,1-4.38-2.52.5.5,0,0,1,.55-.84,42.06,42.06,0,0,0,4.28,2.46.5.5,0,0,1-.22.95Zm42.82-2.88a.5.5,0,0,1-.28-.91,42.23,42.23,0,0,0,3.91-3,.5.5,0,1,1,.65.76,43.46,43.46,0,0,1-4,3.08A.5.5,0,0,1,248.86,118.72Zm-51.16-2.6a.5.5,0,0,1-.32-.12,43.38,43.38,0,0,1-3.68-3.47.5.5,0,0,1,.73-.69,42.42,42.42,0,0,0,3.59,3.39.5.5,0,0,1-.32.88Zm58.7-3.94a.5.5,0,0,1-.37-.84,42.57,42.57,0,0,0,3.11-3.84.5.5,0,1,1,.81.58,43.44,43.44,0,0,1-3.18,3.93A.5.5,0,0,1,256.4,112.18Zm-65.54-3.32a.5.5,0,0,1-.4-.2,43.26,43.26,0,0,1-2.77-4.23.5.5,0,1,1,.87-.5,42.31,42.31,0,0,0,2.7,4.13.5.5,0,0,1-.4.8Zm71.36-4.78a.5.5,0,0,1-.44-.74,42,42,0,0,0,2.13-4.46.5.5,0,1,1,.93.38,43,43,0,0,1-2.18,4.56A.5.5,0,0,1,262.22,104.08Zm-76.32-3.86a.5.5,0,0,1-.46-.3,43.12,43.12,0,0,1-1.71-4.76.5.5,0,0,1,1-.28,42,42,0,0,0,1.67,4.65.5.5,0,0,1-.26.66A.49.49,0,0,1,185.89,100.22ZM266,94.84l-.13,0a.5.5,0,0,1-.35-.61,41.61,41.61,0,0,0,1-4.83.51.51,0,0,1,.57-.42.5.5,0,0,1,.42.57,42.73,42.73,0,0,1-1,4.94A.5.5,0,0,1,266,94.84Zm-82.89-4.19a.5.5,0,0,1-.49-.42,43.37,43.37,0,0,1-.54-5,.5.5,0,0,1,.47-.52.49.49,0,0,1,.52.47,42.21,42.21,0,0,0,.53,4.91.5.5,0,0,1-.41.58ZM267.48,85h0a.5.5,0,0,1-.48-.52q0-.71,0-1.42c0-1.17,0-2.36-.15-3.52a.5.5,0,0,1,.46-.54.51.51,0,0,1,.54.46c.1,1.19.15,2.4.15,3.6q0,.73,0,1.45A.5.5,0,0,1,267.48,85Zm-85-1.43a.5.5,0,0,1-.5-.5,43.59,43.59,0,0,1,.29-5,.5.5,0,1,1,1,.12A42.65,42.65,0,0,0,183,83,.5.5,0,0,1,182.5,83.54ZM266.65,75a.5.5,0,0,1-.49-.4,41.86,41.86,0,0,0-1.27-4.77.5.5,0,1,1,.95-.31,42.82,42.82,0,0,1,1.3,4.89.5.5,0,0,1-.39.59Zm-83-1.4h-.12a.5.5,0,0,1-.37-.6,43.12,43.12,0,0,1,1.46-4.84.5.5,0,1,1,.94.35,42,42,0,0,0-1.43,4.73A.5.5,0,0,1,183.66,73.64Zm79.86-8.07a.5.5,0,0,1-.45-.29,41.78,41.78,0,0,0-2.35-4.34.5.5,0,1,1,.85-.53A42.84,42.84,0,0,1,264,64.86a.5.5,0,0,1-.45.71Zm-76.41-1.29a.5.5,0,0,1-.45-.73,43.1,43.1,0,0,1,2.56-4.36.5.5,0,0,1,.83.56,42.25,42.25,0,0,0-2.5,4.26A.5.5,0,0,1,187.11,64.27Zm71.16-7.18a.5.5,0,0,1-.39-.19,41.91,41.91,0,0,0-3.29-3.68.5.5,0,1,1,.71-.71,43.2,43.2,0,0,1,3.37,3.76.5.5,0,0,1-.39.81ZM192.65,56a.49.49,0,0,1-.32-.12.5.5,0,0,1-.06-.71,43.47,43.47,0,0,1,3.5-3.65.5.5,0,1,1,.68.73A42.3,42.3,0,0,0,193,55.8.5.5,0,0,1,192.65,56Zm58.54-5.91a.5.5,0,0,1-.31-.11,42.25,42.25,0,0,0-4.06-2.81.5.5,0,0,1,.52-.85,43.36,43.36,0,0,1,4.16,2.88.5.5,0,0,1-.31.89ZM200,49.2a.5.5,0,0,1-.29-.9,43.18,43.18,0,0,1,4.25-2.73.5.5,0,1,1,.49.87,42.12,42.12,0,0,0-4.15,2.67A.5.5,0,0,1,200,49.2Zm42.7-4.32a.5.5,0,0,1-.21,0A42.06,42.06,0,0,0,237.85,43a.5.5,0,0,1,.31-1,43.11,43.11,0,0,1,4.72,1.83.5.5,0,0,1-.21,1Zm-34-.57a.5.5,0,0,1-.19-1,42.79,42.79,0,0,1,4.77-1.67.5.5,0,0,1,.27,1,41.8,41.8,0,0,0-4.66,1.63A.5.5,0,0,1,208.65,44.3Zm24.51-2.48h-.1a42.18,42.18,0,0,0-4.89-.66.5.5,0,1,1,.07-1,43.11,43.11,0,0,1,5,.67.5.5,0,0,1-.09,1Zm-14.92-.25a.5.5,0,0,1-.08-1,43.41,43.41,0,0,1,5-.5.51.51,0,0,1,.52.48.5.5,0,0,1-.48.52,42.48,42.48,0,0,0-4.91.49Z" style="fill:#4ebecc"/><path d="M388,287.26a.5.5,0,0,1,0-1,42.24,42.24,0,0,0,4.91-.49.5.5,0,0,1,.16,1,43.62,43.62,0,0,1-5,.5Zm-5-.08h0a43.22,43.22,0,0,1-5-.67.5.5,0,0,1,.19-1,41.69,41.69,0,0,0,4.89.66.5.5,0,0,1,0,1Zm14.84-1.49a.5.5,0,0,1-.14-1,41.67,41.67,0,0,0,4.66-1.63.5.5,0,1,1,.38.92,42.91,42.91,0,0,1-4.77,1.67Zm-24.64-.42-.15,0a43,43,0,0,1-4.72-1.83.5.5,0,1,1,.42-.91,41.82,41.82,0,0,0,4.61,1.79.5.5,0,0,1-.15,1Zm33.84-3.42a.5.5,0,0,1-.25-.94,42,42,0,0,0,4.15-2.67.5.5,0,0,1,.59.81,43.31,43.31,0,0,1-4.25,2.73A.49.49,0,0,1,407.09,281.85Zm-42.91-.73a.49.49,0,0,1-.26-.07,43.23,43.23,0,0,1-4.16-2.88.5.5,0,0,1,.62-.79,42.11,42.11,0,0,0,4.06,2.81.5.5,0,0,1-.26.93Zm51-5.15a.5.5,0,0,1-.34-.87,42.49,42.49,0,0,0,3.42-3.56.5.5,0,0,1,.76.65,43.3,43.3,0,0,1-3.5,3.65A.49.49,0,0,1,415.15,276Zm-58.82-1a.5.5,0,0,1-.35-.14,43.42,43.42,0,0,1-3.37-3.76.5.5,0,0,1,.78-.62,42.16,42.16,0,0,0,3.29,3.68.5.5,0,0,1-.35.86Zm65.3-6.59a.5.5,0,0,1-.42-.78,42.1,42.1,0,0,0,2.5-4.26.5.5,0,1,1,.89.45,42.76,42.76,0,0,1-2.56,4.36A.5.5,0,0,1,421.62,268.38Zm-71.51-1.21a.5.5,0,0,1-.42-.24,43.06,43.06,0,0,1-2.41-4.44.5.5,0,1,1,.91-.42,41.92,41.92,0,0,0,2.35,4.34.5.5,0,0,1-.42.76Zm76-7.68a.49.49,0,0,1-.17,0,.5.5,0,0,1-.3-.64,41.83,41.83,0,0,0,1.43-4.73.5.5,0,0,1,1,.23,42.58,42.58,0,0,1-1.46,4.84A.5.5,0,0,1,426.15,259.49Zm-80.26-1.36a.5.5,0,0,1-.47-.34,42.85,42.85,0,0,1-1.3-4.89.5.5,0,0,1,1-.2,41.73,41.73,0,0,0,1.27,4.77.5.5,0,0,1-.32.63Zm82.58-8.35h-.06a.5.5,0,0,1-.44-.55,42.62,42.62,0,0,0,.29-4.93.5.5,0,0,1,1,0,43.94,43.94,0,0,1-.29,5A.5.5,0,0,1,428.47,249.79Zm-84.57-1.43a.5.5,0,0,1-.5-.46c-.1-1.19-.15-2.4-.15-3.6q0-.73,0-1.45a.5.5,0,0,1,.5-.48h0a.5.5,0,0,1,.48.52q0,.71,0,1.42c0,1.17,0,2.36.15,3.52a.5.5,0,0,1-.46.54Zm84.8-5.69a.5.5,0,0,1-.5-.48,42.14,42.14,0,0,0-.53-4.91.5.5,0,0,1,.41-.58.51.51,0,0,1,.58.41,43.3,43.3,0,0,1,.54,5,.5.5,0,0,1-.47.52Zm-84.47-4.28h-.08a.5.5,0,0,1-.42-.57,42.74,42.74,0,0,1,1-4.94.5.5,0,1,1,1,.27,41.6,41.6,0,0,0-1,4.83A.5.5,0,0,1,344.24,238.39ZM427,232.83a.5.5,0,0,1-.48-.36,41.89,41.89,0,0,0-1.67-4.65.5.5,0,1,1,.92-.39,42.64,42.64,0,0,1,1.71,4.76.5.5,0,0,1-.34.62Zm-80.17-4.06a.49.49,0,0,1-.19,0,.5.5,0,0,1-.27-.65,42.94,42.94,0,0,1,2.18-4.56.5.5,0,1,1,.88.48,41.9,41.9,0,0,0-2.13,4.46A.5.5,0,0,1,346.88,228.77Zm76.25-5.11a.5.5,0,0,1-.43-.25,42,42,0,0,0-2.71-4.13.5.5,0,0,1,.8-.6,43.12,43.12,0,0,1,2.77,4.23.5.5,0,0,1-.43.75ZM351.71,220a.5.5,0,0,1-.41-.79,43.44,43.44,0,0,1,3.18-3.93.5.5,0,1,1,.74.67,42.58,42.58,0,0,0-3.11,3.84A.5.5,0,0,1,351.71,220Zm65.48-4.39a.5.5,0,0,1-.36-.16,42.71,42.71,0,0,0-3.59-3.39.5.5,0,1,1,.64-.77,43.4,43.4,0,0,1,3.68,3.47.5.5,0,0,1-.36.84Zm-58.76-3a.5.5,0,0,1-.33-.88,43.52,43.52,0,0,1,4-3.08.5.5,0,0,1,.56.83,42.53,42.53,0,0,0-3.91,3A.5.5,0,0,1,358.43,212.67Zm51.11-3.43a.5.5,0,0,1-.27-.08A42.18,42.18,0,0,0,405,206.7a.5.5,0,0,1,.45-.89,43.12,43.12,0,0,1,4.38,2.52.5.5,0,0,1-.27.92Zm-42.87-2.18a.5.5,0,0,1-.23-.94,43,43,0,0,1,4.62-2.06.5.5,0,1,1,.35.94,41.79,41.79,0,0,0-4.51,2A.5.5,0,0,1,366.68,207.07Zm33.94-2.28a.5.5,0,0,1-.17,0,41.86,41.86,0,0,0-4.74-1.39.5.5,0,0,1,.22-1,42.93,42.93,0,0,1,4.85,1.42.5.5,0,0,1-.17,1ZM376,203.54a.5.5,0,0,1-.12-1,43,43,0,0,1,5-.92.51.51,0,0,1,.56.43.5.5,0,0,1-.43.56,42,42,0,0,0-4.85.9Zm14.89-1h-.05a42.69,42.69,0,0,0-4.59-.25h-.35a.5.5,0,0,1,0-1h.35a43.71,43.71,0,0,1,4.69.25.5.5,0,0,1-.05,1Z" style="fill:#4ebecc"/><path d="M65.53,287.26a.5.5,0,0,1,0-1,42.25,42.25,0,0,0,4.91-.49.5.5,0,0,1,.16,1,43.36,43.36,0,0,1-5,.5Zm-5-.08h0a43.33,43.33,0,0,1-5-.67.5.5,0,0,1,.19-1,41.77,41.77,0,0,0,4.89.66.5.5,0,0,1,0,1Zm14.84-1.49a.5.5,0,0,1-.14-1,41.74,41.74,0,0,0,4.66-1.63.5.5,0,0,1,.38.92,42.77,42.77,0,0,1-4.77,1.67Zm-24.64-.42-.15,0a42.42,42.42,0,0,1-4.71-1.83.5.5,0,0,1,.42-.91,41.94,41.94,0,0,0,4.6,1.79.5.5,0,0,1-.15,1Zm33.84-3.42a.5.5,0,0,1-.25-.94,42.16,42.16,0,0,0,4.15-2.67.5.5,0,0,1,.59.81,42.93,42.93,0,0,1-4.25,2.74A.49.49,0,0,1,84.58,281.85Zm-42.91-.73a.5.5,0,0,1-.26-.07,43.16,43.16,0,0,1-4.16-2.88.5.5,0,1,1,.62-.79,42.09,42.09,0,0,0,4.06,2.81.5.5,0,0,1-.26.93Zm51-5.15a.5.5,0,0,1-.34-.87,42.19,42.19,0,0,0,3.42-3.56.5.5,0,1,1,.76.65,43.32,43.32,0,0,1-3.5,3.65A.5.5,0,0,1,92.63,276Zm-58.82-1a.49.49,0,0,1-.35-.15,43.26,43.26,0,0,1-3.37-3.76.5.5,0,1,1,.78-.62,42.51,42.51,0,0,0,3.3,3.68.5.5,0,0,1-.35.85Zm65.29-6.59a.5.5,0,0,1-.41-.78,41.94,41.94,0,0,0,2.5-4.26.5.5,0,0,1,.89.45,42.84,42.84,0,0,1-2.56,4.36A.5.5,0,0,1,99.11,268.38ZM27.6,267.17a.5.5,0,0,1-.43-.24,43.28,43.28,0,0,1-2.41-4.44.5.5,0,1,1,.91-.42A42.22,42.22,0,0,0,28,266.4a.5.5,0,0,1-.42.76Zm76-7.68a.49.49,0,0,1-.17,0,.5.5,0,0,1-.3-.64,41.93,41.93,0,0,0,1.43-4.73.5.5,0,0,1,1,.23,43.07,43.07,0,0,1-1.46,4.84A.5.5,0,0,1,103.64,259.49Zm-80.26-1.36a.5.5,0,0,1-.47-.34,42.71,42.71,0,0,1-1.3-4.89.5.5,0,0,1,1-.2,42,42,0,0,0,1.27,4.77.5.5,0,0,1-.32.63ZM106,249.79h-.06a.5.5,0,0,1-.44-.55,42.66,42.66,0,0,0,.29-4.93.5.5,0,0,1,1,0,43.57,43.57,0,0,1-.29,5A.5.5,0,0,1,106,249.79Zm-84.56-1.43a.5.5,0,0,1-.5-.46c-.1-1.19-.15-2.4-.15-3.6,0-.49,0-1,0-1.45a.5.5,0,0,1,1,0q0,.71,0,1.42c0,1.17,0,2.36.15,3.52a.5.5,0,0,1-.46.54Zm84.8-5.69a.5.5,0,0,1-.5-.48,42.45,42.45,0,0,0-.53-4.91.5.5,0,1,1,1-.17,43.38,43.38,0,0,1,.54,5,.5.5,0,0,1-.47.52Zm-84.47-4.28h-.08a.5.5,0,0,1-.42-.57,42.89,42.89,0,0,1,1-4.94.5.5,0,1,1,1,.26,42,42,0,0,0-1,4.83A.5.5,0,0,1,21.73,238.39Zm82.81-5.56a.5.5,0,0,1-.48-.36,42,42,0,0,0-1.67-4.65.5.5,0,0,1,.92-.39,43.11,43.11,0,0,1,1.71,4.76.5.5,0,0,1-.34.62Zm-80.17-4.06a.5.5,0,0,1-.46-.69,42.92,42.92,0,0,1,2.18-4.56A.5.5,0,0,1,27,224a41.88,41.88,0,0,0-2.13,4.46A.5.5,0,0,1,24.37,228.77Zm76.25-5.11a.5.5,0,0,1-.43-.25,42.14,42.14,0,0,0-2.71-4.13.5.5,0,0,1,.8-.6,43.26,43.26,0,0,1,2.77,4.23.5.5,0,0,1-.43.75ZM29.2,220a.5.5,0,0,1-.41-.79A43.46,43.46,0,0,1,32,215.32a.5.5,0,1,1,.74.67,42.42,42.42,0,0,0-3.11,3.84A.5.5,0,0,1,29.2,220Zm65.48-4.39a.5.5,0,0,1-.36-.16,42.27,42.27,0,0,0-3.59-3.39.5.5,0,1,1,.64-.77A43.4,43.4,0,0,1,95,214.81a.5.5,0,0,1-.36.84Zm-58.76-3a.5.5,0,0,1-.33-.88,43.43,43.43,0,0,1,4-3.08.5.5,0,1,1,.56.83,42.37,42.37,0,0,0-3.91,3A.5.5,0,0,1,35.92,212.67ZM87,209.24a.5.5,0,0,1-.27-.08,42.08,42.08,0,0,0-4.28-2.46.5.5,0,1,1,.45-.89,43.12,43.12,0,0,1,4.38,2.52.5.5,0,0,1-.27.92Zm-42.87-2.18a.5.5,0,0,1-.23-.94,42.91,42.91,0,0,1,4.61-2.06.5.5,0,1,1,.35.94,42,42,0,0,0-4.51,2A.5.5,0,0,1,44.17,207.07Zm33.94-2.28a.5.5,0,0,1-.17,0,41.77,41.77,0,0,0-4.74-1.39.5.5,0,1,1,.22-1,42.85,42.85,0,0,1,4.85,1.42.5.5,0,0,1-.17,1ZM53.5,203.54a.5.5,0,0,1-.12-1,43,43,0,0,1,5-.92.5.5,0,1,1,.12,1,42,42,0,0,0-4.85.9Zm14.88-1h-.05a42.71,42.71,0,0,0-4.59-.25h-.35a.5.5,0,0,1,0-1h.35a43.72,43.72,0,0,1,4.69.25.5.5,0,0,1-.05,1Z" style="fill:#4ebecc"/><path d="M339,173.13a43.33,43.33,0,0,1-4.9-.28.5.5,0,1,1,.11-1,42.44,42.44,0,0,0,4.78.27h.15a.5.5,0,0,1,0,1Zm5.13-.31a.5.5,0,0,1-.06-1,42.26,42.26,0,0,0,4.86-.88.5.5,0,1,1,.24,1,43.33,43.33,0,0,1-5,.9Zm-14.9-.82h-.11a43.12,43.12,0,0,1-4.84-1.44.5.5,0,1,1,.34-.94,42.18,42.18,0,0,0,4.73,1.41.5.5,0,0,1-.11,1Zm24.59-1.53a.5.5,0,0,1-.17-1,41.81,41.81,0,0,0,4.52-2,.5.5,0,0,1,.46.89,42.87,42.87,0,0,1-4.63,2A.49.49,0,0,1,353.86,170.47Zm-34-1.87a.5.5,0,0,1-.23-.05A42.85,42.85,0,0,1,315.3,166a.5.5,0,1,1,.55-.83,42,42,0,0,0,4.27,2.48.5.5,0,0,1-.23.95Zm42.85-2.68a.5.5,0,0,1-.28-.91,42.19,42.19,0,0,0,3.93-3,.5.5,0,1,1,.65.76,43.24,43.24,0,0,1-4,3.07A.5.5,0,0,1,362.74,165.91Zm-51.16-2.83a.5.5,0,0,1-.32-.12c-.91-.77-1.79-1.59-2.63-2.43q-.52-.52-1-1.06a.5.5,0,0,1,.73-.68q.49.52,1,1c.82.82,1.69,1.62,2.57,2.37a.5.5,0,0,1-.32.88Zm58.73-3.68a.5.5,0,0,1-.37-.84,42.3,42.3,0,0,0,3.13-3.82.5.5,0,0,1,.81.59,43.27,43.27,0,0,1-3.2,3.91A.5.5,0,0,1,370.3,159.4Zm-65.54-3.61a.5.5,0,0,1-.4-.2,43,43,0,0,1-2.75-4.24.5.5,0,0,1,.87-.49,42.13,42.13,0,0,0,2.69,4.14.5.5,0,0,1-.4.8Zm71.39-4.46a.5.5,0,0,1-.44-.74,42,42,0,0,0,2.15-4.45.5.5,0,1,1,.92.38,42.8,42.8,0,0,1-2.2,4.55A.5.5,0,0,1,376.15,151.33Zm-76.32-4.21a.5.5,0,0,1-.46-.31A42.88,42.88,0,0,1,297.7,142a.5.5,0,0,1,1-.28,42,42,0,0,0,1.64,4.66.5.5,0,0,1-.46.69Zm80.11-5-.13,0a.5.5,0,0,1-.35-.62,42.34,42.34,0,0,0,1-4.83.5.5,0,0,1,1,.15,43.44,43.44,0,0,1-1.07,4.94A.5.5,0,0,1,380,142.11Zm-82.87-4.58a.5.5,0,0,1-.49-.42,43,43,0,0,1-.52-5,.5.5,0,0,1,.48-.52.47.47,0,0,1,.52.48,42.25,42.25,0,0,0,.51,4.91.5.5,0,0,1-.41.57Zm84.41-5.27h0a.5.5,0,0,1-.48-.52q0-.8,0-1.6c0-1.1,0-2.23-.13-3.34a.5.5,0,0,1,.46-.54.52.52,0,0,1,.54.46c.09,1.14.14,2.28.14,3.42q0,.82,0,1.64A.5.5,0,0,1,381.49,132.25Zm-84.86-4.69h0a.5.5,0,0,1-.46-.53,43.66,43.66,0,0,1,.66-5,.5.5,0,0,1,1,.19,42.33,42.33,0,0,0-.64,4.9A.5.5,0,0,1,296.64,127.56Zm84.07-5.25a.5.5,0,0,1-.49-.4,42.2,42.2,0,0,0-1.25-4.78.5.5,0,1,1,1-.31,43.08,43.08,0,0,1,1.28,4.89.5.5,0,0,1-.39.59Zm-82.19-4.54-.15,0a.5.5,0,0,1-.33-.63,42.85,42.85,0,0,1,1.81-4.72.5.5,0,1,1,.91.41,42,42,0,0,0-1.77,4.61A.5.5,0,0,1,298.51,117.76Zm79.11-4.95a.5.5,0,0,1-.45-.29,42.06,42.06,0,0,0-2.33-4.35.5.5,0,1,1,.85-.52,42.84,42.84,0,0,1,2.39,4.46.5.5,0,0,1-.45.71Zm-75-4.14a.5.5,0,0,1-.43-.76,42.93,42.93,0,0,1,2.86-4.16.5.5,0,1,1,.79.61,42,42,0,0,0-2.8,4.07A.5.5,0,0,1,302.62,108.67Zm69.78-4.36a.5.5,0,0,1-.39-.19,42.72,42.72,0,0,0-3.28-3.69.5.5,0,0,1,.71-.71,43.72,43.72,0,0,1,3.36,3.78.5.5,0,0,1-.39.81Zm-63.65-3.51a.5.5,0,0,1-.36-.85l.22-.23a43.42,43.42,0,0,1,3.53-3.17.5.5,0,0,1,.63.78,42.51,42.51,0,0,0-3.45,3.09l-.22.22A.5.5,0,0,1,308.75,100.8Zm58.81-1.67a.5.5,0,0,1-.34-.13,42.31,42.31,0,0,0-3.84-3.1.5.5,0,1,1,.58-.81,43.19,43.19,0,0,1,3.94,3.17.5.5,0,0,1-.34.87Zm-51-4.58a.5.5,0,0,1-.26-.92,42.77,42.77,0,0,1,4.44-2.42.5.5,0,0,1,.43.9,41.92,41.92,0,0,0-4.34,2.36A.49.49,0,0,1,316.53,94.56Zm42.91-1.21a.49.49,0,0,1-.24-.06,41.74,41.74,0,0,0-4.46-2.11.5.5,0,1,1,.37-.93,42.7,42.7,0,0,1,4.57,2.16.5.5,0,0,1-.24.94Zm-33.88-3a.5.5,0,0,1-.16-1A43.13,43.13,0,0,1,330.29,88a.51.51,0,0,1,.59.39.5.5,0,0,1-.39.59,41.93,41.93,0,0,0-4.77,1.28Zm24.63-.69-.13,0a42.25,42.25,0,0,0-4.83-1,.5.5,0,0,1-.42-.57.51.51,0,0,1,.57-.42,43.13,43.13,0,0,1,4.95,1,.5.5,0,0,1-.13,1Zm-14.86-1.33a.5.5,0,0,1,0-1,43.87,43.87,0,0,1,5.05-.14.5.5,0,0,1,0,1h0a42.2,42.2,0,0,0-4.94.14Z" style="fill:#4ebecc"/><path d="M111,173.13h-.15a.5.5,0,0,1,0-1H111a42.42,42.42,0,0,0,4.78-.27.5.5,0,1,1,.11,1A43.31,43.31,0,0,1,111,173.13Zm-5.14-.31h-.06a43.41,43.41,0,0,1-5-.9.5.5,0,0,1,.24-1,42.32,42.32,0,0,0,4.86.88.5.5,0,0,1-.06,1Zm14.9-.82a.5.5,0,0,1-.11-1,42.07,42.07,0,0,0,4.73-1.41.5.5,0,0,1,.34.94,43.05,43.05,0,0,1-4.84,1.44Zm-24.59-1.53a.5.5,0,0,1-.17,0,43,43,0,0,1-4.63-2,.5.5,0,1,1,.46-.89,41.78,41.78,0,0,0,4.52,2,.5.5,0,0,1-.17,1Zm34-1.87a.5.5,0,0,1-.23-.95,41.8,41.8,0,0,0,4.27-2.48.5.5,0,1,1,.55.83,43,43,0,0,1-4.37,2.54A.5.5,0,0,1,130.11,168.59Zm-42.85-2.68a.5.5,0,0,1-.28-.09,43.09,43.09,0,0,1-4-3.07.5.5,0,0,1,.65-.76,42,42,0,0,0,3.93,3,.5.5,0,0,1-.28.91Zm51.16-2.83a.5.5,0,0,1-.32-.88c.88-.75,1.75-1.55,2.58-2.37q.51-.51,1-1a.5.5,0,0,1,.73.68q-.5.54-1,1.06c-.84.84-1.73,1.66-2.64,2.43A.5.5,0,0,1,138.42,163.08ZM79.7,159.4a.5.5,0,0,1-.37-.16,43.3,43.3,0,0,1-3.2-3.91.5.5,0,1,1,.81-.59,42.42,42.42,0,0,0,3.13,3.82.5.5,0,0,1-.37.84Zm65.54-3.61a.5.5,0,0,1-.4-.8,41.79,41.79,0,0,0,2.69-4.14.5.5,0,1,1,.87.49,43,43,0,0,1-2.75,4.24A.5.5,0,0,1,145.23,155.79Zm-71.39-4.46a.5.5,0,0,1-.44-.26,42.87,42.87,0,0,1-2.2-4.55.5.5,0,1,1,.92-.38,41.76,41.76,0,0,0,2.15,4.45.5.5,0,0,1-.44.74Zm76.32-4.21a.5.5,0,0,1-.46-.69,41.8,41.8,0,0,0,1.64-4.66.5.5,0,1,1,1,.28,42.9,42.9,0,0,1-1.68,4.77A.5.5,0,0,1,150.16,147.11Zm-80.11-5a.5.5,0,0,1-.48-.37,43.08,43.08,0,0,1-1.07-4.94.5.5,0,1,1,1-.15,42.14,42.14,0,0,0,1,4.82.5.5,0,0,1-.35.62Zm82.87-4.58h-.08a.5.5,0,0,1-.41-.57,42.35,42.35,0,0,0,.51-4.91.5.5,0,0,1,1,0,43.47,43.47,0,0,1-.52,5A.5.5,0,0,1,152.92,137.52ZM68.5,132.25a.5.5,0,0,1-.5-.48q0-.82,0-1.64c0-1.14,0-2.29.13-3.42a.5.5,0,1,1,1,.08C69,127.9,69,129,69,130.13q0,.8,0,1.6a.5.5,0,0,1-.48.52Zm84.86-4.69a.5.5,0,0,1-.5-.46,42.38,42.38,0,0,0-.64-4.9.5.5,0,1,1,1-.19,43.53,43.53,0,0,1,.66,5,.5.5,0,0,1-.46.53ZM69.29,122.3h-.1a.5.5,0,0,1-.39-.59,42.91,42.91,0,0,1,1.28-4.89.5.5,0,0,1,1,.31,41.8,41.8,0,0,0-1.25,4.78A.5.5,0,0,1,69.29,122.3Zm82.19-4.54a.5.5,0,0,1-.48-.35,42,42,0,0,0-1.77-4.61.5.5,0,1,1,.91-.41,43,43,0,0,1,1.81,4.72.5.5,0,0,1-.33.63Zm-79.11-4.95a.5.5,0,0,1-.45-.71,42.8,42.8,0,0,1,2.39-4.46.5.5,0,1,1,.85.52,41.75,41.75,0,0,0-2.33,4.35A.5.5,0,0,1,72.38,112.81Zm75-4.14a.5.5,0,0,1-.43-.24,42.16,42.16,0,0,0-2.8-4.07.5.5,0,1,1,.79-.61,43,43,0,0,1,2.86,4.16.5.5,0,0,1-.43.76ZM77.6,104.31a.5.5,0,0,1-.39-.81,43.55,43.55,0,0,1,3.36-3.78.5.5,0,0,1,.71.71A42.65,42.65,0,0,0,78,104.12.5.5,0,0,1,77.6,104.31Zm63.65-3.51a.5.5,0,0,1-.36-.15l-.22-.22a42.55,42.55,0,0,0-3.44-3.09.5.5,0,0,1,.63-.78,43.52,43.52,0,0,1,3.53,3.16l.23.23a.5.5,0,0,1-.36.85ZM82.43,99.14a.5.5,0,0,1-.34-.87A43.43,43.43,0,0,1,86,95.09a.5.5,0,1,1,.58.81A42.57,42.57,0,0,0,82.77,99,.5.5,0,0,1,82.43,99.14Zm51-4.58a.5.5,0,0,1-.26-.08,41.85,41.85,0,0,0-4.34-2.36.5.5,0,1,1,.43-.9,43,43,0,0,1,4.44,2.42.5.5,0,0,1-.27.92ZM90.55,93.34a.5.5,0,0,1-.24-.94,42.89,42.89,0,0,1,4.57-2.16.5.5,0,0,1,.37.93,41.84,41.84,0,0,0-4.46,2.11A.49.49,0,0,1,90.55,93.34Zm33.88-3-.16,0A42.05,42.05,0,0,0,119.51,89a.5.5,0,0,1,.2-1,43.08,43.08,0,0,1,4.88,1.31.5.5,0,0,1-.16,1ZM99.8,89.62a.5.5,0,0,1-.13-1,43.21,43.21,0,0,1,4.95-1,.5.5,0,0,1,.15,1,42.19,42.19,0,0,0-4.83,1Zm14.86-1.33h0a42.27,42.27,0,0,0-4.94-.14.52.52,0,0,1-.51-.48.5.5,0,0,1,.48-.52,43.53,43.53,0,0,1,5.05.14.5.5,0,0,1,0,1Z" style="fill:#4ebecc"/><path d="M331,366.31a.5.5,0,0,1-.33-.88c1.25-1.09,2.5-2.22,3.7-3.34a.5.5,0,1,1,.68.73c-1.21,1.13-2.47,2.26-3.73,3.36A.5.5,0,0,1,331,366.31Zm7.32-6.81a.5.5,0,0,1-.35-.86c1.17-1.16,2.35-2.35,3.49-3.56a.5.5,0,1,1,.72.69c-1.15,1.21-2.33,2.41-3.51,3.58A.5.5,0,0,1,338.34,359.5Zm6.89-7.24a.5.5,0,0,1-.37-.83c1.09-1.22,2.19-2.49,3.27-3.77a.5.5,0,0,1,.77.64c-1.08,1.29-2.19,2.56-3.29,3.79A.5.5,0,0,1,345.23,352.26Zm6.43-7.66a.5.5,0,0,1-.39-.81c1-1.29,2-2.62,3-4a.5.5,0,1,1,.8.6c-1,1.34-2,2.68-3,4A.5.5,0,0,1,351.67,344.6Zm5.95-8a.5.5,0,0,1-.41-.79c.94-1.36,1.88-2.75,2.78-4.14a.5.5,0,1,1,.84.54c-.9,1.39-1.84,2.8-2.79,4.17A.5.5,0,0,1,357.62,336.56Zm5.44-8.39a.5.5,0,0,1-.43-.76c.86-1.42,1.7-2.86,2.51-4.3a.5.5,0,0,1,.87.49c-.82,1.45-1.67,2.91-2.53,4.33A.5.5,0,0,1,363.06,328.17Zm4.91-8.71a.51.51,0,0,1-.23-.06.5.5,0,0,1-.21-.67c.77-1.47,1.52-3,2.24-4.45a.5.5,0,0,1,.9.44c-.72,1.5-1.48,3-2.26,4.48A.5.5,0,0,1,368,319.46Zm4.36-9a.49.49,0,0,1-.2,0,.5.5,0,0,1-.25-.66c.67-1.51,1.33-3.05,2-4.58a.5.5,0,1,1,.93.38c-.63,1.54-1.3,3.09-2,4.61A.5.5,0,0,1,372.32,310.46Zm3.79-9.25a.5.5,0,0,1-.47-.67c.58-1.54,1.14-3.12,1.67-4.7a.5.5,0,1,1,.95.32c-.54,1.59-1.1,3.18-1.68,4.73A.5.5,0,0,1,376.11,301.21Zm3.21-9.48-.15,0a.5.5,0,0,1-.33-.62c.48-1.59.95-3.2,1.38-4.79a.5.5,0,0,1,1,.26c-.43,1.6-.9,3.22-1.38,4.82A.5.5,0,0,1,379.32,291.73Z" style="fill:#4ebecc"/><path d="M380.66,202.55a.5.5,0,0,1-.48-.37l-.35-1.26a.5.5,0,1,1,1-.27l.35,1.27a.5.5,0,0,1-.35.61Zm-1.77-6.06a.5.5,0,0,1-.48-.35c-.5-1.58-1-3.18-1.57-4.73a.5.5,0,0,1,.95-.33c.54,1.57,1.07,3.17,1.57,4.76a.5.5,0,0,1-.33.63ZM375.61,187a.5.5,0,0,1-.47-.32c-.6-1.56-1.22-3.11-1.86-4.62a.5.5,0,0,1,.92-.39c.64,1.52,1.27,3.09,1.87,4.65a.5.5,0,0,1-.29.65A.51.51,0,0,1,375.61,187Zm-3.87-9.22a.5.5,0,0,1-.46-.29c-.68-1.5-1.41-3-2.14-4.5a.5.5,0,0,1,.9-.44c.74,1.5,1.47,3,2.16,4.53a.5.5,0,0,1-.46.71Zm-4.44-9a.5.5,0,0,1-.44-.26c-.78-1.46-1.6-2.93-2.42-4.36a.5.5,0,0,1,.87-.5c.83,1.44,1.64,2.91,2.43,4.39a.5.5,0,0,1-.44.74Z" style="fill:#4ebecc"/><path d="M305.3,104.93a.5.5,0,0,1-.25-.07l-1.25-.71a.5.5,0,0,1,.49-.87l1.25.71a.5.5,0,0,1-.25.93Zm-5.64-3.1a.49.49,0,0,1-.23-.06c-1.48-.77-3-1.53-4.45-2.24a.5.5,0,1,1,.44-.9c1.49.72,3,1.48,4.48,2.26a.5.5,0,0,1-.23.94Zm-9-4.36a.5.5,0,0,1-.2,0c-1.52-.68-3.06-1.34-4.58-2a.5.5,0,0,1,.38-.93c1.53.63,3.08,1.29,4.61,2a.5.5,0,0,1-.2,1Zm-9.25-3.79a.5.5,0,0,1-.17,0c-1.55-.58-3.13-1.14-4.7-1.67a.5.5,0,1,1,.32-.95c1.58.53,3.17,1.1,4.73,1.68a.5.5,0,0,1-.17,1Zm-9.47-3.2-.15,0c-1.58-.48-3.19-.94-4.79-1.37a.5.5,0,0,1,.26-1c1.61.44,3.24.9,4.82,1.38a.5.5,0,0,1-.15,1Z" style="fill:#4ebecc"/><path d="M144.71,104.92a.5.5,0,0,1-.25-.93c1.44-.83,2.91-1.65,4.38-2.43a.5.5,0,1,1,.47.88c-1.46.78-2.93,1.6-4.36,2.42A.5.5,0,0,1,144.71,104.92Zm8.82-4.71a.5.5,0,0,1-.22-.95c1.49-.74,3-1.46,4.53-2.16a.5.5,0,0,1,.42.91c-1.51.69-3,1.41-4.5,2.14A.5.5,0,0,1,153.52,100.21Zm9.09-4.16a.5.5,0,0,1-.19-1c1.53-.64,3.1-1.27,4.65-1.87a.5.5,0,1,1,.36.93c-1.55.59-3.1,1.22-4.62,1.86A.49.49,0,0,1,162.62,96.05ZM172,92.47a.5.5,0,0,1-.16-1c1.57-.55,3.17-1.08,4.76-1.58a.5.5,0,0,1,.3,1c-1.58.5-3.18,1-4.73,1.57Zm9.54-3a.5.5,0,0,1-.13-1l1.38-.38a.5.5,0,0,1,.26,1l-1.38.38Z" style="fill:#4ebecc"/><path d="M69.3,202.67l-.13,0a.5.5,0,0,1-.35-.61c.43-1.61.9-3.23,1.38-4.82a.5.5,0,0,1,1,.29c-.48,1.58-.94,3.19-1.37,4.79A.5.5,0,0,1,69.3,202.67Zm2.91-9.57-.16,0a.5.5,0,0,1-.31-.63c.53-1.58,1.1-3.17,1.68-4.73a.5.5,0,1,1,.94.35c-.58,1.54-1.14,3.13-1.67,4.7A.5.5,0,0,1,72.21,193.11Zm3.5-9.37a.5.5,0,0,1-.46-.69c.63-1.53,1.29-3.08,2-4.61a.5.5,0,1,1,.91.41c-.68,1.52-1.34,3.06-2,4.58A.5.5,0,0,1,75.71,183.74Zm4.08-9.13a.5.5,0,0,1-.45-.72c.73-1.51,1.49-3,2.26-4.48a.5.5,0,1,1,.89.46c-.76,1.46-1.52,3-2.24,4.45A.5.5,0,0,1,79.78,174.61Zm4.64-8.86A.5.5,0,0,1,84,165l.71-1.25a.5.5,0,1,1,.87.5l-.71,1.24A.5.5,0,0,1,84.42,165.75Z" style="fill:#4ebecc"/><path d="M119,366.34a.5.5,0,0,1-.33-.12c-1.26-1.1-2.51-2.23-3.73-3.36a.5.5,0,1,1,.68-.73c1.21,1.12,2.45,2.25,3.7,3.33a.5.5,0,0,1-.33.88Zm-7.33-6.8a.5.5,0,0,1-.35-.14c-1.18-1.17-2.37-2.37-3.51-3.58a.5.5,0,0,1,.72-.69c1.14,1.2,2.31,2.4,3.49,3.56a.5.5,0,0,1-.35.86Zm-6.89-7.24a.5.5,0,0,1-.37-.17c-1.11-1.24-2.22-2.52-3.29-3.79a.5.5,0,1,1,.77-.64c1.06,1.26,2.16,2.53,3.27,3.76a.5.5,0,0,1,0,.71A.49.49,0,0,1,104.8,352.29Zm-6.43-7.65a.5.5,0,0,1-.39-.19c-1-1.31-2.06-2.65-3-4a.5.5,0,1,1,.8-.6c1,1.33,2,2.66,3,4a.5.5,0,0,1-.39.81Zm-6-8a.5.5,0,0,1-.41-.21c-1-1.37-1.89-2.77-2.79-4.16a.5.5,0,1,1,.84-.54c.9,1.39,1.83,2.78,2.78,4.14a.5.5,0,0,1-.41.79ZM87,328.22a.5.5,0,0,1-.43-.24c-.87-1.43-1.72-2.89-2.53-4.33a.5.5,0,1,1,.87-.49c.81,1.43,1.65,2.88,2.51,4.3a.5.5,0,0,1-.43.76Zm-4.91-8.71a.5.5,0,0,1-.44-.27c-.77-1.47-1.53-3-2.26-4.48a.5.5,0,1,1,.9-.44c.72,1.49,1.48,3,2.24,4.45a.5.5,0,0,1-.44.73Zm-4.36-9a.5.5,0,0,1-.46-.3c-.68-1.53-1.35-3.08-2-4.61a.5.5,0,1,1,.92-.38c.62,1.52,1.28,3.06,2,4.58a.5.5,0,0,1-.25.66A.49.49,0,0,1,77.7,310.52Zm-3.79-9.25a.5.5,0,0,1-.47-.33c-.58-1.55-1.15-3.14-1.68-4.72a.5.5,0,1,1,.95-.32c.53,1.57,1.09,3.15,1.67,4.69a.5.5,0,0,1-.47.67Zm-3.21-9.47a.5.5,0,0,1-.48-.35c-.49-1.6-1-3.22-1.38-4.82a.5.5,0,0,1,1-.26c.43,1.59.89,3.2,1.38,4.79a.5.5,0,0,1-.33.62Z" style="fill:#4ebecc"/><path d="M136.13,113.3c0-1.23-.57-1.34-1.22-.3-1.19,1.92-3.09,4.61-4.47,4.73-2.27.2-6.79-3.59-7-5.86-.12-1.38,2.2-3.72,3.89-5.23.91-.81.71-1.33-.5-1.15-2.62.39-6.79,1.21-7.93,2.56-1.69,2-1.17,10.28-1.17,10.28l-19,19c-1.58.18-8.3,1-9.79,2.8-1.13,1.35-1.21,5.6-1.14,8.25,0,1.22.57,1.34,1.22.29,1.19-1.92,3.09-4.61,4.47-4.73,2.27-.2,6.78,3.59,7,5.86.12,1.38-2.2,3.72-3.89,5.23-.91.81-.71,1.33.5,1.15,2.62-.39,6.79-1.21,7.93-2.56,1.5-1.78,1.26-8.45,1.19-10l19.31-19.31c2.06-.25,8-1.1,9.42-2.76C136.12,120.2,136.2,116,136.13,113.3Z" style="fill:#fff"/><rect x="98.99" y="128.34" width="26" height="5.28" rx="1.11" ry="1.11" transform="translate(-59.82 117.55) rotate(-45)" style="fill:#d9d9d9"/><ellipse cx="88.97" cy="108.95" rx="3.97" ry="2.14" transform="translate(-50.98 94.84) rotate(-45.01)" style="fill:#b4373c"/><path d="M86.33,115.07a2.46,2.46,0,0,1,0-3.47l5.28-5.28a2.46,2.46,0,0,1,3.47,0l16.7,16.7a2.46,2.46,0,0,1,0,3.47l-5.28,5.28a2.46,2.46,0,0,1-3.48,0Z" style="fill:#f04950"/><path d="M111.67,129.52l-2.13,2.14c-1,1-2.07,1.41-2.47,1l-.73-.73,5.61-5.61.73.73C113.09,127.45,112.63,128.56,111.67,129.52Z" style="fill:#b4373c"/><path d="M91.57,111.55a.73.73,0,0,1,1,0l13.94,13.94a.74.74,0,0,1-1,1L91.57,112.59A.73.73,0,0,1,91.57,111.55Z" style="fill:#b4373c"/><path d="M88.76,114.36a.74.74,0,0,1,1,0l13.94,13.94a.74.74,0,0,1-1,1L88.76,115.4A.74.74,0,0,1,88.76,114.36Z" style="fill:#b4373c"/><path d="M94.37,108.75a.74.74,0,0,1,1,0l13.94,13.94a.74.74,0,1,1-1,1L94.37,109.79A.74.74,0,0,1,94.37,108.75Z" style="fill:#b4373c"/><polygon points="134.07 156.19 136.21 154.05 132.75 148.51 129.3 147.14 111.67 129.52 109.54 131.66 127.16 149.28 128.53 152.73 134.07 156.19" style="fill:#f2f2f2"/><path d="M86.53,254.48l-10.7-6.18a2.06,2.06,0,0,0-2.81.75l-2.13,3.69c-1.18,2-4.06,2.43-6.24.62s-3.79-3.19-5.46-4.86-3.07-3.3-4.86-5.46S52.92,238,55,236.8l3.69-2.13a2.05,2.05,0,0,0,.75-2.81l-6.18-10.7a2.32,2.32,0,0,0-2.91-.95c-3,1.39-8.62,4.24-9.51,6.54-2.5,6.45,5.78,17.86,14,26.1s19.65,16.52,26.1,14c2.3-.89,5.16-6.51,6.54-9.51A2.32,2.32,0,0,0,86.53,254.48Z" style="fill:#3d5b75"/><rect x="309.15" y="111.77" width="59.75" height="36.72" style="fill:#d9d9d9"/><polygon points="309.15 148.49 339.02 123.74 368.9 148.49 309.15 148.49" style="fill:#f2f2f2"/><polygon points="309.15 111.77 339.02 136.52 368.9 111.77 309.15 111.77" style="fill:#fff"/><path d="M419,249.3a3.92,3.92,0,0,1,3.45-3.89,16.12,16.12,0,0,0-1.86-4.48,3.92,3.92,0,0,1-5.51-5.51,16.11,16.11,0,0,0-4.48-1.86,3.92,3.92,0,0,1-7.79,0,16.1,16.1,0,0,0-4.48,1.86,3.92,3.92,0,0,1-5.51,5.51,16.09,16.09,0,0,0-1.86,4.48,3.92,3.92,0,0,1,0,7.79,16.08,16.08,0,0,0,1.86,4.48,3.92,3.92,0,0,1,5.51,5.51,16.13,16.13,0,0,0,4.48,1.86,3.92,3.92,0,0,1,7.79,0,16.14,16.14,0,0,0,4.48-1.86,3.92,3.92,0,0,1,5.51-5.51,16.14,16.14,0,0,0,1.86-4.48A3.92,3.92,0,0,1,419,249.3Zm-12.29,6.43a6.43,6.43,0,1,1,6.43-6.43A6.43,6.43,0,0,1,406.74,255.73Z" style="fill:#275f66"/><path d="M386.51,242.82a5.1,5.1,0,0,1,4.49-5.07,21,21,0,0,0-2.42-5.83,5.1,5.1,0,0,1-7.16-7.16,21,21,0,0,0-5.83-2.42,5.1,5.1,0,0,1-10.13,0,21,21,0,0,0-5.83,2.42,5.1,5.1,0,0,1-7.16,7.16,20.9,20.9,0,0,0-2.42,5.83,5.1,5.1,0,0,1,0,10.13,21,21,0,0,0,2.42,5.84,5.1,5.1,0,0,1,7.16,7.16,21,21,0,0,0,5.83,2.42,5.1,5.1,0,0,1,10.13,0,21,21,0,0,0,5.83-2.42,5.1,5.1,0,0,1,7.16-7.16,21,21,0,0,0,2.42-5.84A5.1,5.1,0,0,1,386.51,242.82Zm-16,8.37a8.37,8.37,0,1,1,8.37-8.37A8.37,8.37,0,0,1,370.51,251.18Z" style="fill:#f04950"/></svg>