<svg xmlns="http://www.w3.org/2000/svg" viewBox="0 0 425.2 425.2"><title>DOS_CON_UN_PUZZLE</title><g style="isolation:isolate"><g id="Capa_1" data-name="Capa 1"><rect width="425.2" height="425.2" style="fill:#5bbfcd"/><g style="mix-blend-mode:multiply"><path d="M226,53.62V47.47h-1.72v6.15Z" transform="translate(0 0)" style="fill:#b2b2b2"/><path d="M224.25,140.51v6H226v-6Z" transform="translate(0 0)" style="fill:#b2b2b2"/><path d="M268.56,97.92h6.08c0-.31,0-.62,0-.93s0-.53,0-.8h-6.08Z" transform="translate(0 0)" style="fill:#b2b2b2"/><path d="M247.58,134.26l3.22,5.1c.49-.3,1-.61,1.45-.92l-3.22-5.1Z" transform="translate(0 0)" style="fill:#b2b2b2"/><path d="M202.64,59.87l-3.28-5.2q-.74.45-1.45.92l3.28,5.19Z" transform="translate(0 0)" style="fill:#b2b2b2"/><path d="M262,120.09l5.19,3.1c.3-.49.6-1,.89-1.47l-5.2-3.11Z" transform="translate(0 0)" style="fill:#b2b2b2"/><path d="M248.53,60.46l3.21-5.24c-.49-.31-1-.61-1.47-.9l-3.21,5.24Z" transform="translate(0 0)" style="fill:#b2b2b2"/><path d="M201.69,133.67l-3.15,5.14q.73.47,1.47.9l3.15-5.14Z" transform="translate(0 0)" style="fill:#b2b2b2"/><path d="M262.8,75.44l5.25-3.15c-.29-.5-.58-1-.89-1.47L261.91,74Z" transform="translate(0 0)" style="fill:#b2b2b2"/><path d="M187.42,118.69l-5.19,3.12c.29.5.59,1,.89,1.47l5.19-3.11Z" transform="translate(0 0)" style="fill:#b2b2b2"/><circle cx="225.11" cy="97" r="5.31" style="fill:#b2b2b2"/><rect x="223.35" y="59.12" width="3.52" height="35.16" style="fill:#b2b2b2"/><polygon points="217.92 63.17 232.3 63.17 225.11 55.07 217.92 63.17" style="fill:#b2b2b2"/><rect x="192.75" y="109.39" width="34.75" height="3.52" transform="translate(-22.94 157.93) rotate(-39.23)" style="fill:#b2b2b2"/><polygon points="203.94 125.75 193.77 115.58 193.13 126.39 203.94 125.75" style="fill:#b2b2b2"/><path d="M225.11,38.1a58.69,58.69,0,0,0-42.35,18H198a49.1,49.1,0,1,1-21.51,47.52h-9.85a58.89,58.89,0,1,0,58.5-65.53Z" transform="translate(0 0)" style="fill:#b2b2b2"/><path d="M194.68,59.26H144.2A3.23,3.23,0,0,0,141,62.49V95.57a3.23,3.23,0,0,0,3.23,3.23h50.47a3.23,3.23,0,0,0,3.23-3.23V62.49A3.23,3.23,0,0,0,194.68,59.26Zm-.22,34a3.25,3.25,0,0,1-3.24,3.24H147.67a3.25,3.25,0,0,1-3.24-3.24V64.76a3.25,3.25,0,0,1,3.24-3.24h43.55a3.25,3.25,0,0,1,3.24,3.24Z" transform="translate(0 0)" style="fill:#b2b2b2"/><path d="M191.22,62.42H147.67a2.33,2.33,0,0,0-2.33,2.33V93.3a2.33,2.33,0,0,0,2.33,2.33h43.55a2.33,2.33,0,0,0,2.33-2.33V64.76A2.33,2.33,0,0,0,191.22,62.42Zm-27.9,26a3.43,3.43,0,0,1-.56.21,2.32,2.32,0,0,1-.59.09l-.43,0-.62,0-.62,0-.4,0-.48,0-.87-.07c-.33,0-.67,0-1-.05s-.66,0-.94,0l-.72.07-.81.08-.71.08-.46,0a2.19,2.19,0,0,1-1.52-.4,1.89,1.89,0,0,1-.41-1.39,2.29,2.29,0,0,1,.07-.41c0-.2.1-.42.18-.66s.16-.48.26-.73.2-.46.29-.65a23.57,23.57,0,0,1,2-3.18q1.11-1.47,2.08-2.86a18.41,18.41,0,0,0,1.61-2.79,7,7,0,0,0,.65-2.95,5.42,5.42,0,0,0-.18-1.32,5.15,5.15,0,0,0-.53-1.32,3.37,3.37,0,0,0-.88-1,2,2,0,0,0-1.23-.41,1.47,1.47,0,0,0-1.12.4,2.12,2.12,0,0,0-.51,1,5.28,5.28,0,0,0-.15,1.16c0,.4,0,.74,0,1a8.14,8.14,0,0,0-.06,1.07,10.05,10.05,0,0,1-.05,1.13,1.28,1.28,0,0,1-.33.26,5.61,5.61,0,0,1-.53.29,4.82,4.82,0,0,1-.59.23,1.57,1.57,0,0,1-.46.1,1.94,1.94,0,0,1-.37,0,1.48,1.48,0,0,1-.37-.14V72.11a5,5,0,0,1,.41-2.09,4.4,4.4,0,0,1,1.13-1.53,5,5,0,0,1,1.68-1,6.33,6.33,0,0,1,2.06-.33,5.66,5.66,0,0,1,2,.35,4.2,4.2,0,0,1,2.52,2.51,5.42,5.42,0,0,1,.34,2,7.15,7.15,0,0,1-.41,2.41,13.57,13.57,0,0,1-1.07,2.31A25.69,25.69,0,0,1,159.12,79q-.81,1.11-1.61,2.26T156,83.59a12.93,12.93,0,0,0-1.1,2.42v.36a18.14,18.14,0,0,0,2.05.11h2.13q1.07,0,2.13,0a11.87,11.87,0,0,1,2.08.26Zm12.24-4.65a3,3,0,0,1-.8.37,3.9,3.9,0,0,1-.84.15,2.63,2.63,0,0,1-.69,0,.35.35,0,0,0-.08.17,2.42,2.42,0,0,0,0,.47v2.92c-.2.15-.45.31-.74.48a1.25,1.25,0,0,1-.72.23h-1.24V84.75l-.28-.25-1.62.31-1.13.21-.81.13c-.23,0-.46,0-.69.05h-1.77a.93.93,0,0,1-.63-.22,1.82,1.82,0,0,1-.4-.51,2.41,2.41,0,0,1-.22-.6,2.64,2.64,0,0,1-.07-.54,8.25,8.25,0,0,1,.29-1.88q.29-1.17.73-2.52c.29-.9.61-1.81,1-2.75s.66-1.8.95-2.57.53-1.43.72-2a5,5,0,0,0,.27-1,1.32,1.32,0,0,1,.14-.77,3.55,3.55,0,0,0,.27-.88c0-.13,0-.3.08-.51a2.56,2.56,0,0,1,.19-.62,1,1,0,0,1,.48-.48,1.41,1.41,0,0,1,.65-.24h1.4a.91.91,0,0,1,.17.38c0,.13,0,.25.05.36a.49.49,0,0,0,.11.26.43.43,0,0,0,.33.1,4.42,4.42,0,0,0,.63-.07,4.21,4.21,0,0,1,.66-.07h.4l.4,0a1.56,1.56,0,0,1,.28.59,6,6,0,0,1,.12.72,6.49,6.49,0,0,1,0,.72V82.49l.25.25a8,8,0,0,1,2.48,0l.3.33A1.8,1.8,0,0,1,175.55,83.73Zm11.25,3.61a1.21,1.21,0,0,1-.22.76,1.51,1.51,0,0,1-.52.44,2.38,2.38,0,0,1-.59.21,2.62,2.62,0,0,1-.46.05,1.33,1.33,0,0,1-.76-.17.81.81,0,0,1-.32-.41,1.22,1.22,0,0,1-.06-.51,4.06,4.06,0,0,0,0-.43l.55-7.24V76.63a7.73,7.73,0,0,0-.08-.84,6.31,6.31,0,0,0-.32-1.28,4.12,4.12,0,0,0-.63-1.17,1.25,1.25,0,0,0-1-.51,1.51,1.51,0,0,0-.78.3,5.07,5.07,0,0,0-.87.75,5.63,5.63,0,0,0-.71.94,2,2,0,0,0-.33.85c0,.22,0,.48-.07.78s-.05.61-.07.91,0,.57,0,.83,0,.41,0,.48v5.39c0,.09,0,.32.07.69s.09.76.14,1.18.09.82.14,1.2.07.61.07.7a.62.62,0,0,1-.26.47,3.35,3.35,0,0,1-.59.4,3.84,3.84,0,0,1-.63.28,2,2,0,0,1-.36.09,1,1,0,0,1-.85-.33,1.64,1.64,0,0,1-.3-.82,6.12,6.12,0,0,1,0-1,4.92,4.92,0,0,0,0-.92,12,12,0,0,1-.12-1.68,18.8,18.8,0,0,0-.12-1.93l.55-13.22a2.61,2.61,0,0,0,.08-.87,2.78,2.78,0,0,1,.11-1,1.53,1.53,0,0,1,.43-.29l.54-.22a5,5,0,0,1,.52-.15,1.93,1.93,0,0,1,.39-.05c.48,0,.71.3.69.91,0,0,0,.28,0,.74s0,1,0,1.48,0,1,0,1.44.07.65.16.65a.92.92,0,0,0,.54-.22,1.61,1.61,0,0,1,.48-.27l.48-.12.56-.11.52-.07.39,0a3.94,3.94,0,0,1,2.45.66,3.77,3.77,0,0,1,1.24,1.68,7.15,7.15,0,0,1,.44,2.2c0,.79.05,1.52.05,2.2Z" transform="translate(0 0)" style="fill:#b2b2b2"/><path d="M170.36,71.58c0-.36-.08-.74-.14-1.13s-.12-.75-.19-1.06q-.25.47-.48,1c-.15.37-.3.74-.43,1.13s-.25.77-.37,1.15-.23.71-.34,1l-.25.66c-.15.39-.32.86-.52,1.42s-.42,1.18-.65,1.85-.44,1.31-.63,1.93-.35,1.17-.47,1.67a5.29,5.29,0,0,0-.18,1.08v1.27h1.4a3.6,3.6,0,0,0,.5-.07l.88-.16,1-.22.87-.24q-.05-2.09-.07-3.37c0-.85,0-1.53,0-2s0-.92.05-1.2.05-.56.07-.82,0-.55.05-.89,0-.82,0-1.45c0-.09,0-.28,0-.56S170.4,71.94,170.36,71.58Z" transform="translate(0 0)" style="fill:#b2b2b2"/></g><ellipse cx="185.55" cy="367.77" rx="159.72" ry="18.43" style="fill:#dadada;mix-blend-mode:multiply"/><path d="M220.33,51.81V45.66h-1.72v6.15Z" transform="translate(0 0)" style="fill:#fff"/><path d="M218.61,138.7v6h1.72v-6Z" transform="translate(0 0)" style="fill:#fff"/><path d="M262.92,96.12H269c0-.31,0-.62,0-.93s0-.53,0-.8h-6.08Z" transform="translate(0 0)" style="fill:#fff"/><path d="M241.94,132.45l3.22,5.1c.49-.3,1-.61,1.45-.92l-3.22-5.1Z" transform="translate(0 0)" style="fill:#fff"/><path d="M197,58.06l-3.28-5.2q-.74.45-1.45.92L195.55,59Z" transform="translate(0 0)" style="fill:#fff"/><path d="M256.32,118.28l5.19,3.11c.3-.49.6-1,.89-1.47l-5.2-3.11Z" transform="translate(0 0)" style="fill:#fff"/><path d="M242.89,58.65l3.21-5.24c-.49-.31-1-.61-1.47-.9l-3.21,5.24Z" transform="translate(0 0)" style="fill:#fff"/><path d="M196,131.86,192.9,137q.73.47,1.47.9l3.15-5.14Z" transform="translate(0 0)" style="fill:#fff"/><path d="M257.16,73.63l5.25-3.15c-.29-.5-.58-1-.89-1.48l-5.25,3.15Z" transform="translate(0 0)" style="fill:#fff"/><path d="M181.78,116.88,176.59,120c.29.5.59,1,.89,1.47l5.19-3.12Z" transform="translate(0 0)" style="fill:#fff"/><circle cx="219.47" cy="95.19" r="5.31" style="fill:#fff"/><rect x="217.71" y="57.31" width="3.52" height="35.16" style="fill:#fff"/><polygon points="212.27 61.36 226.66 61.36 219.47 53.27 212.27 61.36" style="fill:#fff"/><rect x="187.11" y="107.59" width="34.75" height="3.52" transform="translate(-23.08 153.93) rotate(-39.22)" style="fill:#fff"/><polygon points="198.3 123.95 188.13 113.77 187.49 124.58 198.3 123.95" style="fill:#fff"/><path d="M219.47,36.29a58.69,58.69,0,0,0-42.35,18h15.21a49.1,49.1,0,1,1-21.51,47.52H161a58.89,58.89,0,1,0,58.5-65.53Z" transform="translate(0 0)" style="fill:#fff"/><path d="M189,57.45H138.56a3.23,3.23,0,0,0-3.23,3.23V93.76A3.23,3.23,0,0,0,138.56,97H189a3.23,3.23,0,0,0,3.23-3.23V60.68A3.23,3.23,0,0,0,189,57.45Zm-.22,34a3.25,3.25,0,0,1-3.24,3.24H142a3.25,3.25,0,0,1-3.24-3.24V62.95A3.25,3.25,0,0,1,142,59.71h43.55a3.25,3.25,0,0,1,3.24,3.24Z" transform="translate(0 0)" style="fill:#fff"/><path d="M185.57,60.62H142a2.33,2.33,0,0,0-2.33,2.33V91.5A2.33,2.33,0,0,0,142,93.83h43.55a2.33,2.33,0,0,0,2.33-2.33V62.95A2.33,2.33,0,0,0,185.57,60.62Zm-27.9,26a3.43,3.43,0,0,1-.56.21,2.3,2.3,0,0,1-.59.1l-.43,0-.62,0-.62,0-.4,0-.48,0-.87-.07c-.33,0-.67,0-1-.05s-.66,0-.94,0l-.72.07-.81.08-.71.08-.46,0a2.19,2.19,0,0,1-1.52-.4,1.89,1.89,0,0,1-.41-1.39,2.3,2.3,0,0,1,.07-.41c0-.2.1-.42.18-.66s.16-.48.26-.73.2-.46.29-.65a23.53,23.53,0,0,1,2-3.18q1.11-1.47,2.08-2.86A18.41,18.41,0,0,0,153,73.8a7,7,0,0,0,.65-2.95,5.41,5.41,0,0,0-.18-1.32,5.15,5.15,0,0,0-.53-1.32,3.37,3.37,0,0,0-.88-1,2,2,0,0,0-1.23-.41,1.47,1.47,0,0,0-1.12.4,2.12,2.12,0,0,0-.51,1,5.31,5.31,0,0,0-.15,1.16q0,.6,0,1a8.14,8.14,0,0,0-.06,1.07,10.07,10.07,0,0,1-.05,1.13,1.29,1.29,0,0,1-.33.26,5.73,5.73,0,0,1-.53.29,4.93,4.93,0,0,1-.59.23,1.58,1.58,0,0,1-.46.1,1.94,1.94,0,0,1-.37,0,1.48,1.48,0,0,1-.37-.14V70.31a5,5,0,0,1,.41-2.09,4.4,4.4,0,0,1,1.13-1.53,5,5,0,0,1,1.68-1,6.33,6.33,0,0,1,2.06-.33,5.65,5.65,0,0,1,2,.35,4.2,4.2,0,0,1,2.52,2.51,5.42,5.42,0,0,1,.34,2,7.16,7.16,0,0,1-.41,2.41,13.61,13.61,0,0,1-1.07,2.31,25.71,25.71,0,0,1-1.47,2.26q-.81,1.11-1.61,2.26t-1.49,2.33a13,13,0,0,0-1.1,2.42v.36a18.25,18.25,0,0,0,2.05.11h2.13q1.07,0,2.13,0a11.91,11.91,0,0,1,2.08.26Zm12.24-4.65a3,3,0,0,1-.8.37,3.94,3.94,0,0,1-.84.15,2.63,2.63,0,0,1-.69,0,.34.34,0,0,0-.08.16,2.37,2.37,0,0,0,0,.47V86c-.2.15-.45.31-.74.48a1.25,1.25,0,0,1-.72.23h-1.24V82.94l-.28-.25-1.62.31-1.13.21-.81.13-.69.05h-1.77a.93.93,0,0,1-.63-.22,1.82,1.82,0,0,1-.4-.51,2.41,2.41,0,0,1-.22-.6,2.63,2.63,0,0,1-.07-.54,8.25,8.25,0,0,1,.29-1.88q.29-1.17.73-2.52c.29-.9.61-1.81,1-2.75s.66-1.8.95-2.57.53-1.43.72-2a5,5,0,0,0,.27-1,1.32,1.32,0,0,1,.14-.77,3.53,3.53,0,0,0,.27-.88c0-.13,0-.3.08-.51a2.54,2.54,0,0,1,.19-.62,1,1,0,0,1,.48-.48,1.41,1.41,0,0,1,.65-.24h1.4a.92.92,0,0,1,.17.39c0,.13,0,.25.05.36a.49.49,0,0,0,.11.26.42.42,0,0,0,.33.1,4.41,4.41,0,0,0,.63-.07,4.2,4.2,0,0,1,.66-.07h.4l.4,0a1.56,1.56,0,0,1,.28.59,5.9,5.9,0,0,1,.12.72,6.51,6.51,0,0,1,0,.72V80.68l.25.25a8,8,0,0,1,2.48,0l.3.33A1.8,1.8,0,0,1,169.91,81.92Zm11.25,3.61a1.21,1.21,0,0,1-.22.76,1.52,1.52,0,0,1-.52.44,2.35,2.35,0,0,1-.59.21,2.58,2.58,0,0,1-.45.05,1.34,1.34,0,0,1-.76-.17.81.81,0,0,1-.32-.41,1.22,1.22,0,0,1-.06-.51,4,4,0,0,0,0-.43l.55-7.24V74.82a7.69,7.69,0,0,0-.08-.84,6.3,6.3,0,0,0-.32-1.28,4.12,4.12,0,0,0-.63-1.17,1.25,1.25,0,0,0-1-.51,1.51,1.51,0,0,0-.79.3,5.05,5.05,0,0,0-.87.75,5.65,5.65,0,0,0-.71.94,2,2,0,0,0-.33.85c0,.22,0,.48-.07.78s-.05.61-.07.91,0,.57,0,.83,0,.41,0,.48v5.39c0,.09,0,.32.07.69s.09.76.14,1.18.09.82.14,1.2.07.61.07.7a.62.62,0,0,1-.26.47,3.32,3.32,0,0,1-.59.4,3.76,3.76,0,0,1-.63.28,2,2,0,0,1-.36.1,1,1,0,0,1-.85-.33,1.63,1.63,0,0,1-.3-.81,6.12,6.12,0,0,1,0-1,4.93,4.93,0,0,0,0-.92,12,12,0,0,1-.12-1.68,18.82,18.82,0,0,0-.12-1.93l.55-13.21a2.61,2.61,0,0,0,.08-.87,2.79,2.79,0,0,1,.11-1,1.53,1.53,0,0,1,.43-.29l.54-.22a4.73,4.73,0,0,1,.52-.15,1.9,1.9,0,0,1,.39-.05c.48,0,.71.3.69.91,0,0,0,.28,0,.74s0,1,0,1.48,0,1,0,1.44.07.65.17.65a.92.92,0,0,0,.54-.22,1.6,1.6,0,0,1,.48-.27l.48-.12.56-.11.52-.07.39,0a3.94,3.94,0,0,1,2.45.66,3.77,3.77,0,0,1,1.24,1.68,7.15,7.15,0,0,1,.44,2.2c0,.79.05,1.52.05,2.2Z" transform="translate(0 0)" style="fill:#fff"/><path d="M164.72,69.77c0-.36-.08-.74-.14-1.13s-.12-.75-.19-1.06q-.25.47-.48,1c-.15.37-.3.74-.43,1.13s-.25.77-.37,1.15-.23.71-.34,1l-.25.66c-.15.39-.32.86-.52,1.42s-.42,1.18-.65,1.85-.44,1.31-.63,1.93-.35,1.17-.47,1.67a5.3,5.3,0,0,0-.18,1.08v1.27h1.4a3.66,3.66,0,0,0,.5-.07l.88-.17,1-.22.87-.24q-.05-2.09-.07-3.37c0-.85,0-1.53,0-2s0-.92.05-1.2.05-.56.07-.82,0-.55.05-.89,0-.82,0-1.45q0-.14,0-.56C164.79,70.45,164.76,70.13,164.72,69.77Z" transform="translate(0 0)" style="fill:#fff"/><path d="M399.29,176.17c.05-.79.08-1.59.08-2.4s0-1.6-.08-2.4c-10.26-3.06-11.31-6.86-4-14.56A37.63,37.63,0,0,0,393,152.9c-10.3,2.65-13-.06-10.36-10.36a37.42,37.42,0,0,0-3.91-2.28c-7.7,7.35-11.5,6.29-14.56-4-.79,0-1.59-.08-2.4-.08s-1.6,0-2.4.08c-3.06,10.25-6.86,11.31-14.56,4a37.6,37.6,0,0,0-3.91,2.28c2.65,10.3-.06,13-10.36,10.36a37.38,37.38,0,0,0-2.28,3.91c7.35,7.7,6.29,11.5-4,14.56-.05.79-.08,1.59-.08,2.4s0,1.6.08,2.4c10.25,3.06,11.31,6.86,4,14.56a37.51,37.51,0,0,0,2.28,3.91c10.3-2.65,13,.06,10.36,10.36a37.59,37.59,0,0,0,3.91,2.28c7.7-7.35,11.5-6.29,14.56,4,.79,0,1.59.08,2.4.08s1.6,0,2.4-.08c3.06-10.25,6.86-11.31,14.56-4a37.14,37.14,0,0,0,3.91-2.28c-2.65-10.3.06-13,10.36-10.36a37.58,37.58,0,0,0,2.28-3.91C388,183,389,179.23,399.29,176.17Zm-37.48,21.29a23.69,23.69,0,1,1,23.69-23.69A23.69,23.69,0,0,1,361.81,197.46Z" transform="translate(0 0)" style="fill:#e74645"/><path d="M361.81,153.53A20.24,20.24,0,1,0,382,173.77,20.23,20.23,0,0,0,361.81,153.53Zm0,35.58a15.35,15.35,0,1,1,15.35-15.35A15.35,15.35,0,0,1,361.81,189.12Z" transform="translate(0 0)" style="fill:#0d3953"/><g style="mix-blend-mode:multiply"><path d="M399.29,176.17c.05-.79.08-1.59.08-2.4s0-1.6-.08-2.4c-10.26-3.06-11.31-6.86-4-14.56A37.63,37.63,0,0,0,393,152.9c-10.3,2.65-13-.06-10.36-10.36a37.42,37.42,0,0,0-3.91-2.28c-7.7,7.35-11.5,6.29-14.56-4-.59,0-1.18-.06-1.77-.07V150.1a23.68,23.68,0,0,1,0,47.35v13.88c.59,0,1.18,0,1.77-.07,3.06-10.25,6.86-11.31,14.56-4a37.14,37.14,0,0,0,3.91-2.28c-2.65-10.3.06-13,10.36-10.36a37.58,37.58,0,0,0,2.28-3.91C388,183,389,179.23,399.29,176.17Z" transform="translate(0 0)" style="fill:#bbbaba;mix-blend-mode:multiply"/><path d="M362.44,153.55v4.89a15.34,15.34,0,0,1,0,30.66V194a20.23,20.23,0,0,0,0-40.44Z" transform="translate(0 0)" style="fill:#c6c6c6"/></g><path d="M303.28,356.08l3.07,3.39s3.22,3.44-2.12,4.46c0,0-4.83,1.32-7.83-4.39,0,0-1.46-2.2-2.19-2.34,0,0-1.76-.58-1.54-1.83h10Z" transform="translate(0 0)" style="fill:#313130"/><path d="M297.52,357.83c1.07,1.65,3.25,3.74,5.41,3.13a4.09,4.09,0,0,0,2.66-2.33l.76.84s3.22,3.44-2.12,4.46c0,0-4.83,1.32-7.83-4.39,0,0-1.46-2.2-2.19-2.34,0,0-1.76-.58-1.54-1.83h3.18A9.32,9.32,0,0,1,297.52,357.83Z" transform="translate(0 0)" style="fill:#dadada;mix-blend-mode:multiply"/><path d="M293.34,355.38a2.8,2.8,0,0,0,1.41,1.07c.73.15,2.19,2.34,2.19,2.34,3,5.7,7.83,4.39,7.83,4.39a4.91,4.91,0,0,0,2.51-1.07c-.23.75-1,1.45-3,1.83,0,0-4.83,1.32-7.83-4.39,0,0-1.46-2.2-2.19-2.34,0,0-1.76-.58-1.53-1.83Z" transform="translate(0 0)" style="fill:#1d1d1b"/><path d="M274.1,356.08,271,359.47s-3.22,3.44,2.12,4.46c0,0,4.83,1.32,7.83-4.39,0,0,1.46-2.2,2.19-2.34,0,0,1.76-.58,1.54-1.83h-10Z" transform="translate(0 0)" style="fill:#313130"/><path d="M279.86,357.83c-1.07,1.65-3.25,3.74-5.42,3.13a4.09,4.09,0,0,1-2.66-2.33l-.76.84s-3.22,3.44,2.12,4.46c0,0,4.83,1.32,7.83-4.39,0,0,1.46-2.2,2.19-2.34,0,0,1.76-.58,1.54-1.83h-3.18A9.27,9.27,0,0,0,279.86,357.83Z" transform="translate(0 0)" style="fill:#dadada;mix-blend-mode:multiply"/><path d="M284,355.38a2.8,2.8,0,0,1-1.41,1.07c-.73.15-2.19,2.34-2.19,2.34-3,5.7-7.83,4.39-7.83,4.39a4.9,4.9,0,0,1-2.51-1.07c.23.75,1,1.45,3,1.83,0,0,4.83,1.32,7.83-4.39,0,0,1.46-2.2,2.2-2.34,0,0,1.76-.58,1.53-1.83Z" transform="translate(0 0)" style="fill:#1d1d1b"/><path d="M263.16,212.29l19.13-6.86H294l19.13,6.86s5.58,2.06,5.12,13.27H306.67V272h-37V225.56H258C257.57,214.35,263.16,212.29,263.16,212.29Z" transform="translate(0 0)" style="fill:#f8b999"/><polygon points="285.32 268.56 291.87 268.56 304.23 268.56 304.23 281.79 304.23 356.56 291.87 356.56 290.49 281.79 286.38 281.79 285.32 356.56 272.95 356.56 272.95 281.79 272.95 268.56 285.32 268.56" style="fill:#200"/><path d="M296.56,206.35l16.6,5.95s5.58,2.06,5.12,13.27H306.67V272h-37V225.56H258c-.47-11.21,5.12-13.27,5.12-13.27l16.58-5.95Z" transform="translate(0 0)" style="fill:#fff"/><polygon points="291.89 205.43 284.09 205.43 286.42 213.59 289.81 213.59 291.89 205.43" style="fill:#be1622"/><path d="M287.34,211.45a8.45,8.45,0,0,0,3.11-6h1.45l-2.08,8.16h-3.39l-.39-1.37A7.57,7.57,0,0,0,287.34,211.45Z" transform="translate(0 0)" style="fill:#b2b2b2;mix-blend-mode:multiply"/><polygon points="294.1 202.29 288.41 205.43 292.37 213.8 297.93 207.58 294.1 202.29" style="fill:#9d9d9c;mix-blend-mode:multiply"/><polygon points="294.22 201.58 288.41 205.43 292.49 213.09 298.05 206.87 294.22 201.58" style="fill:#fff"/><polygon points="282.51 202.29 288.2 205.43 284.24 213.8 278.68 207.58 282.51 202.29" style="fill:#9d9d9c;mix-blend-mode:multiply"/><polygon points="282.39 201.58 288.2 205.43 284.13 213.09 278.56 206.87 282.39 201.58" style="fill:#fff"/><polygon points="288.1 257.79 283.15 247.86 286.37 213.59 288.1 213.59 288.11 213.59 289.83 213.59 293.05 247.86 288.11 257.79 288.11 257.81 288.1 257.8 288.1 257.81 288.1 257.79" style="fill:#be1622"/><path d="M278.26,206.87l-15.11,5.42s-5.58,2.06-5.12,13.27h11.6V272h37V225.56h11.61c.46-11.21-5.12-13.27-5.12-13.27l-15.1-5.42-9.85,39.85Z" transform="translate(0 0)" style="fill:#08283d"/><path d="M307.35,225.58a36.21,36.21,0,0,1-30.17,33.88c0,.23.08.45.11.67l-.79.34a6.37,6.37,0,0,1-5.19-.8s-2.6-1-1.8,1.43c0,0,1,.69,2.49,1.72,0,0-3.73,1-6.47-.27,0,0-1.57,0-.72,1.5a20.86,20.86,0,0,0,4.22,1,13.44,13.44,0,0,1-5.09-.91s-1.8.16-.52,1.71a20,20,0,0,0,6,1.21,15.36,15.36,0,0,1-3.38-.15s-1.83.92-.06,2a21.41,21.41,0,0,0,6.64,0,22,22,0,0,1-3.69.61s-.7,1,.69,1.24c0,0,4.12-.06,6.47-1.28,0,0,2.22-.85,2.85-1.19.12.47.23.93.35,1.4a46.59,46.59,0,0,0,38.42-44H307.35Z" transform="translate(0 0)" style="fill:#b2b2b2;mix-blend-mode:multiply"/><path d="M305.06,174.62l.16,17.18s-2.9,7.11-12,12c0,0-9.17,4.27-12.26,2.48,0,0-10.11-4-9.75-22.46,0,0-2.53-24,16.53-24.26C287.73,159.51,304.32,159.91,305.06,174.62Z" transform="translate(0 0)" style="fill:#f7c29f"/><path d="M303.71,182.51s2.46-2.3,3.89-1.05c0,0,2.85,3.28-.24,8.1,0,0-1.33,2.78-3,1.68Z" transform="translate(0 0)" style="fill:#f7c29f"/><path d="M304.2,189H303c1-5.69-1.5-7.86-1.5-7.86a9.79,9.79,0,0,1-2-8.46c-.19-6.67-7.15-7.34-7.15-7.34-.5-8.5,7.21-7.5,7.21-7.5,11.63,1.72,10.13,15.56,10.13,15.56S307.77,186.1,304.2,189Z" transform="translate(0 0)" style="fill:#220700"/><path d="M295.55,166.32s8.26-7,.92-11.2a18.1,18.1,0,0,0-15-1s-8.17,5.94-14.51,4.94C267,159.05,274.38,169.67,295.55,166.32Z" transform="translate(0 0)" style="fill:#331101"/><rect x="223.77" y="322.1" width="44.52" height="34.75" rx="3.06" ry="3.06" style="fill:#2c323a"/><path d="M241.58,347.63c5.41-1.28,10.9-3.3,15.31-6.77,4.23-3.33,7.27-8.31,9.35-13.22a38.88,38.88,0,0,0,1.53-4.19,3,3,0,0,1,.52,1.71v28.62a3.06,3.06,0,0,1-3.06,3.06h-38.4a3.06,3.06,0,0,1-3.06-3.06v-5.4C229.56,349.65,235.93,349,241.58,347.63Z" transform="translate(0 0)" style="fill:#c6c6c6;mix-blend-mode:multiply"/><path d="M226.36,340.48l-2.59-15.31a3.06,3.06,0,0,1,3.06-3.06h38.4a3.06,3.06,0,0,1,3.06,3.06l-2.83,15.31Z" transform="translate(0 0)" style="fill:#9d9d9c;mix-blend-mode:multiply"/><path d="M226.86,339.48,224.33,325a2.94,2.94,0,0,1,3-2.9h37.44a2.94,2.94,0,0,1,3,2.9L265,339.48Z" transform="translate(0 0)" style="fill:#2a2f37"/><path d="M227.32,322.1H236a10.12,10.12,0,0,0,.38,5.29c.86,2.14,2.92,3.67,4.85,4.8a23.79,23.79,0,0,0,18,2.3,23.41,23.41,0,0,0,7.39-3.77L265,339.48H226.86L224.33,325A2.94,2.94,0,0,1,227.32,322.1Z" transform="translate(0 0)" style="fill:#c6c6c6;mix-blend-mode:multiply"/><path d="M241.08,337v6.87a1,1,0,0,0,1,1h6.87a1,1,0,0,0,1-1V337a1,1,0,0,0-1-1h-6.87A1,1,0,0,0,241.08,337Zm1.25,1a.7.7,0,0,1,.7-.7H248a.7.7,0,0,1,.7.7v4.92a.7.7,0,0,1-.7.7H243a.7.7,0,0,1-.7-.7Z" transform="translate(0 0)" style="fill:#f9b233"/><rect x="244.32" y="336.59" width="2.36" height="5.18" style="fill:#f9b233"/><path d="M250.46,322.1V319.8a1,1,0,0,0-1-1h-6.8a1,1,0,0,0-1,1v2.31h-3.37v-4.89a1.82,1.82,0,0,1,1.82-1.82h12a1.82,1.82,0,0,1,1.82,1.82v4.89Z" transform="translate(0 0)" style="fill:#dadada"/><path d="M240,315.39h12a1.82,1.82,0,0,1,1.82,1.82v4.89h-1.78v-3.72a1.4,1.4,0,0,0-1.4-1.4h-9.24a1.4,1.4,0,0,0-1.41,1.4v3.72h-1.78v-4.89A1.82,1.82,0,0,1,240,315.39Z" transform="translate(0 0)" style="fill:#c6c6c6;mix-blend-mode:multiply"/><path d="M278,261.46a6.36,6.36,0,0,1-5.21-.66s-2.63-.91-1.76,1.47c0,0,1.05.66,2.54,1.65,0,0-3.7,1.05-6.48-.1,0,0-1.57,0-.67,1.52,0,0,4.81,1.6,7.44.58,0,0-4.84.92-8.3-.48,0,0-1.8.21-.47,1.72,0,0,5.21,1.87,9.07.6a20.7,20.7,0,0,1-6.42.38s-1.8,1,0,2c0,0,4.56.63,7.64-.49a25.51,25.51,0,0,1-4.67,1s-.67,1,.72,1.21c0,0,4.12-.18,6.44-1.45,0,0,2.56-1.06,2.94-1.34l-1.39-8.27Z" transform="translate(0 0)" style="fill:#f8b999"/><path d="M278.68,260.43a36.21,36.21,0,0,0,29.25-35.09l10.37.13a46.6,46.6,0,0,1-37.2,45.07C280.15,267.2,279.32,263.84,278.68,260.43Z" transform="translate(0 0)" style="fill:#08283d"/><path d="M215.62,213.49a6.36,6.36,0,0,1-2.84-4.42s-1-2.6-2.26-.4c0,0,.17,1.23.37,3,0,0-3.19-2.16-4.09-5,0,0-1-1.19-1.6.46,0,0,1.86,4.71,4.33,6.07,0,0-3.81-3.11-5-6.67,0,0-1.32-1.24-1.62.74,0,0,1.9,5.19,5.36,7.34a20.69,20.69,0,0,1-4.41-4.67s-1.9-.76-1.52,1.27c0,0,2.45,3.9,5.29,5.54a25.39,25.39,0,0,1-3.77-2.93s-1.17.11-.47,1.34c0,0,2.78,3,5.25,4,0,0,2.45,1.28,2.91,1.39l5.44-6.38Z" transform="translate(0 0)" style="fill:#f8b999"/><path d="M216.82,213.32c12.88,10.42,31.95,10.55,45.65-.66,2.19,2.68,5,10.22,7.16,12.9-17.52,14.32-42.45,9.25-59-3.9C212.57,218.79,214.62,216,216.82,213.32Z" transform="translate(0 0)" style="fill:#08283d"/><path d="M277.55,245.54a10.73,10.73,0,0,0-6.71,2.35,12.43,12.43,0,0,1-2.16,1V222.59a9.13,9.13,0,0,0-9.13-9.13H232.76a14.43,14.43,0,0,1,1.5-3.76,10.78,10.78,0,1,0-16.87,0,14.49,14.49,0,0,1,1.5,3.76H192.1a9.13,9.13,0,0,0-9.13,9.13V249.8a16.78,16.78,0,0,0,5.67-1.92,10.78,10.78,0,1,1,0,16.87,16.66,16.66,0,0,0-5.67-1.92V290a9.13,9.13,0,0,0,9.13,9.13h25.58c-.1.2-.2.37-.29.52a10.78,10.78,0,1,0,16.87,0c-.09-.15-.19-.33-.29-.52h25.58a9.13,9.13,0,0,0,9.13-9.13V263.75a12.27,12.27,0,0,1,2.16,1,10.78,10.78,0,1,0,6.71-19.21Z" transform="translate(0 0)" style="fill:#d42a26"/><path d="M262.48,298.69A75.84,75.84,0,0,1,238,271c-8.38-16-13.59-34.51-12.81-52.71a87.27,87.27,0,0,1,5.13-25.13,10.77,10.77,0,0,0-13,16.48,14.49,14.49,0,0,1,1.5,3.76H192.1a9.13,9.13,0,0,0-9.13,9.13V249.8a16.78,16.78,0,0,0,5.67-1.92,10.78,10.78,0,1,1,0,16.87,16.66,16.66,0,0,0-5.67-1.92V290a9.13,9.13,0,0,0,9.13,9.13h25.58c-.1.2-.2.37-.29.52a10.78,10.78,0,1,0,16.87,0c-.09-.15-.19-.33-.29-.52h25.58A9.09,9.09,0,0,0,262.48,298.69Z" transform="translate(0 0)" style="fill:#bbbaba;mix-blend-mode:multiply"/><path d="M72.42,178.93s-3.1,23,5.25,30.43c0,0-16.3,1.17-18.95-8C58.72,201.32,57.3,178,72.42,178.93Z" transform="translate(0 0)" style="fill:#7b4100"/><rect x="45.35" y="192.1" width="10.72" height="12.05" style="fill:#120000"/><rect x="49.94" y="197.31" width="10.34" height="6.02" style="fill:#d5a185"/><path d="M39.31,220.64H29.4c-.4-10.27,4.37-12.15,4.37-12.15l16.33-6.29h10l16.33,6.29s4.77,1.89,4.37,12.15H70.91L66.13,241l3.57,19-28.65.09,2.78-19.25Z" transform="translate(0 0)" style="fill:#f8b999"/><polygon points="58.88 346.94 57.16 272.15 53.39 272.16 52.28 346.94 44.65 346.94 41.09 272.2 41.05 260.09 52.38 260.05 58.38 260.03 69.7 259.99 69.74 272.11 66.44 346.94 58.88 346.94" style="fill:#f8b999"/><path d="M76.47,208.69c13.45,12,32.9,20.44,55.54,20.87q-.39,2-.85,4.06c-23.76,1.43-44.13-1.09-60.25-13C73.32,218.25,74.36,211.25,76.47,208.69Z" transform="translate(0 0)" style="fill:#f8b999"/><path d="M131.17,233.63a9.77,9.77,0,0,1,5,.68s2.57-.05.31-1.66c0,0,5.42-.39,6.49.15,0,0,1.73-1-1.68-1.5,0,0-3-1.65-9.26-1.73Q131.63,231.59,131.17,233.63Z" transform="translate(0 0)" style="fill:#f8b999"/><path d="M58.87,346.94H66.5c.15.78.13,2.25.29,3.08,1.61,8.38-1,9-2.89,9.13-.13,0-.44.39-.6.36-3.43-.71-5.43-.28-4.85-7.89C58.56,350,58.73,348.48,58.87,346.94Z" transform="translate(0 0)" style="fill:#f8b999"/><path d="M57.74,357.29c.55,5.46,4.73,6.78,4.73,6.78,5,0,5.31-6.81,5.31-6.81a22.54,22.54,0,0,0-.53-2.44,5.52,5.52,0,0,1-.38,2.44,4.47,4.47,0,0,1-4.09,2.16,5.05,5.05,0,0,1-4-2.13,18,18,0,0,1-.46-2.6A8.72,8.72,0,0,0,57.74,357.29Z" transform="translate(0 0)" style="fill:#1d1d1b"/><path d="M44.65,346.94h7.63c.15.78.13,2.25.29,3.08,1.6,8.38-1,9-2.89,9.13-.13,0-.44.39-.6.36-3.43-.71-5.43-.28-4.85-7.89C44.34,350,44.51,348.48,44.65,346.94Z" transform="translate(0 0)" style="fill:#f8b999"/><path d="M43.52,357.29c.55,5.46,4.73,6.78,4.73,6.78,5,0,5.31-6.81,5.31-6.81a22.57,22.57,0,0,0-.53-2.44,5.51,5.51,0,0,1-.38,2.44,4.48,4.48,0,0,1-4.09,2.16,5.05,5.05,0,0,1-4-2.13,18.05,18.05,0,0,1-.46-2.6A8.73,8.73,0,0,0,43.52,357.29Z" transform="translate(0 0)" style="fill:#1d1d1b"/><path d="M41.22,247.25a15.91,15.91,0,0,0,1-10.39,105.25,105.25,0,0,1-3.79-19.12s2.36-3.19,0-12l3.11-.79s2.17,11.47,13.32,15.5c11.14-4,13.31-15.5,13.31-15.5l3.1.79c-2.35,8.8,0,12,0,12a105.3,105.3,0,0,1-3.8,19.12,15.94,15.94,0,0,0,1,10.39s6.38,8.47,3.7,31.64l-2.54,30.66H39.94l-2.4-30.5C36.13,257.25,41.22,247.25,41.22,247.25Z" transform="translate(0 0)" style="fill:#0d3953"/><polygon points="41.75 246.01 68.13 246.01 67.27 242.9 42.53 242.9 41.75 246.01" style="fill:#432918"/><path d="M49.82,242.68v4.21a1.65,1.65,0,0,0,1.65,1.64h7.28a1.65,1.65,0,0,0,1.65-1.64v-4.21A1.65,1.65,0,0,0,58.75,241H51.47A1.65,1.65,0,0,0,49.82,242.68Zm1.15.46a1.29,1.29,0,0,1,1.29-1.29H58a1.29,1.29,0,0,1,1.29,1.29v3.3A1.29,1.29,0,0,1,58,247.72h-5.7A1.29,1.29,0,0,1,51,246.44Z" transform="translate(0 0)" style="fill:#f9b233"/><rect x="54.15" y="241.18" width="1.92" height="6.94" style="fill:#f9b233"/><path d="M43.26,175.59l-.13,14.13s2.39,5.84,9.88,9.83c0,0,7.54,3.51,10.08,2,0,0,8.32-3.26,8-18.48,0,0,2.08-19.7-13.6-19.95C57.51,163.17,43.87,163.5,43.26,175.59Z" transform="translate(0 0)" style="fill:#f8b999"/><path d="M44.37,182.08s-2-1.89-3.2-.87c0,0-2.34,2.7.2,6.66,0,0,1.09,2.29,2.46,1.38Z" transform="translate(0 0)" style="fill:#f7c29f"/><path d="M44,187.38h1c-.82-4.68,1.23-6.47,1.23-6.47a8,8,0,0,0,1.66-7c.15-5.49,5.88-6,5.88-6,.41-7-5.93-6.17-5.93-6.17-9.57,1.42-8.34,12.8-8.34,12.8S41,185,44,187.38Z" transform="translate(0 0)" style="fill:#7b4100"/><path d="M41.42,165.69s-9.2,27.86,0,42.31c0,0,1.84,4.82,9.45,5.33a43.64,43.64,0,0,1-4.27-17.41c0-.4,0-.81,0-1.21.29-14,.67-12.72,3-26.26Z" transform="translate(0 0)" style="fill:#7b4100"/><path d="M53.75,167.92s7.6,8.24,17.45,8.82L71,187.38s7.06-22.24-8.54-25.66c0,0-6.12-4.34-15.81,1.45Z" transform="translate(0 0)" style="fill:#7b4100"/><path d="M29.4,220.64c5.5,24.3,25.46,47.52,47.9,48.88l.43-3.86c-20.65-3.25-36.55-26.25-39.18-46.43C35.29,219.82,32.65,220.06,29.4,220.64Z" transform="translate(0 0)" style="fill:#f8b999"/><path d="M77.73,265.66a7,7,0,0,0,4.58-.58s2.28-.13,0,1.56c0,.07,4.94-.17,5.9-1.06,0,0,1.59.57-1.6,1.78,0-.07-2.94,2.48-9.28,2.16Z" transform="translate(0 0)" style="fill:#f8b999"/><path d="M170.24,242.31a10.73,10.73,0,0,0-6.71,2.34,12.21,12.21,0,0,1-2.16,1V219.36a9.13,9.13,0,0,0-9.13-9.13H125.45a14.62,14.62,0,0,1,1.5-3.76,10.78,10.78,0,1,0-16.86,0,14.54,14.54,0,0,1,1.5,3.76H84.79a9.13,9.13,0,0,0-9.13,9.13v27.22a16.74,16.74,0,0,0,5.67-1.92,10.78,10.78,0,1,1,0,16.87,16.77,16.77,0,0,0-5.67-1.92v27.22A9.14,9.14,0,0,0,84.79,296h27a15.74,15.74,0,0,0-1.73-4.73,10.78,10.78,0,1,1,16.86,0,15.76,15.76,0,0,0-1.73,4.73h27a9.14,9.14,0,0,0,9.13-9.14v-26.3a12.41,12.41,0,0,1,2.16,1,10.78,10.78,0,1,0,6.71-19.21Z" transform="translate(0 0)" style="fill:#f9b233"/><path d="M123.11,262c-11-13.6-18.5-30.55-16.86-48.4.11-1.14.25-2.27.42-3.39H84.79a9.13,9.13,0,0,0-9.13,9.13v27.22a16.74,16.74,0,0,0,5.67-1.92,10.78,10.78,0,1,1,0,16.87,16.77,16.77,0,0,0-5.67-1.92v27.22A9.14,9.14,0,0,0,84.79,296h27a15.74,15.74,0,0,0-1.73-4.73,10.78,10.78,0,1,1,16.86,0,15.76,15.76,0,0,0-1.73,4.73h27a9.14,9.14,0,0,0,8.75-6.5C145.78,285.36,132.86,274,123.11,262Z" transform="translate(0 0)" style="fill:#bbbaba;mix-blend-mode:multiply"/></g></g></svg>