<svg id="Layer_1" data-name="Layer 1" xmlns="http://www.w3.org/2000/svg" xmlns:xlink="http://www.w3.org/1999/xlink" viewBox="0 0 500 500"><defs><linearGradient id="linear-gradient" x1="277.1" y1="274.65" x2="218.93" y2="274.65" gradientUnits="userSpaceOnUse"><stop offset="0" stop-color="#d9d9d9"/><stop offset="0.19" stop-color="#6b6b6b"/><stop offset="0.27" stop-color="#525252"/><stop offset="0.45" stop-color="#525252"/><stop offset="0.73" stop-color="#a8a8a8"/><stop offset="0.9" stop-color="#6b6b6b"/><stop offset="1" stop-color="#c9c9c9"/></linearGradient><linearGradient id="linear-gradient-2" x1="277.16" y1="299.93" x2="220.47" y2="299.93" xlink:href="#linear-gradient"/><linearGradient id="linear-gradient-3" x1="248.22" y1="267.82" x2="248.22" y2="264.82" gradientUnits="userSpaceOnUse"><stop offset="0" stop-color="#525252"/><stop offset="0.37" stop-color="#d9d9d9"/><stop offset="0.71" stop-color="#4d4d4d"/><stop offset="1" stop-color="#c9c9c9"/></linearGradient><linearGradient id="linear-gradient-4" x1="248.22" y1="274.29" x2="248.22" y2="271.29" xlink:href="#linear-gradient-3"/><linearGradient id="linear-gradient-5" x1="248.22" y1="280.75" x2="248.22" y2="277.75" xlink:href="#linear-gradient-3"/><linearGradient id="linear-gradient-6" x1="248.22" y1="287.22" x2="248.22" y2="284.22" xlink:href="#linear-gradient-3"/><radialGradient id="radial-gradient" cx="248.22" cy="189.28" r="67" gradientUnits="userSpaceOnUse"><stop offset="0" stop-color="#fff"/><stop offset="0.24" stop-color="#f2f5f7"/><stop offset="0.66" stop-color="#d1dbe1"/><stop offset="1" stop-color="#b3c3ce"/></radialGradient></defs><title>empresas</title><rect width="500" height="500" style="fill:#406985"/><rect y="412.8" width="500" height="87.2" style="fill:#304f64;opacity:0.30000000000000004"/><ellipse cx="321.39" cy="460.71" rx="72.85" ry="3.89" style="fill:#304f64;opacity:0.54"/><path d="M277.1,256.22l-28.94-1.8h-.29l-28.94,1.8v35s2.07,1.59,5.25,3.68h47.66c3.19-2.09,5.25-3.68,5.25-3.68Z" style="fill:url(#linear-gradient)"/><path d="M248.74,305v0h.16v0c7.87-.61,17.4-6.2,23.14-10.06H225.59C231.33,298.75,240.86,304.34,248.74,305Z" style="fill:url(#linear-gradient-2)"/><path d="M248.74,305v0h.16v0c7.87-.61,17.4-6.2,23.14-10.06H225.59C231.33,298.75,240.86,304.34,248.74,305Z" style="fill:#0c1f2f"/><path d="M279.32,266.32a1.66,1.66,0,0,1-1.78,1.5H218.89a1.66,1.66,0,0,1-1.78-1.5h0a1.66,1.66,0,0,1,1.78-1.5h58.65a1.66,1.66,0,0,1,1.78,1.5Z" style="fill:url(#linear-gradient-3)"/><path d="M279.32,272.79a1.66,1.66,0,0,1-1.78,1.5H218.89a1.66,1.66,0,0,1-1.78-1.5h0a1.66,1.66,0,0,1,1.78-1.5h58.65a1.66,1.66,0,0,1,1.78,1.5Z" style="fill:url(#linear-gradient-4)"/><path d="M279.32,279.25a1.66,1.66,0,0,1-1.78,1.5H218.89a1.66,1.66,0,0,1-1.78-1.5h0a1.66,1.66,0,0,1,1.78-1.5h58.65a1.66,1.66,0,0,1,1.78,1.5Z" style="fill:url(#linear-gradient-5)"/><path d="M279.32,285.72a1.66,1.66,0,0,1-1.78,1.5H218.89a1.66,1.66,0,0,1-1.78-1.5h0a1.66,1.66,0,0,1,1.78-1.5h58.65a1.66,1.66,0,0,1,1.78,1.5Z" style="fill:url(#linear-gradient-6)"/><circle cx="246.03" cy="255.43" r="0.9" style="fill:#fff"/><path d="M278.36,256.62c0-13.5,9.6-29.1,18-38.39s15-24.9,15-40.79-14.35-58.6-63-58.78h-.3c-48.65.18-63,42.92-63,58.78s6.6,31.5,15,40.79,18,24.9,18,38.39a7.78,7.78,0,0,0,.71,3.3h58.88A7.82,7.82,0,0,0,278.36,256.62Z" style="fill:url(#radial-gradient)"/><g style="opacity:0.61"><path d="M279.64,198.33a17.52,17.52,0,0,0,2,.13c2.5,0,3.3-.93,5.16-3.45l.25-.34c1.48-2,.38-4.76-1.37-6.61-1.48-1.57-3.68-2.68-5.29-1.64-2.46,1.6-4.06.94-6.48-.27a6.5,6.5,0,0,1-1.78-1.58c-1.26-1.4-2.83-3.15-6.24-1.89-4.51,1.66-7.89.46-9.42-1.06a6.07,6.07,0,0,1-.77-5.85c.77-1.59,2.48-2.23,5.07-1.92,7.36.89,8.19.21,10.94-2l.86-.7c3-2.42,1.32-6.44,0-8.22a.53.53,0,1,0-.86.64c.13.18,3.21,4.37.21,6.75l-.87.7c-2.61,2.13-3.23,2.64-10.14,1.8-3.85-.47-5.47,1.11-6.16,2.51a7.11,7.11,0,0,0,1,7.07c1.75,1.75,5.56,3.15,10.54,1.31,2.74-1,3.82.2,5.08,1.6a7.49,7.49,0,0,0,2.1,1.82c2.19,1.09,4.45,2.22,7.54.21,1.08-.71,2.79.27,3.92,1.48,1.39,1.48,2.4,3.75,1.29,5.24l-.25.34c-2.12,2.87-2.45,3.31-6.15,2.89a.53.53,0,1,0-.12,1.06Z" style="fill:#66879d"/><path d="M257.59,211.35a7.41,7.41,0,0,0-.29,6.09,8.34,8.34,0,0,0,4.13,4.5.53.53,0,1,0,.39-1A7.29,7.29,0,0,1,258.3,217a6.3,6.3,0,0,1,.25-5.23c.9-1.83,2-2.89,3.32-3.13,1.86-.35,3.74,1,5,2.1,3.2,3,10.28,3,10.58,3a.53.53,0,1,0,0-1.07c-.07,0-7,0-9.85-2.71-2-1.89-4.1-2.71-5.91-2.37C260,207.94,258.64,209.19,257.59,211.35Z" style="fill:#66879d"/><path d="M294.36,186.87a20.07,20.07,0,0,0-3.15-5.73,8.36,8.36,0,0,0-.81-5.39c.68-4.34-2.66-8.24-4.37-9.92.38-5.75-4.13-10.48-5.95-12.15-.47-4.37-2.61-6.67-4.38-7.84a12.56,12.56,0,0,0-6.94-1.86c-.62,0-1.18,0-1.65.08-2.86-4.38-6.26-5.35-8.69-5.35h0c-4.25,0-7.92,2.91-9.22,4.08-1.3-1.17-5-4.08-9.21-4.08h0c-2.43,0-5.82,1-8.69,5.35-.47,0-1-.08-1.65-.08a12.56,12.56,0,0,0-6.94,1.86c-1.77,1.17-3.91,3.47-4.38,7.84-1.82,1.67-6.33,6.4-5.95,12.15-1.71,1.68-5.05,5.58-4.37,9.92a8.38,8.38,0,0,0-.81,5.39,20.27,20.27,0,0,0-3.15,5.73A16.18,16.18,0,0,0,206.33,202c-.16,3,.73,7.69,5,9.9a16.18,16.18,0,0,0,1.11,5.06,12.37,12.37,0,0,0,10,7.78c1.42,2.2,5.43,7.24,12.24,7.24a14,14,0,0,0,2-.15h.13a24,24,0,0,0,9.14-4.29,8.68,8.68,0,0,0,3.26-2.08,8.7,8.7,0,0,0,3.27,2.08,24,24,0,0,0,9.14,4.29h.13a14,14,0,0,0,2,.15c6.82,0,10.82-5,12.24-7.24A12.38,12.38,0,0,0,286,217a16.48,16.48,0,0,0,1.11-5.06c4.23-2.21,5.12-6.92,5-9.9A16.17,16.17,0,0,0,294.36,186.87Zm-49.46,38.78a21.72,21.72,0,0,1-8.54,4.1,12.16,12.16,0,0,1-1.75.13c-5.71,0-9.17-4.26-10.43-6.17,2.49-.71,7.64-2.86,12.34-9.08a.53.53,0,1,0-.85-.65c-4.76,6.28-10.07,8.24-12.19,8.8-9.73-1.18-10.18-9.87-10.15-11.86,5.13-.84,10.37-3.6,13.56-5.29l.9-.47a8.64,8.64,0,0,0,3.76-3.95c.59-.24,3.74-1.27,6.11,2.68a.54.54,0,0,0,.46.26.52.52,0,0,0,.27-.08.53.53,0,0,0,.18-.73c-2.15-3.59-5-3.66-6.52-3.37a12.53,12.53,0,0,0,.65-4.08,3.25,3.25,0,0,0-1.38-2.94c-2.18-1.43-6,0-7.56.66a4.92,4.92,0,0,1-5.58-.71.54.54,0,0,0-.77.74,6,6,0,0,0,6.78,1c2.84-1.24,5.35-1.53,6.55-.75a2.23,2.23,0,0,1,.9,2c0,3.79-1.62,6.9-4.35,8.32l-.9.48c-3.3,1.74-8.82,4.65-14,5.29a.51.51,0,0,0-.17.06c-3.65-1.91-3.89-6.12-3.81-7.85a22.94,22.94,0,0,0,4.28.39,23.56,23.56,0,0,0,8-1.37.53.53,0,0,0-.36-1,22.9,22.9,0,0,1-12.1.84c-7.52-10.36,1.32-19.4,1.32-19.4a5.94,5.94,0,0,1,.49-5.19,6.77,6.77,0,0,0,1.57,1.32c2.47,1.51,6,1.67,10.44.47,3.23-.72,12.07-1.91,14.23,1.21a.53.53,0,0,0,.88-.61c-3-4.34-14.84-1.75-15.37-1.64-4.16,1.12-7.39,1-9.6-.33a5.44,5.44,0,0,1-2.16-2.37c.08-4.07,4.57-7.83,4.57-7.83-.6-3.16.79-6.1,2.35-8.28.53-.49,3.5-3,9.09-2.48,2.37.22,3.85,1.07,4.49,2.6a8.67,8.67,0,0,1,.31,4.07c0,.27,0,.51-.06.72a5,5,0,0,0,1.13,3.88,4.6,4.6,0,0,0,3.42,1.2h.27c3.69-.12,6.47-.54,8.66-5.05a.53.53,0,0,0-1-.47c-1.94,4-4.21,4.34-7.73,4.45a3.77,3.77,0,0,1-2.9-.88,4,4,0,0,1-.83-3.08c0-.2,0-.43.05-.69a9.47,9.47,0,0,0-.39-4.58c-.81-1.91-2.62-3-5.38-3.25a14.58,14.58,0,0,0-6.94.93c.68-.67,1.15-1,1.15-1,.36-7.45,5.87-8.62,9.31-8.62a14.11,14.11,0,0,1,2.72.25c2.31-4.2,5.06-5.52,7.62-5.52,4.4,0,8.24,3.92,8.24,3.92V150a6.5,6.5,0,0,0-4.58-2.17h-.08c-2.59.38-4.21,1.35-4.83,2.9-1.07,2.69,1.34,6.06,1.76,6.61,1.17,3.43-2.68,6-2.85,6.06a.54.54,0,0,0-.16.74.53.53,0,0,0,.45.25.54.54,0,0,0,.29-.08s4.8-3.13,3.24-7.4l0-.08-.05-.07s-2.58-3.33-1.66-5.63c.47-1.16,1.79-1.92,3.95-2.24a4.93,4.93,0,0,1,4.55,3.37l.08,35.63A19.68,19.68,0,0,0,246,189.6a12.38,12.38,0,0,1-4.24,1.49c-7,.22-9.36-3.27-9.39-3.31a.53.53,0,1,0-.9.57c.1.17,2.63,4.07,10.36,3.81a10.8,10.8,0,0,0,2.19-.51,8.67,8.67,0,0,0-1.94,4.19,14.89,14.89,0,0,0,2.09,10.67c1.74,3.05,1.27,9.76,0,12.07a.54.54,0,0,0,.21.73.51.51,0,0,0,.25.07.54.54,0,0,0,.47-.28c1.42-2.58,2-9.62,0-13.12a13.79,13.79,0,0,1-2-10c.29-2.21,2-4.15,3.49-5.49a14.91,14.91,0,0,0,1.71-1.15l.07,33.48C247.87,224.76,244.91,225.66,244.91,225.66Zm32.82-24.44a23.58,23.58,0,0,0,8,1.37,22.92,22.92,0,0,0,4.28-.39c.07,1.73-.16,5.94-3.81,7.85A.51.51,0,0,0,286,210c-5.19-.64-10.71-3.55-14-5.29l-.9-.48c-2.72-1.41-4.35-4.52-4.35-8.32a2.23,2.23,0,0,1,.9-2c1.2-.78,3.71-.5,6.55.75a6,6,0,0,0,6.78-1,.54.54,0,0,0-.77-.74,4.93,4.93,0,0,1-5.58.71c-1.54-.68-5.37-2.09-7.56-.66a3.26,3.26,0,0,0-1.38,2.94,12.56,12.56,0,0,0,.65,4.08c-1.52-.29-4.36-.22-6.52,3.37a.53.53,0,0,0,.19.73.5.5,0,0,0,.27.08.53.53,0,0,0,.46-.26c2.38-4,5.52-2.92,6.11-2.68a8.64,8.64,0,0,0,3.76,3.95l.9.47c3.19,1.68,8.42,4.45,13.55,5.29,0,2-.42,10.69-10.15,11.86-2.11-.56-7.43-2.52-12.18-8.8a.54.54,0,1,0-.86.65c4.71,6.21,9.86,8.36,12.35,9.08-1.26,1.91-4.72,6.17-10.42,6.17a12.15,12.15,0,0,1-1.75-.13,21.73,21.73,0,0,1-8.54-4.1s-3-.89-3.48-2.85l.07-33.48a14.92,14.92,0,0,0,1.71,1.15c1.53,1.34,3.2,3.28,3.49,5.49a13.76,13.76,0,0,1-2,10c-2,3.49-1.42,10.54,0,13.12a.54.54,0,0,0,.47.28.53.53,0,0,0,.26-.07.54.54,0,0,0,.21-.73c-1.27-2.31-1.75-9,0-12.07a14.86,14.86,0,0,0,2.09-10.67,8.63,8.63,0,0,0-1.94-4.19,10.74,10.74,0,0,0,2.19.51c7.73.26,10.26-3.65,10.36-3.81a.53.53,0,1,0-.9-.57s-2.37,3.53-9.39,3.31a12.37,12.37,0,0,1-4.24-1.49,19.83,19.83,0,0,0-2.34-1.75l.08-35.63a4.93,4.93,0,0,1,4.55-3.37c2.15.32,3.48,1.08,3.94,2.24.92,2.3-1.63,5.59-1.66,5.63l-.05.07,0,.08c-1.55,4.27,3.19,7.37,3.24,7.4a.54.54,0,0,0,.29.08.54.54,0,0,0,.29-1c-.17-.11-4-2.63-2.84-6.06.42-.55,2.83-3.93,1.76-6.61-.62-1.55-2.24-2.53-4.83-2.9h-.08a6.49,6.49,0,0,0-4.58,2.17v-5.2s3.83-3.92,8.24-3.92c2.56,0,5.32,1.32,7.63,5.52a14,14,0,0,1,2.71-.25c3.43,0,8.94,1.17,9.31,8.62,0,0,.47.38,1.15,1a14.6,14.6,0,0,0-6.94-.93c-2.76.25-4.57,1.35-5.38,3.25a9.49,9.49,0,0,0-.38,4.58c0,.25,0,.48.05.69a4,4,0,0,1-.82,3.08,3.78,3.78,0,0,1-2.9.88c-3.52-.11-5.8-.47-7.73-4.45a.53.53,0,0,0-1,.47c2.19,4.51,5,4.93,8.66,5.05h.27a4.59,4.59,0,0,0,3.42-1.2,5,5,0,0,0,1.13-3.88c0-.21,0-.46-.06-.72a8.68,8.68,0,0,1,.31-4.07c.65-1.53,2.12-2.39,4.49-2.6,5.59-.51,8.56,2,9.09,2.48,1.56,2.17,2.95,5.12,2.35,8.28,0,0,4.49,3.76,4.57,7.83a5.41,5.41,0,0,1-2.16,2.37c-2.21,1.34-5.44,1.45-9.6.33-.53-.12-12.35-2.71-15.37,1.64a.53.53,0,0,0,.88.61c2.17-3.12,11-1.93,14.23-1.21,4.45,1.2,8,1,10.44-.47a6.69,6.69,0,0,0,1.57-1.32,5.94,5.94,0,0,1,.49,5.19s8.84,9,1.32,19.4a22.9,22.9,0,0,1-12.1-.84.53.53,0,0,0-.36,1Z" style="fill:#66879d"/><path d="M242.73,182.38a7.11,7.11,0,0,0,1-7.07c-.68-1.4-2.3-3-6.16-2.51-6.9.84-7.52.33-10.14-1.8l-.87-.7c-3-2.38.08-6.57.22-6.75a.54.54,0,0,0-.86-.64c-1.34,1.79-3.07,5.81,0,8.22l.86.7c2.76,2.24,3.59,2.92,10.94,2,2.59-.31,4.3.33,5.07,1.92a6.08,6.08,0,0,1-.76,5.85c-1.53,1.53-4.91,2.72-9.41,1.06-3.42-1.26-5,.49-6.25,1.89a6.45,6.45,0,0,1-1.78,1.58c-2.42,1.21-4,1.87-6.48.27-1.6-1-3.81.07-5.29,1.64-1.75,1.85-2.85,4.62-1.37,6.61l.25.34c1.86,2.52,2.66,3.45,5.16,3.45a17.52,17.52,0,0,0,2-.13.53.53,0,1,0-.12-1.06c-3.7.42-4,0-6.15-2.89l-.25-.34c-1.1-1.49-.1-3.76,1.29-5.24,1.13-1.2,2.85-2.18,3.93-1.48,3.09,2,5.35.89,7.54-.21a7.42,7.42,0,0,0,2.1-1.82c1.26-1.4,2.34-2.61,5.08-1.6C237.16,185.52,241,184.13,242.73,182.38Z" style="fill:#66879d"/><path d="M236.73,207.63c-1.81-.34-3.86.48-5.9,2.37-2.9,2.68-9.78,2.71-9.85,2.71a.53.53,0,1,0,0,1.07c.3,0,7.37,0,10.58-3,1.25-1.15,3.12-2.45,5-2.1,1.31.25,2.42,1.3,3.32,3.13a6.29,6.29,0,0,1,.25,5.23,7.29,7.29,0,0,1-3.53,3.89.53.53,0,0,0,.2,1,.51.51,0,0,0,.19,0,8.34,8.34,0,0,0,4.14-4.5,7.42,7.42,0,0,0-.28-6.09C239.76,209.19,238.38,207.94,236.73,207.63Z" style="fill:#66879d"/></g><path d="M305,174.1c0-11.66-9.72-41.47-41.52-46.29-.81.89-1.55,1.71-2.19,2.44,30.44,7.18,39.9,36.79,39.9,48.71a56,56,0,0,1-6.56,25.8A51.61,51.61,0,0,0,305,174.1Z" style="fill:#fff;opacity:0.72"/><path d="M250.52,124.92c-.7,1-1.32,1.89-1.86,2.7a51.77,51.77,0,0,1,9,1.76l2.25-2.81C256.87,125.89,254,125,250.52,124.92Z" style="fill:#fff;opacity:0.72"/><circle cx="263.16" cy="214.61" r="2.03" style="fill:#fff"/><circle cx="277.44" cy="212.71" r="2.03" style="fill:#fff"/><circle cx="291.59" cy="189.33" r="2.54" style="fill:#fff"/><circle cx="280.65" cy="193.95" r="2.8" style="fill:#fff"/><circle cx="260.68" cy="202.96" r="2.03" style="fill:#fff"/><circle cx="266.66" cy="188.4" r="2.03" style="fill:#fff"/><circle cx="262.14" cy="179.45" r="2.03" style="fill:#fff"/><circle cx="272.52" cy="162.91" r="2.51" style="fill:#fff"/><circle cx="289.69" cy="163.18" r="3.05" style="fill:#fff"/><circle cx="275.7" cy="145.84" r="2.75" style="fill:#fff"/><circle cx="250.17" cy="149.96" r="2.27" style="fill:#fff"/><circle cx="232.63" cy="144.63" r="2.75" style="fill:#fff"/><circle cx="258.31" cy="153.67" r="2.51" style="fill:#fff"/><circle cx="254.15" cy="163.35" r="2.03" style="fill:#fff"/><circle cx="249.59" cy="216.65" r="2.8" style="fill:#fff"/><circle cx="249.63" cy="233.97" r="0.46" style="fill:#fff"/><circle cx="249.13" cy="229.5" r="0.46" style="fill:#fff"/><circle cx="261.16" cy="225.94" r="0.46" style="fill:#fff"/><circle cx="244.21" cy="224.2" r="0.46" style="fill:#fff"/><circle cx="229.16" cy="217.54" r="0.46" style="fill:#fff"/><circle cx="240.25" cy="207.87" r="0.46" style="fill:#fff"/><circle cx="257.21" cy="208.35" r="0.46" style="fill:#fff"/><circle cx="254.67" cy="221.82" r="0.46" style="fill:#fff"/><circle cx="276.37" cy="218.97" r="0.46" style="fill:#fff"/><circle cx="273.05" cy="208.98" r="0.46" style="fill:#fff"/><circle cx="246.2" cy="236.01" r="0.66" style="fill:#fff"/><circle cx="250.4" cy="241.16" r="0.66" style="fill:#fff"/><circle cx="219.63" cy="226.42" r="0.66" style="fill:#fff"/><circle cx="261.93" cy="235.3" r="0.66" style="fill:#fff"/><circle cx="277.17" cy="229.09" r="0.66" style="fill:#fff"/><circle cx="235.64" cy="234.66" r="0.66" style="fill:#fff"/><circle cx="246.24" cy="247.94" r="0.7" style="fill:#fff"/><circle cx="251.73" cy="252.33" r="0.89" style="fill:#fff"/><circle cx="244.75" cy="192.5" r="2.03" style="fill:#fff"/><circle cx="231.61" cy="187.6" r="2.54" style="fill:#fff"/><circle cx="238.2" cy="203.12" r="2.03" style="fill:#fff"/><circle cx="236.96" cy="221.94" r="3.1" style="fill:#fff"/><circle cx="213.35" cy="210.92" r="3.56" style="fill:#fff"/><circle cx="220.99" cy="200.53" r="2.03" style="fill:#fff"/><circle cx="243.56" cy="178.87" r="2.03" style="fill:#fff"/><circle cx="225.88" cy="162.91" r="2.03" style="fill:#fff"/><circle cx="213.37" cy="164.6" r="3.05" style="fill:#fff"/><circle cx="238.24" cy="164.28" r="2.03" style="fill:#fff"/><circle cx="221.78" cy="177.21" r="2.03" style="fill:#fff"/><polygon points="327.88 349.17 322.48 346.43 322.11 345.79 318.75 344.07 317.37 346.77 319.77 348.01 321.16 348.06 326.96 351 327.88 349.17" style="fill:#fdcf9d"/><path d="M318.32,346.49a.31.31,0,0,1,.08.43h0a.31.31,0,0,1-.39.18l-3.16-1.7a.31.31,0,0,1-.08-.43h0a.31.31,0,0,1,.39-.18Z" style="fill:#fdcf9d"/><path d="M318.68,345.79a.31.31,0,0,1,.08.43h0a.31.31,0,0,1-.39.18l-3.74-2a.31.31,0,0,1-.08-.43h0a.31.31,0,0,1,.39-.18Z" style="fill:#fdcf9d"/><path d="M319,345.09a.31.31,0,0,1,.08.43h0a.31.31,0,0,1-.39.18l-4.17-2.21a.31.31,0,0,1-.08-.43h0a.31.31,0,0,1,.39-.18Z" style="fill:#fdcf9d"/><path d="M319.39,344.4a.31.31,0,0,1,.08.43h0a.31.31,0,0,1-.39.18l-3.74-2a.31.31,0,0,1-.08-.43h0a.31.31,0,0,1,.39-.18Z" style="fill:#fdcf9d"/><path d="M322.47,346.42l-.14-.52-2.16-1.11c-1.16,1.49.72,2.45,1.29,2.44l4.33,2.19.7-1Z" style="fill:#fdd9b1"/><path d="M322.19,349.18c7.19,3.89,15.68,6.64,24.32,5.21a30,30,0,0,0,20.6-14.63l-4-2c-3.45,6.34-9.91,11.68-17.27,13.07s-15.36-.63-22.36-4.13Z" style="fill:#fff"/><path d="M359.52,338.21l1-13.6c-.05-2.61-.89-4.26,1.62-4.31s1.72,2.13,1.78,4.73l1.44,13.06s0,.08,0,.12l-5.87.12S359.52,338.25,359.52,338.21Z" style="fill:#fdcf9d"/><path d="M361,329.45h0l-.63.63a4,4,0,0,1-2.46,1.18h-1.14l-2.66,0a3.22,3.22,0,0,1-1.25-.58l-1.25-3c-.3-.79-1.44-4.64-1.44-4.64s-2.42-.1-2.42-1.08l2.76-10.16h15.57L366,323.68a50.29,50.29,0,0,1-3.23,4Z" style="fill:#fdcf9d"/><path d="M362.73,327.67,361,329.45h0l-.63.63-.22.19-.07.94.29-.25.63-.63h0l1.76-1.79c.51-.56,1-1.13,1.43-1.66l-.08-.78C363.66,326.61,363.21,327.14,362.73,327.67Z" style="fill:#be9b76;opacity:0.64"/><polygon points="360.11 317.58 360.67 317.6 361.37 314.84 362.45 314.89 365.68 320.75 366.03 320.77 366.22 311.76 359.02 311.76 360.11 317.58" style="fill:#8e766a"/><path d="M361.27,305.77H347.63a5.62,5.62,0,0,0,2.85,6h15.73A5.51,5.51,0,0,0,361.27,305.77Z" style="fill:#312620"/><polygon points="350.49 411.61 343.99 405.11 356.99 405.11 350.49 411.61" style="fill:#66879d"/><rect x="348.83" y="411.1" width="3.33" height="28.34" style="fill:#def5f9"/><rect x="348.83" y="408.51" width="3.33" height="3.34" style="fill:#66879d"/><rect x="347.21" y="431.13" width="6.06" height="15.29" style="fill:#66879d"/><polygon points="350.36 445.02 372.78 451.66 372.78 454.73 350.36 450 327.24 455.45 327.24 452.13 350.36 445.02" style="fill:#66879d"/><polygon points="348.57 455.94 351.64 455.94 352.18 445.96 348.22 445.96 348.57 455.94" style="fill:#66879d"/><rect x="371.76" y="453.74" width="1.02" height="1.46" style="fill:#66879d"/><rect x="327.74" y="453.58" width="1.04" height="2.43" style="fill:#66879d"/><rect x="349.57" y="453.74" width="1.02" height="3.77" style="fill:#66879d"/><polygon points="370.81 385.02 370.9 386.48 354.76 386.49 354.79 385.04 370.81 385.02" style="fill:#9c661c"/><polygon points="309.68 458.35 309.71 458.92 307.12 458.92 308.16 458.35 309.68 458.35" style="fill:none"/><rect x="303.09" y="448.08" width="8.93" height="3.76" transform="translate(-156.1 736.46) rotate(-87.36)" style="fill:#be9b76"/><path d="M296,457.45c0-.85,1.24-1.11,1.24-1.11h1.85c3.92,0,6.23-3.61,6.23-3.61v-.21c.66,1.36,1.06,1.42,1.06,1.42,2.44,1.08,2.85-1,3.14-1.47l.08.29a4.31,4.31,0,0,1,.9,3.59V458H307.9l0-.56h-1.5l-1,.56H296A3.14,3.14,0,0,1,296,457.45Z" style="fill:#0c2638"/><path d="M310.73,450.7c.6-7.81,1-19,1.82-26.53a56.12,56.12,0,0,1,2-10.77c1.05-3.33,2.75-5.87,4.8-6.34a183,183,0,0,1,41.51-3.85l3.75-9A211.12,211.12,0,0,0,340.84,396q-5.88.75-11.72,1.8c-1.95.35-3.88.73-5.82,1.13l-2.9.63c-1,.25-1.74.35-3.2.8a12.26,12.26,0,0,0-6.19,4.84,22,22,0,0,0-2.78,6.24,61.84,61.84,0,0,0-1.9,12.13c-.58,7.93-.71,19.07-1,26.79Z" style="fill:#040d13"/><path d="M371.25,392.82a18,18,0,0,1-1.76,7.47c-1.67,2.55-4.59,4.69-9.72,4,0,0-3.73-.08-5-12.92,0-.24,0-.48-.06-.74a1,1,0,0,1,0-.12c0-.48,0-1,0-1.45l.05-2.57H370.9Z" style="fill:#10334a"/><path d="M355.32,358.46c.58-9.46,0-22,6.55-25,5.84-2.69,7,2.78,7.86,12.15l.76,39.55H354.87Z" style="fill:#fff"/><polygon points="357.28 337.5 359.18 335.39 357.67 339.11 357.28 337.5" style="fill:#a96dad"/><path d="M366.42,333.18l-1-1.87-6.17,1.46-1.55,3.57S363.15,333.21,366.42,333.18Z" style="fill:#f0ecec"/><path d="M358.07,337.8a70.42,70.42,0,0,0-2.65,19.43c-.14,11.84-.49,23.91-.49,23.91l-.7,2.23S352.57,345,358.07,337.8Z" style="fill:#a96dad"/><rect x="304.7" y="449.11" width="8.93" height="3.76" transform="translate(-155.51 739.19) rotate(-87.38)" style="fill:#fdcf9d"/><path d="M297.58,458.48c0-.85,1.24-1.11,1.24-1.11h1.85c3.92,0,6.24-3.61,6.24-3.61v-.21c.66,1.36,1.06,1.42,1.06,1.42,2.44,1.07,2.85-1,3.14-1.47l.08.29a4.31,4.31,0,0,1,.9,3.59V459h-2.57l0-.56H308l-1,.56h-9.36A3.17,3.17,0,0,1,297.58,458.48Z" style="fill:#10334a"/><path d="M311.54,451.79c.6-7.81,1-19,1.82-26.53a56,56,0,0,1,2-10.77c1.05-3.33,2.75-5.87,4.8-6.34a182.91,182.91,0,0,1,41.51-3.85l3.75-9a211.76,211.76,0,0,0-23.78,1.77q-5.88.75-11.72,1.8c-1.94.35-3.88.73-5.82,1.13l-2.9.63c-1,.25-1.74.35-3.2.8a12.28,12.28,0,0,0-6.19,4.84,22,22,0,0,0-2.78,6.25,61.83,61.83,0,0,0-1.89,12.13c-.58,7.93-.71,19.07-1,26.79Z" style="fill:#10334a"/><path d="M346.4,386.61a6.5,6.5,0,0,1,6.17-6.8l28.07,1.55.19-2-.1-1.95-28.36-1.54a10.4,10.4,0,0,0-9.87,10.88l3.78,17.56,3.92.27Z" style="fill:#0c1f2f"/><path d="M367.85,408.19a24.55,24.55,0,0,1-3.46-.06l-.15,0c-28.47-5.19-43.39,3.49-43.55,3.56a1.95,1.95,0,0,1-1.59-3.56c.68-.31,16-9.25,45.76-3.85.73.06,7.59.54,11.33-2.7a7.05,7.05,0,0,0,2.39-5.33c.11-2.63,0-5.51-.23-8.56-.58-10.14-1.3-22.76,7.12-38.75a1.95,1.95,0,1,1,3.45,1.81c-7.91,15-7.22,27.06-6.67,36.72.18,3.15.35,6.12.23,8.95a10.9,10.9,0,0,1-3.75,8.12c-3.21,2.77-7.77,3.51-10.87,3.67Z" style="fill:#0c1f2f"/><ellipse cx="193" cy="460.71" rx="72.85" ry="3.89" style="fill:#304f64;opacity:0.54"/><rect x="148.66" y="412.23" width="3.31" height="28.17" style="fill:#a7b8bb"/><rect x="147.56" y="432.14" width="6.02" height="15.2" style="fill:#66879d"/><polygon points="150.45 445.95 128.16 452.55 128.16 455.59 150.45 450.9 173.43 456.32 173.43 453.02 150.45 445.95" style="fill:#66879d"/><ellipse cx="129.52" cy="458.17" rx="2.68" ry="2.54" style="fill:#171d22"/><ellipse cx="171.65" cy="458.64" rx="2.68" ry="2.54" style="fill:#171d22"/><polygon points="152.22 456.81 149.17 456.81 148.64 446.88 152.57 446.88 152.22 456.81" style="fill:#66879d"/><rect x="150.21" y="454.61" width="1.02" height="3.75" style="fill:#66879d"/><rect x="171.9" y="454.46" width="1.03" height="2.42" style="fill:#0c1f2f"/><path d="M179.5,361.8l-.14-.16h0l0-.05c.16-.19.08-.5-.17-.73l-2.61-2.32a.62.62,0,0,0-.63-.14,10.06,10.06,0,0,0-3.09,1.68c-.58.52-3.21-.16-3.21-.16l-.45,1.77,1.94.49a3.91,3.91,0,0,0,2.66.32.53.53,0,0,0,.2-.06l2.35-1.38,1,1.45a.44.44,0,0,0,.61.06l0,0a.43.43,0,0,0,.14-.59l-.8-1.15,1.46,1.63a.55.55,0,0,0,.74.14l0,0C179.78,362.38,179.74,362,179.5,361.8Z" style="fill:#fdc79d"/><path d="M171,362.57c-8.09.77-16.92,0-24.28-4.68a29.79,29.79,0,0,1-13.17-21.39l4.43-.31c.7,7.14,4.53,14.54,10.73,18.67s14.29,5.39,22.06,4.91Z" style="fill:#fff"/><polygon points="150.32 412.74 156.78 406.27 143.85 406.27 150.32 412.74" style="fill:#66879d"/><rect x="148.66" y="409.65" width="3.31" height="3.32" style="fill:#66879d"/><rect x="128.16" y="454.61" width="1.02" height="1.45" style="fill:#66879d"/><path d="M139.76,338.43l-.4-9.36c.2-2.39,1.07-3.87-1.24-4.06s-1.48,1.82-1.68,4.21L134.37,338a1.14,1.14,0,0,1,0,.11l5.39.45S139.75,338.48,139.76,338.43Z" style="fill:#fdc79d"/><polygon points="130.11 386.3 130.03 387.75 146.07 387.76 146.04 386.32 130.11 386.3" style="fill:#9c661c"/><rect x="191.14" y="446.42" width="3.74" height="8.87" transform="translate(-20.54 9.36) rotate(-2.64)" style="fill:#be9576"/><path d="M204.51,458.31c0-.84-1.23-1.1-1.23-1.1h-1.84c-3.89,0-6.2-3.59-6.2-3.59v-.21c-.66,1.36-1,1.41-1,1.41-2.42,1.07-2.84-1-3.12-1.46l-.08.28a4.29,4.29,0,0,0-.89,3.57v1.6h2.55l0-.56h1.49l1,.56h9.3A2.91,2.91,0,0,0,204.51,458.31Z" style="fill:#171d22"/><path d="M189.84,451.59c-.6-7.76-1-18.87-1.81-26.37a55.67,55.67,0,0,0-2-10.71c-1-3.31-2.73-5.83-4.77-6.3A182,182,0,0,0,140,404.38l-3.72-8.91a209.79,209.79,0,0,1,23.64,1.76q5.84.75,11.65,1.79c1.93.35,3.86.73,5.79,1.12l2.88.62c1,.25,1.73.35,3.18.8a12.19,12.19,0,0,1,6.16,4.81,21.88,21.88,0,0,1,2.76,6.21,61.42,61.42,0,0,1,1.88,12.06c.57,7.89.71,19,1,26.63Z" style="fill:#040d13"/><path d="M129.68,394.05a17.89,17.89,0,0,0,1.75,7.43c1.66,2.54,4.56,4.66,9.67,4,0,0,3.71-.08,4.93-12.85,0-.24,0-.48.06-.73,0,0,0-.08,0-.12,0-.48,0-1,0-1.44l-.05-2.55H130Z" style="fill:#203543"/><path d="M145.52,359.9c-.58-9.4,0-21.88-6.52-24.87-5.8-2.67-7,2.76-7.81,12.08l-.75,39.32H146Z" style="fill:#fff"/><polygon points="143.57 339.06 141.68 336.96 143.18 340.66 143.57 339.06" style="fill:#fbb03b"/><path d="M134.48,334.77l1-1.86,6.14,1.45,1.54,3.54S137.73,334.8,134.48,334.77Z" style="fill:#f0ecec"/><path d="M142.78,339.36a70,70,0,0,1,2.63,19.31c.14,11.77.49,23.77.49,23.77l.69,2.21S148.25,346.56,142.78,339.36Z" style="fill:#fbb03b"/><rect x="189.53" y="447.44" width="3.74" height="8.87" transform="translate(-20.45 9.22) rotate(-2.62)" style="fill:#fdc79d"/><path d="M202.91,459.33c0-.84-1.23-1.1-1.23-1.1h-1.84c-3.89,0-6.2-3.59-6.2-3.59v-.21c-.66,1.35-1.05,1.41-1.05,1.41-2.42,1.07-2.83-1-3.12-1.46l-.08.29a4.29,4.29,0,0,0-.89,3.57v1.6h2.55l0-.56h1.49l1,.56h9.31A3.09,3.09,0,0,0,202.91,459.33Z" style="fill:#2e3943"/><path d="M189,452.67c-.6-7.76-1-18.87-1.81-26.37a55.61,55.61,0,0,0-2-10.71c-1-3.31-2.73-5.83-4.77-6.3a181.9,181.9,0,0,0-41.26-3.82l-3.72-8.91a210.92,210.92,0,0,1,23.64,1.76q5.85.75,11.65,1.79c1.93.35,3.86.73,5.79,1.12l2.88.62c1,.25,1.73.35,3.18.79a12.21,12.21,0,0,1,6.16,4.81,21.89,21.89,0,0,1,2.77,6.21,61.42,61.42,0,0,1,1.88,12.06c.57,7.89.71,19,1,26.63Z" style="fill:#203543"/><path d="M154.38,387.88a6.46,6.46,0,0,0-6.13-6.76l-27.91,1.55-.19-1.95.1-1.93,28.19-1.53a10.34,10.34,0,0,1,9.81,10.82l-3.76,17.46-3.89.27Z" style="fill:#0c1f2f"/><path d="M133.06,409.34a24.26,24.26,0,0,0,3.44-.06l.15,0c28.3-5.16,43.14,3.47,43.3,3.54a1.94,1.94,0,0,0,1.58-3.53c-.68-.3-15.95-9.2-45.49-3.83-.72.06-7.55.53-11.26-2.68a7,7,0,0,1-2.38-5.3c-.11-2.61.05-5.48.22-8.51.58-10.08,1.29-22.62-7.08-38.53a1.94,1.94,0,0,0-3.43,1.8c7.87,15,7.18,26.9,6.64,36.5-.18,3.13-.35,6.09-.23,8.89a10.84,10.84,0,0,0,3.73,8.08c3.19,2.76,7.72,3.49,10.81,3.64Z" style="fill:#0c1f2f"/><path d="M147.82,323c-.9,8.27-5.41,7.15-7.24,7l-4.49-1.56a4.38,4.38,0,0,1-2.88-4.43l.09-11.13c.17-1.84,3.43-2.87,5.27-2.7l9.49.87c1.84.17,1.41,9.88,1.25,11.71Z" style="fill:#fdc79d"/><path d="M148.73,312.11s6-2.49,4.18-7.1c0,0-5.39,3.11-14.87.28,0,0-6.44-1.58-5.69,10.5a26.24,26.24,0,0,0,.44,8.64l.24.34,1.58-.8s3.87-7.85,5.46-7.53c0,0,.94-.47,1.21,1.88l0,.67,1.32,1.74.91-5.41S142.38,311,148.73,312.11Z" style="fill:#481700"/><path d="M149.51,320.83a.2.2,0,0,0,.19.22h0a.2.2,0,0,0,.22-.19l.38-4.65a.2.2,0,0,0-.19-.22h0a.2.2,0,0,0-.22.19Z"/><path d="M141.86,317.83l7.67.59c.24,0,.42.12.41.23s-.21.19-.43.17l-7.83-.61-1.49.56-.19-.32Z"/><path d="M139.44,342.82l-4.25.34a29.75,29.75,0,0,0,11.46,20.3c0-1.32-.17-3.45-.28-5.22A26.74,26.74,0,0,1,139.44,342.82Z" style="fill:#b4b1b1;opacity:0.65"/><rect x="171.54" y="366.25" width="3.7" height="96.93" style="fill:#e5ebf0"/><rect x="322.21" y="366.25" width="3.7" height="96.93" style="fill:#e5ebf0"/><rect x="166.73" y="365.24" width="167.87" height="3.7"/><polygon points="190.88 459.19 190.85 459.76 193.43 459.76 192.4 459.19 190.88 459.19" style="fill:none"/><path d="M203.42,365.87c0,.35-.55.63-1.23.63H177.74c-.68,0-.46-.23-.46-.58l0-.42c0-.35-.2-.36.48-.36h24.45c.68,0,1.23.28,1.23.63Z" style="fill:#fff"/><path d="M203,365.48c-.21.37-.51.61-.67.52l-.19-.11c-.16-.09-.11-.46.1-.84l12.14-21.26c.21-.37.51-.61.67-.52l.19.11c.16.09.11.47-.1.84Z" style="fill:#fff"/><polygon points="214.9 343.26 212.2 344.14 200.59 364.06 202.55 365.35 214.9 343.26" style="fill:#999"/><polygon points="176.73 364.78 177.35 365.5 202.55 365.35 200.74 363.86 176.73 364.78" style="fill:#dbdbdb"/><polygon points="177.29 366.4 176.73 365.78 176.73 364.78 177.29 365.4 177.29 366.4" style="fill:#fff"/><path d="M304.77,365.87c0,.35.55.63,1.23.63h24.45c.68,0,.46-.23.46-.58l0-.42c0-.35.2-.36-.48-.36H306c-.68,0-1.23.28-1.23.63Z" style="fill:#fff"/><path d="M305.22,365.48c.21.37.51.61.67.52l.19-.11c.16-.09.11-.46-.11-.84l-12.14-21.26c-.21-.37-.51-.61-.67-.52l-.19.11c-.16.09-.11.47.1.84Z" style="fill:#fff"/><polygon points="293.29 343.26 295.99 344.14 307.6 364.06 305.64 365.35 293.29 343.26" style="fill:#999"/><polygon points="331.46 364.78 330.84 365.5 305.64 365.35 307.45 363.86 331.46 364.78" style="fill:#dbdbdb"/><polygon points="330.9 366.4 331.46 365.78 331.46 364.78 330.9 365.4 330.9 366.4" style="fill:#fff"/><path d="M180.94,366.16l-.17-.13h0l0-.06c.12-.22,0-.51-.32-.68l-3-1.73a.62.62,0,0,0-.64,0,10,10,0,0,0-2.68,2.28c-.46.63-3.17.51-3.17.51l-.08,1.83,2,.08a3.91,3.91,0,0,0,2.67-.24.52.52,0,0,0,.18-.09l2-1.84L179,367.3a.44.44,0,0,0,.61-.07l0,0a.43.43,0,0,0,0-.6l-1-1,1.77,1.29a.54.54,0,0,0,.75,0l0,0C181.34,366.67,181.22,366.35,180.94,366.16Z" style="fill:#fdc79d"/><path d="M172.46,368.64c-8.09.77-16.92,0-24.28-4.68A29.79,29.79,0,0,1,135,342.56l4.43-.31c.7,7.14,4.53,14.54,10.73,18.67s14.29,5.39,22.06,4.91Z" style="fill:#fff"/><ellipse cx="150.79" cy="460.06" rx="2.68" ry="2.54" style="fill:#171d22"/><path d="M319.68,362.8l.17-.13h0l0-.06c-.12-.22,0-.51.32-.69l3-1.74a.62.62,0,0,1,.65,0,10.1,10.1,0,0,1,2.69,2.3c.47.63,3.19.51,3.19.51l.07,1.84-2,.08a3.93,3.93,0,0,1-2.68-.24.52.52,0,0,1-.18-.09l-2-1.85-1.27,1.22a.44.44,0,0,1-.61-.07l0,0a.43.43,0,0,1,0-.61l1-1-1.78,1.3a.55.55,0,0,1-.76,0l0,0C319.28,363.31,319.4,363,319.68,362.8Z" style="fill:#fdcf9d"/><path d="M365.69,340.3l-4.26-.31a26.91,26.91,0,0,1-7,15.56c-.09,1.67-.2,3.78-.28,5.24A30.07,30.07,0,0,0,365.69,340.3Z" style="fill:#b4b1b1;opacity:0.65"/><path d="M328.22,365.29c8.14.77,17,0,24.42-4.71a30,30,0,0,0,13.25-21.52l-4.45-.31c-.7,7.18-4.56,14.62-10.79,18.78s-14.38,5.42-22.2,4.94Z" style="fill:#fff"/><polygon points="316.5 353.97 302.28 347.18 310.4 329.88 324.63 336.67 316.5 353.97" style="fill:#fff"/><polygon points="309.7 344.92 307.16 343.74 307.23 343.59 309.77 344.77 309.7 344.92" style="fill:#bbbdbf"/><rect x="308.03" y="342.86" width="0.16" height="3.24" transform="translate(-134.05 479.02) rotate(-65.11)" style="fill:#bbbdbf"/><polygon points="309.39 345.57 306.45 344.21 306.52 344.06 309.46 345.42 309.39 345.57" style="fill:#bbbdbf"/><polygon points="309.24 345.9 306.3 344.53 306.37 344.39 309.31 345.75 309.24 345.9" style="fill:#bbbdbf"/><rect x="307.57" y="343.85" width="0.16" height="3.24" transform="translate(-135.21 479.16) rotate(-65.11)" style="fill:#bbbdbf"/><rect x="307.42" y="344.18" width="0.16" height="3.24" transform="translate(-135.58 479.27) rotate(-65.12)" style="fill:#bbbdbf"/><polygon points="308.78 346.88 305.84 345.52 305.91 345.37 308.85 346.74 308.78 346.88" style="fill:#bbbdbf"/><rect x="306.76" y="345.06" width="0.16" height="2.47" transform="translate(-136.42 478.92) rotate(-65.11)" style="fill:#bbbdbf"/><rect x="311.94" y="344.51" width="0.16" height="2.79" transform="translate(-133.07 483.38) rotate(-65.11)" style="fill:#bbbdbf"/><polygon points="313.1 346.89 310.16 345.53 310.23 345.38 313.17 346.74 313.1 346.89" style="fill:#bbbdbf"/><rect x="311.43" y="344.84" width="0.16" height="3.24" transform="translate(-133.89 483.19) rotate(-65.11)" style="fill:#bbbdbf"/><rect x="311.28" y="345.17" width="0.16" height="3.24" transform="translate(-134.25 483.33) rotate(-65.12)" style="fill:#bbbdbf"/><rect x="311.13" y="345.5" width="0.16" height="3.24" transform="translate(-134.64 483.36) rotate(-65.11)" style="fill:#bbbdbf"/><polygon points="312.49 348.21 309.55 346.84 309.62 346.69 312.56 348.06 312.49 348.21" style="fill:#bbbdbf"/><rect x="310.82" y="346.16" width="0.16" height="3.24" transform="translate(-135.42 483.44) rotate(-65.11)" style="fill:#bbbdbf"/><rect x="310.32" y="346.71" width="0.16" height="2.47" transform="translate(-135.87 483.05) rotate(-65.11)" style="fill:#bbbdbf"/><rect x="315.45" y="346.14" width="0.16" height="2.79" transform="translate(-132.52 487.5) rotate(-65.11)" style="fill:#bbbdbf"/><polygon points="316.62 348.52 313.67 347.16 313.74 347.01 316.69 348.38 316.62 348.52" style="fill:#bbbdbf"/><rect x="314.95" y="346.47" width="0.16" height="3.24" transform="translate(-133.32 487.38) rotate(-65.11)" style="fill:#bbbdbf"/><rect x="314.79" y="346.8" width="0.16" height="3.24" transform="translate(-133.71 487.42) rotate(-65.11)" style="fill:#bbbdbf"/><rect x="314.64" y="347.13" width="0.16" height="3.24" transform="translate(-134.07 487.54) rotate(-65.12)" style="fill:#bbbdbf"/><rect x="314.49" y="347.46" width="0.16" height="3.24" transform="translate(-134.47 487.55) rotate(-65.11)" style="fill:#bbbdbf"/><rect x="314.34" y="347.79" width="0.16" height="3.24" transform="translate(-134.87 487.57) rotate(-65.11)" style="fill:#bbbdbf"/><polygon points="315 350.17 312.76 349.13 312.83 348.98 315.07 350.02 315 350.17" style="fill:#bbbdbf"/><path d="M311.3,334.09a3,3,0,0,1,.47.17.82.82,0,0,1,.44.38.54.54,0,0,1,0,.45.59.59,0,0,1-.32.32.83.83,0,0,1-.65-.05.89.89,0,0,1-.18-.1l-.33.73-.23-.11Zm-.16,1a.87.87,0,0,0,.19.11c.28.13.52.07.63-.18s0-.43-.27-.55a1.08,1.08,0,0,0-.23-.08Z" style="fill:#bbbdbf"/><path d="M312.74,334.75a2.69,2.69,0,0,1,.47.17.82.82,0,0,1,.46.39.5.5,0,0,1,0,.41.52.52,0,0,1-.55.31h0a.5.5,0,0,1,.1.49,3.19,3.19,0,0,0-.09.56l-.24-.11a2.59,2.59,0,0,1,.08-.49c.06-.28,0-.41-.2-.52l-.22-.1-.36.79-.23-.11Zm-.14.94.24.11a.39.39,0,0,0,.57-.16c.11-.23,0-.41-.26-.53a1.06,1.06,0,0,0-.24-.08Z" style="fill:#bbbdbf"/><path d="M315.36,337a.94.94,0,0,1-1.28.57.92.92,0,0,1-.4-1.29,1,1,0,0,1,1.28-.57A.91.91,0,0,1,315.36,337Zm-1.42-.61a.71.71,0,0,0,.25,1c.37.17.74-.08.93-.49a.72.72,0,0,0-.24-1C314.47,335.7,314.11,336,313.93,336.37Z" style="fill:#bbbdbf"/><path d="M316.44,336.4l.23.11-.55,1.22c-.22.48-.52.52-.84.38A.83.83,0,0,1,315,338l.12-.18a.61.61,0,0,0,.18.12c.21.1.38.06.54-.3Z" style="fill:#bbbdbf"/><path d="M317.56,338.08l-.71-.32-.3.66.79.36-.09.2-1-.47.83-1.82,1,.45-.09.2-.75-.34-.26.57.71.32Z" style="fill:#bbbdbf"/><path d="M318.86,339.63a1.28,1.28,0,0,1-.52-.13.93.93,0,0,1-.48-1.33,1,1,0,0,1,1.38-.52,1.07,1.07,0,0,1,.39.28l-.14.17a.94.94,0,0,0-.33-.24.74.74,0,0,0-1.05.43.73.73,0,0,0,.37,1,1,1,0,0,0,.42.1Z" style="fill:#bbbdbf"/><path d="M320.28,338.39l-.55-.25.09-.2,1.35.61-.09.2-.56-.25-.74,1.62-.24-.11Z" style="fill:#bbbdbf"/><rect x="312.59" y="338.25" width="0.05" height="13.2" transform="translate(-130.99 485.79) rotate(-65.43)" style="fill:#d0d2d3"/><path d="M317.66,347.15h0l2.58-5.64h0l-2.58,5.64Zm-1-.44h0l2.58-5.64h0l-2.58,5.64Zm-1-.44h0l2.58-5.64h0l-2.58,5.64Zm-1-.44h0l2.58-5.64h0l-2.58,5.64Zm-1-.44h0l2.58-5.64h0l-2.58,5.64Zm-1-.44h0l2.58-5.64h0l-2.58,5.64Zm-1-.44h0l2.58-5.64h0l-2.58,5.64Zm-1-.44h0l2.58-5.64h0l-2.58,5.64Zm-1-.44h0L312.5,338h0l-2.58,5.64Zm-1-.44h0l2.58-5.64h0L309,343.18Zm-1-.44h0l2.58-5.64h0L308,342.74Zm-1-.44h0l2.58-5.64h0L307,342.3Z" style="fill:#d0d2d3"/><path d="M318.17,347.39h0l2.58-5.64h0l-2.58,5.64Zm-1-.44h0l2.58-5.64h0l-2.58,5.64Zm-1-.44h0l2.58-5.64h0l-2.58,5.64Zm-1-.44h0l2.58-5.64h0l-2.58,5.64Zm-1-.44h0l2.58-5.64h0l-2.58,5.64Zm-1-.44h0l2.58-5.64h0l-2.58,5.64Zm-1-.44h0l2.58-5.64h0l-2.58,5.64Zm-1-.44h0l2.58-5.64h0l-2.58,5.64Zm-1-.44h0l2.58-5.64h0l-2.58,5.64Zm-1-.44h0l2.58-5.64h0l-2.58,5.64Zm-1-.44h0l2.58-5.64h0L308.51,343Zm-1-.44h0l2.58-5.64h0l-2.58,5.64Z" style="fill:#d0d2d3"/><polygon points="319.04 346.67 307.03 341.18 307.04 341.16 319.05 346.65 319.04 346.67 319.04 346.67" style="fill:#d0d2d3"/><polygon points="319.46 345.73 307.46 340.25 307.46 340.23 319.47 345.72 319.46 345.73 319.46 345.73" style="fill:#d0d2d3"/><polygon points="319.89 344.8 307.88 339.31 307.89 339.3 319.9 344.79 319.89 344.8 319.89 344.8" style="fill:#d0d2d3"/><path d="M320.32,343.87l-12-5.49v0l12,5.49v0Zm.43-.93-12-5.49v0l12,5.49v0Z" style="fill:#d0d2d3"/><polygon points="319.25 346.2 307.24 340.72 307.25 340.7 319.26 346.19 319.25 346.2 319.25 346.2" style="fill:#d0d2d3"/><polygon points="318.84 347.1 306.83 341.61 306.84 341.59 318.85 347.08 318.84 347.1 318.84 347.1" style="fill:#d0d2d3"/><polygon points="319.68 345.27 307.67 339.78 307.67 339.77 319.68 345.26 319.68 345.27 319.68 345.27" style="fill:#d0d2d3"/><polygon points="320.1 344.34 308.09 338.85 308.1 338.84 320.11 344.33 320.1 344.34 320.1 344.34" style="fill:#d0d2d3"/><path d="M320.53,343.41l-12-5.49v0l12,5.49v0Zm.43-.93-12-5.49v0l12,5.49v0Z" style="fill:#d0d2d3"/><path d="M306.34,342c0,.08-.08.1-.13.08s-.05-.07,0-.15.09-.1.13-.08S306.37,341.89,306.34,342Zm-.12-.05c0,.06,0,.1,0,.11s.06,0,.09-.07,0-.1,0-.11S306.24,341.85,306.21,341.91Z" style="fill:#bbbdbf"/><path d="M306.74,340.86h0v0h.09l-.1.22h0Z" style="fill:#bbbdbf"/><path d="M307,341.06c0,.08-.08.1-.13.08s-.05-.07,0-.15.09-.1.13-.08S307,341,307,341.06Zm-.12-.05c0,.06,0,.1,0,.11s.06,0,.09-.07,0-.1,0-.11S306.86,341,306.84,341Z" style="fill:#bbbdbf"/><path d="M307,340.16v0h0c.08,0,.12,0,.14-.08a0,0,0,0,0,0-.06h-.06v0h.07a.07.07,0,0,1,0,.1s-.06.06-.13.08h0l.1,0v0Z" style="fill:#bbbdbf"/><path d="M307.36,340.19c0,.08-.08.1-.13.08s-.05-.07,0-.15.09-.1.13-.08S307.39,340.12,307.36,340.19Zm-.12-.05c0,.06,0,.1,0,.11s.06,0,.09-.07,0-.1,0-.11S307.26,340.08,307.23,340.14Z" style="fill:#bbbdbf"/><path d="M307.42,339.22l0,0a0,0,0,0,0,.07,0s0-.06,0-.07h0v0h0s.05,0,.07,0,0,0,0-.05h-.05v0h.07a.06.06,0,0,1,0,.08.06.06,0,0,1-.07,0h0a.06.06,0,0,1,0,.08.08.08,0,0,1-.11,0l-.05,0Z" style="fill:#bbbdbf"/><path d="M307.77,339.28c0,.08-.08.1-.13.08s-.05-.07,0-.15.09-.1.13-.08S307.8,339.21,307.77,339.28Zm-.12-.05c0,.06,0,.1,0,.11s.06,0,.09-.07,0-.1,0-.11S307.68,339.17,307.65,339.23Z" style="fill:#bbbdbf"/><path d="M307.92,338.36l0-.06-.1,0v0l.16-.1h0l-.06.14h0v0h0l0,.06Zm0-.08,0-.07,0,0h0l0,0-.09.05h0Z" style="fill:#bbbdbf"/><path d="M308.2,338.35c0,.08-.08.1-.13.08s-.05-.07,0-.15.09-.1.13-.08S308.23,338.28,308.2,338.35Zm-.12-.05c0,.06,0,.1,0,.11s.06,0,.09-.07,0-.1,0-.11S308.1,338.24,308.08,338.3Z" style="fill:#bbbdbf"/><path d="M308.48,337.23l-.09,0,0,.05h0l0,0a.07.07,0,0,1,0,.07.08.08,0,0,1-.12,0l0,0,0,0,0,0a.05.05,0,0,0,.07,0s0-.06,0-.08h0l.06-.1.11,0Z" style="fill:#bbbdbf"/><path d="M308.63,337.4c0,.08-.08.1-.13.08s-.06-.07,0-.15.09-.1.13-.08S308.66,337.33,308.63,337.4Zm-.12-.05c0,.06,0,.1,0,.11s.06,0,.09-.07,0-.1,0-.11S308.54,337.29,308.51,337.35Z" style="fill:#bbbdbf"/><rect x="307.8" y="341.11" width="2.57" height="1.26" transform="translate(-130.23 480.75) rotate(-65.43)" style="fill:#fdc00f"/><rect x="309.47" y="341.68" width="3.16" height="1.26" transform="translate(-129.6 482.87) rotate(-65.43)" style="fill:#fdc00f"/><rect x="311.05" y="342.12" width="4.05" height="1.26" transform="translate(-128.81 485.01) rotate(-65.44)" style="fill:#fdc00f"/><rect x="312.67" y="342.61" width="4.82" height="1.26" transform="translate(-128.08 487.12) rotate(-65.44)" style="fill:#fdc00f"/><rect x="314.32" y="343.16" width="5.48" height="1.26" transform="translate(-127.43 489.22) rotate(-65.43)" style="fill:#fdc00f"/><path d="M319.46,342.72l0-.12-3.52.8a.22.22,0,0,0-.37-.06l-1.36-1.17a.22.22,0,0,0-.12-.26.22.22,0,0,0-.29.11.22.22,0,0,0,0,.1l-2.08.62a.22.22,0,0,0-.11-.11.22.22,0,0,0-.23,0l-1.23-1.1a.22.22,0,0,0-.4-.18.22.22,0,0,0,0,.05l-2.12.46,0,.12,2.1-.46a.21.21,0,0,0,.32.09l1.24,1.11a.22.22,0,0,0,.41.16.21.21,0,0,0,0-.05l2.1-.63a.21.21,0,0,0,.08.07.22.22,0,0,0,.23,0l1.38,1.18a.22.22,0,0,0,.42.11.21.21,0,0,0,0,0Z" style="fill:#4d70a0"/><polygon points="322.61 346.5 321.9 344.69 321.12 345.09 321.63 346.78 322.61 346.5" style="fill:#fdd9b1"/><path d="M320.07,343.75c-.14-.07-.33-.1-.43.09a.59.59,0,0,0,.27.67l1.65.85.34-.67Z" style="fill:#fdd9b1"/><ellipse cx="371.41" cy="457.32" rx="2.7" ry="2.55" style="fill:#0c1f2f"/><ellipse cx="350.02" cy="459.22" rx="2.7" ry="2.55" style="fill:#0c1f2f"/><ellipse cx="329.03" cy="457.79" rx="2.7" ry="2.55" style="fill:#0c1f2f"/><path d="M353.78,201.18a110.09,110.09,0,0,1-33.54,60.22l2.71,2.95a114.1,114.1,0,0,0,34.86-62.95l-.8,0A22.72,22.72,0,0,1,353.78,201.18Z" style="fill:#8ca5b6"/><path d="M308.78,85.8a113.23,113.23,0,0,0-38.34-16.29,22.61,22.61,0,0,1-.46,4,109.26,109.26,0,0,1,36.09,15.3A22.67,22.67,0,0,1,308.78,85.8Z" style="fill:#8ca5b6"/><path d="M340.67,117.62a22.66,22.66,0,0,1-3,2.73,109.13,109.13,0,0,1,15.45,36.31,22.66,22.66,0,0,1,3.9-.34h.12A113.13,113.13,0,0,0,340.67,117.62Z" style="fill:#8ca5b6"/><path d="M225.69,72.75a22.67,22.67,0,0,1-.34-3.9s0-.07,0-.11a113.12,113.12,0,0,0-43.41,17.94,22.65,22.65,0,0,1,2.54,3.13A109.11,109.11,0,0,1,225.69,72.75Z" style="fill:#8ca5b6"/><path d="M153.67,121.41a22.64,22.64,0,0,1-3.18-2.44,113.25,113.25,0,0,0-13.6,29.67,22.52,22.52,0,0,1,4,.61A109.26,109.26,0,0,1,153.67,121.41Z" style="fill:#8ca5b6"/><path d="M137.09,193.61c-.54,0-1.08.07-1.63.07a22.78,22.78,0,0,1-2.41-.13,113.84,113.84,0,0,0,12.53,40.32,22.57,22.57,0,0,1,3.34-2.24A109.86,109.86,0,0,1,137.09,193.61Z" style="fill:#8ca5b6"/><path d="M159.71,228.89a22.55,22.55,0,1,0,22.55,22.55A22.45,22.45,0,0,0,159.71,228.89Z" style="fill:#fff"/><path d="M141,149.26a22.5,22.5,0,0,0-4-.63c-.47,0-.94-.05-1.42-.06a22.55,22.55,0,0,0-2.62,45,22.81,22.81,0,0,0,2.41.14c.55,0,1.09,0,1.63-.06a22.55,22.55,0,0,0,4-44.36Z" style="fill:#fff"/><path d="M135.46,195.68A24.55,24.55,0,1,1,160,171.13,24.58,24.58,0,0,1,135.46,195.68Zm0-45.1A20.55,20.55,0,1,0,156,171.13,20.57,20.57,0,0,0,135.46,150.58Z" style="fill:#8bdc9b"/><path d="M138.9,154.61a1.1,1.1,0,0,1,1.51.37l8.33,13.71a1.1,1.1,0,0,1-.37,1.51l-21.51,13.06a1.09,1.09,0,0,1-1.5-.37L117,169.18a1.09,1.09,0,0,1,.37-1.5Z" style="fill:#8bdc9b"/><path d="M120.3,171.84l4.21,6.93a4.83,4.83,0,0,1,5.39,1.06l14.71-8.94a4.8,4.8,0,0,1,1.16-4.9l-4.32-7.1a4.8,4.8,0,0,1-4.88-1.24l-14.71,8.94A4.84,4.84,0,0,1,120.3,171.84Z" style="fill:#fff"/><path d="M124.85,172.22a1.35,1.35,0,1,1-.25,1.7A1.23,1.23,0,0,1,124.85,172.22Z" style="fill:#b9dc8c"/><path d="M130.08,164.23c1.78-1.08,4.53.17,6.12,2.79s1.44,5.64-.34,6.72-4.53-.16-6.12-2.79S128.29,165.32,130.08,164.23Z" style="fill:#8bdc9b"/><path d="M131.93,166.7a2.61,2.61,0,0,1,.88-.32,2.57,2.57,0,0,1,1,.07l-.25,1a1.31,1.31,0,0,0-1.07.12l.63,1a2.87,2.87,0,0,1,1.29-.24,1.42,1.42,0,0,1,1.16.77,1.45,1.45,0,0,1,.07,1.32,2.23,2.23,0,0,1-.76,1l.2.34-.45.27-.2-.33a3,3,0,0,1-1,.36,2.73,2.73,0,0,1-1.08,0l.25-1a1.74,1.74,0,0,0,1.3-.18l-.7-1.16a3.08,3.08,0,0,1-1.2.25,1.24,1.24,0,0,1-1.09-.7,1.4,1.4,0,0,1-.08-1.37,2.41,2.41,0,0,1,.7-.94l-.2-.33.45-.27Zm.12,1.21a.62.62,0,0,0-.21.45.44.44,0,0,0,.28.47.85.85,0,0,0,.47,0Zm1.6,1.62.64,1.06a.7.7,0,0,0,.28-.5.6.6,0,0,0-.33-.54A.77.77,0,0,0,133.66,169.53Z" style="fill:#e9f9f5"/><path d="M146.66,162.08a1.1,1.1,0,0,1,1.26.91l2.56,15.84a1.1,1.1,0,0,1-.91,1.26l-24.85,4a1.09,1.09,0,0,1-1.25-.9l-2.57-15.84a1.09,1.09,0,0,1,.91-1.26Z" style="fill:#a2e3af"/><path d="M122.94,171.05l1.29,8a4.83,4.83,0,0,1,4.6,3l17-2.75a4.8,4.8,0,0,1,2.91-4.11L147.41,167a4.8,4.8,0,0,1-4.06-3l-17,2.75A4.84,4.84,0,0,1,122.94,171.05Z" style="fill:#fff"/><path d="M127,173.11a1.35,1.35,0,1,1-.87,1.48A1.23,1.23,0,0,1,127,173.11Z" style="fill:#a2e3af"/><path d="M144.27,169.94a1.35,1.35,0,1,1-.87,1.48A1.23,1.23,0,0,1,144.27,169.94Z" style="fill:#a2e3af"/><path d="M134.87,167.69c2.06-.33,4.13,1.85,4.62,4.88s-.79,5.77-2.84,6.1-4.14-1.85-4.62-4.89S132.8,168,134.87,167.69Z" style="fill:#a2e3af"/><path d="M135.66,170.67a2.61,2.61,0,0,1,.94,0,2.57,2.57,0,0,1,.89.43l-.62.86a1.31,1.31,0,0,0-1-.29l.19,1.2a2.87,2.87,0,0,1,1.28.26,1.42,1.42,0,0,1,.78,1.15,1.45,1.45,0,0,1-.43,1.25,2.23,2.23,0,0,1-1.09.66l.06.39-.52.08-.06-.38a3,3,0,0,1-1.08,0,2.73,2.73,0,0,1-1-.45l.62-.86a1.74,1.74,0,0,0,1.27.32l-.22-1.34a3.08,3.08,0,0,1-1.21-.22,1.24,1.24,0,0,1-.74-1.06,1.4,1.4,0,0,1,.44-1.3,2.41,2.41,0,0,1,1-.61l-.06-.38.52-.08Zm-.34,1.17a.62.62,0,0,0-.37.33.44.44,0,0,0,.09.54.85.85,0,0,0,.44.16Zm.88,2.1.19,1.22a.7.7,0,0,0,.44-.36.6.6,0,0,0-.11-.63A.77.77,0,0,0,136.19,173.94Z" style="fill:#e9f9f5"/><circle cx="331.46" cy="251.44" r="22.55" style="fill:#fff"/><path d="M331.46,276A24.55,24.55,0,1,1,356,251.44,24.58,24.58,0,0,1,331.46,276Zm0-45.1A20.55,20.55,0,1,0,352,251.44,20.57,20.57,0,0,0,331.46,230.89Z" style="fill:#abbcc7"/><path d="M159.71,276a24.55,24.55,0,1,1,24.55-24.55A24.58,24.58,0,0,1,159.71,276Zm0-45.1a20.55,20.55,0,1,0,20.55,20.55A20.57,20.57,0,0,0,159.71,230.89Z" style="fill:#a1b500"/><path d="M345.59,248H329.86a.5.5,0,0,0-.5.5v11.38a.5.5,0,0,0,.5.5h4.42v4l4.21-4h7.1a.5.5,0,0,0,.49-.5V248.5A.5.5,0,0,0,345.59,248Z" style="fill:#2d5872"/><path d="M333.6,243.36H317.87a.5.5,0,0,0-.5.5v11.38a.5.5,0,0,0,.5.5h4.42v4l4.22-4h7.09a.5.5,0,0,0,.5-.5V243.86A.5.5,0,0,0,333.6,243.36Z" style="fill:#172c39;opacity:0.4"/><path d="M333.05,242.87H317.32a.5.5,0,0,0-.5.5v11.38a.5.5,0,0,0,.5.5h4.42v4l4.22-4h7.09a.5.5,0,0,0,.5-.5V243.37A.49.49,0,0,0,333.05,242.87Z" style="fill:#2eaeb7"/><rect x="318.82" y="245.9" width="12.14" height="0.58" style="fill:#d5eff1"/><rect x="318.82" y="248.34" width="12.14" height="0.58" style="fill:#d5eff1"/><rect x="318.82" y="249.56" width="12.14" height="0.58" style="fill:#d5eff1"/><rect x="318.82" y="250.78" width="9.53" height="0.58" style="fill:#d5eff1"/><rect x="321.19" y="247.12" width="9.77" height="0.58" style="fill:#d5eff1"/><path d="M174,242.77a1.31,1.31,0,0,0-1-1.55l-20.65-4.15a1.31,1.31,0,0,0-1.55,1l-1.35,6.73,23.23,4.66Z" style="fill:#fdc00f"/><path d="M146.48,259.61a3,3,0,0,0,2.31,3.47l17.45,3.5a3,3,0,0,0,3.47-2.31l2.61-13-23.23-4.66Z" style="fill:#999"/><path d="M146.6,259a3,3,0,0,0,2.31,3.47l17.45,3.5a3,3,0,0,0,3.47-2.31l2.61-13L149.21,246Z" style="fill:#ccc"/><path d="M146.72,258.39a3,3,0,0,0,2.31,3.47l17.45,3.5a3,3,0,0,0,3.47-2.31l2.61-13-23.23-4.66Z" style="fill:#e6e6e6"/><path d="M146.84,257.78a3,3,0,0,0,2.31,3.47l17.45,3.5a3,3,0,0,0,3.47-2.31l2.61-13-23.23-4.66Z" style="fill:#f0f3f5"/><circle cx="154.24" cy="240.23" r="1.11" transform="translate(-111.65 344.17) rotate(-78.65)" style="fill:#fee69f"/><circle cx="154.27" cy="240.09" r="1.11" transform="translate(-111.49 344.08) rotate(-78.65)" style="fill:#3f3004"/><rect x="152.19" y="237.17" width="5.06" height="1.33" rx="0.52" ry="0.52" transform="translate(-108.9 342.76) rotate(-78.66)" style="fill:#f0ecec"/><path d="M155.35,242.33a4,4,0,0,0-.6-.07h-.06l-.44,2.19.06,0,.5.13a1.38,1.38,0,0,0,1-.13,1.21,1.21,0,0,0,.5-.8,1.07,1.07,0,0,0-.16-.87A1.29,1.29,0,0,0,155.35,242.33Zm-.42,1.92-.21,0,.31-1.55.25,0a.83.83,0,0,1,.56.32.75.75,0,0,1,.08.58A.76.76,0,0,1,154.93,244.24Z" style="fill:#fff"/><polygon points="156.94 243.97 157.76 244.13 157.83 243.77 157.01 243.61 157.12 243.08 157.98 243.25 158.06 242.89 156.78 242.63 156.33 244.88 157.65 245.14 157.72 244.78 156.81 244.59 156.94 243.97" style="fill:#fff"/><path d="M159.31,243.48a.93.93,0,0,1,.38.16l.07,0,.18-.33,0,0a1.2,1.2,0,0,0-.51-.21,1.14,1.14,0,0,0-1.41.94,1.07,1.07,0,0,0,.88,1.36,1.44,1.44,0,0,0,.61,0h.05l0-.37-.08,0a1,1,0,0,1-.43,0,.71.71,0,0,1-.59-.93A.73.73,0,0,1,159.31,243.48Z" style="fill:#fff"/><polygon points="160.29 244.64 161.11 244.81 161.19 244.45 160.37 244.28 160.47 243.75 161.34 243.93 161.41 243.56 160.14 243.3 159.69 245.55 161.01 245.81 161.08 245.45 160.17 245.27 160.29 244.64" style="fill:#fff"/><path d="M163.32,243.94l-.61,1-.26.46c0-.15,0-.32-.06-.52l-.16-1.14-.46-.09-.61,2.21.4.08.25-1,.13-.5c0,.13,0,.27.05.44l.15,1.12.3.06.6-1,.24-.4c0,.18-.06.36-.08.53l-.14,1,.4.08.31-2.27Z" style="fill:#fff"/><path d="M165.11,245.38a.55.55,0,0,0,.35-.41.52.52,0,0,0-.12-.47,1,1,0,0,0-.59-.29,2.78,2.78,0,0,0-.52-.06h-.06l-.44,2.19.06,0a3.3,3.3,0,0,0,.43.11,1.15,1.15,0,0,0,.82-.06.65.65,0,0,0,.29-.43A.6.6,0,0,0,165.11,245.38Zm-.51-.25-.18,0,.11-.55.17,0c.4.08.35.29.34.36S164.84,245.18,164.6,245.13Zm-.22,1-.16,0,.14-.68.16,0c.14,0,.47.13.41.43S164.59,246.19,164.38,246.15Z" style="fill:#fff"/><polygon points="166.05 245.8 166.87 245.96 166.94 245.6 166.12 245.44 166.22 244.91 167.09 245.08 167.16 244.72 165.89 244.46 165.44 246.71 166.76 246.97 166.84 246.61 165.92 246.42 166.05 245.8" style="fill:#fff"/><path d="M168.5,247.22a3.63,3.63,0,0,1,0-.59.69.69,0,0,0-.15-.46.62.62,0,0,0,.43-.48.6.6,0,0,0-.1-.49.94.94,0,0,0-.62-.32,3,3,0,0,0-.55-.06h-.06L167,247l.41.08.18-.91.19,0c.21.05.28.16.29.43a2.53,2.53,0,0,0,0,.55v0l.43.09Zm-.18-1.58c0,.21-.22.3-.47.25l-.21,0,.13-.65.2,0C168.25,245.28,168.37,245.42,168.33,245.63Z" style="fill:#fff"/><path d="M157.87,253.88a1.65,1.65,0,0,0,1.21-1.27,1.73,1.73,0,0,0-1.6-2,3.18,3.18,0,0,0-1.82.16l-.09,0,.14.94.17-.08a2.22,2.22,0,0,1,1.25-.15c.61.12.9.49.8,1-.14.68-.94.77-1.44.67l-.61-.12-.18.91.61.12c.71.14,1.41.59,1.26,1.42a1,1,0,0,1-.43.67,1.37,1.37,0,0,1-1.07.14,2.75,2.75,0,0,1-1.24-.64l-.13-.12-.51.85.08.08a3.36,3.36,0,0,0,1.61.79c1.67.34,2.62-.53,2.82-1.53A1.75,1.75,0,0,0,157.87,253.88Z"/><polygon points="162.45 251.7 160.8 252.2 160.85 253.16 162.03 252.81 160.94 258.19 162.04 258.41 163.35 251.88 162.45 251.7"/><path d="M165.39,256.22v-.06a.19.19,0,0,0,0-.16,0,0,0,0,1,0,0,.24.24,0,0,1,0-.07.38.38,0,0,0,0-.1v0h0v0a4.1,4.1,0,0,0,0-1.45l0-.26v0a.68.68,0,0,1,0-.09l0-.1a2.51,2.51,0,0,0-.08-.36c0-.06,0-.11,0-.16s0-.13-.05-.19,0-.12-.06-.21v0a.27.27,0,0,1-.06-.13l0-.08,0-.08,0,0v0l0,0v0a1.26,1.26,0,0,0-.1-.26l-.06-.12a2.21,2.21,0,0,0-.15-.44v0a.89.89,0,0,1-.1-.15l0-.16a.31.31,0,0,0-.13-.2.11.11,0,0,1,0,0l0-.1,0-.06h0l0-.07a4.44,4.44,0,0,0-.35-.58l0,0,0,0h0c0-.06,0-.08,0-.09a.21.21,0,0,0,0-.14l0,0h0l-.07-.1-.1-.14a.88.88,0,0,1-.09-.13l0,0h0c-.05,0-.19-.18-.29-.31l-.18-.22-.11-.1a.46.46,0,0,1-.11-.13l-.09-.17,0,.09,0,0h-.05a4.7,4.7,0,0,0-1.23-.83h0v0a.31.31,0,0,0-.14,0H161l-.13-.06v0l0,0c-.11,0-.14,0-.17,0h0a2.84,2.84,0,0,0-.73-.19l-.18,0a.47.47,0,0,0-.24-.11h-.08v0a.65.65,0,0,1-.24,0v0h-.07a.41.41,0,0,0-.25,0h0a.16.16,0,0,0-.13,0l-.08,0a.65.65,0,0,0-.35,0l-.06,0h0l-.34.08-.11,0v-.05l-.08,0a.68.68,0,0,1-.22.06h0l0,0,0,0a1,1,0,0,0-.26.07.6.6,0,0,1-.18,0h0l-.18.07-.28.12a1.52,1.52,0,0,0-.29.19.68.68,0,0,1-.29.17h-.07v.06l-.13.09-.08.06h0l0,0a1.12,1.12,0,0,1-.15.14l-.11.09h-.1l-.19.17a2.09,2.09,0,0,0-.38.4.33.33,0,0,0-.1.11.56.56,0,0,1-.08.1.45.45,0,0,0-.18.23.94.94,0,0,1-.13.22l0,0a1.3,1.3,0,0,0-.12.24l-.06.13h0c-.06,0-.06,0-.21.27l-.11.2h0v0a.11.11,0,0,0,0,.09v0a2,2,0,0,0-.11.21l0,0a.3.3,0,0,0-.1.12l0,0,0,0h0a1.38,1.38,0,0,1-.09.19.93.93,0,0,0-.13.35.35.35,0,0,0-.07.15v0l-.05,0,0,.12a2.8,2.8,0,0,1-.19.56l0,.07,0,0a1.21,1.21,0,0,1,0,.13v0h0l0,.21c-.05.26-.09.47-.14.79v0l0,0a.49.49,0,0,1,0,.1v.06l0,.09a1.16,1.16,0,0,0,0,.55,1.33,1.33,0,0,0,.09.6.26.26,0,0,0,0,.16l0,0a.1.1,0,0,1,0,0,.24.24,0,0,0,0,.1v0h0a.36.36,0,0,0,.08.11.14.14,0,0,0,0,.05h0l0,0,.07.13a.31.31,0,0,0,.07.11l0,0,0,0h.13a.06.06,0,0,1-.06,0h0l0,0,0,0a1.6,1.6,0,0,0,.3.42h-.05l.13.12.32.28.37.32.12.05.11.05h0a.12.12,0,0,0,.06.1h0l.1.06.12.07v0l.06,0,.5.31.16.1.06,0,0,0,0,0h0a.1.1,0,0,0,0,.06h0a1.39,1.39,0,0,1,.37.19l0,0h0a2.76,2.76,0,0,1,.54.3l.08.05,0-.1a.17.17,0,0,0-.07-.15.08.08,0,0,0,0-.06l0-.08a.12.12,0,0,0,0-.13l0,0a.74.74,0,0,0,.22.15l.18.05-.07-.1,0,0v0l0,0H157l0,0h0a.08.08,0,0,0,.08-.05c0-.06,0-.11-.1-.17h0l0,0a.74.74,0,0,1-.16-.18l-.05-.07,0,0-.12-.07h0v0l-.16-.14h0l-.28-.17h0v0h0l-.13-.07-.19-.11,0,0v0l-.18-.09-.05,0,0,.05h0v0l-.11,0-.08-.06-.07,0v0l-.08,0-.07,0h0a.13.13,0,0,0-.09,0v0l0,0,0,0-.1,0h0a.83.83,0,0,0-.28-.16s0-.06-.1-.1l0,0h0a.09.09,0,0,0,0-.08l0-.05,0,0,0,0h-.07a.29.29,0,0,1-.07-.07v0l0,0h0a.26.26,0,0,0-.08-.1.11.11,0,0,0,0-.06l0,0v0l0,0h0l-.05,0a.52.52,0,0,1-.1-.13.53.53,0,0,0-.1-.13.12.12,0,0,0,0,0v0h0l-.15-.28h0l0-.06a.58.58,0,0,1-.06-.17.72.72,0,0,0,0-.14.44.44,0,0,0,0-.31l-.16-.2,0,.24a1.07,1.07,0,0,1-.06.12l0,0V255a2,2,0,0,1-.05-.47v0l0,0a.32.32,0,0,1,0-.14v-.12h-.12a2,2,0,0,0,.06-.74l0-.15a4.17,4.17,0,0,0,.1-.5l-.05,0,0,0,.05,0,0-.06a.37.37,0,0,1,0-.2s0-.1,0-.16a.48.48,0,0,0,.11-.22.62.62,0,0,1,.08-.18h0v-.09h0v0l0,0a.64.64,0,0,1,.1-.23l0-.05-.06,0a0,0,0,0,1,0,0,3.88,3.88,0,0,0,.31-.6c.07-.09.16-.24.22-.35v0a.11.11,0,0,0,.06,0l0,0,0,0,.06-.08a.7.7,0,0,0,.1-.14l0,0a2.52,2.52,0,0,0,.16-.22c.07-.11.13-.19.19-.21h.06v-.06h0l0-.05h.09c.07,0,.17-.06.22-.09l0,0,0,0,.09-.1a.18.18,0,0,0,.1,0l.05,0v0l0,0,.09-.09h0l.15-.12a1.4,1.4,0,0,0,.3-.25l.15-.09v0h0a.09.09,0,0,0,.06,0c.06,0,.08-.07.08-.1l.12-.05v0h0l-.13.07a2.64,2.64,0,0,0-.32.19l0,0-.06,0a.75.75,0,0,0-.18.19.38.38,0,0,0-.16.11l-.08.07h0v0a.09.09,0,0,0,0,.05l0,0a.77.77,0,0,1-.12.11l0,0-.09.1a.56.56,0,0,0-.12.16,2.63,2.63,0,0,0-.44.53s-.08,0-.11.06l0,0v0a.12.12,0,0,0,0,0h0l0,0-.15.26-.13.22,0,.07h0a.19.19,0,0,0,0,.07.15.15,0,0,0,0,.07.33.33,0,0,0-.11.17v0l0,0a.21.21,0,0,0,0,.1h0v0a.66.66,0,0,1-.09.16c0,.07-.1.15-.07.23l.06.16.06-.14,0,0,0-.09a.58.58,0,0,1,.08-.12.72.72,0,0,0,.1-.16.2.2,0,0,0,.08-.08l0,0,.07-.07h0l0,0h0v-.06l0,0a.12.12,0,0,0,0-.09.37.37,0,0,0,.11-.17.12.12,0,0,0,0,0c.1-.13.22-.31.33-.48l.06-.08a.75.75,0,0,0,.1-.13l0,0,0,0h0l0,0,0,0v0l0,0,0-.07a1,1,0,0,1,.14-.17.54.54,0,0,0,.13-.18h0v0l.06,0,0,0a.21.21,0,0,0,.1,0l0,0v0l.09-.05,0,0v0l0,0,.06-.06a.29.29,0,0,0,.11-.05l.06-.09a.66.66,0,0,0,.34-.21l.1,0a.56.56,0,0,0,.19-.11l0,0a.07.07,0,0,0,0,0h0a.44.44,0,0,0,.31-.18h0a.11.11,0,0,0,.11,0l.09,0,0,0h.05a.34.34,0,0,0,.19-.1h0l.18,0a.4.4,0,0,1,.2,0l.19.09-.08-.14a.68.68,0,0,1,.22,0h0l0,0,0,0h.11l0,0,.06,0h.12a.29.29,0,0,0,.11,0h.07v0h.16l0,0h.2a0,0,0,0,1,0,0h.13l0,.06h.12l.09,0h0a.12.12,0,0,0,.07-.05h.06l0,0,.11,0,.12,0,0,0h0l.12,0,0,0,.06,0,.05,0,.06,0,0,0h.11l0,0,.07,0a.43.43,0,0,0,.19,0,.35.35,0,0,0,.15,0h0l.15.06a.13.13,0,0,0,0,.06H161v.06l0,0,.08,0a.08.08,0,0,0,.06,0h0l.19.13.05.07,0-.07.08,0a.18.18,0,0,0,0,.08l0,.05,0,0,.05,0,.06,0a.19.19,0,0,0,.09.09s0,.06.07.09h0a.25.25,0,0,1,.16.12h0l0,0h0a.43.43,0,0,1,.09.1.22.22,0,0,0,.1.1.27.27,0,0,0,.07.11v0h0s.06,0,.1.11l.08.12v0h0a.2.2,0,0,0,.1.12l0,0,0,0,.09.13v-.06l0,0h0l0,0,0,.06v.08h0a.26.26,0,0,0,0,.1v0h0v.12h0l0,0,0,0,0,.06a.93.93,0,0,0,.1.14l0,0a.1.1,0,0,0,0,.07v0a.11.11,0,0,0,.09,0l0,.07a.23.23,0,0,0,.05.25h0a.16.16,0,0,0,.07.13h0l0,0a.53.53,0,0,1,.11.11l0,0v0l-.06,0,.09.14a.66.66,0,0,1,.05.11.51.51,0,0,0,.05.11.17.17,0,0,0,0,.1.11.11,0,0,0,0,.06c0,.09.05.2.08.3l0,.13,0-.06,0,0s.05.08.09.09h0l0,0a.09.09,0,0,0,0-.06h0a2.25,2.25,0,0,1,.09.27l0,.14h0v.1a.71.71,0,0,0,0,.22v0l0,0h0a2.25,2.25,0,0,1,.12.62v0l0,0a.22.22,0,0,1,0,.13v.07h0v.09l0,0a1.21,1.21,0,0,1,0,.21,2.27,2.27,0,0,0,0,.28.52.52,0,0,0,0,.22v0h0a.56.56,0,0,0,0,.27.43.43,0,0,0,0,.16s0,0,0,.06a.77.77,0,0,0,0,.21.73.73,0,0,1-.07.28l0,.07,0,0,0,.06,0,0,0,0s0,0,0,.12a.21.21,0,0,0,0,.07v0l0,0v.09a.3.3,0,0,1,0,0,.42.42,0,0,0,0,.11l0,0,0,.12h0l0,.05v0l0,.1-.08.18a1.65,1.65,0,0,1-.2.38l-.06.06,0,0h0a.21.21,0,0,0,0,.08,1.17,1.17,0,0,0-.19.31.29.29,0,0,0-.13.12l0,.06,0,0a2.31,2.31,0,0,0-.38.46.17.17,0,0,0-.09.09h0l-.06,0,0,0v0s0,0-.08.09l0,0h0l0,0a.81.81,0,0,1-.28.25h0l-.06.07-.07.08a3.15,3.15,0,0,0-.35.23,3.72,3.72,0,0,1-.39.26h-.09l0,0a.87.87,0,0,1-.21.13l0,0-.09,0-.14.05-.1.06-.09.05a.5.5,0,0,0-.18,0l-.09,0-.05,0h-.07l-.14,0h0a.49.49,0,0,1-.21,0h-.09a1.82,1.82,0,0,1-.51.13.15.15,0,0,0-.08,0h0a.76.76,0,0,1-.24,0h-.29l-.18,0-.11,0a.17.17,0,0,1-.09,0l-.15-.11,0,.09h-.2l-.05,0-.06,0h-.14l0,0h-.24l0,0h0a1.64,1.64,0,0,0-.3-.09h0l0,0-.08,0h0l-.07,0-.05,0v0h0a.14.14,0,0,0-.11,0h0l0,0,0,0,0,0-.09,0-.12,0h0l-.06,0-.09,0a.2.2,0,0,0-.08,0,1.76,1.76,0,0,1-.46-.18l.09,0,0-.13-.07,0,0,0a.18.18,0,0,0-.09-.09.11.11,0,0,0-.05-.08l-.1-.06v0c-.06,0-.1-.06-.13-.05l0,0h-.09a.22.22,0,0,0-.09-.08h0l0,0h0a.1.1,0,0,0,0,0v0l0,0-.08,0h-.06a.08.08,0,0,0,0-.05l0,0,.06-.05-.06,0a.39.39,0,0,0-.15-.08h0a1,1,0,0,0-.15-.11l-.06,0-.06,0v0h0a0,0,0,0,1,0,0l0-.19-.07.11,0,0c-.06-.06-.09-.09-.13-.1h0s0,0-.08-.08l-.07-.1,0,.1a.42.42,0,0,1-.11-.12l0,0-.05,0a.08.08,0,0,0-.05,0l-.06,0a.47.47,0,0,1-.18-.24v0h0l-.05,0h0l0,0h0l-.3-.34,0,0h0l-.06,0-.07-.06-.05,0h0c.06,0,.09-.07.14-.22l-.12-.07a.94.94,0,0,0-.17.23l-.11.12v0a.22.22,0,0,0,0,.08l0,0,0,0,0,0,0,.08.08.13a.17.17,0,0,0,0,.13h0l.06.07a3.51,3.51,0,0,0,.3.33,1.23,1.23,0,0,0,.43.41l.05,0a.83.83,0,0,0,.15.15.55.55,0,0,1,.11.11v.05l0,0a3.29,3.29,0,0,0,.4.34l.33.26h0a.86.86,0,0,1,.18.09l.07,0a1.09,1.09,0,0,0,.34.21.94.94,0,0,0,.26.15l.13.07,0,.06,0,0h0a.59.59,0,0,0,.22.09l.06,0a1.9,1.9,0,0,0,.43.17,1.94,1.94,0,0,1,.33.12h0a1.25,1.25,0,0,1,.26,0,.8.8,0,0,0,.24,0l.58.14a5.67,5.67,0,0,0,1.09.1.17.17,0,0,0,.13,0h0l0,0a.7.7,0,0,0,.19,0l.14,0a.26.26,0,0,0,.14,0l.44-.07.15,0a.65.65,0,0,1,.25,0h0l0,0,.08,0,.07,0a.32.32,0,0,0,.15,0l.72-.3.25-.11.18-.11a1.56,1.56,0,0,1,.34-.18l.06,0v0l.05,0,0,0,.09,0a.53.53,0,0,0,.15-.08l.08-.06-.05,0a.9.9,0,0,0,.38-.3.35.35,0,0,0,.12-.08l0-.05,0,0a1.49,1.49,0,0,0,.43-.47.11.11,0,0,0,.07,0l0,0v0a.17.17,0,0,1,0-.06,1.34,1.34,0,0,0,.4-.52.78.78,0,0,0,.2-.26h0l0,0a.63.63,0,0,0,.12-.26l0-.05,0-.14a.83.83,0,0,0,.16-.36.74.74,0,0,1,.13-.32l0,0v0a.4.4,0,0,1,0-.19.9.9,0,0,0,0-.13c0-.07,0-.14,0-.21s0-.19.05-.29Zm-9.89-6.8h0ZM152.68,254h0v0l0,0h0a.61.61,0,0,0,0,.29v.09a.91.91,0,0,1,0,.09l0,0,0,0a.35.35,0,0,1,0,.16v.08a1.92,1.92,0,0,1,0-.49.23.23,0,0,0,0-.14,0,0,0,0,1,0,0Zm0,.74a1.69,1.69,0,0,1,0,.24C152.7,254.87,152.69,254.79,152.68,254.72Zm.79,1.4-.05-.08-.07-.11h0a.63.63,0,0,1,.11.11l0,0,0,0Zm11.16,1.82-.08,0a.08.08,0,0,1,.08,0Zm-.08,0,.06-.12a.24.24,0,0,0,0,0,.1.1,0,0,1,0,.05l0,0,0,0Zm.09-.18.14-.3A.63.63,0,0,1,164.64,257.74Zm-.21.43.05-.1v0a.26.26,0,0,1,0,.09Zm-.1.19-.17.23-.15.21h0l.23-.34a.19.19,0,0,0,0-.11l.05-.06,0,0h0A.24.24,0,0,0,164.32,258.37Zm-1.61,1.7h0l.14-.11,0,0h0Zm-2.86,1.16.19,0-.17,0Zm.35-.06h0v0h0a.07.07,0,0,0,0,0h0Zm3-1.54.05-.05.18-.18-.11.11-.12.12Zm-4-11.74h-.17l0,0Zm-.36,0h-.09v0h0l.06,0Zm.53-.25h0a.44.44,0,0,1,.22,0h0v0Zm1.18.24-.2-.06v0h0l.06,0a.3.3,0,0,0,.14,0Zm-2.28-.25h-.16l0,0h0l0,0h.13l0,0,.05,0a.76.76,0,0,1,.36-.05v.08Zm-1.62.51h0Zm0,0h0Zm0,0h0Zm7.76,4.65h0Zm-5.73,8.43,0,0h-.07l.06,0h0Zm-3.88-2h0l0,0h0Zm2.39,1.84h0l0-.08.38.08h-.19l-.15,0a.05.05,0,0,1,0,0,.06.06,0,0,1,0,0Zm6.52-10.81-.06,0h0A.06.06,0,0,1,163.78,250.27Zm-10.72,4.88v0h0a.15.15,0,0,0,0,.07l0-.07a.06.06,0,0,1,0,0Zm5.31,5.76v0h0Zm-3-1.36h0l0,0h0l0,0A.06.06,0,0,1,155.36,259.56Z" style="fill:#ec1c24"/><circle cx="169.8" cy="243.35" r="1.11" transform="translate(-102.21 361.93) rotate(-78.65)" style="fill:#fee69f"/><circle cx="169.83" cy="243.22" r="1.11" transform="translate(-102.06 361.85) rotate(-78.65)" style="fill:#3f3004"/><path d="M168.28,240.29h4a.52.52,0,0,1,.52.52v.28a.53.53,0,0,1-.53.53h-4a.52.52,0,0,1-.52-.52v-.28a.53.53,0,0,1,.53-.53Z" transform="translate(-99.45 360.54) rotate(-78.66)" style="fill:#f0ecec"/><path d="M247.9,46.31a22.55,22.55,0,0,0-22.55,22.44s0,.07,0,.11a22.54,22.54,0,0,0,45.08.66c0-.22,0-.44,0-.66A22.55,22.55,0,0,0,247.9,46.31Z" style="fill:#fff"/><path d="M247.9,93.41a24.55,24.55,0,1,1,24.55-24.55A24.58,24.58,0,0,1,247.9,93.41Zm0-45.1a20.55,20.55,0,1,0,20.55,20.55A20.57,20.57,0,0,0,247.9,48.31Z" style="fill:#fdc00f"/><circle cx="242.68" cy="64.3" r="9.5" transform="translate(25.61 190.43) rotate(-45)" style="fill:#26a9e0;opacity:0.27"/><rect x="249.97" y="70.21" width="1.89" height="4.1" rx="0.16" ry="0.16" transform="translate(22.42 198.63) rotate(-45.01)" style="fill:#0c1f2f"/><path d="M261.44,80.32a.65.65,0,0,1,0,.92l-1.53,1.53a.65.65,0,0,1-.92,0l-8.85-8.82a.65.65,0,0,1,0-.92l1.53-1.53a.65.65,0,0,1,.92,0Z" style="fill:#fd6120"/><path d="M235.6,56.95a10.13,10.13,0,1,0,14.32,0A10.13,10.13,0,0,0,235.6,56.95Zm13.58,13.58a9.07,9.07,0,1,1,0-12.83A9.07,9.07,0,0,1,249.18,70.53Z" style="fill:#0c1f2f"/><path d="M237.53,59.15a8.41,8.41,0,0,1,11.1-.7l.05-.05,0,0a8.42,8.42,0,0,0-11.91,11.91l0,0,.05-.05A8.42,8.42,0,0,1,237.53,59.15Z" style="fill:#f6fcfe;opacity:0.62"/><path d="M184.49,89.82a22.55,22.55,0,1,0,3.82,12.55A22.65,22.65,0,0,0,184.49,89.82Z" style="fill:#fff"/><path d="M165.76,126.92a24.55,24.55,0,1,1,24.55-24.55A24.58,24.58,0,0,1,165.76,126.92Zm0-45.1a20.55,20.55,0,1,0,20.55,20.55A20.57,20.57,0,0,0,165.76,81.83Z" style="fill:#70bfe0"/><path d="M177.71,114.2a3.82,3.82,0,0,0,4-3.8V96.05h-4.85a29.09,29.09,0,0,0-1.12,3.77c.07.4-.5,10.24-.46,10.34s0,2.64,0,2.64S177,114.21,177.71,114.2Z" style="fill:#f9c4bb"/><path d="M151.13,92.2v17.73s-.56,4.27,5.14,4.27h21.44a3.18,3.18,0,0,1-.79-1.82V92.2Z" style="fill:#f16b55"/><rect x="154.39" y="98.64" width="19.55" height="6.15" style="fill:#70bfe0"/><rect x="154.39" y="95.89" width="19.55" height="1.32" style="fill:#f9c4bb"/><rect x="154.39" y="105.82" width="9.3" height="0.74" style="fill:#f9c4bb"/><rect x="154.39" y="107.34" width="9.3" height="0.74" style="fill:#f9c4bb"/><rect x="154.39" y="108.87" width="9.3" height="0.74" style="fill:#f9c4bb"/><rect x="164.96" y="105.82" width="8.99" height="0.74" style="fill:#f9c4bb"/><rect x="164.96" y="107.34" width="8.99" height="0.74" style="fill:#f9c4bb"/><rect x="164.96" y="108.87" width="8.99" height="0.74" style="fill:#f9c4bb"/><path d="M157.71,103.73a1.81,1.81,0,0,1-.78.16,1.29,1.29,0,0,1-1.35-1.38,1.38,1.38,0,0,1,1.46-1.44,1.65,1.65,0,0,1,.68.14l-.11.38a1.14,1.14,0,0,0-.57-.13,1,1,0,0,0,0,2,1.4,1.4,0,0,0,.6-.13Z" style="fill:#fff"/><path d="M160.71,102.45a1.32,1.32,0,0,1-1.35,1.44,1.29,1.29,0,0,1-1.3-1.39,1.32,1.32,0,0,1,1.34-1.44A1.28,1.28,0,0,1,160.71,102.45Zm-2.15,0c0,.59.34,1,.82,1s.82-.44.82-1.05c0-.46-.23-1-.81-1S158.56,102,158.56,102.48Z" style="fill:#fff"/><path d="M161.33,101.85c0-.28,0-.51,0-.73h.44l0,.45h0a1,1,0,0,1,.9-.51c.38,0,1,.22,1,1.15v1.62h-.49v-1.56c0-.44-.16-.8-.63-.8a.7.7,0,0,0-.66.5.71.71,0,0,0,0,.23v1.63h-.49Z" style="fill:#fff"/><path d="M165,100.34v.78h.71v.38H165V103c0,.34.1.53.37.53a1.1,1.1,0,0,0,.29,0l0,.37a1.21,1.21,0,0,1-.44.07.68.68,0,0,1-.53-.21,1,1,0,0,1-.19-.71v-1.48h-.42v-.37h.42v-.65Z" style="fill:#fff"/><path d="M166.52,102.56a.87.87,0,0,0,.93.94,1.78,1.78,0,0,0,.75-.14l.08.35a2.2,2.2,0,0,1-.9.17,1.26,1.26,0,0,1-1.33-1.37,1.32,1.32,0,0,1,1.27-1.46,1.15,1.15,0,0,1,1.12,1.28,1.9,1.9,0,0,1,0,.23Zm1.44-.35a.7.7,0,0,0-.68-.8.82.82,0,0,0-.76.8Z" style="fill:#fff"/><path d="M169,101.85c0-.28,0-.51,0-.73h.44l0,.45h0a1,1,0,0,1,.9-.51c.37,0,1,.22,1,1.15v1.62h-.49v-1.56c0-.44-.16-.8-.63-.8a.7.7,0,0,0-.66.5.71.71,0,0,0,0,.23v1.63H169Z" style="fill:#fff"/><path d="M172.73,100.34v.78h.71v.38h-.71V103c0,.34.09.53.37.53a1.11,1.11,0,0,0,.29,0l0,.37a1.21,1.21,0,0,1-.44.07.68.68,0,0,1-.53-.21,1,1,0,0,1-.19-.71v-1.48h-.42v-.37h.42v-.65Z" style="fill:#fff"/><path d="M357.14,156.32H357a22.55,22.55,0,0,0,0,45.1l.8,0a22.54,22.54,0,0,0-.68-45.07Z" style="fill:#fff"/><path d="M357,203.42a24.55,24.55,0,1,1,24.55-24.55A24.58,24.58,0,0,1,357,203.42Zm0-45.1a20.55,20.55,0,1,0,20.55,20.55A20.57,20.57,0,0,0,357,158.32Z" style="fill:#fd6120"/><rect x="341.3" y="186.66" width="32.78" height="0.11" style="fill:#d0d2d3"/><path d="M371.46,186.72h0V171.33h0v15.38Zm-2.63,0h0V171.33h0v15.38Zm-2.64,0h0V171.33h0v15.38Zm-2.63,0h0V171.33h0v15.38Zm-2.64,0h0V171.33h0v15.38Zm-2.64,0h0V171.33h0v15.38Zm-2.64,0h0V171.33h0v15.38Zm-2.64,0h0V171.33h0v15.38Zm-2.64,0h0V171.33h0v15.38Zm-2.64,0h0V171.33h0v15.38Zm-2.64,0h0V171.33h0v15.38Zm-2.63,0h0V171.33h0v15.38Z" style="fill:#d0d2d3"/><path d="M372.84,186.72h0V171.33h0v15.38Zm-2.64,0h0V171.33h0v15.38Zm-2.64,0h0V171.33h0v15.38Zm-2.64,0h0V171.33h0v15.38Zm-2.64,0h0V171.33h0v15.38Zm-2.63,0h0V171.33h0v15.38Zm-2.64,0h0V171.33h0v15.38Zm-2.64,0h0V171.33h0v15.38Zm-2.63,0h0V171.33h0v15.38Zm-2.64,0h0V171.33h0v15.38Zm-2.64,0h0V171.33h0v15.38Zm-2.63,0h0V171.33h0v15.38Z" style="fill:#d0d2d3"/><polygon points="374.07 184.19 341.3 184.19 341.3 184.15 374.07 184.15 374.07 184.19 374.07 184.19" style="fill:#d0d2d3"/><polygon points="374.07 181.65 341.3 181.65 341.3 181.6 374.07 181.6 374.07 181.65 374.07 181.65" style="fill:#d0d2d3"/><polygon points="374.07 179.1 341.3 179.1 341.3 179.06 374.07 179.06 374.07 179.1 374.07 179.1" style="fill:#d0d2d3"/><path d="M374.07,176.56H341.3v0h32.78v0Zm0-2.55H341.3v0h32.78v0Z" style="fill:#d0d2d3"/><polygon points="374.07 182.93 341.3 182.93 341.3 182.89 374.07 182.89 374.07 182.93 374.07 182.93" style="fill:#d0d2d3"/><polygon points="374.07 185.37 341.3 185.37 341.3 185.32 374.07 185.32 374.07 185.37 374.07 185.37" style="fill:#d0d2d3"/><polygon points="374.07 180.39 341.3 180.39 341.3 180.35 374.07 180.35 374.07 180.39 374.07 180.39" style="fill:#d0d2d3"/><polygon points="374.07 177.84 341.3 177.84 341.3 177.8 374.07 177.8 374.07 177.84 374.07 177.84" style="fill:#d0d2d3"/><path d="M374.07,175.3H341.3v0h32.78v0Zm0-2.54H341.3v0h32.78v0Z" style="fill:#d0d2d3"/><path d="M340.54,186.68c0,.21-.08.32-.21.32s-.2-.11-.2-.31.09-.32.21-.32S340.54,186.48,340.54,186.68Zm-.33,0c0,.16,0,.25.12.25s.12-.1.12-.25,0-.25-.12-.25S340.21,186.52,340.21,186.69Z" style="fill:#bbbdbf"/><path d="M340.31,183.79h0l-.11.06v-.06l.13-.07h.07v.61h-.08Z" style="fill:#bbbdbf"/><path d="M341,184c0,.21-.08.32-.21.32s-.2-.11-.2-.31.09-.32.21-.32S341,183.82,341,184Zm-.33,0c0,.16,0,.25.12.25s.12-.1.12-.25,0-.25-.12-.25S340.68,183.85,340.68,184Z" style="fill:#bbbdbf"/><path d="M340.13,181.94v-.05l.07-.06c.15-.15.23-.23.23-.32a.11.11,0,0,0-.12-.12.21.21,0,0,0-.13.05l0-.06a.27.27,0,0,1,.17-.06.17.17,0,0,1,.19.18c0,.11-.08.2-.21.33l0,0h.27v.07Z" style="fill:#bbbdbf"/><path d="M341,181.63c0,.21-.08.32-.21.32s-.2-.11-.2-.31.09-.32.21-.32S341,181.43,341,181.63Zm-.33,0c0,.16,0,.25.12.25s.12-.1.12-.25,0-.25-.12-.25S340.68,181.47,340.68,181.64Z" style="fill:#bbbdbf"/><path d="M340.15,179.36a.29.29,0,0,0,.13,0c.11,0,.14-.07.14-.12s-.08-.12-.16-.12h0v-.06h0c.06,0,.13,0,.13-.1s0-.09-.11-.09a.23.23,0,0,0-.12,0l0-.06a.29.29,0,0,1,.16,0c.12,0,.17.07.17.14a.15.15,0,0,1-.11.14h0a.16.16,0,0,1,.14.15c0,.1-.08.18-.22.18a.31.31,0,0,1-.16,0Z" style="fill:#bbbdbf"/><path d="M341,179.14c0,.21-.08.32-.21.32s-.2-.11-.2-.31.09-.32.21-.32S341,178.95,341,179.14Zm-.33,0c0,.16,0,.25.12.25s.12-.1.12-.25,0-.25-.12-.25S340.68,179,340.68,179.15Z" style="fill:#bbbdbf"/><path d="M340.39,176.92v-.17h-.28v-.05l.27-.39h.09v.38h.09v.06h-.09v.17Zm0-.23v-.2s0-.06,0-.1h0l-.05.09-.15.21h.2Z" style="fill:#bbbdbf"/><path d="M341,176.61c0,.21-.08.32-.21.32s-.2-.11-.2-.31.09-.32.21-.32S341,176.41,341,176.61Zm-.33,0c0,.16,0,.25.12.25s.12-.1.12-.25,0-.25-.12-.25S340.68,176.45,340.68,176.61Z" style="fill:#bbbdbf"/><path d="M340.49,173.79h-.23l0,.16h0a.25.25,0,0,1,.13,0,.17.17,0,0,1,.09.16.21.21,0,0,1-.23.21.3.3,0,0,1-.15,0l0-.06a.28.28,0,0,0,.13,0,.13.13,0,0,0,.14-.13c0-.08-.05-.13-.17-.13h-.08l0-.29h.29Z" style="fill:#bbbdbf"/><path d="M341,174c0,.21-.08.32-.21.32s-.2-.11-.2-.31.09-.32.21-.32S341,173.82,341,174Zm-.33,0c0,.16,0,.25.12.25s.12-.1.12-.25,0-.25-.12-.25S340.68,173.86,340.68,174Z" style="fill:#bbbdbf"/><rect x="344.94" y="180.16" width="3.13" height="6.37" style="fill:#fdc00f"/><rect x="349.97" y="178.68" width="3.13" height="7.86" style="fill:#fdc00f"/><rect x="355" y="176.49" width="3.13" height="10.04" style="fill:#fdc00f"/><rect x="360.03" y="174.56" width="3.13" height="11.98" style="fill:#fdc00f"/><rect x="365.06" y="172.94" width="3.13" height="13.59" style="fill:#fdc00f"/><path d="M371,174.84l-.19-.25L363.64,180a.54.54,0,0,0-.9.26l-4.27-1.23a.54.54,0,0,0-.53-.48.55.55,0,0,0-.55.55.53.53,0,0,0,.06.24l-4.05,3.54a.53.53,0,0,0-.84.16l-3.91-1.22a.55.55,0,1,0-1.07.15l-4.31,3.23.19.25,4.28-3.21a.53.53,0,0,0,.83-.12l3.94,1.23a.54.54,0,0,0,1.08-.06.52.52,0,0,0,0-.13l4.11-3.58a.53.53,0,0,0,.27.08.55.55,0,0,0,.49-.31l4.33,1.25a.55.55,0,0,0,1.06-.2.5.5,0,0,0,0-.11Z" style="fill:#fd6120"/><path d="M324.06,79.83a22.55,22.55,0,1,0,22.55,22.55A22.46,22.46,0,0,0,324.06,79.83Z" style="fill:#fff"/><path d="M324.06,126.92a24.55,24.55,0,1,1,24.55-24.55A24.58,24.58,0,0,1,324.06,126.92Zm0-45.1a20.55,20.55,0,1,0,20.55,20.55A20.57,20.57,0,0,0,324.06,81.83Z" style="fill:#2eaeb7"/><rect x="322" y="102.69" width="1.36" height="8.63" style="fill:none"/><rect x="324.73" y="102.69" width="1.36" height="8.63" style="fill:none"/><path d="M331.52,110.66v-8h-1.37v8.63h.71A.66.66,0,0,0,331.52,110.66Z" style="fill:none"/><rect x="319.27" y="102.69" width="1.36" height="8.63" style="fill:none"/><rect x="327.46" y="102.69" width="1.32" height="8.63" style="fill:none"/><path d="M317,111.33h.93v-8.63h-1.59v8A.66.66,0,0,0,317,111.33Z" style="fill:none"/><rect x="312.27" y="88.63" width="6.26" height="14.17" rx="1.48" ry="1.48" transform="matrix(0.13, -0.99, 0.99, 0.13, 180, 396.22)" style="fill:#a1b500"/><path d="M321.77,96.68a.91.91,0,0,1-1,.78h0a.91.91,0,0,1-.78-1h0a.91.91,0,0,1,1-.78h0a.91.91,0,0,1,.78,1Z" style="fill:#fff"/><path d="M329.32,96.88c-.69,0-1.35-.65-2-1.29-.24-.24-.48-.48-.72-.68a1.4,1.4,0,0,0-1.06-.45c-.48.08-.84.66-1.27,1.33l-.13.2c-.79,1.25-2.4.55-2.42.54l.07-.15c.06,0,1.49.65,2.21-.48l.13-.2c.44-.71.82-1.32,1.38-1.4a1.54,1.54,0,0,1,1.19.49c.25.21.49.45.73.69.65.64,1.33,1.31,2,1.23.4,0,.78-.36,1.15-1l.14.09a1.88,1.88,0,0,1-1.28,1Z" style="fill:#a1b500"/><path d="M312,93.39a3.54,3.54,0,0,1,.74,0,1.26,1.26,0,0,1,.81.33.66.66,0,0,1,.19.58.74.74,0,0,1-.61.61h0a.79.79,0,0,1,.54.85.82.82,0,0,1-.35.58,1.54,1.54,0,0,1-1.1.15,4.7,4.7,0,0,1-.61-.12Zm.23,1.31.36,0c.42.05.69-.14.73-.44s-.21-.54-.61-.59a1.75,1.75,0,0,0-.36,0Zm-.19,1.47.33.06c.41.05.81,0,.87-.5s-.28-.64-.72-.7l-.33,0Z" style="fill:#fff"/><path d="M316,96.38c0,.23-.05.44-.06.61l-.36,0,0-.36h0a.84.84,0,0,1-.79.32c-.35,0-.74-.3-.64-1.07l.17-1.3.4.05-.16,1.22c-.05.42,0,.73.4.77a.58.58,0,0,0,.58-.3.56.56,0,0,0,.06-.2l.18-1.35.4.05Z" style="fill:#fff"/><path d="M317.06,94.88l.31,1.37c0,.15.07.33.09.47h0c.06-.13.13-.29.2-.44l.61-1.24.43.06-.81,1.5a3.43,3.43,0,0,1-.94,1.29,1.15,1.15,0,0,1-.53.19l-.06-.35a1.07,1.07,0,0,0,.38-.15,1.28,1.28,0,0,0,.4-.4.29.29,0,0,0,0-.09.28.28,0,0,0,0-.11l-.55-2.15Z" style="fill:#fff"/><path d="M334.77,100.72h-8.35l4.05-4.05a.82.82,0,0,0,0-1.16l-.24-.24a.82.82,0,0,0-1.16,0l-5.45,5.45H313.16a.66.66,0,0,0-.65.66V102a.66.66,0,0,0,.66.66h1.16v9.95a.66.66,0,0,0,.66.66h17.88a.66.66,0,0,0,.66-.66v-9.95h1.24a.66.66,0,0,0,.66-.66v-.66A.66.66,0,0,0,334.77,100.72ZM317.9,111.33H317a.66.66,0,0,1-.66-.66v-8h1.59Zm2.73,0h-1.36v-8.63h1.36Zm2.73,0H322v-8.63h1.36Zm2.73,0h-1.36v-8.63h1.36Zm2.69,0h-1.32v-8.63h1.32Zm2.74-.66a.66.66,0,0,1-.66.66h-.71v-8.63h1.37Z" style="fill:#2eaeb7"/><rect x="335.14" y="99.82" width="4.62" height="10.45" rx="1.09" ry="1.09" transform="translate(62.74 327.4) rotate(-56.28)" style="fill:#f16b55"/><path d="M333.44,102.5a.67.67,0,0,0,.19.93h0a.67.67,0,0,0,.93-.18h0a.67.67,0,0,0-.18-.93h0a.67.67,0,0,0-.93.18Z" style="fill:#f16b55"/><path d="M329.15,98.95a2.53,2.53,0,0,0,1.73.25c.25,0,.5,0,.73,0a1,1,0,0,1,.81.26c.23.27.15.77.06,1.35l0,.17c-.17,1.08,1.07,1.47,1.08,1.47l0-.12s-1.15-.36-1-1.34l0-.17c.1-.61.18-1.13-.09-1.45a1.14,1.14,0,0,0-.9-.31c-.24,0-.49,0-.74,0-.67,0-1.37.08-1.7-.28a1.28,1.28,0,0,1-.18-1.09l-.12,0a1.39,1.39,0,0,0,.21,1.19l.07.06Z" style="fill:#f16b55"/><path d="M334.84,104.17a1.09,1.09,0,0,0,.39.45.45.45,0,0,0,.67-.07c.12-.19.09-.38-.13-.67s-.36-.66-.17-1a.72.72,0,0,1,1-.13,1.13,1.13,0,0,1,.4.4l-.22.17a.93.93,0,0,0-.33-.36.41.41,0,0,0-.6.06c-.13.2-.06.38.16.67s.33.65.14,1a.75.75,0,0,1-1.13.14,1.28,1.28,0,0,1-.45-.48Z" style="fill:#fff"/><path d="M337.5,105.83a2.87,2.87,0,0,0-.21.38l-.25-.16.1-.2h0a.67.67,0,0,1-.61-.07.51.51,0,0,1-.18-.73c.24-.37.69-.36,1.27,0l0,0a.37.37,0,0,0-.12-.57.87.87,0,0,0-.47-.14l.06-.22a1.16,1.16,0,0,1,.58.19.64.64,0,0,1,.18,1Zm0-.58c-.3-.2-.67-.37-.86-.07a.29.29,0,0,0,.09.43.45.45,0,0,0,.53,0l.07-.08Z" style="fill:#fff"/><path d="M339.13,104.27l.27.18L338,106.66l-.27-.18Z" style="fill:#fff"/><path d="M339,106.35a.57.57,0,0,0,.18.86,1.17,1.17,0,0,0,.47.19l-.08.23a1.47,1.47,0,0,1-.57-.23.84.84,0,0,1-.25-1.24.87.87,0,0,1,1.23-.35.76.76,0,0,1,.17,1.11l-.09.12Zm.93.32a.46.46,0,0,0-.09-.69.54.54,0,0,0-.71.17Z" style="fill:#fff"/></svg>