<svg id="Layer_2" data-name="Layer 2" xmlns="http://www.w3.org/2000/svg" xmlns:xlink="http://www.w3.org/1999/xlink" viewBox="0 0 1906.74 468.91"><defs><clipPath id="clip-path" transform="translate(104.17 45.66)"><polyline points="1417.34 418.59 0.01 418.59 0.01 0 1417.34 0 1417.34 418.59" style="fill:none"/></clipPath><clipPath id="clip-path-2" transform="translate(104.17 45.66)"><polyline points="947.41 289.35 499.1 289.35 499.1 145.09 947.41 145.09 947.41 289.35" style="fill:none"/></clipPath><linearGradient id="linear-gradient" x1="-1702.25" y1="-1325.96" x2="-1702.12" y2="-1325.96" gradientTransform="matrix(331.56, -174.58, 174.58, 331.56, 796963.71, 142733.66)" gradientUnits="userSpaceOnUse"><stop offset="0" stop-color="#99a6b3"/><stop offset="0.21" stop-color="#a0b1c1"/><stop offset="1" stop-color="#bbc7cd"/></linearGradient><linearGradient id="linear-gradient-2" x1="-1702.25" y1="-1325.96" x2="-1702.12" y2="-1325.96" gradientTransform="matrix(331.56, -174.58, 174.58, 331.56, 796963.71, 142733.66)" gradientUnits="userSpaceOnUse"><stop offset="0" stop-color="#cdd8e3"/><stop offset="0.21" stop-color="#d4e3f2"/><stop offset="1" stop-color="#eef9fe"/></linearGradient><linearGradient id="linear-gradient-3" x1="-1702.25" y1="-1325.94" x2="-1702.12" y2="-1325.94" gradientTransform="matrix(331.56, -174.58, 174.58, 331.56, 796963.71, 142733.66)" gradientUnits="userSpaceOnUse"><stop offset="0" stop-color="#7a8694"/><stop offset="0.21" stop-color="#8192a3"/><stop offset="1" stop-color="#9ba7af"/></linearGradient><linearGradient id="linear-gradient-4" x1="-1702.25" y1="-1325.94" x2="-1702.12" y2="-1325.94" xlink:href="#linear-gradient"/><linearGradient id="linear-gradient-5" x1="-1702.25" y1="-1325.94" x2="-1702.12" y2="-1325.94" gradientTransform="matrix(331.56, -174.58, 174.58, 331.56, 797067.88, 142779.32)" xlink:href="#linear-gradient-2"/><linearGradient id="linear-gradient-6" x1="-1702.25" y1="-1325.94" x2="-1702.12" y2="-1325.94" xlink:href="#linear-gradient"/><linearGradient id="linear-gradient-7" x1="-1702.25" y1="-1325.94" x2="-1702.12" y2="-1325.94" xlink:href="#linear-gradient-2"/><linearGradient id="linear-gradient-8" x1="-1702.25" y1="-1325.95" x2="-1702.12" y2="-1325.95" gradientTransform="matrix(331.56, -174.58, 174.58, 331.56, 796963.71, 142733.66)" gradientUnits="userSpaceOnUse"><stop offset="0" stop-color="#b3343a"/><stop offset="0.21" stop-color="#ba3f49"/><stop offset="1" stop-color="#d45555"/></linearGradient><clipPath id="clip-path-3" transform="translate(104.17 45.66)"><polyline points="944.32 287 879.6 287 879.6 224.31 944.32 224.31 944.32 287" style="fill:none"/></clipPath></defs><title>correduria</title><rect x="104.17" y="45.66" width="1417.32" height="418.59" style="fill:#fff;stroke:#000;stroke-miterlimit:10"/><g style="clip-path:url(#clip-path)"><polyline points="1527.59 342.58 1050.65 342.58 1050.65 41.81 1527.59 41.81 1527.59 342.58" style="fill:#dde2e5"/><path d="M793.37,297.3s35.86-153.24,546.25-153.24,67.94,176.14,67.94,176.14L793.37,297.3" transform="translate(104.17 45.66)" style="fill:#eceeed"/><path d="M1336,284.84h-73.63V232.17c0-16.45,13.34-15.34,29.79-15.34h14.05c16.45,0,29.79.56,29.79,17v51" transform="translate(104.17 45.66)" style="fill:#445e7f"/><path d="M1322.71,216.83H1275.6a13.25,13.25,0,0,0-11.58,6.8c5.75-7.28,43.95-4.83,49.32-4.19,4.3.52,12.54-.37,15.94,2.87,2.62,2.49,3.83,8.86,4,12.27.12,2.32-.82,8.69-.57,11,.27,2.47.68,33.13,1.15,39.67l2.11-.42V230.08A13.26,13.26,0,0,0,1322.71,216.83Z" transform="translate(104.17 45.66)" style="fill:#2a3748"/><polyline points="1138.55 393.02 1138.55 165.86 1284.56 165.86 1284.56 393.02 1138.55 393.02" style="fill:#bcbec0"/><polyline points="1144.2 393.02 1144.2 170.06 1278.9 170.06 1278.9 393.02 1144.2 393.02" style="fill:#939598"/><rect x="1144.2" y="206.19" width="134.7" height="5.32" style="fill:#bcbec0"/><rect x="1144.2" y="170.06" width="134.7" height="24.15" style="fill:#939598"/><rect x="1144.2" y="211.51" width="134.7" height="24.15" style="fill:#939598"/><rect x="1144.2" y="257.23" width="134.7" height="24.15" style="fill:#939598"/><polyline points="1144.2 327.1 1278.9 327.1 1278.9 302.94 1144.2 302.94 1144.2 327.1" style="fill:#939598"/><rect x="1144.2" y="348.66" width="134.7" height="24.15" style="fill:#939598"/><rect x="1144.2" y="251.91" width="134.7" height="5.32" style="fill:#bcbec0"/><rect x="1144.2" y="297.62" width="134.7" height="5.32" style="fill:#bcbec0"/><rect x="1144.2" y="343.34" width="134.7" height="5.32" style="fill:#bcbec0"/><rect x="1144.2" y="389.05" width="134.7" height="3.97" style="fill:#bcbec0"/><rect x="1144.2" y="170.06" width="9.05" height="36.13" style="fill:#bcbec0"/><rect x="1145.57" y="173.22" width="6.32" height="19.11" style="fill:#fff"/><circle cx="1148.73" cy="201.12" r="2.68" style="fill:#939598"/><rect x="1154.09" y="170.06" width="9.05" height="36.13" style="fill:#bcbec0"/><rect x="1155.46" y="173.22" width="6.32" height="19.11" style="fill:#fff"/><circle cx="1158.62" cy="201.12" r="2.68" style="fill:#939598"/><rect x="1164.07" y="170.06" width="9.05" height="36.13" style="fill:#bcbec0"/><rect x="1165.44" y="173.22" width="6.32" height="19.11" style="fill:#fff"/><circle cx="1168.6" cy="201.12" r="2.68" style="fill:#939598"/><rect x="1174" y="170.06" width="9.05" height="36.13" style="fill:#bcbec0"/><rect x="1175.37" y="173.22" width="6.32" height="19.11" style="fill:#fff"/><circle cx="1178.53" cy="201.12" r="2.68" style="fill:#939598"/><rect x="1183.88" y="170.06" width="9.05" height="36.13" style="fill:#bcbec0"/><rect x="1185.24" y="173.22" width="6.32" height="19.11" style="fill:#fff"/><circle cx="1188.4" cy="201.12" r="2.68" style="fill:#939598"/><rect x="1193.75" y="170.06" width="9.05" height="36.13" style="fill:#bcbec0"/><rect x="1195.11" y="173.22" width="6.32" height="19.11" style="fill:#fff"/><circle cx="1198.27" cy="201.12" r="2.68" style="fill:#939598"/><rect x="1203.71" y="170.06" width="9.05" height="36.13" style="fill:#bcbec0"/><rect x="1205.07" y="173.22" width="6.32" height="19.11" style="fill:#fff"/><circle cx="1208.23" cy="201.12" r="2.68" style="fill:#939598"/><rect x="1213.6" y="170.06" width="9.05" height="36.13" style="fill:#bcbec0"/><rect x="1214.96" y="173.22" width="6.32" height="19.11" style="fill:#fff"/><circle cx="1218.12" cy="201.12" r="2.68" style="fill:#939598"/><rect x="1223.57" y="170.06" width="9.05" height="36.13" style="fill:#bcbec0"/><rect x="1224.94" y="173.22" width="6.32" height="19.11" style="fill:#fff"/><circle cx="1228.1" cy="201.12" r="2.68" style="fill:#939598"/><rect x="1233.51" y="170.06" width="9.05" height="36.13" style="fill:#bcbec0"/><rect x="1234.87" y="173.22" width="6.32" height="19.11" style="fill:#fff"/><circle cx="1238.03" cy="201.12" r="2.68" style="fill:#939598"/><rect x="1243.38" y="170.06" width="9.05" height="36.13" style="fill:#bcbec0"/><rect x="1244.74" y="173.22" width="6.32" height="19.11" style="fill:#fff"/><circle cx="1247.9" cy="201.12" r="2.68" style="fill:#939598"/><rect x="1253.25" y="170.06" width="9.05" height="36.13" style="fill:#bcbec0"/><rect x="1254.61" y="173.22" width="6.32" height="19.11" style="fill:#fff"/><circle cx="1257.77" cy="201.12" r="2.68" style="fill:#939598"/><rect x="1145.35" y="215.68" width="9.05" height="36.13" style="fill:#bcbec0"/><rect x="1146.72" y="218.83" width="6.32" height="19.11" style="fill:#fff"/><circle cx="1149.88" cy="246.73" r="2.68" style="fill:#939598"/><rect x="1155.24" y="215.68" width="9.05" height="36.13" style="fill:#bcbec0"/><rect x="1156.61" y="218.83" width="6.32" height="19.11" style="fill:#fff"/><circle cx="1159.77" cy="246.73" r="2.68" style="fill:#939598"/><rect x="1165.22" y="215.68" width="9.05" height="36.13" style="fill:#bcbec0"/><rect x="1166.58" y="218.83" width="6.32" height="19.11" style="fill:#fff"/><circle cx="1169.74" cy="246.73" r="2.68" style="fill:#939598"/><rect x="1175.15" y="215.68" width="9.05" height="36.13" style="fill:#bcbec0"/><rect x="1176.52" y="218.83" width="6.32" height="19.11" style="fill:#fff"/><circle cx="1179.68" cy="246.73" r="2.68" style="fill:#939598"/><rect x="1185.02" y="215.68" width="9.05" height="36.13" style="fill:#bcbec0"/><rect x="1186.39" y="218.83" width="6.32" height="19.11" style="fill:#fff"/><circle cx="1189.55" cy="246.73" r="2.68" style="fill:#939598"/><rect x="1194.89" y="215.68" width="9.05" height="36.13" style="fill:#bcbec0"/><rect x="1196.26" y="218.83" width="6.32" height="19.11" style="fill:#fff"/><circle cx="1199.42" cy="246.73" r="2.68" style="fill:#939598"/><rect x="1204.85" y="215.68" width="9.05" height="36.13" style="fill:#bcbec0"/><rect x="1206.22" y="218.83" width="6.32" height="19.11" style="fill:#fff"/><circle cx="1209.38" cy="246.73" r="2.68" style="fill:#939598"/><rect x="1214.74" y="215.68" width="9.05" height="36.13" style="fill:#bcbec0"/><rect x="1216.11" y="218.83" width="6.32" height="19.11" style="fill:#fff"/><circle cx="1219.27" cy="246.73" r="2.68" style="fill:#939598"/><rect x="1224.72" y="215.68" width="9.05" height="36.13" style="fill:#bcbec0"/><rect x="1226.08" y="218.83" width="6.32" height="19.11" style="fill:#fff"/><circle cx="1229.24" cy="246.73" r="2.68" style="fill:#939598"/><rect x="1234.65" y="215.68" width="9.05" height="36.13" style="fill:#bcbec0"/><rect x="1236.02" y="218.83" width="6.32" height="19.11" style="fill:#fff"/><circle cx="1239.18" cy="246.73" r="2.68" style="fill:#939598"/><rect x="1244.53" y="215.68" width="9.05" height="36.13" style="fill:#bcbec0"/><rect x="1245.89" y="218.83" width="6.32" height="19.11" style="fill:#fff"/><circle cx="1249.05" cy="246.73" r="2.68" style="fill:#939598"/><rect x="1254.4" y="215.68" width="9.05" height="36.13" style="fill:#bcbec0"/><rect x="1255.76" y="218.83" width="6.32" height="19.11" style="fill:#fff"/><circle cx="1258.92" cy="246.73" r="2.68" style="fill:#939598"/><rect x="1156.77" y="215.81" width="9.05" height="36.13" transform="translate(128.04 610.56) rotate(-27.61)" style="fill:#bcbec0"/><rect x="1155.65" y="219.57" width="6.32" height="19.11" transform="translate(129.94 608.81) rotate(-27.61)" style="fill:#fff"/><circle cx="1167.32" cy="245.38" r="2.68" transform="translate(123.39 614.65) rotate(-27.61)" style="fill:#939598"/><rect x="1146.33" y="216.2" width="9.05" height="36.13" transform="translate(126.67 605.75) rotate(-27.61)" style="fill:#bcbec0"/><rect x="1145.21" y="219.96" width="6.32" height="19.11" transform="translate(128.61 604.12) rotate(-27.62)" style="fill:#fff"/><circle cx="1156.87" cy="245.77" r="2.68" transform="translate(122.04 609.91) rotate(-27.62)" style="fill:#939598"/><rect x="1234.08" y="261.49" width="9.05" height="36.13" style="fill:#bcbec0"/><rect x="1235.44" y="264.64" width="6.32" height="19.11" style="fill:#fff"/><circle cx="1238.6" cy="292.55" r="2.68" style="fill:#939598"/><rect x="1224.14" y="261.49" width="9.05" height="36.13" style="fill:#bcbec0"/><rect x="1225.51" y="264.64" width="6.32" height="19.11" style="fill:#fff"/><circle cx="1228.67" cy="292.55" r="2.68" style="fill:#939598"/><rect x="1214.27" y="261.49" width="9.05" height="36.13" style="fill:#bcbec0"/><rect x="1215.63" y="264.64" width="6.32" height="19.11" style="fill:#fff"/><circle cx="1218.8" cy="292.55" r="2.68" style="fill:#939598"/><rect x="1204.4" y="261.49" width="9.05" height="36.13" style="fill:#bcbec0"/><rect x="1205.76" y="264.64" width="6.32" height="19.11" style="fill:#fff"/><circle cx="1208.92" cy="292.55" r="2.68" style="fill:#939598"/><rect x="1194.44" y="261.49" width="9.05" height="36.13" style="fill:#bcbec0"/><rect x="1195.81" y="264.64" width="6.32" height="19.11" style="fill:#fff"/><circle cx="1198.97" cy="292.55" r="2.68" style="fill:#939598"/><rect x="1184.55" y="261.49" width="9.05" height="36.13" style="fill:#bcbec0"/><rect x="1185.92" y="264.64" width="6.32" height="19.11" style="fill:#fff"/><circle cx="1189.08" cy="292.55" r="2.68" style="fill:#939598"/><rect x="1174.57" y="261.49" width="9.05" height="36.13" style="fill:#bcbec0"/><rect x="1175.94" y="264.64" width="6.32" height="19.11" style="fill:#fff"/><circle cx="1179.1" cy="292.55" r="2.68" style="fill:#939598"/><rect x="1164.64" y="261.49" width="9.05" height="36.13" style="fill:#bcbec0"/><rect x="1166.01" y="264.64" width="6.32" height="19.11" style="fill:#fff"/><circle cx="1169.16" cy="292.55" r="2.68" style="fill:#939598"/><rect x="1154.77" y="261.49" width="9.05" height="36.13" style="fill:#bcbec0"/><rect x="1156.13" y="264.64" width="6.32" height="19.11" style="fill:#fff"/><circle cx="1159.29" cy="292.55" r="2.68" style="fill:#939598"/><rect x="1144.9" y="261.49" width="9.05" height="36.13" style="fill:#bcbec0"/><rect x="1146.26" y="264.64" width="6.32" height="19.11" style="fill:#fff"/><circle cx="1149.42" cy="292.55" r="2.68" style="fill:#939598"/><rect x="1146.06" y="261.39" width="9.05" height="36.13" transform="translate(80.93 480.33) rotate(-21.18)" style="fill:#bcbec0"/><rect x="1145.49" y="264.91" width="6.32" height="19.11" transform="translate(82.6 479.22) rotate(-21.18)" style="fill:#fff"/><circle cx="1155.28" cy="291.57" r="2.68" transform="translate(76.87 482.82) rotate(-21.18)" style="fill:#939598"/><rect x="1234.56" y="307.22" width="9.05" height="36.13" style="fill:#bcbec0"/><rect x="1235.93" y="310.37" width="6.32" height="19.11" style="fill:#fff"/><circle cx="1239.09" cy="338.27" r="2.68" style="fill:#939598"/><rect x="1224.63" y="307.22" width="9.05" height="36.13" style="fill:#bcbec0"/><rect x="1225.99" y="310.37" width="6.32" height="19.11" style="fill:#fff"/><circle cx="1229.15" cy="338.27" r="2.68" style="fill:#939598"/><rect x="1214.76" y="307.22" width="9.05" height="36.13" style="fill:#bcbec0"/><rect x="1216.12" y="310.37" width="6.32" height="19.11" style="fill:#fff"/><circle cx="1219.28" cy="338.27" r="2.68" style="fill:#939598"/><rect x="1241.71" y="379.89" width="36.13" height="9.05" style="fill:#bcbec0"/><rect x="1255.57" y="381.26" width="19.11" height="6.32" style="fill:#fff"/><circle cx="1246.78" cy="384.42" r="2.68" style="fill:#939598"/><rect x="1241.71" y="369.96" width="36.13" height="9.05" style="fill:#bcbec0"/><rect x="1255.57" y="371.32" width="19.11" height="6.32" style="fill:#fff"/><circle cx="1246.78" cy="374.48" r="2.68" style="fill:#939598"/><rect x="1241.71" y="360.09" width="36.13" height="9.05" style="fill:#bcbec0"/><rect x="1255.57" y="361.45" width="19.11" height="6.32" style="fill:#fff"/><circle cx="1246.78" cy="364.61" r="2.68" style="fill:#939598"/><polyline points="1194.09 343.35 1185.04 343.35 1185.04 307.22 1194.09 307.22 1194.09 343.35" style="fill:#bcbec0"/><rect x="1186.4" y="310.37" width="6.32" height="19.11" style="fill:#fff"/><circle cx="1189.56" cy="338.27" r="2.68" style="fill:#939598"/><polyline points="1203.81 343.35 1194.76 343.35 1194.76 307.22 1203.81 307.22 1203.81 343.35" style="fill:#bcbec0"/><polyline points="1202.45 329.48 1196.13 329.48 1196.13 310.37 1202.45 310.37 1202.45 329.48" style="fill:#fff"/><circle cx="1199.29" cy="338.27" r="2.68" style="fill:#939598"/><polyline points="1213.81 343.43 1204.76 343.43 1204.76 307.31 1213.81 307.31 1213.81 343.43" style="fill:#bcbec0"/><polyline points="1212.44 329.57 1206.12 329.57 1206.12 310.45 1212.44 310.45 1212.44 329.57" style="fill:#fff"/><circle cx="1209.28" cy="338.36" r="2.68" style="fill:#939598"/><rect x="1204.34" y="379.9" width="36.13" height="9.05" style="fill:#bcbec0"/><rect x="1207.49" y="381.27" width="19.11" height="6.32" style="fill:#fff"/><circle cx="1235.39" cy="384.43" r="2.68" style="fill:#939598"/><rect x="1204.34" y="370.18" width="36.13" height="9.05" style="fill:#bcbec0"/><rect x="1207.49" y="371.54" width="19.11" height="6.32" style="fill:#fff"/><circle cx="1235.39" cy="374.7" r="2.68" style="fill:#939598"/><rect x="1204.42" y="360.18" width="36.13" height="9.05" style="fill:#bcbec0"/><rect x="1207.57" y="361.55" width="19.11" height="6.32" style="fill:#fff"/><circle cx="1235.48" cy="364.71" r="2.68" style="fill:#939598"/><rect x="1155.26" y="307.22" width="9.05" height="36.13" style="fill:#bcbec0"/><rect x="1156.62" y="310.37" width="6.32" height="19.11" style="fill:#fff"/><circle cx="1159.78" cy="338.27" r="2.68" style="fill:#939598"/><rect x="1145.39" y="307.22" width="9.05" height="36.13" style="fill:#bcbec0"/><rect x="1146.75" y="310.37" width="6.32" height="19.11" style="fill:#fff"/><circle cx="1149.91" cy="338.27" r="2.68" style="fill:#939598"/><rect x="1174.99" y="307.22" width="9.05" height="36.13" style="fill:#bcbec0"/><rect x="1176.35" y="310.37" width="6.32" height="19.11" style="fill:#fff"/><circle cx="1179.51" cy="338.27" r="2.68" style="fill:#939598"/><rect x="1165.11" y="307.22" width="9.05" height="36.13" style="fill:#bcbec0"/><rect x="1166.48" y="310.37" width="6.32" height="19.11" style="fill:#fff"/><circle cx="1169.64" cy="338.27" r="2.68" style="fill:#939598"/><polyline points="603.71 392.31 80.87 392.31 80.87 41.81 603.71 41.81 603.71 392.31" style="fill:#dde2e5"/><path d="M768.68,297.3S732.82,144.06,222.43,144.06-47.64,320.21-47.64,320.21L768.68,297.3" transform="translate(104.17 45.66)" style="fill:#eceeed"/><polyline points="1051.58 335.01 602.69 335.01 602.69 117.15 1051.58 117.15 1051.58 335.01" style="fill:#fff"/><rect x="87.23" y="338.51" width="1439.95" height="51.22" style="fill:#eceeed"/><rect x="78.55" y="387.2" width="1448.45" height="81.71" style="fill:#6d6e71"/><polyline points="1051.58 335.01 711.73 335.01 711.73 181.79 1051.58 181.79 1051.58 335.01" style="fill:#fafcfb"/><polyline points="988.88 45.66 941.02 45.66 941.02 117.15 988.88 117.15 988.88 45.66" style="fill:#fff"/><polyline points="988.88 117.15 941.02 117.15 941.02 181.79 988.88 181.79 988.88 117.15" style="fill:#fff"/><polyline points="988.88 181.79 941.02 181.79 941.02 277.55 943.3 277.55 943.3 222.48 968.03 222.48 968.03 209.84 974.21 209.84 974.21 222.48 988.82 222.48 988.82 278.11 988.88 278.11 988.88 181.79" style="fill:#fbfdfc"/><polyline points="865.66 45.66 803.21 45.66 803.21 117.15 865.66 117.15 865.66 45.66" style="fill:#fff"/><polyline points="865.66 117.15 803.21 117.15 803.21 181.79 865.66 181.79 865.66 117.15" style="fill:#fff"/><polyline points="865.66 181.79 803.21 181.79 803.21 272.21 860.13 272.21 860.13 323.06 865.66 323.06 865.66 181.79" style="fill:#fbfdfc"/><polyline points="779.07 45.66 772.41 45.66 772.41 117.15 779.07 117.15 779.07 45.66" style="fill:#fff"/><polyline points="779.07 117.15 772.41 117.15 772.41 181.79 779.07 181.79 779.07 117.15" style="fill:#fff"/><polyline points="779.07 181.79 772.41 181.79 772.41 302.27 774.16 302.27 774.16 308.17 777.53 308.17 777.53 321.94 779.07 321.94 779.07 181.79" style="fill:#fbfdfc"/><polyline points="749.89 45.66 748.26 45.66 748.26 117.15 749.89 117.15 749.89 45.66" style="fill:#fff"/><polyline points="749.89 117.15 748.26 117.15 748.26 181.79 749.89 181.79 749.89 117.15" style="fill:#fff"/><polyline points="749.89 181.79 748.26 181.79 748.26 322.51 749.89 322.51 749.89 181.79" style="fill:#fbfdfc"/><g style="clip-path:url(#clip-path-2)"><polyline points="1906.74 346.28 1906.74 302.56 1894.38 302.56 1894.38 295.25 1871.9 295.25 1871.9 305.37 1866 305.37 1866 298.06 1856.45 298.06 1856.45 310.14 1832.57 310.14 1832.57 317.73 1804.19 317.73 1804.19 291.6 1788.17 291.6 1788.17 285.14 1771.03 285.14 1771.03 278.67 1757.55 278.67 1757.55 284.01 1738.16 284.01 1738.16 287.66 1724.39 287.66 1724.39 294.41 1720.18 294.41 1720.18 283.73 1689.84 283.73 1689.84 291.88 1654.15 291.88 1654.15 187.08 1636.17 187.08 1636.17 184.27 1631.11 184.27 1631.11 193.82 1621.28 193.82 1621.28 184.27 1617.63 184.27 1617.63 180.62 1608.91 180.62 1608.91 183.99 1598.24 183.99 1598.24 201.69 1591.78 201.69 1591.78 278.39 1583.63 278.39 1583.63 267.43 1578.57 267.43 1578.57 260.69 1548.79 260.69 1548.79 241.3 1543.17 241.3 1543.17 232.31 1520.69 232.31 1520.69 240.18 1515.07 240.18 1515.07 244.96 1506.36 244.96 1506.36 296.09 1499.34 296.09 1499.34 306.49 1495.4 306.49 1495.4 239.9 1486.89 239.9 1486.89 233.16 1449.89 233.16 1449.89 238.78 1440.33 238.78 1440.33 230.63 1436.96 230.63 1436.96 215.17 1408.3 215.17 1408.3 226.13 1404.93 226.13 1404.93 232.31 1397.63 232.31 1397.63 219.11 1394.54 219.11 1394.54 195.23 1373.74 195.23 1373.74 160.1 1328.51 160.1 1328.51 233.16 1320.92 233.16 1320.92 223.88 1317.27 223.88 1317.27 214.89 1307.44 214.89 1307.44 201.69 1299.85 201.69 1299.85 189.04 1295.07 189.04 1295.07 183.71 1288.33 183.71 1288.33 176.96 1278.5 176.96 1278.5 183.14 1270.91 183.14 1270.91 187.64 1263.89 187.64 1263.89 200.84 1257.14 200.84 1257.14 222.48 1221.74 222.48 1221.74 225.29 1214.43 225.29 1214.43 218.55 1209.66 218.55 1209.66 211.8 1181.84 211.8 1181.84 218.55 1176.51 218.55 1176.51 281.48 1172.57 281.48 1172.57 270.24 1150.94 270.24 1150.94 222.76 1142.51 222.76 1142.51 215.45 1111.6 215.45 1111.6 222.2 1104.02 222.2 1104.02 307.33 1098.12 307.33 1098.12 251.7 1088 251.7 1088 219.39 1082.66 219.39 1082.66 214.33 1078.73 214.33 1078.73 207.31 1057.66 207.31 1057.66 211.8 1048.38 211.8 1048.38 205.06 1034.62 205.06 1034.62 215.45 1028.43 215.45 1028.43 218.82 1021.13 218.82 1021.13 253.11 1016.01 253.11 1016.01 312.39 1005.68 312.39 1005.68 306.21 995.84 306.21 995.84 278.11 988.82 278.11 988.82 222.48 974.21 222.48 974.21 209.84 968.03 209.84 968.03 222.48 943.3 222.48 943.3 277.55 930.94 277.55 930.94 288.51 927 288.51 927 301.71 915.49 301.71 915.49 298.06 911.83 298.06 911.83 287.38 908.74 287.38 908.74 278.11 887.39 278.11 887.39 289.35 881.21 289.35 881.21 294.97 871.09 294.97 871.09 305.09 867.72 305.09 867.72 323.06 860.13 323.06 860.13 272.21 797.48 272.21 797.48 314.36 789.05 314.36 789.05 321.94 777.53 321.94 777.53 308.17 774.16 308.17 774.16 302.27 765.17 302.27 765.17 297.5 753.37 297.5 753.37 322.51 744.09 322.51 744.09 319.69 735.1 319.69 735.1 289.63 728.36 289.63 728.36 285.14 717.4 285.14 717.4 288.79 711.78 288.79 711.78 324.47 706.16 324.47 706.16 289.91 700.83 289.91 700.83 285.42 689.59 285.42 689.59 289.07 681.72 289.07 681.72 325.88 662.05 325.88 662.05 321.1 656.43 321.1 656.43 316.04 639.29 316.04 639.29 320.54 634.52 320.54 634.52 325.59 623.28 325.59 623.28 320.82 618.22 320.82 618.22 311.83 612.32 311.83 612.32 316.88 602.21 316.88 602.21 327 595.18 327 595.18 323.06 579.17 323.06 579.17 345.83 1906.74 346.28" style="fill:#dde2e5"/></g><polyline points="928.12 0 928.12 335.12 933.95 335.12 933.95 0 928.12 0" style="fill:#b6bfc4"/><polyline points="750.39 0 750.39 335.12 756.21 335.12 756.21 0 750.39 0" style="fill:#b6bfc4"/><polyline points="601.25 0 601.25 335.12 607.08 335.12 607.08 0 601.25 0" style="fill:#b6bfc4"/><path d="M901.27,267.27c-.65.13-.65.13-.92,1.83a1.51,1.51,0,0,1-1.09,1.4v-2.16a2.82,2.82,0,1,0-5.63,0v6.28a2.08,2.08,0,0,1-1.57-2c-.36-2.36-.36-2.36-1.27-2.54s-2,.38-2,2.28.91,4.8,2.81,5.34a5.17,5.17,0,0,0,2,.22v1.78a2.82,2.82,0,1,0,5.63,0v-6.81a3.75,3.75,0,0,0,1.41-.16c1.37-.39,2-2.49,2-3.86S901.92,267.14,901.27,267.27Z" transform="translate(104.17 45.66)" style="fill:#467458"/><rect x="893.73" y="266.57" width="0.14" height="0.86" transform="translate(483.9 1091.06) rotate(-73.19)" style="fill:#eceeed"/><rect x="888.73" y="270.8" width="0.14" height="0.86" transform="translate(476.35 1089.31) rotate(-73.2)" style="fill:#eceeed"/><rect x="893.37" y="269" width="0.86" height="0.14" transform="matrix(1, -0.09, 0.09, 1, 82.96, 130.24)" style="fill:#eceeed"/><rect x="888.36" y="272.31" width="0.86" height="0.14" transform="translate(82.63 129.79) rotate(-5.35)" style="fill:#eceeed"/><rect x="896.25" y="269.98" width="0.14" height="0.86" transform="translate(117.22 626.48) rotate(-36.15)" style="fill:#eceeed"/><rect x="895.32" y="276.95" width="0.86" height="0.14" transform="translate(454.03 1084.99) rotate(-71.58)" style="fill:#eceeed"/><rect x="901.56" y="271.91" width="0.14" height="0.86" transform="translate(117.09 629.92) rotate(-36.15)" style="fill:#eceeed"/><rect x="899.35" y="275.25" width="0.14" height="0.86" transform="translate(384.81 1029.91) rotate(-65.91)" style="fill:#eceeed"/><polygon points="1001.41 314.55 1000.56 314.43 1000.58 314.3 1001.43 314.41 1001.41 314.55" style="fill:#eceeed"/><rect x="902.82" y="269.09" width="0.14" height="0.86" transform="translate(620.71 1174.58) rotate(-82.41)" style="fill:#eceeed"/><rect x="888.79" y="275.44" width="0.86" height="0.14" transform="translate(62.87 348.56) rotate(-18.9)" style="fill:#eceeed"/><rect x="897.87" y="266.01" width="0.86" height="0.14" transform="translate(204.25 802.23) rotate(-48.07)" style="fill:#eceeed"/><rect x="902.14" y="267.72" width="0.86" height="0.14" transform="translate(204.12 805.53) rotate(-48.04)" style="fill:#eceeed"/><path d="M901.59,279.58h-10a.91.91,0,0,0-.91.91v1.82a.91.91,0,0,0,.91.91h.09l.71,7h8.42l.71-7h.09a.91.91,0,0,0,.91-.91v-1.82A.91.91,0,0,0,901.59,279.58Z" transform="translate(104.17 45.66)" style="fill:#877e81"/><rect x="601.25" y="332.65" width="454.38" height="5.83" style="fill:#b6bfc4"/><polygon points="1277.57 285.07 1277.57 280.14 1275.52 280.14 1253.14 252.45 1253.14 252.34 1253.05 252.34 1252.85 252.08 1252.53 252.34 1249.45 252.34 1250.17 250.76 1245.07 248.43 1242.76 253.5 1232.9 258.45 1250.58 266.52 1247.86 255.83 1248.66 254.06 1251.21 254.06 1272.3 280.16 1272.3 285.07 1272.88 285.07 1258.86 312.02 1255.73 312.02 1255.73 316.58 1249.53 316.58 1249.53 320.14 1267.43 320.14 1267.43 316.58 1261.86 316.58 1261.86 312.02 1261.7 312.02 1275.71 285.07 1277.57 285.07" style="fill:#445e7f"/><circle cx="1388.93" cy="152.4" r="23.13" style="fill:#bcbec0"/><circle cx="1386.57" cy="149.38" r="23.13" style="fill:#445e7f"/><circle cx="1386.57" cy="149.38" r="20.48" style="fill:#fff"/><rect x="1402.56" y="148.78" width="3.46" height="1.19" rx="0.6" ry="0.6" style="fill:#bcbec0"/><rect x="1367.01" y="148.78" width="3.46" height="1.19" rx="0.6" ry="0.6" style="fill:#bcbec0"/><path d="M1282.15,104.23h0a1,1,0,0,1-.9-1.1l1-10.1a1,1,0,0,1,1.1-.9h0a1,1,0,0,1,.9,1.1l-1,10.1A1,1,0,0,1,1282.15,104.23Z" transform="translate(104.17 45.66)" style="fill:#bcbec0"/><path d="M1282.25,103.87h0a1,1,0,0,1,0-1.42l10-10a1,1,0,0,1,1.42,0h0a1,1,0,0,1,0,1.42l-10,10A1,1,0,0,1,1282.25,103.87Z" transform="translate(104.17 45.66)" style="fill:#bcbec0"/><rect x="1385.44" y="129.87" width="1.19" height="3.46" rx="0.6" ry="0.6" style="fill:#bcbec0"/><rect x="1385.44" y="165.42" width="1.19" height="3.46" rx="0.6" ry="0.6" style="fill:#bcbec0"/><path d="M1296.32,89.72h0a.6.6,0,0,1,0,.84l-1.6,1.6a.6.6,0,0,1-.84,0h0a.6.6,0,0,1,0-.84l1.6-1.6A.6.6,0,0,1,1296.32,89.72Z" transform="translate(104.17 45.66)" style="fill:#bcbec0"/><path d="M1271.18,114.85h0a.6.6,0,0,1,0,.84l-1.6,1.6a.6.6,0,0,1-.84,0h0a.6.6,0,0,1,0-.84l1.6-1.6A.6.6,0,0,1,1271.18,114.85Z" transform="translate(104.17 45.66)" style="fill:#bcbec0"/><rect x="1269.03" y="89.54" width="1.19" height="3.46" rx="0.6" ry="0.6" transform="translate(411.5 970.15) rotate(-45)" style="fill:#bcbec0"/><path d="M1293.54,115.19h0a.6.6,0,0,1,.84,0l1.6,1.6a.6.6,0,1,1-.84.84l-1.6-1.6A.6.6,0,0,1,1293.54,115.19Z" transform="translate(104.17 45.66)" style="fill:#bcbec0"/><circle cx="1386.04" cy="149.38" r="2.21" style="fill:#bcbec0"/><path d="M1337.62,273.18s4.84.17,6.43-.64,5.89,0,5.89,0a21.24,21.24,0,0,1,1.9,3.56c0,.54-16-.19-16-.19Z" transform="translate(104.17 45.66)" style="fill:#fab886"/><path d="M1064.74,277H991.11V224.31c0-16.45,13.34-15.34,29.79-15.34H1035c16.45,0,29.79.56,29.79,17Z" transform="translate(104.17 45.66)" style="fill:#445e7f"/><path d="M1051.48,209h-47.11a13.25,13.25,0,0,0-11.58,6.8c5.75-7.28,43.95-4.83,49.32-4.19,4.3.52,12.54-.37,15.94,2.87,2.62,2.49,3.83,8.86,4,12.27.12,2.32-.82,8.69-.57,11,.27,2.47.68,33.13,1.15,39.67l2.11-.42V222.23A13.26,13.26,0,0,0,1051.48,209Z" transform="translate(104.17 45.66)" style="fill:#2a3748"/><polyline points="1143.64 319.8 1203.71 319.8 1203.71 316 1143.64 316 1143.64 319.8" style="fill:#dd2a23"/><path d="M1098.28,270.09v.24h.58l-.58-.24m-6.32-5.3-1,5.54h1V264.8m0-.23,0,.15h.11l-.09-.15" transform="translate(104.17 45.66)" style="fill:url(#linear-gradient)"/><path d="M1092.09,264.71H1092l0,.09v5.54h6.32v-.24q-.52-.23-1-.51a13.54,13.54,0,0,1-4.53-3.92q-.34-.47-.64-1" transform="translate(104.17 45.66)" style="fill:url(#linear-gradient-2)"/><path d="M1090.59,274.14h-.27l-.12.67h.39v-.67m9.05-3.51v4.19h.95v-3.89l-.95-.29" transform="translate(104.17 45.66)" style="fill:url(#linear-gradient-3)"/><path d="M1092,274.14h-1.37v.67H1092v-.67m7.59-3.55v3.55h-1.27v.67h1.37v-4.19l-.1,0" transform="translate(104.17 45.66)" style="fill:url(#linear-gradient-4)"/><polyline points="1202.45 319.8 1196.13 319.8 1196.13 320.47 1202.45 320.47 1202.45 319.8" style="fill:url(#linear-gradient-5)"/><path d="M1100.59,270.92v3.89H1102v-3.57q-.69-.14-1.37-.33" transform="translate(104.17 45.66)" style="fill:url(#linear-gradient-6)"/><path d="M1102,271.24v3.57h.65l.3-3.4-1-.17" transform="translate(104.17 45.66)" style="fill:url(#linear-gradient-7)"/><path d="M1098.86,270.34H1091l-.67,3.8h9.23v-3.55l-.69-.26" transform="translate(104.17 45.66)" style="fill:url(#linear-gradient-8)"/><path d="M588.36,313.37l-4.63,29.85a2.69,2.69,0,0,1-1.86,2.16c-2.85.88-9,2.22-14.69-.34a2.7,2.7,0,0,1-1.54-2l-5.56-29.37Z" transform="translate(104.17 45.66)" style="fill:#dd2a23"/><path d="M588.36,313.37v.06l-23.72.29,5.56,29.37a2.7,2.7,0,0,0,1.54,2,16.94,16.94,0,0,0,5.12,1.36,18.88,18.88,0,0,1-9.66-1.36,2.7,2.7,0,0,1-1.54-2l-5.56-29.37Z" transform="translate(104.17 45.66)" style="fill:#2a3748"/><ellipse cx="678.36" cy="359.1" rx="14.1" ry="3.26" style="fill:#fff"/><polygon points="664.34 358.74 669.98 350.06 672.94 353.68 679.09 350.89 684.18 356.52 689.32 355.79 691.24 357.49 692.47 359.31 664.34 358.74" style="fill:#fff"/><polygon points="669.98 350.06 672.41 355.59 669.26 355.89 669.98 350.06" style="fill:#e6e7e8"/><polygon points="664.34 358.74 667.28 356.65 669.26 355.89 669.84 357.56 672.41 355.89 677.99 359.01 670.77 360.48 664.34 358.74" style="fill:#e6e7e8"/><polygon points="679.09 350.89 675.24 355.89 679.47 354.68 679.09 350.89" style="fill:#e6e7e8"/><polygon points="680.55 352.51 678.29 359.02 682.52 354.68 680.55 352.51" style="fill:#e6e7e8"/><polygon points="689.32 355.79 687.21 359.02 691.24 357.49 689.32 355.79" style="fill:#e6e7e8"/><polygon points="681.76 357.87 687.39 357.87 683.88 359.13 681.76 357.87" style="fill:#e6e7e8"/><path d="M1216.48,313.37l4.63,29.85a2.69,2.69,0,0,0,1.86,2.16c2.85.88,9,2.22,14.69-.34a2.7,2.7,0,0,0,1.54-2l5.56-29.37Z" transform="translate(104.17 45.66)" style="fill:#dd2a23"/><path d="M1216.48,313.37v.06l23.72.29-5.56,29.37a2.7,2.7,0,0,1-1.54,2,16.94,16.94,0,0,1-5.12,1.36,18.88,18.88,0,0,0,9.66-1.36,2.7,2.7,0,0,0,1.54-2l5.56-29.37Z" transform="translate(104.17 45.66)" style="fill:#2a3748"/><ellipse cx="1334.82" cy="359.1" rx="14.1" ry="3.26" style="fill:#fff"/><polygon points="1348.84 358.74 1343.2 350.06 1340.24 353.68 1334.09 350.89 1328.99 356.52 1323.86 355.79 1321.94 357.49 1320.71 359.31 1348.84 358.74" style="fill:#fff"/><polygon points="1343.2 350.06 1340.77 355.59 1343.92 355.89 1343.2 350.06" style="fill:#e6e7e8"/><polygon points="1348.84 358.74 1345.9 356.65 1343.92 355.89 1343.33 357.56 1340.77 355.89 1335.19 359.01 1342.4 360.48 1348.84 358.74" style="fill:#e6e7e8"/><polygon points="1334.09 350.89 1337.93 355.89 1333.71 354.68 1334.09 350.89" style="fill:#e6e7e8"/><polygon points="1332.62 352.51 1334.88 359.02 1330.65 354.68 1332.62 352.51" style="fill:#e6e7e8"/><polygon points="1323.86 355.79 1325.97 359.02 1321.94 357.49 1323.86 355.79" style="fill:#e6e7e8"/><polygon points="1331.41 357.87 1325.79 357.87 1329.3 359.13 1331.41 357.87" style="fill:#e6e7e8"/><rect x="150.43" y="309.41" width="125.67" height="34.21" style="fill:#dd2a23"/><polygon points="190.38 327.37 191.62 431.47 162.27 426.93 148.06 325.51 190.38 327.37" style="fill:#2a3748"/><path d="M104.23,295.86H86.38l1.07,89.94,102.87-10.13,1.24-74.2s-71.36,2.16-78.15,2.16C109.08,303.64,105.76,300.52,104.23,295.86Z" transform="translate(104.17 45.66)" style="fill:#8499ae"/><rect x="150.43" y="309.41" width="35.6" height="8.53" style="fill:#dd2a23"/><polygon points="188.42 315.81 189.74 426.39 158.56 422.61 143.47 313.84 188.42 315.81" style="fill:#b6bfc4"/><path d="M85.57,380.73l109.27-9.19,1.31-80.39s-75.8,2.3-83,2.3-11.81-8.2-10.5-18h87.94s-2.62-4.59-11.48-5.58-94.83.33-94.83.33Z" transform="translate(104.17 45.66)" style="fill:#fafcfb"/><path d="M41,265.23l42.33,1.64h92.2s-.33-13.45-13.78-17.39h-102S46.91,249.81,41,265.23Z" transform="translate(104.17 45.66)" style="fill:#fafcfb"/><path d="M83.35,266.87c.32-4.79.9-10.15,4.25-13.81a13.14,13.14,0,0,1,6.12-3.58h-34s-12.8.33-18.7,15.75l42.33,1.64Z" transform="translate(104.17 45.66)" style="fill:#b6bfc4"/><polygon points="154.36 344.69 181.6 346.98 182.58 387.34 159.78 384.39 154.36 344.69" style="fill:#73818c"/><path d="M78.28,338.75c-10-13.65-3.74-31.59-3.74-31.59-1.15,0-12.09,2.53-12.3,3.69,3.42,13.54,12.77,24.6,16,28.16Z" transform="translate(104.17 45.66)" style="fill:#fff"/><path d="M64,304.23c-.83,1.22-9.59,4.81-9.35,5.21s14.22,17.45,21.11,26C68.48,324.07,64,304.23,64,304.23Z" transform="translate(104.17 45.66)" style="fill:#fff"/><path d="M78.28,338.68c-.64-.82-1.52-1.92-2.57-3.22A30.47,30.47,0,0,0,78.28,339Z" transform="translate(104.17 45.66)" style="fill:#fff"/><path d="M78.28,338.93c-8.42-9.28-17.45-18.18-21.91-33.11-5.53,3.56-20.63-.39-20.63-.39.28,1.55,8.2,12.24,8.45,12.67.92,1.57,26.11,17,34.09,21.76Z" transform="translate(104.17 45.66)" style="fill:#fff"/><polygon points="182.58 385.25 166.75 364.41 145.09 362 145.09 363.31 159.78 382.29 182.58 387.34 182.58 385.25" style="fill:#b6bfc4"/><polygon points="166.76 364.43 166.75 364.41 145.09 362 145.09 363.31 159.78 382.29 166.76 383.84 166.76 364.43" style="fill:#b6bfc4"/><polygon points="182.58 387.34 166.75 366.51 145.09 363.31 159.78 384.39 182.58 387.34" style="fill:#939598"/><polygon points="293.16 375.2 197.02 382.09 197.02 356.83 293.16 351.9 293.16 375.2" style="fill:#b6bfc4"/><polygon points="293.16 402.11 197.02 410.97 197.02 385.7 293.16 378.81 293.16 402.11" style="fill:#b6bfc4"/><rect x="1048.36" y="3.37" width="5.83" height="335.12" style="fill:#b6bfc4"/><polygon points="1234.38 272.29 1175.11 268.2 1170.03 312.33 1224.59 315.01 1234.38 272.29" style="fill:#2a3748"/><path d="M1112.49,228.72c-13-.33-26.59-.07-38.77,5a40.45,40.45,0,0,0-4.3,2.07l1.52-13.24,59.27,4.1-.71,3.12C1123.9,228.85,1118.14,228.86,1112.49,228.72Z" transform="translate(104.17 45.66)" style="fill:#445e7f"/><path d="M1090.79,262.25c.55-1.13,1-2.28,1.5-3.45s.9-2.38,1.35-3.56a.76.76,0,0,0,.35.24l.18.31a16.16,16.16,0,0,1,1.48,3.58,24.43,24.43,0,0,1,.79,4.08,31.76,31.76,0,0,1,.19,3.19l-8.3-.41q.33-.42.64-.85A23.51,23.51,0,0,0,1090.79,262.25Z" transform="translate(104.17 45.66)" style="fill:#2a3748"/><polygon points="1208.54 302.21 1206.78 322.02 1194.37 322.02 1197.84 302.21 1208.54 302.21" style="fill:#445e7f"/><path d="M975.92,241.24c0,.27.28.53.68.57s.76-.14.79-.41a.43.43,0,0,0-.18-.37l-1-.11A.43.43,0,0,0,975.92,241.24Z" transform="translate(104.17 45.66)" style="fill:#877e81"/><path d="M975.62,241.47c0,.33.41.66.95.72s1-.16,1.08-.5a.5.5,0,0,0-.2-.41l-1.54-.17A.49.49,0,0,0,975.62,241.47Z" transform="translate(104.17 45.66)" style="fill:#877e81"/><path d="M977.58,241.5s.42,0,0,2.21c0,0-2.27,19.67-2.33,21.14a66.74,66.74,0,0,1-1.73,7.93l-.25,0-.25,0a66.83,66.83,0,0,1,0-8.12c.25-1.45,2.2-21.16,2.2-21.16.08-2.27.48-2.16.48-2.16l1.86.2" transform="translate(104.17 45.66)" style="fill:#877e81"/><path d="M975.34,242.22l2.42.26a4.12,4.12,0,0,0,0-.43l-2.35-.25A4.25,4.25,0,0,0,975.34,242.22Z" transform="translate(104.17 45.66)" style="fill:#877e81"/><path d="M974.54,250.41l0,.36,2.25.24,0-.36Z" transform="translate(104.17 45.66)" style="fill:#877e81"/><path d="M973.46,272.78h0" transform="translate(104.17 45.66)" style="fill:#c7bec1"/><path d="M973.34,272.77h.2l-.2,0" transform="translate(104.17 45.66)" style="fill:#c7bec1"/><path d="M971.42,272.52l-3.13-19.06a.47.47,0,0,1-.22,0l-.25.16,3.12,18.91Z" transform="translate(104.17 45.66)" style="fill:#3c2d40"/><polygon points="1075.12 318.21 1071.99 299.3 1070.75 299.55 1073.94 318.3 1075.12 318.21" style="fill:#3c2d40"/><polygon points="1073.99 318.29 1070.75 299.55 1069.95 299.3 1073.14 318.36 1073.99 318.29" style="fill:#3c2d40"/><path d="M966.21,247.42l2.07,6.05s-.11.41-.89.63a2.22,2.22,0,0,1-1.61-.34Z" transform="translate(104.17 45.66)" style="fill:#3c2d40"/><path d="M967,249.85l-.83-2.43-.15,2.29A1.9,1.9,0,0,0,967,249.85Z" transform="translate(104.17 45.66)" style="fill:#3c2d40"/><path d="M973,268.47l-1-19.29a.47.47,0,0,1-.22,0l-.26.13,1,19.14Z" transform="translate(104.17 45.66)" style="fill:#dd2a23"/><polygon points="1076.73 314.11 1075.71 294.96 1074.45 295.08 1075.55 314.06 1076.73 314.11" style="fill:#dd2a23"/><polygon points="1075.6 314.06 1074.45 295.08 1073.68 294.74 1074.74 314.03 1075.6 314.06" style="fill:#dd2a23"/><path d="M970.62,242.95l1.39,6.25s-.16.39-1,.52a2.22,2.22,0,0,1-1.56-.52Z" transform="translate(104.17 45.66)" style="fill:#dd2a23"/><path d="M971.18,245.46l-.56-2.51-.4,2.26A1.9,1.9,0,0,0,971.18,245.46Z" transform="translate(104.17 45.66)" style="fill:#dd2a23"/><path d="M966.76,258.93a41.3,41.3,0,0,1,3.41,16.29c.31,0,.61.05.92.06a18.7,18.7,0,0,0,4.57-.57l2.27-15.55Z" transform="translate(104.17 45.66)" style="fill:#445e7f"/><path d="M965.16,258.9l1.19,15.48a18.92,18.92,0,0,0,3.82.85,41.3,41.3,0,0,0-3.41-16.29Z" transform="translate(104.17 45.66)" style="fill:#445e7f"/><path d="M977.27,264.22l.66-5-12.78-.27.29,3.82C969.06,262.2,974.44,261.9,977.27,264.22Z" transform="translate(104.17 45.66)" style="fill:#445e7f"/><path d="M978.48,260.85a.53.53,0,0,1-.52.55H965a.53.53,0,0,1-.52-.55v-2.59a.53.53,0,0,1,.52-.55H978a.53.53,0,0,1,.52.55Z" transform="translate(104.17 45.66)" style="fill:#445e7f"/><path d="M1031.64,213.18h0l-.54,0a8.18,8.18,0,0,1-2.91-.49.07.07,0,0,0-.05.13,8.31,8.31,0,0,0,3,.5c.36,0,.58,0,.59,0a.07.07,0,1,0,0-.14Z" transform="translate(104.17 45.66)" style="fill:#3c2d40"/><rect x="1433.69" y="316.87" width="60.08" height="3.8" style="fill:#3b2f43"/><polygon points="1453.89 270.04 1454.37 314.04 1456.8 315.12 1458.23 269.37 1456.94 268.19 1453.89 270.04" style="fill:#bdbfbc"/><polygon points="1456.94 268.19 1499.85 272.32 1506.24 272.94 1507.76 314.04 1506.07 314.07 1500.92 314.15 1500.93 314.18 1470.39 314.83 1456.8 315.12 1456.94 268.19" style="fill:#445e7f"/><polygon points="1480.49 284.83 1484.41 322.05 1497.44 321.9 1484.95 284.98 1480.49 284.83" style="fill:#bdbfbc"/><polygon points="1481.36 284.83 1485.28 322.05 1498.31 321.9 1485.82 284.98 1481.36 284.83" style="fill:#2a3748"/><polygon points="1478.89 270.48 1507.76 314.04 1506.24 272.94 1478.89 270.48" style="fill:#2a3748"/><path d="M1245.77,258.79h36.72l.79,16.07-36.44.41-.05-.75,1.69-.63-1.75-.27-.67-10.62,1.61-.16-1.71-.55-.15-2.6,3.22-.29-3.25-.6" transform="translate(104.17 45.66)" style="fill:#fff"/><path d="M1282.5,258.79l.79,16.07-15.43.32a54.33,54.33,0,0,0,6.92-16.39h7.72" transform="translate(104.17 45.66)" style="fill:#b6bfc4"/><rect x="1350.89" y="320.99" width="236.21" height="71.32" style="fill:#8499ae"/><path d="M1265.82,280.08s12.64,25.28,69.13,25.28,72.19,41.52,72.19,41.52l75.83-.23-.13-65.22Z" transform="translate(104.17 45.66)" style="fill:#2a3748"/><rect x="1341.62" y="319.78" width="253.8" height="7.25" style="fill:#8499ae"/><rect x="1341.62" y="325.12" width="253.8" height="3.97" style="fill:#73818c"/><path d="M783.86,275.44H710.23V222.76c0-16.45,13.34-15.34,29.79-15.34h14.05c16.45,0,29.79.56,29.79,17Z" transform="translate(104.17 45.66)" style="fill:#445e7f"/><path d="M770.6,207.42H723.49a13.25,13.25,0,0,0-11.58,6.8c5.75-7.28,43.95-4.83,49.32-4.19,4.3.52,12.54-.37,15.94,2.87,2.62,2.49,3.83,8.86,4,12.27.12,2.32-.82,8.69-.57,11,.27,2.47.68,33.13,1.15,39.67l2.11-.42V220.68A13.26,13.26,0,0,0,770.6,207.42Z" transform="translate(104.17 45.66)" style="fill:#2a3748"/><path d="M781.38,265.32l0-.13Z" transform="translate(104.17 45.66)" style="fill:#354d60"/><path d="M828.55,255.57h43.53l.93,19.05-43.2.49-.06-.89,2-.75-2.08-.32-.8-12.59,1.9-.19-2-.65-.18-3.08,3.82-.35-3.85-.71" transform="translate(104.17 45.66)" style="fill:#fff"/><path d="M872.08,255.57l.93,19.05-18.29.38a64.43,64.43,0,0,0,8.2-19.43h9.16" transform="translate(104.17 45.66)" style="fill:#b6bfc4"/><path d="M854.35,243.17c0,.27.28.53.68.57s.76-.14.79-.41a.43.43,0,0,0-.18-.37l-1-.11A.43.43,0,0,0,854.35,243.17Z" transform="translate(104.17 45.66)" style="fill:#877e81"/><path d="M854,243.4c0,.33.41.66.95.72s1-.16,1.08-.5a.5.5,0,0,0-.2-.41l-1.54-.17A.49.49,0,0,0,854,243.4Z" transform="translate(104.17 45.66)" style="fill:#877e81"/><path d="M856,243.43s.42,0,0,2.21c0,0-2.27,19.67-2.33,21.14a66.77,66.77,0,0,1-1.73,7.93l-.25,0-.25,0a66.81,66.81,0,0,1,0-8.12c.25-1.45,2.2-21.16,2.2-21.16.08-2.27.48-2.16.48-2.16l1.86.2" transform="translate(104.17 45.66)" style="fill:#877e81"/><path d="M853.77,244.15l2.42.26a4.12,4.12,0,0,0,0-.43l-2.35-.25A4.25,4.25,0,0,0,853.77,244.15Z" transform="translate(104.17 45.66)" style="fill:#877e81"/><path d="M853,252.34l0,.36,2.25.24,0-.36Z" transform="translate(104.17 45.66)" style="fill:#877e81"/><path d="M849.85,274.45l-3.13-19.06a.47.47,0,0,1-.22,0l-.25.16,3.12,18.91Z" transform="translate(104.17 45.66)" style="fill:#3c2d40"/><polygon points="953.54 320.14 950.42 301.23 949.18 301.49 952.37 320.23 953.54 320.14" style="fill:#3c2d40"/><polygon points="952.41 320.23 949.18 301.49 948.38 301.23 951.56 320.29 952.41 320.23" style="fill:#3c2d40"/><path d="M844.63,249.36l2.07,6.05s-.11.41-.89.63a2.22,2.22,0,0,1-1.61-.34Z" transform="translate(104.17 45.66)" style="fill:#3c2d40"/><path d="M845.47,251.79l-.83-2.43-.15,2.29A1.89,1.89,0,0,0,845.47,251.79Z" transform="translate(104.17 45.66)" style="fill:#3c2d40"/><path d="M851.46,270.4l-1-19.29a.47.47,0,0,1-.22,0l-.26.13,1,19.14Z" transform="translate(104.17 45.66)" style="fill:#dd2a23"/><polygon points="955.15 316.04 954.14 296.9 952.88 297.01 953.98 315.99 955.15 316.04" style="fill:#dd2a23"/><polygon points="954.02 315.99 952.88 297.01 952.11 296.67 953.17 315.96 954.02 315.99" style="fill:#dd2a23"/><path d="M849,244.88l1.39,6.25s-.16.39-1,.52a2.22,2.22,0,0,1-1.56-.52Z" transform="translate(104.17 45.66)" style="fill:#dd2a23"/><path d="M849.61,247.39l-.56-2.51-.4,2.26A1.9,1.9,0,0,0,849.61,247.39Z" transform="translate(104.17 45.66)" style="fill:#dd2a23"/><path d="M845.19,260.86a41.3,41.3,0,0,1,3.41,16.29c.31,0,.61.05.92.06a18.7,18.7,0,0,0,4.57-.57l2.28-15.55Z" transform="translate(104.17 45.66)" style="fill:#5da3c7"/><path d="M843.59,260.83l1.19,15.48a18.93,18.93,0,0,0,3.82.85,41.3,41.3,0,0,0-3.41-16.29Z" transform="translate(104.17 45.66)" style="fill:#5da3c7"/><path d="M855.7,266.15l.66-5-12.78-.27.29,3.82C847.48,264.13,852.87,263.83,855.7,266.15Z" transform="translate(104.17 45.66)" style="fill:#5da3c7"/><path d="M856.91,262.78a.53.53,0,0,1-.52.55H843.46a.53.53,0,0,1-.52-.55v-2.59a.53.53,0,0,1,.52-.55h12.93a.53.53,0,0,1,.52.55Z" transform="translate(104.17 45.66)" style="fill:#5da3c7"/><path d="M817.81,259.83h-2.21v-1.54H801v15s-.1,1.49.93,1.49v.46h12.79v-.46c1,0,.93-1.49.93-1.49v-3.49h2.21A2,2,0,0,0,820,268v-6.43A2,2,0,0,0,817.81,259.83Zm1.18,7.44c0,.74-.41,1.35-1.68,1.35h-1.7V261h1.7c1.27,0,1.68.6,1.68,1.35Z" transform="translate(104.17 45.66)" style="fill:#dd2a23"/><path d="M809.35,256.56s-2.67-2.88.88-5.39c3.72-2.63-1-7.09-1-7.09s-2-1.88-.29-3.79a2.58,2.58,0,0,0-.69,3.79c1.41,2,2.39,4.16.88,5.33s-2.48,1.83-2.73,3.23S806.94,255.22,809.35,256.56Z" transform="translate(104.17 45.66)" style="fill:#fff"/><path d="M814.68,274.74c1,0,.93-1.49.93-1.49v-3.49h2.21A2,2,0,0,0,820,268v-6.43a2,2,0,0,0-2.19-1.76h-2.21v-1.54h-3.95c.38,3.54.93,13.7-4.58,16.92h7.6Zm.93-13.76h1.7c1.27,0,1.68.6,1.68,1.35v4.94c0,.74-.41,1.35-1.68,1.35h-1.7Z" transform="translate(104.17 45.66)" style="fill:#2a3748"/><path d="M515.31,261.58V268a2,2,0,0,0,2.19,1.76h2.21v3.49s-.1,1.49.93,1.49v.46h12.79v-.46c1,0,.93-1.49.93-1.49v-15H519.72v1.54h-2.21A2,2,0,0,0,515.31,261.58Zm1,.75c0-.74.41-1.35,1.68-1.35h1.7v7.63H518c-1.27,0-1.68-.6-1.68-1.35Z" transform="translate(104.17 45.66)" style="fill:#445e7f"/><path d="M520.65,275.2h7.6c-5.51-3.22-5-13.38-4.58-16.92h-3.95v1.54h-2.21a2,2,0,0,0-2.19,1.76V268a2,2,0,0,0,2.19,1.76h2.21v3.49s-.1,1.49.93,1.49Zm-.93-6.59H518c-1.27,0-1.68-.6-1.68-1.35v-4.94c0-.74.41-1.35,1.68-1.35h1.7Z" transform="translate(104.17 45.66)" style="fill:#2a3748"/><polygon points="803.43 269.98 802.96 313.97 800.53 315.05 799.09 269.31 800.38 268.12 803.43 269.98" style="fill:#bdbfbc"/><polygon points="751.21 314.35 756.32 314.46 756.39 314.12 751.26 314.01 751.21 314.35" style="fill:#bdbfbc"/><polygon points="800.38 268.12 757.47 272.26 751.08 272.87 749.57 313.97 751.26 314.01 756.4 314.09 756.39 314.12 786.93 314.76 800.53 315.05 800.38 268.12" style="fill:#445e7f"/><polygon points="800.38 268.12 797.19 268.42 767.49 314.35 800.53 315.05 800.38 268.12" style="fill:#2a3748"/><polygon points="776.83 284.77 772.91 321.98 759.88 321.84 772.37 284.91 776.83 284.77" style="fill:#bdbfbc"/><polygon points="775.97 284.77 772.04 321.98 759.02 321.84 771.5 284.91 775.97 284.77" style="fill:#2a3748"/><rect x="741.06" y="320.99" width="236.21" height="71.32" style="fill:#8499ae"/><path d="M656,280.08s12.64,25.28,69.13,25.28,72.19,41.52,72.19,41.52l75.83-.23L873,281.44Z" transform="translate(104.17 45.66)" style="fill:#2a3748"/><rect x="731.79" y="319.78" width="253.8" height="7.25" style="fill:#8499ae"/><rect x="731.79" y="325.12" width="253.8" height="3.97" style="fill:#73818c"/><g style="clip-path:url(#clip-path-3)"><path d="M923.59,235.17a1.29,1.29,0,0,0,0-1.15c-1.09-2-2.93,1.55-.56,1.55l.09-.49Z" transform="translate(104.17 45.66)" style="fill:#467458;fill-rule:evenodd"/><path d="M923,235.92a1.32,1.32,0,0,1-1.47-1,1.68,1.68,0,0,1,.83-1.77c.21-.1.94-.34,1.51.68a1.63,1.63,0,0,1,0,1.47l-.12.24-.41-.07-.08.44Zm.34-1.15a1,1,0,0,0-.09-.58c-.19-.35-.4-.48-.6-.39a1,1,0,0,0-.45,1,.55.55,0,0,0,.5.41l.1-.53Z" transform="translate(104.17 45.66)" style="fill:#467458"/><path d="M922.88,239.81l.5-.17c-.53-.59-.18-1.44-.75-1.58-2-.48-1.4,4.16.52,2.2Z" transform="translate(104.17 45.66)" style="fill:#467458;fill-rule:evenodd"/><path d="M921.85,241a1.29,1.29,0,0,1-.58-.63,2,2,0,0,1,.58-2.58,1.27,1.27,0,0,1,.86-.06c.52.13.6.61.66,1a1.36,1.36,0,0,0,.27.73l.35.39-.58.2.19.31-.19.2a2.24,2.24,0,0,1-.63.47A1,1,0,0,1,921.85,241Zm.51-1.37.5-.17a2.79,2.79,0,0,1-.17-.66c-.05-.32-.08-.38-.13-.39a.59.59,0,0,0-.4,0c-.42.2-.5,1.11-.25,1.65a.62.62,0,0,0,.25.3.35.35,0,0,0,.33,0,1.2,1.2,0,0,0,.23-.14Z" transform="translate(104.17 45.66)" style="fill:#467458"/><path d="M923.92,246.66l.39-.12c-.3-2.94-3.29-1.34-1.93.27a1.49,1.49,0,0,0,1.4.24Z" transform="translate(104.17 45.66)" style="fill:#467458;fill-rule:evenodd"/><path d="M923.85,247.39a1.77,1.77,0,0,1-1.73-.36,1.59,1.59,0,0,1-.4-1.37,1.43,1.43,0,0,1,.79-1,1.33,1.33,0,0,1,1.23,0,2.12,2.12,0,0,1,.93,1.78l0,.29-.5.15-.15.41Zm.08-1.1a1.35,1.35,0,0,0-.54-1,.63.63,0,0,0-.59,0,.73.73,0,0,0-.4.49.91.91,0,0,0,.25.77,1,1,0,0,0,.87.15l.13-.36Z" transform="translate(104.17 45.66)" style="fill:#467458"/><path d="M923.25,253.15l.39-.12c.14-2.7-3.12-2.12-2-.2.32.56.86.55,1.49.71Z" transform="translate(104.17 45.66)" style="fill:#467458;fill-rule:evenodd"/><path d="M923,253.88l-.35-.08a1.75,1.75,0,0,1-1.37-.8,1.59,1.59,0,0,1-.21-1.3,1.2,1.2,0,0,1,.64-.73,1.49,1.49,0,0,1,1.46.13A2,2,0,0,1,924,253v.24l-.46.14-.19.52Zm.27-1.11a1.3,1.3,0,0,0-.49-1.09.8.8,0,0,0-.77-.07.51.51,0,0,0-.28.3,1,1,0,0,0,.15.74c.17.3.41.36.9.46h.07l.09-.26Z" transform="translate(104.17 45.66)" style="fill:#467458"/><path d="M921.9,262.28l.44.24c.21-.93-.83-1.78-1.48-1.49s-.67,2.38.79,1.68Z" transform="translate(104.17 45.66)" style="fill:#467458;fill-rule:evenodd"/><path d="M922,262.76l-.07.13-.06.1-.1,0a1.39,1.39,0,0,1-1,.13,1,1,0,0,1-.63-.56,1.5,1.5,0,0,1,.53-1.89h0a1.31,1.31,0,0,1,1.35.27,1.64,1.64,0,0,1,.61,1.62l-.1.46Zm-.11-.86a1.15,1.15,0,0,0-.3-.37.65.65,0,0,0-.62-.17.83.83,0,0,0-.2,1,.3.3,0,0,0,.19.19.66.66,0,0,0,.41-.05l.36-.64Z" transform="translate(104.17 45.66)" style="fill:#467458"/><path d="M921,268l.46-.19c-.63-.8-1.08-1.21-1.7-.87-1.27.68.43,3.3,1.37,1.54Z" transform="translate(104.17 45.66)" style="fill:#467458;fill-rule:evenodd"/><path d="M919.19,268.55a1.36,1.36,0,0,1,.43-1.91c1-.52,1.65.34,2.14,1l.29.37-.6.25.09.32-.07.12a1.5,1.5,0,0,1-.66.68A1.27,1.27,0,0,1,919.19,268.55Zm1.41-.75.31-.13c-.48-.55-.69-.56-1-.42s-.27.72-.14,1,.46.58.7.47a.71.71,0,0,0,.27-.27Z" transform="translate(104.17 45.66)" style="fill:#467458"/><path d="M922,275.88l.39.14c.28-.91.06-2.85-1.19-2.53s-.8,2.17.46,2.61Z" transform="translate(104.17 45.66)" style="fill:#467458;fill-rule:evenodd"/><path d="M922,276.27l-.34.23-.16-.06a2.21,2.21,0,0,1-1.43-1.89,1.31,1.31,0,0,1,1-1.39,1.18,1.18,0,0,1,1.2.32,3,3,0,0,1,.42,2.65l-.11.35Zm-1.24-1.76a1.52,1.52,0,0,0,.82,1.2l.33-.22.17.06a2.25,2.25,0,0,0-.33-1.6.48.48,0,0,0-.51-.12l-.15.05A.61.61,0,0,0,920.81,274.51Z" transform="translate(104.17 45.66)" style="fill:#467458"/><path d="M918.71,274.57l.33-.19c.1-1.29-1.22-2.27-2-1.76-1.16.76.41,2.66,1.61,2.33Z" transform="translate(104.17 45.66)" style="fill:#467458;fill-rule:evenodd"/><path d="M918.76,275.28a2.16,2.16,0,0,1-2.31-1.3,1.25,1.25,0,0,1,.42-1.65,1.42,1.42,0,0,1,1.59.12,2.19,2.19,0,0,1,.94,2v.18l-.34.19-.05.43Zm-.7-2.26a.74.74,0,0,0-.81-.11.56.56,0,0,0-.16.78,1.65,1.65,0,0,0,1.27.94l0-.28.31-.18A1.52,1.52,0,0,0,918.06,273Z" transform="translate(104.17 45.66)" style="fill:#467458"/><path d="M932.3,273l-.06.42c.48.17,1.33.54,1.88-.11,1.23-1.46-2.37-2.72-2.23-.36Z" transform="translate(104.17 45.66)" style="fill:#467458;fill-rule:evenodd"/><path d="M932.21,273.79l-.35-.13.05-.35-.35-.05,0-.28a1.44,1.44,0,0,1,.77-1.54,1.91,1.91,0,0,1,2.16.55,1.18,1.18,0,0,1-.09,1.56,1.39,1.39,0,0,1-.47.36A2.2,2.2,0,0,1,932.21,273.79Zm0-1.14.46.07-.07.48a1.39,1.39,0,0,0,1,.08.69.69,0,0,0,.23-.18.49.49,0,0,0,.07-.68,1.21,1.21,0,0,0-1.31-.34A.68.68,0,0,0,932.24,272.65Z" transform="translate(104.17 45.66)" style="fill:#467458"/><path d="M932.32,266.38l.12.39c2.17.58,1.66-2.77-.06-1.77a1,1,0,0,0-.44,1.24Z" transform="translate(104.17 45.66)" style="fill:#467458;fill-rule:evenodd"/><path d="M933.53,267.06a1.22,1.22,0,0,0,.67-.85,1.6,1.6,0,0,0-.11-1,1.26,1.26,0,0,0-.66-.65,1.3,1.3,0,0,0-1.06.07l.3.63a.63.63,0,0,1,.51-.06.57.57,0,0,1,.29.29.9.9,0,0,1,.06.56.53.53,0,0,1-.28.38Z" transform="translate(104.17 45.66)" style="fill:#467458"/><path d="M931.15,264l-.12.57c1.88.5,1.6-2.18.41-2.13a1.11,1.11,0,0,0-.82,1.8Z" transform="translate(104.17 45.66)" style="fill:#467458;fill-rule:evenodd"/><path d="M932,264.89a1.59,1.59,0,0,1-1.1,0l-.32-.08,0-.21-.14.07-.17-.21a1.4,1.4,0,0,1-.31-1.21,1.56,1.56,0,0,1,.85-1,1.39,1.39,0,0,1,.53-.14,1.3,1.3,0,0,1,1.26,1.1A1.41,1.41,0,0,1,932,264.89Zm-1.32-1.44a.62.62,0,0,0,0,.38l.88-.41-.18.9a.67.67,0,0,0,.3-.05c.29-.14.34-.55.26-.87s-.25-.58-.55-.57a.71.71,0,0,0-.27.07A.86.86,0,0,0,930.73,263.45Z" transform="translate(104.17 45.66)" style="fill:#467458"/><path d="M931.77,256.47l-.24.44c2.47,1.55,1.58-3.71-.22-1.57-.19.22,0,.58,0,1Z" transform="translate(104.17 45.66)" style="fill:#467458;fill-rule:evenodd"/><path d="M932.11,252.83l.28.45c1.3.2,1-2.13-.16-2-.58.07-1.43,1.17-.56,1.81Z" transform="translate(104.17 45.66)" style="fill:#467458;fill-rule:evenodd"/><path d="M933,253.55a1.12,1.12,0,0,1-.66.08l-.16,0-.18-.29-.35.22-.19-.14a1.17,1.17,0,0,1-.51-1.08,1.68,1.68,0,0,1,.92-1.27,1.06,1.06,0,0,1,.32-.1,1.24,1.24,0,0,1,1.34,1A1.31,1.31,0,0,1,933,253.55Zm-1.35-1.16a.42.42,0,0,0,.07.29l.51-.32.36.59.11,0c.19-.09.26-.43.16-.77,0-.13-.19-.55-.58-.5l-.11,0A1,1,0,0,0,931.64,252.38Z" transform="translate(104.17 45.66)" style="fill:#467458"/><path d="M930.51,243.94l.36.41c1.68-.51.41-2.91-.62-2.67-.83.2-1.18,1.71-.21,2.55Z" transform="translate(104.17 45.66)" style="fill:#467458;fill-rule:evenodd"/><path d="M931,244.68l-.21.06-.32-.36-.44.27-.19-.17a2,2,0,0,1-.68-1.82,1.58,1.58,0,0,1,.82-1.25l.22-.08c.74-.18,1.47.53,1.74,1.31a1.46,1.46,0,0,1-.69,1.93Zm-1.15-1.92a1.35,1.35,0,0,0,.28,1l.48-.29.4.44a.8.8,0,0,0,.29-1.05c-.18-.51-.63-.93-.92-.86l-.09,0A.92.92,0,0,0,929.83,242.76Z" transform="translate(104.17 45.66)" style="fill:#467458"/><path d="M926.09,236l.17.5c2-.33,0-2.8-1.05-1.69-.2.21-.2,1.33.43,1.47Z" transform="translate(104.17 45.66)" style="fill:#467458;fill-rule:evenodd"/><path d="M926.32,236.82l-.29,0-.13-.37-.2.12-.14,0a1,1,0,0,1-.74-.75,1.53,1.53,0,0,1,.12-1.3,1.25,1.25,0,0,1,.39-.29,1.35,1.35,0,0,1,1.36.18,1.64,1.64,0,0,1,.76,1.38,1,1,0,0,1-.63.85A1.94,1.94,0,0,1,926.32,236.82Zm-.84-1.81a1.13,1.13,0,0,0,.05.72.42.42,0,0,0,.09.13l.66-.41.21.6,0,0c.19-.09.22-.2.23-.27a1,1,0,0,0-.46-.75.71.71,0,0,0-.66-.12A.54.54,0,0,0,925.48,235Z" transform="translate(104.17 45.66)" style="fill:#467458"/><path d="M926,242.45a8.44,8.44,0,0,0-3.14-2.64" transform="translate(104.17 45.66)" style="fill:#467458;fill-rule:evenodd"/><path d="M926.17,242.76l.07,0a.35.35,0,0,0,.05-.49,8.31,8.31,0,0,0-3.3-2.75.35.35,0,1,0-.24.66,7.8,7.8,0,0,1,3,2.53A.35.35,0,0,0,926.17,242.76Z" transform="translate(104.17 45.66)" style="fill:#467458"/><path d="M927.48,250.66c-.83-1.59-2.41-2.61-3.56-4" transform="translate(104.17 45.66)" style="fill:#467458;fill-rule:evenodd"/><path d="M927.63,251h0a.35.35,0,0,0,.15-.47,10.52,10.52,0,0,0-2.2-2.62,17.13,17.13,0,0,1-1.4-1.44.35.35,0,1,0-.54.44,17.75,17.75,0,0,0,1.45,1.5,9.85,9.85,0,0,1,2.06,2.44A.35.35,0,0,0,927.63,251Z" transform="translate(104.17 45.66)" style="fill:#467458"/><path d="M926.73,260a23.72,23.72,0,0,0-3.47-6.86" transform="translate(104.17 45.66)" style="fill:#467458;fill-rule:evenodd"/><path d="M926.87,260.32a.35.35,0,0,0,.19-.41,23.84,23.84,0,0,0-3.53-7,.35.35,0,0,0-.56.42,23.42,23.42,0,0,1,3.42,6.74.35.35,0,0,0,.43.24Z" transform="translate(104.17 45.66)" style="fill:#467458"/><path d="M926.85,260.27a36.15,36.15,0,0,0-3-2.93" transform="translate(104.17 45.66)" style="fill:#467458;fill-rule:evenodd"/><path d="M927,260.59l.06,0a.35.35,0,0,0,.06-.49,32.49,32.49,0,0,0-2.84-2.8l-.2-.18a.35.35,0,1,0-.47.52l.2.18a33.06,33.06,0,0,1,2.76,2.71A.35.35,0,0,0,927,260.59Z" transform="translate(104.17 45.66)" style="fill:#467458"/><path d="M924.8,267.86c.61-.9,0-2.05-.15-3" transform="translate(104.17 45.66)" style="fill:#467458;fill-rule:evenodd"/><path d="M924.95,268.17a.35.35,0,0,0,.14-.12,3.05,3.05,0,0,0,.07-2.64c-.06-.22-.12-.44-.16-.64a.35.35,0,1,0-.68.14c0,.22.11.46.17.68a2.48,2.48,0,0,1,0,2.06.35.35,0,0,0,.44.51Z" transform="translate(104.17 45.66)" style="fill:#467458"/><path d="M924.8,267.86c-1.24-1.63-1.59-3.92-2.9-5.57" transform="translate(104.17 45.66)" style="fill:#467458;fill-rule:evenodd"/><path d="M924.95,268.17l.06,0a.35.35,0,0,0,.07-.49,11.62,11.62,0,0,1-1.34-2.62,12,12,0,0,0-1.56-3,.35.35,0,1,0-.55.43,11.53,11.53,0,0,1,1.47,2.8,12.32,12.32,0,0,0,1.43,2.77A.35.35,0,0,0,924.95,268.17Z" transform="translate(104.17 45.66)" style="fill:#467458"/><path d="M924.8,267.86c.09.95.22,1.88.29,2.83" transform="translate(104.17 45.66)" style="fill:#467458;fill-rule:evenodd"/><path d="M925.24,271a.35.35,0,0,0,.2-.34c0-.56-.1-1.12-.16-1.66,0-.39-.09-.79-.13-1.18a.35.35,0,1,0-.7.06c0,.4.08.81.13,1.2s.12,1.08.16,1.62a.35.35,0,0,0,.37.32Z" transform="translate(104.17 45.66)" style="fill:#467458"/><path d="M924.89,271.3A12.34,12.34,0,0,0,921,268" transform="translate(104.17 45.66)" style="fill:#467458;fill-rule:evenodd"/><path d="M925,271.61l.05,0a.35.35,0,0,0,.09-.49,12.48,12.48,0,0,0-4-3.39.35.35,0,0,0-.35.6,11.82,11.82,0,0,1,3.76,3.19A.35.35,0,0,0,925,271.61Z" transform="translate(104.17 45.66)" style="fill:#467458"/><path d="M923.28,281.35c.3-1.14-1.08-4.36-1.27-5.47" transform="translate(104.17 45.66)" style="fill:#467458;fill-rule:evenodd"/><path d="M923.43,281.67a.35.35,0,0,0,.19-.23c.22-.86-.32-2.53-.8-4a15.65,15.65,0,0,1-.47-1.61.35.35,0,0,0-.69.12,15.62,15.62,0,0,0,.49,1.7c.4,1.25,1,3,.79,3.62a.35.35,0,0,0,.49.4Z" transform="translate(104.17 45.66)" style="fill:#467458"/><path d="M923.28,281.35a46.67,46.67,0,0,0-4.56-6.78" transform="translate(104.17 45.66)" style="fill:#467458;fill-rule:evenodd"/><path d="M923.43,281.67h0a.35.35,0,0,0,.14-.47,47.07,47.07,0,0,0-4.61-6.86.35.35,0,0,0-.51.47,46.07,46.07,0,0,1,4.51,6.71A.35.35,0,0,0,923.43,281.67Z" transform="translate(104.17 45.66)" style="fill:#467458"/><path d="M921.49,287.06c.6-1.51,2.66-7.18,2.65-8.84" transform="translate(104.17 45.66)" style="fill:#467458;fill-rule:evenodd"/><path d="M921.64,287.38a.35.35,0,0,0,.18-.19c.44-1.11,2.68-7.16,2.67-9a.35.35,0,1,0-.7,0c0,1.55-2,7-2.63,8.71a.35.35,0,0,0,.47.44Z" transform="translate(104.17 45.66)" style="fill:#467458"/><path d="M932.3,273a49.48,49.48,0,0,0-8.24,5.95" transform="translate(104.17 45.66)" style="fill:#467458;fill-rule:evenodd"/><path d="M924.21,279.28l.09-.06a49.18,49.18,0,0,1,8.18-5.9.35.35,0,1,0-.34-.61,50,50,0,0,0-8.31,6,.35.35,0,0,0,.39.57Z" transform="translate(104.17 45.66)" style="fill:#467458"/><path d="M927.83,274c-.95,1.28-1.93,2.54-2.77,3.88" transform="translate(104.17 45.66)" style="fill:#467458;fill-rule:evenodd"/><path d="M925.2,278.23a.35.35,0,0,0,.15-.13C926,277,926.8,276,927.56,275l.55-.74a.35.35,0,1,0-.56-.42l-.55.73c-.76,1-1.55,2.07-2.24,3.17a.35.35,0,0,0,.45.5Z" transform="translate(104.17 45.66)" style="fill:#467458"/><path d="M925.51,269c1.69-.81,5.37-1.44,6.82-2.63" transform="translate(104.17 45.66)" style="fill:#467458;fill-rule:evenodd"/><path d="M931.45,267.31a5.27,5.27,0,0,0,1.09-.66.35.35,0,1,0-.44-.54,13.79,13.79,0,0,1-4.09,1.67,20.5,20.5,0,0,0-2.66.92.35.35,0,0,0,.3.63h0a20.57,20.57,0,0,1,2.53-.87A24.66,24.66,0,0,0,931.45,267.31Z" transform="translate(104.17 45.66)" style="fill:#467458"/><path d="M927.13,268.41c1.1-1.29,2.83-3.2,4-4.37" transform="translate(104.17 45.66)" style="fill:#467458;fill-rule:evenodd"/><path d="M927.28,268.72a.35.35,0,0,0,.12-.09c1.09-1.28,2.81-3.18,4-4.35a.35.35,0,0,0-.49-.5c-1.2,1.18-2.94,3.11-4,4.4a.35.35,0,0,0,.42.54Z" transform="translate(104.17 45.66)" style="fill:#467458"/><path d="M929.45,258.11c1-.23,1.37-1.32,2.32-1.64" transform="translate(104.17 45.66)" style="fill:#467458;fill-rule:evenodd"/><path d="M929.9,258.32a3.66,3.66,0,0,0,1-.79,2.7,2.7,0,0,1,1-.73.35.35,0,0,0-.22-.66,3.28,3.28,0,0,0-1.25.9,2.37,2.37,0,0,1-1,.73.35.35,0,0,0,.16.68A2,2,0,0,0,929.9,258.32Z" transform="translate(104.17 45.66)" style="fill:#467458"/><path d="M929.45,258.11c.06-2,2-3.45,2.66-5.28" transform="translate(104.17 45.66)" style="fill:#467458;fill-rule:evenodd"/><path d="M929.6,258.43a.35.35,0,0,0,.2-.3,5.74,5.74,0,0,1,1.37-3,9.53,9.53,0,0,0,1.27-2.19.35.35,0,0,0-.66-.24,8.87,8.87,0,0,1-1.18,2,6.33,6.33,0,0,0-1.5,3.37.35.35,0,0,0,.5.33Z" transform="translate(104.17 45.66)" style="fill:#467458"/><path d="M929.45,258.11a10.3,10.3,0,0,1-2.6,2.16" transform="translate(104.17 45.66)" style="fill:#467458;fill-rule:evenodd"/><path d="M927,260.59h0a10.64,10.64,0,0,0,2.73-2.27.35.35,0,1,0-.56-.41,10,10,0,0,1-2.47,2,.35.35,0,0,0,.3.63Z" transform="translate(104.17 45.66)" style="fill:#467458"/><path d="M924.14,278.22c-.07-1.89,3.93-22.75,3.52-24.86" transform="translate(104.17 45.66)" style="fill:#467458;fill-rule:evenodd"/><path d="M924.29,278.53a.35.35,0,0,0,.2-.33c0-.75.67-5,1.41-9.4,1.38-8.33,2.34-14.31,2.11-15.52a.35.35,0,0,0-.69.13c.23,1.17-1.07,9-2.11,15.27-.9,5.41-1.45,8.76-1.42,9.54a.35.35,0,0,0,.5.3Z" transform="translate(104.17 45.66)" style="fill:#467458"/><path d="M927.5,250.38c1-2.44,2.36-3.89,3-6.44" transform="translate(104.17 45.66)" style="fill:#467458;fill-rule:evenodd"/><path d="M927.65,250.69a.35.35,0,0,0,.18-.19,20.28,20.28,0,0,1,1.35-2.69,14.62,14.62,0,0,0,1.68-3.79.35.35,0,0,0-.68-.17,14.06,14.06,0,0,1-1.61,3.62,20.79,20.79,0,0,0-1.39,2.78.35.35,0,0,0,.47.44Z" transform="translate(104.17 45.66)" style="fill:#467458"/><path d="M927.66,253.36a48.79,48.79,0,0,0-1.33-9.77" transform="translate(104.17 45.66)" style="fill:#467458;fill-rule:evenodd"/><path d="M927.81,253.67a.35.35,0,0,0,.2-.33,48.35,48.35,0,0,0-1.34-9.86.35.35,0,0,0-.67.21,48.49,48.49,0,0,1,1.31,9.68.35.35,0,0,0,.36.34Z" transform="translate(104.17 45.66)" style="fill:#467458"/><path d="M925.83,241c.78-1.3.19-3.65.27-5" transform="translate(104.17 45.66)" style="fill:#467458;fill-rule:evenodd"/><path d="M926,241.34a.34.34,0,0,0,.15-.14,6.59,6.59,0,0,0,.38-3.72,12.11,12.11,0,0,1-.06-1.48.35.35,0,1,0-.7,0,12.56,12.56,0,0,0,.06,1.57,6.17,6.17,0,0,1-.28,3.3.35.35,0,0,0,.45.5Z" transform="translate(104.17 45.66)" style="fill:#467458"/><path d="M926.34,243.59c-.93-3.46-2-7-3.24-8.51" transform="translate(104.17 45.66)" style="fill:#467458;fill-rule:evenodd"/><path d="M926.49,243.9a.35.35,0,0,0,.19-.41c-.9-3.33-2-7-3.31-8.64a.35.35,0,0,0-.54.44c1.2,1.45,2.23,4.88,3.17,8.38a.35.35,0,0,0,.43.25Z" transform="translate(104.17 45.66)" style="fill:#467458"/><path d="M987.33,246.38a1.29,1.29,0,0,1,1-.59c2.26-.12.24,3.3-1,1.29l.37-.34Z" transform="translate(104.17 45.66)" style="fill:#467458;fill-rule:evenodd"/><path d="M986.84,247l.33-.3-.28-.31.14-.22a1.63,1.63,0,0,1,1.26-.75c1.17-.06,1.35.68,1.38.91a1.68,1.68,0,0,1-1.06,1.64,1.32,1.32,0,0,1-1.61-.73Zm1.31-.25-.4.36a.55.55,0,0,0,.62.21,1,1,0,0,0,.6-.9c0-.22-.24-.32-.65-.3a1,1,0,0,0-.54.23Z" transform="translate(104.17 45.66)" style="fill:#467458"/><path d="M983.76,249.44l-.12-.51c.78.13,1.32-.61,1.73-.2,1.45,1.41-2.79,3.38-2.14.72Z" transform="translate(104.17 45.66)" style="fill:#467458;fill-rule:evenodd"/><path d="M982.83,250.14a2.24,2.24,0,0,1,.07-.78l.06-.27h.36l-.14-.6.52.09a1.36,1.36,0,0,0,.76-.16,1,1,0,0,1,1.16.05,1.27,1.27,0,0,1,.4.77c.11.91-.92,1.75-1.88,1.86a1.29,1.29,0,0,1-.84-.16A1,1,0,0,1,982.83,250.14Zm.7-.35a1.2,1.2,0,0,0,0,.27c0,.21.12.27.15.29a.62.62,0,0,0,.39.06c.59-.07,1.32-.62,1.27-1.08a.59.59,0,0,0-.2-.35s-.1,0-.4.09a2.79,2.79,0,0,1-.65.21l.12.51Z" transform="translate(104.17 45.66)" style="fill:#467458"/><path d="M977.4,252.18l-.11-.4c2.65-1.3,2.88,2.08.8,1.78-.4-.06-.73-.5-.95-1.06Z" transform="translate(104.17 45.66)" style="fill:#467458;fill-rule:evenodd"/><path d="M976.75,252.45l.27-.34-.13-.51.26-.13a2.11,2.11,0,0,1,2-.16,1.32,1.32,0,0,1,.68,1,1.43,1.43,0,0,1-.41,1.18,1.59,1.59,0,0,1-1.38.39c-.5-.07-.93-.53-1.22-1.28Zm1-.18-.24.3c.18.38.4.63.59.66a.91.91,0,0,0,.79-.19.73.73,0,0,0,.2-.6.63.63,0,0,0-.32-.49,1.35,1.35,0,0,0-1.1.05Z" transform="translate(104.17 45.66)" style="fill:#467458"/><path d="M972.25,256.19l-.11-.4c2.22-1.55,3.45,1.53,1.24,1.61-.64,0-.92-.44-1.39-.89Z" transform="translate(104.17 45.66)" style="fill:#467458;fill-rule:evenodd"/><path d="M971.52,256.55l.34-.43-.12-.47.2-.14a2,2,0,0,1,2.07-.36,1.49,1.49,0,0,1,.88,1.17,1.2,1.2,0,0,1-.27.93,1.59,1.59,0,0,1-1.21.5A1.75,1.75,0,0,1,972,257l-.25-.25Zm1.11-.28-.17.22,0,0c.34.36.52.53.87.52a1,1,0,0,0,.71-.26.51.51,0,0,0,.11-.4.8.8,0,0,0-.47-.61,1.3,1.3,0,0,0-1.18.16Z" transform="translate(104.17 45.66)" style="fill:#467458"/><path d="M965.22,262.18l-.44-.24a1.27,1.27,0,0,1,2,.46c.11.84-1.67,1.83-1.85.22Z" transform="translate(104.17 45.66)" style="fill:#467458;fill-rule:evenodd"/><path d="M964.2,262l.33-.33a1.64,1.64,0,0,1,1.7-.34,1.31,1.31,0,0,1,.94,1h0a1.5,1.5,0,0,1-1.32,1.45,1,1,0,0,1-.8-.24,1.39,1.39,0,0,1-.42-.92v-.11l.05-.11.07-.13Zm1.49,0-.35.64a.66.66,0,0,0,.17.38.31.31,0,0,0,.26.07c.35,0,.74-.42.71-.68A.65.65,0,0,0,966,262a1.15,1.15,0,0,0-.47-.06Z" transform="translate(104.17 45.66)" style="fill:#467458"/><path d="M960.82,266l-.09-.49c1,.11,1.59.27,1.64,1,.1,1.43-3,1.38-2-.35Z" transform="translate(104.17 45.66)" style="fill:#467458;fill-rule:evenodd"/><path d="M959.81,266.83a1.5,1.5,0,0,1,.23-.92l.07-.12.32-.09-.11-.64.46.05c.79.09,1.88.2,1.95,1.3a1.36,1.36,0,0,1-1.39,1.38A1.27,1.27,0,0,1,959.81,266.83Zm.78-.45a.71.71,0,0,0-.08.37c0,.27.42.38.77.35s.79-.19.76-.64-.15-.47-.86-.59l.06.33Z" transform="translate(104.17 45.66)" style="fill:#467458"/><path d="M953.63,269.28l-.32-.25c.62-.72,2.38-1.56,2.77-.33s-1.41,1.82-2.46,1Z" transform="translate(104.17 45.66)" style="fill:#467458;fill-rule:evenodd"/><path d="M952.8,269.08l.24-.28a3,3,0,0,1,2.47-1,1.18,1.18,0,0,1,.9.84,1.31,1.31,0,0,1-.65,1.59,2.21,2.21,0,0,1-2.36-.21l-.14-.11v-.41Zm3-.12a.83.83,0,0,0,0-.15.48.48,0,0,0-.38-.37,2.25,2.25,0,0,0-1.53.57l.15.12v.4a1.52,1.52,0,0,0,1.45.06A.61.61,0,0,0,955.78,269Z" transform="translate(104.17 45.66)" style="fill:#467458"/><path d="M956.48,271.38l0-.38c1-.77,2.57-.17,2.55.75,0,1.39-2.47,1.06-2.83-.14Z" transform="translate(104.17 45.66)" style="fill:#467458;fill-rule:evenodd"/><path d="M955.79,271.5l.34-.28,0-.39.15-.11a2.19,2.19,0,0,1,2.16-.24,1.42,1.42,0,0,1,.94,1.28,1.25,1.25,0,0,1-1.18,1.23,2.16,2.16,0,0,1-2.33-1.27Zm1-.31v.36l-.22.18a1.65,1.65,0,0,0,1.47.58c.38-.05.57-.24.58-.55a.74.74,0,0,0-.52-.63A1.52,1.52,0,0,0,956.83,271.19Z" transform="translate(104.17 45.66)" style="fill:#467458"/><path d="M950.6,259l-.32.27c-.4-.32-1.16-.84-.9-1.65.59-1.82,3.56.57,1.49,1.7Z" transform="translate(104.17 45.66)" style="fill:#467458;fill-rule:evenodd"/><path d="M949,258.14a1.39,1.39,0,0,1,.06-.59,1.18,1.18,0,0,1,1.27-.9,1.91,1.91,0,0,1,1.61,1.54,1.44,1.44,0,0,1-.89,1.47l-.25.14-.23-.27-.27.23-.3-.23A2.2,2.2,0,0,1,949,258.14Zm2.25.14a1.21,1.21,0,0,0-1-.93c-.27,0-.44.11-.54.42a.69.69,0,0,0,0,.29,1.39,1.39,0,0,0,.59.8l.37-.31.3.35A.68.68,0,0,0,951.25,258.27Z" transform="translate(104.17 45.66)" style="fill:#467458"/><path d="M956.23,255.5l-.4.11c-1.64-1.53,1.47-2.88,1.54-.88a1,1,0,0,1-.82,1Z" transform="translate(104.17 45.66)" style="fill:#467458;fill-rule:evenodd"/><path d="M955,254.84a1.22,1.22,0,0,1,.37-1,1.6,1.6,0,0,1,.92-.44,1.26,1.26,0,0,1,.9.22,1.3,1.3,0,0,1,.5.94l-.69.08a.63.63,0,0,0-.22-.46.57.57,0,0,0-.4-.09.9.9,0,0,0-.51.24.53.53,0,0,0-.17.44Z" transform="translate(104.17 45.66)" style="fill:#467458"/><path d="M958.83,255.25l-.42.4c-1.42-1.33,1-2.51,1.58-1.48a1.11,1.11,0,0,1-1.09,1.65Z" transform="translate(104.17 45.66)" style="fill:#467458;fill-rule:evenodd"/><path d="M957.63,254.95a1.41,1.41,0,0,1,1.07-1.43,1.3,1.3,0,0,1,1.59.48,1.39,1.39,0,0,1,.17.53,1.56,1.56,0,0,1-.42,1.27,1.4,1.4,0,0,1-1.19.38l-.27,0,0-.16-.15.15-.24-.23A1.59,1.59,0,0,1,957.63,254.95Zm2.14-.34a.7.7,0,0,0-.08-.26c-.15-.26-.51-.25-.77-.16s-.64.36-.6.68a.67.67,0,0,0,.11.28l.66-.63.11,1a.62.62,0,0,0,.34-.17A.86.86,0,0,0,959.77,254.61Z" transform="translate(104.17 45.66)" style="fill:#467458"/><path d="M964.92,250.72l-.24.44c-2.63-1.28,2.31-3.31,1.45-.64-.09.28-.48.34-.87.57Z" transform="translate(104.17 45.66)" style="fill:#467458;fill-rule:evenodd"/><path d="M963.56,250.4c-.09-.77.8-1.42,1.66-1.52h0a1.41,1.41,0,0,1,.85.13,1,1,0,0,1,.5.78l-.69.08a.29.29,0,0,0-.15-.25.74.74,0,0,0-.43-.05c-.53.06-1.08.45-1,.75Z" transform="translate(104.17 45.66)" style="fill:#467458"/><path d="M967.83,248.51h-.53c-.86-1,1.27-2,1.77-.91.25.53-.23,1.83-1.24,1.44Z" transform="translate(104.17 45.66)" style="fill:#467458;fill-rule:evenodd"/><path d="M966.75,248.14a1.31,1.31,0,0,1,1.07-1.29,1.24,1.24,0,0,1,1.56.61,1.07,1.07,0,0,1,.09.32,1.68,1.68,0,0,1-.59,1.45,1.17,1.17,0,0,1-1.18.14l-.22-.09v-.41h-.34l-.11-.12A1.12,1.12,0,0,1,966.75,248.14Zm2-.28a.38.38,0,0,0,0-.11c-.17-.36-.61-.27-.74-.23-.33.09-.59.34-.56.54a.32.32,0,0,0,0,.1h.69v.6a.42.42,0,0,0,.28-.09A1,1,0,0,0,968.78,247.85Z" transform="translate(104.17 45.66)" style="fill:#467458"/><path d="M976.22,245.15l-.54-.09c-.46-1.69,2.26-1.89,2.59-.89.27.81-.83,1.9-2,1.53Z" transform="translate(104.17 45.66)" style="fill:#467458;fill-rule:evenodd"/><path d="M975.29,244.88a1.46,1.46,0,0,1,1.28-1.61c.81-.18,1.79.06,2,.78a1.17,1.17,0,0,1,.05.23,1.58,1.58,0,0,1-.62,1.36,2,2,0,0,1-1.91.39l-.24-.08v-.51l-.47-.08-.06-.21A1.94,1.94,0,0,1,975.29,244.88Zm2.67-.51a.48.48,0,0,0,0-.09c-.1-.29-.69-.44-1.22-.33-.3.07-.78.26-.74.8l.59.1v.56a1.35,1.35,0,0,0,1-.31A.92.92,0,0,0,978,244.37Z" transform="translate(104.17 45.66)" style="fill:#467458"/><path d="M985.31,244.69l-.51.12c-.78-1.87,2.4-1.45,2,0-.08.28-1,.87-1.48.41Z" transform="translate(104.17 45.66)" style="fill:#467458;fill-rule:evenodd"/><path d="M984.33,244.43a1,1,0,0,1,.39-1,1.64,1.64,0,0,1,1.57-.08,1.35,1.35,0,0,1,.87,1.05,1.26,1.26,0,0,1,0,.48,1.53,1.53,0,0,1-1,.79,1,1,0,0,1-1-.23l-.1-.1v-.23l-.38.09-.11-.27A1.94,1.94,0,0,1,984.33,244.43Zm2.14.07c0-.28-.33-.44-.46-.5a1,1,0,0,0-.88,0,.33.33,0,0,0-.11.34v0l.62-.14V245a.42.42,0,0,0,.16,0,1.13,1.13,0,0,0,.64-.34A.54.54,0,0,0,986.47,244.5Z" transform="translate(104.17 45.66)" style="fill:#467458"/><path d="M979.86,248.17a8.44,8.44,0,0,1,3.9,1.27" transform="translate(104.17 45.66)" style="fill:#467458;fill-rule:evenodd"/><path d="M979.51,248.21a.35.35,0,0,1,.39-.39,8.31,8.31,0,0,1,4.07,1.34.35.35,0,1,1-.43.55,7.8,7.8,0,0,0-3.73-1.2A.35.35,0,0,1,979.51,248.21Z" transform="translate(104.17 45.66)" style="fill:#467458"/><path d="M972.12,251.28c1.79-.13,3.49.66,5.28.9" transform="translate(104.17 45.66)" style="fill:#467458;fill-rule:evenodd"/><path d="M971.78,251.33v0a.35.35,0,0,1,.32-.37,10.52,10.52,0,0,1,3.38.48,17.1,17.1,0,0,0,2,.42.35.35,0,0,1-.09.69,17.76,17.76,0,0,1-2-.44,9.84,9.84,0,0,0-3.16-.46A.35.35,0,0,1,971.78,251.33Z" transform="translate(104.17 45.66)" style="fill:#467458"/><path d="M964.59,256.87a23.72,23.72,0,0,1,7.66-.68" transform="translate(104.17 45.66)" style="fill:#467458;fill-rule:evenodd"/><path d="M964.24,256.92a.35.35,0,0,1,.25-.38,23.84,23.84,0,0,1,7.78-.7.35.35,0,0,1-.06.7,23.42,23.42,0,0,0-7.53.67.35.35,0,0,1-.43-.24Z" transform="translate(104.17 45.66)" style="fill:#467458"/><path d="M964.3,256.91a36.18,36.18,0,0,1,4.08,1" transform="translate(104.17 45.66)" style="fill:#467458;fill-rule:evenodd"/><path d="M964,257a.35.35,0,0,1,0-.08.35.35,0,0,1,.38-.31,32.53,32.53,0,0,1,3.88.93l.26.07a.35.35,0,1,1-.19.67l-.26-.07a33.07,33.07,0,0,0-3.76-.91A.35.35,0,0,1,964,257Z" transform="translate(104.17 45.66)" style="fill:#467458"/><path d="M959,262.66c.44-1,1.72-1.13,2.63-1.47" transform="translate(104.17 45.66)" style="fill:#467458;fill-rule:evenodd"/><path d="M958.61,262.71a.35.35,0,0,1,0-.18,3.05,3.05,0,0,1,2.21-1.45c.22-.07.43-.13.63-.2a.35.35,0,1,1,.24.65c-.21.08-.45.15-.67.21-.76.23-1.49.44-1.76,1.07a.35.35,0,0,1-.67-.1Z" transform="translate(104.17 45.66)" style="fill:#467458"/><path d="M959,262.66c2,.18,4.16-.73,6.26-.49" transform="translate(104.17 45.66)" style="fill:#467458;fill-rule:evenodd"/><path d="M958.61,262.71a.36.36,0,0,1,0-.07.35.35,0,0,1,.38-.32,11.62,11.62,0,0,0,2.93-.25,12.05,12.05,0,0,1,3.34-.24.35.35,0,1,1-.08.69,11.54,11.54,0,0,0-3.15.24,12.32,12.32,0,0,1-3.11.25A.35.35,0,0,1,958.61,262.71Z" transform="translate(104.17 45.66)" style="fill:#467458"/><path d="M959,262.66c-.85.43-1.72.81-2.56,1.25" transform="translate(104.17 45.66)" style="fill:#467458;fill-rule:evenodd"/><path d="M956,264a.35.35,0,0,1,.18-.35c.49-.26,1-.5,1.49-.74l1.07-.52a.35.35,0,1,1,.32.62l-1.09.53c-.48.23-1,.47-1.46.72a.35.35,0,0,1-.47-.14A.35.35,0,0,1,956,264Z" transform="translate(104.17 45.66)" style="fill:#467458"/><path d="M956,264.41a12.34,12.34,0,0,1,4.84,1.54" transform="translate(104.17 45.66)" style="fill:#467458;fill-rule:evenodd"/><path d="M955.64,264.45a.32.32,0,0,1,0-.06.35.35,0,0,1,.37-.33,12.48,12.48,0,0,1,5,1.58.35.35,0,0,1-.32.62,11.82,11.82,0,0,0-4.7-1.5A.35.35,0,0,1,955.64,264.45Z" transform="translate(104.17 45.66)" style="fill:#467458"/><path d="M948.31,271.1c.81-.85,4.27-1.39,5.32-1.82" transform="translate(104.17 45.66)" style="fill:#467458;fill-rule:evenodd"/><path d="M948,271.14a.35.35,0,0,1,.09-.28c.61-.64,2.32-1.07,3.83-1.45a15.66,15.66,0,0,0,1.61-.45.35.35,0,0,1,.26.65,15.64,15.64,0,0,1-1.71.48c-1.27.32-3,.75-3.49,1.25a.35.35,0,0,1-.6-.2Z" transform="translate(104.17 45.66)" style="fill:#467458"/><path d="M948.31,271.1a46.68,46.68,0,0,1,8.17.28" transform="translate(104.17 45.66)" style="fill:#467458;fill-rule:evenodd"/><path d="M948,271.14v0a.35.35,0,0,1,.32-.37,47.06,47.06,0,0,1,8.26.28.35.35,0,0,1-.13.69,46.07,46.07,0,0,0-8.08-.27A.35.35,0,0,1,948,271.14Z" transform="translate(104.17 45.66)" style="fill:#467458"/><path d="M944.42,275.64c1-1.31,4.68-6.06,6.1-6.93" transform="translate(104.17 45.66)" style="fill:#467458;fill-rule:evenodd"/><path d="M944.07,275.69a.35.35,0,0,1,.07-.25c.71-1,4.65-6.07,6.2-7a.35.35,0,1,1,.37.59c-1.32.82-4.91,5.37-6,6.84a.35.35,0,0,1-.63-.17Z" transform="translate(104.17 45.66)" style="fill:#467458"/><path d="M950.6,259a49.47,49.47,0,0,1-.68,10.14" transform="translate(104.17 45.66)" style="fill:#467458;fill-rule:evenodd"/><path d="M949.58,269.21a.34.34,0,0,1,0-.11,49.18,49.18,0,0,0,.67-10.06.35.35,0,1,1,.7,0,50,50,0,0,1-.69,10.22.35.35,0,0,1-.69,0Z" transform="translate(104.17 45.66)" style="fill:#467458"/><path d="M952.11,263.37c-.58,1.48-1.13,3-1.83,4.4" transform="translate(104.17 45.66)" style="fill:#467458;fill-rule:evenodd"/><path d="M949.94,267.81a.35.35,0,0,1,0-.19c.55-1.14,1-2.35,1.48-3.52l.33-.86a.35.35,0,1,1,.65.26l-.33.85c-.46,1.19-.94,2.41-1.5,3.58a.35.35,0,0,1-.66-.11Z" transform="translate(104.17 45.66)" style="fill:#467458"/><path d="M957.6,262.68c-.21-1.86-1.62-5.32-1.38-7.18" transform="translate(104.17 45.66)" style="fill:#467458;fill-rule:evenodd"/><path d="M955.9,256.73a5.27,5.27,0,0,1,0-1.28.35.35,0,1,1,.69.09,13.79,13.79,0,0,0,.75,4.35,20.51,20.51,0,0,1,.63,2.74.35.35,0,0,1-.69.08v0a20.58,20.58,0,0,0-.6-2.61A24.65,24.65,0,0,1,955.9,256.73Z" transform="translate(104.17 45.66)" style="fill:#467458"/><path d="M957.25,261c.51-1.61,1.22-4.1,1.58-5.72" transform="translate(104.17 45.66)" style="fill:#467458;fill-rule:evenodd"/><path d="M956.9,261a.35.35,0,0,1,0-.15c.51-1.6,1.21-4.07,1.57-5.7a.35.35,0,0,1,.68.15c-.37,1.64-1.08,4.14-1.59,5.75a.35.35,0,0,1-.68-.06Z" transform="translate(104.17 45.66)" style="fill:#467458"/><path d="M964.76,253.56c-.31-.94.4-1.87.17-2.84" transform="translate(104.17 45.66)" style="fill:#467458;fill-rule:evenodd"/><path d="M964.34,253.29a3.66,3.66,0,0,1,.14-1.27,2.7,2.7,0,0,0,.1-1.22.35.35,0,0,1,.68-.16,3.28,3.28,0,0,1-.1,1.54,2.37,2.37,0,0,0-.07,1.27.35.35,0,0,1-.66.22A1.94,1.94,0,0,1,964.34,253.29Z" transform="translate(104.17 45.66)" style="fill:#467458"/><path d="M964.76,253.56c1.67-1.12,1.86-3.53,3.07-5.06" transform="translate(104.17 45.66)" style="fill:#467458;fill-rule:evenodd"/><path d="M964.41,253.6a.35.35,0,0,1,.15-.33,5.74,5.74,0,0,0,1.81-2.75,9.53,9.53,0,0,1,1.18-2.24.35.35,0,0,1,.55.43A8.87,8.87,0,0,0,967,250.8a6.33,6.33,0,0,1-2.06,3.05.35.35,0,0,1-.54-.25Z" transform="translate(104.17 45.66)" style="fill:#467458"/><path d="M964.76,253.56a10.3,10.3,0,0,0-.45,3.35" transform="translate(104.17 45.66)" style="fill:#467458;fill-rule:evenodd"/><path d="M964,256.95h0a10.64,10.64,0,0,1,.48-3.52.35.35,0,1,1,.65.26,10,10,0,0,0-.43,3.18.35.35,0,0,1-.69.08Z" transform="translate(104.17 45.66)" style="fill:#467458"/><path d="M950.51,268.71c1.64-.94,17.22-15.38,19.22-16.15" transform="translate(104.17 45.66)" style="fill:#467458;fill-rule:evenodd"/><path d="M950.17,268.75a.35.35,0,0,1,.17-.34c.65-.37,3.85-3.19,7.23-6.17,6.33-5.58,10.9-9.56,12-10a.35.35,0,0,1,.25.65c-1.12.43-7.06,5.67-11.83,9.88-4.11,3.62-6.66,5.86-7.34,6.25a.35.35,0,0,1-.48-.13A.35.35,0,0,1,950.17,268.75Z" transform="translate(104.17 45.66)" style="fill:#467458"/><path d="M972.35,251.12c1.57-2.1,2.05-4.07,3.87-6" transform="translate(104.17 45.66)" style="fill:#467458;fill-rule:evenodd"/><path d="M972,251.16a.35.35,0,0,1,.07-.25,20.28,20.28,0,0,0,1.57-2.56,14.62,14.62,0,0,1,2.33-3.43.35.35,0,1,1,.5.48,14.06,14.06,0,0,0-2.22,3.28,20.8,20.8,0,0,1-1.62,2.65.35.35,0,0,1-.63-.17Z" transform="translate(104.17 45.66)" style="fill:#467458"/><path d="M969.74,252.56a48.78,48.78,0,0,1,9-4" transform="translate(104.17 45.66)" style="fill:#467458;fill-rule:evenodd"/><path d="M969.39,252.6a.35.35,0,0,1,.17-.34,48.36,48.36,0,0,1,9.08-4.08.35.35,0,0,1,.17.68,48.49,48.49,0,0,0-8.9,4,.35.35,0,0,1-.52-.26Z" transform="translate(104.17 45.66)" style="fill:#467458"/><path d="M981.18,247.58c.69-1.35,3-2.1,4.13-2.9" transform="translate(104.17 45.66)" style="fill:#467458;fill-rule:evenodd"/><path d="M980.83,247.62a.35.35,0,0,1,0-.2,6.59,6.59,0,0,1,3-2.29,12.09,12.09,0,0,0,1.29-.73.35.35,0,1,1,.4.57,12.56,12.56,0,0,1-1.37.78,6.18,6.18,0,0,0-2.65,2,.35.35,0,0,1-.66-.12Z" transform="translate(104.17 45.66)" style="fill:#467458"/><path d="M978.73,248.51c3.43-1,7-2,8.94-1.76" transform="translate(104.17 45.66)" style="fill:#467458;fill-rule:evenodd"/><path d="M978.38,248.55a.35.35,0,0,1,.25-.37c3.3-1,7-2,9.08-1.77a.35.35,0,0,1-.09.69c-1.86-.25-5.33.69-8.79,1.74a.35.35,0,0,1-.44-.23Z" transform="translate(104.17 45.66)" style="fill:#467458"/><path d="M940.66,280l.13-.05c.55-.25,2.33-1.17,2.39-2.35a1.43,1.43,0,0,0-.86-1.31A14.52,14.52,0,0,0,937,275a4.28,4.28,0,0,0-1,.12,2,2,0,0,1-1.13,0c.22-.24.46-.48.71-.72a10.51,10.51,0,0,0,1.32-1.46l.09,0a.43.43,0,0,0,.39,0,1.43,1.43,0,0,1,.28-.15c.37-.14.59,0,1.09.48a3.64,3.64,0,0,0,.89.66,10.62,10.62,0,0,0,5.36.36,7.58,7.58,0,0,0,.83-.27c1.23-.48,1.85-1.05,1.83-1.69,0-1.33-3.64-2.11-3.8-2.14a13.65,13.65,0,0,0-4.29-.16h-.05a.43.43,0,0,0-.17-.15l.24-.41c.39-.66.79-1.34,1.15-2.05l0,0c1,.57,2.45.52,4.17-.16,2.77-1.08,6.2-3.9,5.5-6a1.53,1.53,0,0,0-.8-1,3.12,3.12,0,0,0-2.43.2,23.43,23.43,0,0,0-4.12,2.37l-.28.19c.12-.42.27-.84.42-1.27s.35-1,.49-1.51h.11a6.57,6.57,0,0,1,1-.11,8.86,8.86,0,0,0,2.73-.5,5.35,5.35,0,0,0,.8-.39A15,15,0,0,0,951,256.9c.28-.29.52-.54.71-.71a9,9,0,0,1,.85-.65c.86-.61,1.84-1.3,1.29-2.11-.17-.25-.46-.43-2.4-.17a20,20,0,0,0-2.38.45l-.52.18a12.36,12.36,0,0,0-2.36,1.32,7.18,7.18,0,0,1-1.18.7.84.84,0,0,1-.41.07h0a7.69,7.69,0,0,0,.26-1.74,10.69,10.69,0,0,1,.12-1.07l0,0a4.07,4.07,0,0,0,2.85-.19h0c2.63-1,5.11-3.88,5.58-4.44l.39-.43c.83-.89,1.32-1.47,1.07-2-.38-.79-1.86-.68-4.4.31-.45.18-.87.36-1.18.52a6.92,6.92,0,0,0-1.48,1.15,6.93,6.93,0,0,1-.79.68,12.66,12.66,0,0,0-2.17,1.73c-.05-.26-.09-.53-.12-.8,0-.12,0-.25,0-.37a.42.42,0,0,0,.39-.21,4.23,4.23,0,0,1,1.23-1,6.79,6.79,0,0,0,1.75-1.49,1.08,1.08,0,0,0,.15-.45,1.94,1.94,0,0,1,.28-.79,8.24,8.24,0,0,0,2-4.48l0-.24c.22-1.38.33-2.37-.33-2.56a1.27,1.27,0,0,0-.82.07,7.13,7.13,0,0,0-2.07,1.62c-.27.27-1,1-1.32,1.47a2.18,2.18,0,0,0-.23.41c-.08-.28-.16-.62-.23-.9a13.43,13.43,0,0,0-.62-2.09c-.71-1.64-1.3-2.27-1.93-2a.73.73,0,0,0-.2.12,10.52,10.52,0,0,0-1.4,3.37,7.94,7.94,0,0,0,.06,2.44l-.11-.09c-1.09-.86-2.45-1.93-3.45-1.54a1.6,1.6,0,0,0-.89,1.38c-.26,1.66.64,3.78,2.31,5.42a5.42,5.42,0,0,0,4.54,1.85l.06,0,0,.27a7.29,7.29,0,0,0,.21,1.2.43.43,0,0,0-.18.06.43.43,0,0,0-.19.29l0,.11a2.44,2.44,0,0,0,.05,1.32.43.43,0,0,0,.24.26h.07c-.06.36-.09.72-.11,1.07s0,.67-.1,1a13.94,13.94,0,0,1-1.13-2.25,16.43,16.43,0,0,0-1-2s-1.73-2.61-2.71-2.4l-.12,0c-1.32.51-1,4.46-.83,5.21a9.06,9.06,0,0,0,3.52,5.12c.34.29.7.59,1,.91a.43.43,0,0,0,.23.11c-.13.52-.31,1-.5,1.55s-.33.95-.47,1.44a.42.42,0,0,0-.22,0,.85.85,0,0,0-.4.24,8.42,8.42,0,0,1-.37-1.18,8.08,8.08,0,0,0-.71-1.94c-.49-.88-2.32-3-3.56-2.51a1,1,0,0,0-.46.35c-.67.9-.52,2.57-.11,4.06a.6.6,0,0,0-.39-.31,1,1,0,0,0-.57,0c-1.32.52-1.77,4-1.77,4-.13,1.9.72,5.33,2.68,6.8l.07,0a10.1,10.1,0,0,1-1.17,1.28c-.3.3-.61.6-.9.93a.42.42,0,0,0-.62,0l-.25.22c0-.24.11-.54.17-.78a7.54,7.54,0,0,0,.27-1.71c0-1.45-.43-2.5-1.09-2.94a1.34,1.34,0,0,0-1.26-.11,3.41,3.41,0,0,0-1.48,1.39c-1,1.54-1.71,5.76-.07,7.43a53.41,53.41,0,0,1-4.74,3.28l-1.12.72a.43.43,0,0,0,.39.76l.08,0,1.12-.72a52.25,52.25,0,0,0,5-3.46.43.43,0,0,0,.73-.06c.18-.35.32-.45.39-.47.23-.09.7.28,1.11.61a5.48,5.48,0,0,0,1.37.89A12.57,12.57,0,0,0,940.66,280Zm-1.84-11-.21.36a18.18,18.18,0,0,1-.78-2.53c-.2-.76-.4-1.54-.64-2.27a5.31,5.31,0,0,0,2.67,2.59C939.54,267.79,939.18,268.41,938.82,269Z" transform="translate(104.17 45.66)" style="fill:#467458"/><path d="M933.8,273.16c0-.06,0-.13,0-.19,0-.8.08-3.47-1.26-4.28a1.91,1.91,0,0,0-2.07.19,19.33,19.33,0,0,0-4.86,5.42,5.7,5.7,0,0,0-.51,1.29,2.63,2.63,0,0,1-.68,1.33c-.14-.41-.27-.84-.39-1.28a14,14,0,0,0-.88-2.46l.11-.07a.57.57,0,0,0,.19-.49,1.91,1.91,0,0,1,0-.42c.06-.52.39-.68,1.24-1a4.84,4.84,0,0,0,1.34-.63,14.13,14.13,0,0,0,3.78-6.07,10.05,10.05,0,0,0,.2-1.14c.21-1.75-.07-2.83-.84-3.21-1.58-.78-4.76,3-4.9,3.11a18.16,18.16,0,0,0-2.88,4.93l0,0h0a.57.57,0,0,0-.28.11l-.33-.54c-.53-.88-1.08-1.77-1.69-2.64l.06,0c1.28-.78,2.14-2.55,2.43-5,.46-3.93-.7-9.72-3.65-10.24a2,2,0,0,0-1.63.34,4.15,4.15,0,0,0-1.28,3,31.18,31.18,0,0,0,.2,6.33l0,.45c-.42-.4-.82-.84-1.23-1.29s-.95-1-1.47-1.52a.57.57,0,0,0,.06-.13,8.74,8.74,0,0,1,.5-1.24,11.79,11.79,0,0,0,1.12-3.51,7.12,7.12,0,0,0,0-1.19,20,20,0,0,0-1.07-4.59c-.16-.51-.3-1-.39-1.28a12,12,0,0,1-.23-1.4c-.17-1.39-.37-3-1.67-2.84-.4,0-.8.27-1.71,2.71a26.65,26.65,0,0,0-1,3.08c0,.23-.08.48-.11.72a16.45,16.45,0,0,0,.06,3.6,9.56,9.56,0,0,1,.08,1.83,1.12,1.12,0,0,1-.17.53l0,0a10.23,10.23,0,0,0-1.88-1.4,14.29,14.29,0,0,1-1.18-.8l.06,0a5.42,5.42,0,0,0,1.56-3.46h0c.44-3.73-1.35-8.43-1.71-9.34-.08-.19-.17-.45-.26-.73-.52-1.53-.9-2.46-1.64-2.49-1.16,0-2,1.76-2.39,5.36-.08.64-.12,1.25-.13,1.71a9.21,9.21,0,0,0,.42,2.45,9.24,9.24,0,0,1,.3,1.35,16.85,16.85,0,0,0,.67,3.63c-.34-.1-.67-.23-1-.36l-.47-.18a.56.56,0,0,0,0-.59,5.63,5.63,0,0,1-.44-2.1,9,9,0,0,0-.65-3,1.44,1.44,0,0,0-.44-.46,2.58,2.58,0,0,1-.75-.83,11,11,0,0,0-4-5.11l-.26-.19c-1.48-1.12-2.58-1.87-3.21-1.22a1.69,1.69,0,0,0-.43,1,9.48,9.48,0,0,0,.6,3.45c.15.48.58,1.75.89,2.47a2.91,2.91,0,0,0,.34.53c-.37-.08-.83-.2-1.21-.29a17.89,17.89,0,0,0-2.85-.58c-2.37-.2-3.48.11-3.59,1a1,1,0,0,0,0,.31c.17.83,2.44,3.25,3.07,3.76a10.56,10.56,0,0,0,2.9,1.46l-.17.08c-1.7.74-3.8,1.66-4,3.09a2.13,2.13,0,0,0,1.06,1.91c1.78,1.35,4.84,1.61,7.81.68,2.59-.81,4.42-2.34,5-4.17a.56.56,0,0,0,0-.08l.33.13a9.7,9.7,0,0,0,1.55.5.57.57,0,0,0,0,.25.58.58,0,0,0,.22.41l.12.09a3.24,3.24,0,0,0,1.59.77.57.57,0,0,0,.46-.13.56.56,0,0,0,.06-.08c.38.29.79.55,1.18.8s.76.48,1.1.74a18.54,18.54,0,0,1-3.35-.08,21.89,21.89,0,0,0-2.94-.11s-4.15.4-4.51,1.68a1,1,0,0,0,0,.17c-.22,1.87,4.6,4,5.6,4.24a12.06,12.06,0,0,0,8.22-.92c.56-.22,1.13-.45,1.72-.65a.57.57,0,0,0,.28-.21c.52.48,1,1,1.51,1.56s.91,1,1.4,1.45a.57.57,0,0,0-.14.26,1.12,1.12,0,0,0,0,.62,11.2,11.2,0,0,1-1.62-.3,10.76,10.76,0,0,0-2.72-.39c-1.34,0-5,.84-5.18,2.6a1.38,1.38,0,0,0,.13.76c.64,1.35,2.69,2.23,4.69,2.67a.8.8,0,0,0-.6.27,1.3,1.3,0,0,0-.3.7c-.22,1.87,3.53,4.55,3.57,4.58,2.15,1.35,6.71,2.49,9.66,1.11l.08-.06a13.45,13.45,0,0,1,.77,2.18c.16.54.32,1.09.52,1.64a.56.56,0,0,0-.43.7c0,.17.08.31.1.43-.26-.2-.57-.47-.81-.68a10,10,0,0,0-1.84-1.39c-1.73-.86-3.2-1.06-4.13-.56a1.78,1.78,0,0,0-.92,1.4,4.54,4.54,0,0,0,.7,2.6c1.17,2.15,5.69,5.62,8.67,4.74a71.11,71.11,0,0,1,.88,7.62q.07.88.14,1.77a.57.57,0,0,0,1.14,0,.61.61,0,0,0,0-.12q-.07-.88-.14-1.76a69.51,69.51,0,0,0-.95-8,.57.57,0,0,0,.38-.89c-.3-.43-.32-.65-.31-.75,0-.33.77-.64,1.41-.92a7.3,7.3,0,0,0,1.91-1.05C931.16,279.14,933.57,275.09,933.8,273.16Zm-14-4.73.29.47a24.21,24.21,0,0,1-3.46-.67c-1-.24-2.06-.49-3.07-.67a7.07,7.07,0,0,0,4.72-1.51C918.78,266.83,919.28,267.64,919.76,268.43Z" transform="translate(104.17 45.66)" style="fill:#467458"/><path d="M925.76,282.5a7.29,7.29,0,0,0,1.51,1.57c.53.45,1.14,1,1.08,1.29,0,.1-.11.31-.52.62a.57.57,0,0,0,.1,1,69.52,69.52,0,0,0-3.26,7.37L924,296a.61.61,0,0,0,0,.11.57.57,0,0,0,1.1.32l.66-1.65a71.09,71.09,0,0,1,3.08-7c2.6,1.72,7.93-.26,9.69-2a4.54,4.54,0,0,0,1.44-2.28,1.78,1.78,0,0,0-.47-1.61c-.74-.75-2.2-1-4.11-.68a10,10,0,0,0-2.17.79c-.29.13-.66.3-1,.41l.23-.38a.56.56,0,0,0-.21-.8c.35-.46.67-.94,1-1.41a13.44,13.44,0,0,1,1.38-1.85.56.56,0,0,0,.06.08c2.42,2.19,7.11,2.44,9.56,1.78,0,0,4.42-1.47,4.76-3.32a1.3,1.3,0,0,0-.08-.76.8.8,0,0,0-.5-.43c2,.16,4.27-.07,5.27-1.17a1.38,1.38,0,0,0,.35-.69c.32-1.75-2.9-3.6-4.18-4a10.75,10.75,0,0,0-2.71-.43,11.21,11.21,0,0,1-1.64-.19,1.12,1.12,0,0,0,.21-.58.56.56,0,0,0-.05-.29c.61-.3,1.19-.64,1.76-1s1.26-.74,1.91-1a.57.57,0,0,0,.2.28c.5.36,1,.75,1.45,1.12a12.06,12.06,0,0,0,7.58,3.31c1,.06,6.26-.55,6.6-2.4a1,1,0,0,0,0-.17c0-1.33-3.78-2.92-3.82-2.93a21.87,21.87,0,0,0-2.84-.76,18.55,18.55,0,0,1-3.22-.91c.4-.15.83-.26,1.26-.38s.91-.25,1.36-.42a.55.55,0,0,0,0,.09.57.57,0,0,0,.4.25,3.24,3.24,0,0,0,1.74-.26l.14-.05a.58.58,0,0,0,.34-.33.57.57,0,0,0,0-.25,9.71,9.71,0,0,0,1.63,0l.36,0a.55.55,0,0,0,0,.08c0,1.93,1.33,3.92,3.57,5.47,2.56,1.76,5.56,2.41,7.66,1.65.93-.34,1.46-.84,1.58-1.51.26-1.41-1.49-2.91-2.89-4.12l-.14-.12a10.56,10.56,0,0,0,3.2-.54c.75-.29,3.63-1.94,4-2.68a1,1,0,0,0,.1-.29c.16-.88-.81-1.49-3.13-2a17.87,17.87,0,0,0-2.89-.29c-.39,0-.86,0-1.24-.07a2.91,2.91,0,0,0,.48-.41c.51-.6,1.3-1.69,1.58-2.1a9.48,9.48,0,0,0,1.59-3.12,1.69,1.69,0,0,0-.11-1.09c-.41-.81-1.68-.42-3.42.22l-.3.11a11,11,0,0,0-5.36,3.69,2.58,2.58,0,0,1-1,.57,1.44,1.44,0,0,0-.55.31,9,9,0,0,0-1.51,2.67,5.63,5.63,0,0,1-1,1.87.55.55,0,0,0-.18.56l-.5,0c-.37,0-.73.05-1.08,0a16.84,16.84,0,0,0,1.71-3.27,9.26,9.26,0,0,1,.68-1.21,9.21,9.21,0,0,0,1.12-2.22c.13-.44.26-1,.38-1.67.66-3.57.42-5.53-.71-5.83-.72-.19-1.35.59-2.31,1.9-.17.24-.33.46-.46.62-.61.76-3.71,4.73-4.39,8.42h0a5.42,5.42,0,0,0,.47,3.77l0,.05a14.27,14.27,0,0,1-1.37.42,10.23,10.23,0,0,0-2.21.78l0,0a1.12,1.12,0,0,1,0-.55,9.55,9.55,0,0,1,.61-1.72,16.45,16.45,0,0,0,1.12-3.42c0-.24.08-.49.11-.72a26.66,26.66,0,0,0,0-3.23c-.15-2.6-.47-2.94-.83-3.09-1.2-.51-1.85.94-2.43,2.22a12,12,0,0,1-.63,1.27c-.18.29-.44.67-.75,1.11a20,20,0,0,0-2.37,4.07,7.11,7.11,0,0,0-.31,1.15,11.78,11.78,0,0,0,0,3.69,8.74,8.74,0,0,1,.11,1.34.57.57,0,0,0,0,.14c-.64.31-1.26.67-1.85,1s-1,.61-1.56.87l.17-.41a31.17,31.17,0,0,0,2.05-6,4.15,4.15,0,0,0-.35-3.22,2,2,0,0,0-1.46-.81c-3-.37-5.79,4.83-6.5,8.71-.44,2.42-.14,4.36.85,5.49l.05,0c-.84.65-1.62,1.34-2.39,2l-.48.42a.57.57,0,0,0-.24-.19v-.07a18.16,18.16,0,0,0-1.3-5.56c-.08-.19-2-4.7-3.76-4.42-.84.13-1.43,1.08-1.74,2.82a10,10,0,0,0-.15,1.15,14.13,14.13,0,0,0,1.83,6.91,4.84,4.84,0,0,0,1.09,1c.73.54,1,.79.9,1.31a1.91,1.91,0,0,1-.13.4.57.57,0,0,0,0,.53l.08.1a14,14,0,0,0-1.57,2.09c-.25.39-.5.76-.76,1.11a2.62,2.62,0,0,1-.26-1.48,5.69,5.69,0,0,0-.11-1.38,19.33,19.33,0,0,0-3-6.61,1.91,1.91,0,0,0-1.93-.8c-1.53.37-2.28,2.94-2.47,3.72l0,.18C923.33,275.82,924.44,280.4,925.76,282.5Zm14.88-10.8a7.07,7.07,0,0,0,4.07,2.84c-1-.13-2.09-.2-3.13-.26a24.21,24.21,0,0,1-3.51-.38l.42-.37C939.19,272.91,939.9,272.29,940.65,271.7Z" transform="translate(104.17 45.66)" style="fill:#467458"/></g><rect x="1048.58" y="320.99" width="236.21" height="71.32" style="fill:#8499ae"/><path d="M1017.73,280.08s27.74,25.28,84.23,25.28,54.8,41.52,54.8,41.52l23.91-.23-.13-65.22Z" transform="translate(104.17 45.66)" style="fill:#2a3748"/><rect x="1039.31" y="319.78" width="253.8" height="7.25" style="fill:#8499ae"/><rect x="1039.31" y="325.12" width="253.8" height="3.97" style="fill:#73818c"/><polygon points="472.17 259.99 541.25 255.22 547.17 306.65 544.73 308.85 483.58 309.77 469.73 262.19 472.17 259.99" style="fill:#fff"/><polygon points="469.73 262.19 538.81 257.41 544.73 308.85 481.14 311.96 469.73 262.19" style="fill:#2a3748"/><rect x="493.76" y="316.72" width="70.01" height="4.43" style="fill:#dd2a23"/><polygon points="499.84 297.06 501.9 320.13 516.36 320.13 512.31 297.06 499.84 297.06" style="fill:#445e7f"/><path d="M434.64,211.75s-67.83,8.6-63.67,27.82l-5.4-23Z" transform="translate(104.17 45.66)" style="fill:#445e7f"/><path d="M353.8,252.59c-.65.13-.65.13-.92,1.83a1.51,1.51,0,0,1-1.09,1.4v-2.16a2.82,2.82,0,1,0-5.63,0v6.28a2.08,2.08,0,0,1-1.57-2c-.36-2.36-.36-2.36-1.27-2.54s-2,.38-2,2.28.91,4.8,2.81,5.34a5.17,5.17,0,0,0,2,.22v1.78a2.82,2.82,0,0,0,5.63,0v-6.81a3.74,3.74,0,0,0,1.41-.16c1.37-.39,2-2.49,2-3.86S354.45,252.46,353.8,252.59Z" transform="translate(104.17 45.66)" style="fill:#467458"/><rect x="346.26" y="251.89" width="0.14" height="0.86" transform="translate(108.79 556.52) rotate(-73.19)" style="fill:#eceeed"/><rect x="341.26" y="256.12" width="0.14" height="0.86" transform="translate(101.2 554.76) rotate(-73.19)" style="fill:#eceeed"/><rect x="345.9" y="254.32" width="0.86" height="0.14" transform="matrix(1, -0.09, 0.09, 1, 81.94, 79.09)" style="fill:#eceeed"/><rect x="340.9" y="257.63" width="0.86" height="0.14" transform="translate(81.61 78.64) rotate(-5.35)" style="fill:#eceeed"/><rect x="348.78" y="255.3" width="0.14" height="0.86" transform="translate(20.47 300.66) rotate(-36.15)" style="fill:#eceeed"/><rect x="347.85" y="262.27" width="0.86" height="0.14" transform="translate(93.32 555.28) rotate(-71.54)" style="fill:#eceeed"/><rect x="354.09" y="257.23" width="0.14" height="0.86" transform="translate(20.36 304.16) rotate(-36.15)" style="fill:#eceeed"/><rect x="351.88" y="260.57" width="0.14" height="0.86" transform="translate(74.2 521.43) rotate(-65.91)" style="fill:#eceeed"/><rect x="349.29" y="253.65" width="0.14" height="0.86" transform="translate(155.55 612.5) rotate(-82.41)" style="fill:#eceeed"/><rect x="355.36" y="254.4" width="0.14" height="0.86" transform="translate(160.07 619.16) rotate(-82.41)" style="fill:#eceeed"/><rect x="341.32" y="260.76" width="0.86" height="0.14" transform="translate(38.07 170.52) rotate(-18.91)" style="fill:#eceeed"/><rect x="350.41" y="251.33" width="0.86" height="0.14" transform="translate(33.49 389.84) rotate(-48.04)" style="fill:#eceeed"/><rect x="354.67" y="253.04" width="0.86" height="0.14" transform="translate(33.63 393.58) rotate(-48.04)" style="fill:#eceeed"/><path d="M354.12,264.9h-10a.91.91,0,0,0-.91.91v1.82a.91.91,0,0,0,.91.91h.09l.71,7h8.42l.71-7h.09a.91.91,0,0,0,.91-.91v-1.82A.91.91,0,0,0,354.12,264.9Z" transform="translate(104.17 45.66)" style="fill:#877e81"/><rect x="424.83" y="320.99" width="236.21" height="71.32" style="fill:#8499ae"/><path d="M483.56,280.08s-27.74,25.28-84.23,25.28-54.8,41.52-54.8,41.52l-23.91-.23.13-65.22Z" transform="translate(104.17 45.66)" style="fill:#2a3748"/><rect x="416.5" y="319.78" width="253.8" height="7.25" style="fill:#8499ae"/><rect x="416.5" y="325.12" width="253.8" height="3.97" style="fill:#73818c"/><path d="M255.27,287.76s-4.88,19.07-3.83,25.81l-4.72-.78s3-25,4.28-26.07Z" transform="translate(104.17 45.66)" style="fill:#303030"/><path d="M302.87,219.74s-11.2,4.52-12.6,7.84-6.82,5.77-6.82,5.77-1.57,1.59-3.5,3.25-8.75,3.8-11.37,9a24.85,24.85,0,0,1-5.95,7.85,17.59,17.59,0,0,0-2.1,6.46c-.35,3.52-10.32,15.21-10.32,15.21L271,271.49s6.65-7,7.35-11.56,2.45-11,8-14.31,1.92-4,2.62-7.9S292,225.72,302.87,219.74Z" transform="translate(104.17 45.66)" style="fill:#303030"/><path d="M277.68,211.09s-4.72,8.1-4.72,12.3.35,6-1.75,8.85a19,19,0,0,0-2.8,6.9s1.22,1.45-3.32,6.5-9.1,12.22-8.75,16.95-6.12,12.57-6.12,12.57-4.2-3.08-4.2-6.69,8.4-37.26,8.4-37.26S263.68,215.76,277.68,211.09Z" transform="translate(104.17 45.66)" style="fill:#303030"/><path d="M230.65,268.44s3.49-3.87,2.76-7.4-15.75-34.79-15.75-34.79-10.37-13-25-14.72c0,0-2.34,14.54,7.18,27.08s30.82,29.83,30.82,29.83" transform="translate(104.17 45.66)" style="fill:#303030"/><path d="M235.17,264.38s-8.57-10.38-14-11.08-9.62-4.2-13.12-7.7-4.72-2.45-5.77-4-4.2-7.72-6.3-10.51-4.55-8.07-4-12c0,0,20.82-3.75,33.41,21.1a11.49,11.49,0,0,0,3.5,5.42C231.67,248.05,235,257.79,235.17,264.38Z" transform="translate(104.17 45.66)" style="fill:#467458"/><path d="M242.34,269.83s-19.07-33.67,12.07-59.92c0,0,.7-.81,1.92,3.44s3.12,8.14,3,13.2,0,8.55,0,11.53-3.21,6.14-4.71,11.06S242.34,269.83,242.34,269.83Z" transform="translate(104.17 45.66)" style="fill:#467458"/><path d="M240.59,271.07s1-3.07,2.1,12.32.7,29.9.7,29.9h4.54l-4.37-43.46Z" transform="translate(104.17 45.66)" style="fill:#467458"/><path d="M242.51,271.49s-4.72-.66-6.65-3-3.32-1.8-3.67-2.53-2.27-5.63,0-6.68,12.42-5.95,15.75-7.7,4.2,1.4,4.2,1.4,0,1.12,2.45,1.61,3.85,1.89,2.27,4.16S247.24,270.1,242.51,271.49Z" transform="translate(104.17 45.66)" style="fill:#467458"/><path d="M227.29,268.45s11.9,15.12,13.3,44.33h6.12s-12.42-37.95-17-45Z" transform="translate(104.17 45.66)" style="fill:#467458"/><path d="M252.23,289.64s-4.12,12.78-3.77,23.47l-2.45-.33s.1-18.32,3.11-23.95Z" transform="translate(104.17 45.66)" style="fill:#467458"/><path d="M248.64,291.91s-5.25-8-3.5-10.46,3-1.68,3.5-5.56,4.9-3.52,4.9-3.52.7.26,2.27-2.23,16.44-6.58,17.49-5.76.18,1.73,0,4.07-.17,2.69-1.4,4.44-2.8,1.64-3.67,5.19-7.87,2.86-11,7.4A19.27,19.27,0,0,1,248.64,291.91Z" transform="translate(104.17 45.66)" style="fill:#467458"/><path d="M224.67,269.83s.87-9-4.37-12.58-9.76-6.1-9.87-9.4-8.85-9.77-8.85-9.77-3.85-.86-5.77-3.05-3-1.87-6.47-2.38-9.27-3.12-12.95-2.34c0,0,.7,5.17,8.22,9.53s4.37,7.9,8,10.16S224.67,269.83,224.67,269.83Z" transform="translate(104.17 45.66)" style="fill:#467458"/><path d="M231.1,268.45s-.66-2.2-6.6-6.23-12.42-8.57-14.35-10.32-4.37-4.72-8.57-5.07-5.07-.35-6.12-1-6.65,1.12-7.7,3.36c0,0,11.72,7.09,14.35,7.2,0,0,5.07,6.41,9.62,7.11s5.25,4.06,10.32,5A24.08,24.08,0,0,0,231.1,268.45Z" transform="translate(104.17 45.66)" style="fill:#303030"/><path d="M238.13,346h14.34a3.54,3.54,0,0,0,3.53-3.53l8-28.84a3.54,3.54,0,0,0-3.53-3.53H230.83a3.54,3.54,0,0,0-3.53,3.53l7.3,28.84A3.54,3.54,0,0,0,238.13,346Z" transform="translate(104.17 45.66)" style="fill:#dd2a23"/><path d="M248.86,310.28a19.21,19.21,0,0,0-11.08,6.32c-3.45,4.21-4.79,9.86-5.39,15.17-.06.49-.1,1-.14,1.48l-5-19.58a3.54,3.54,0,0,1,3.53-3.53h18.79Z" transform="translate(104.17 45.66)" style="fill:#303030"/></g></svg>