<?xml version="1.0" encoding="utf-8"?>
<!-- Generator: Adobe Illustrator 16.0.0, SVG Export Plug-In . SVG Version: 6.00 Build 0)  -->
<!DOCTYPE svg PUBLIC "-//W3C//DTD SVG 1.1//EN" "http://www.w3.org/Graphics/SVG/1.1/DTD/svg11.dtd">
<svg version="1.1" id="Capa_1" xmlns="http://www.w3.org/2000/svg" xmlns:xlink="http://www.w3.org/1999/xlink" x="0px" y="0px"
	 width="686.2px" height="292.131px" viewBox="0 0 686.2 292.131" enable-background="new 0 0 686.2 292.131" xml:space="preserve">
<rect x="261.001" y="-133.068" fill="#88BECC" width="425.197" height="425.198"/>
<g>
	<ellipse fill="#D8D9DD" cx="473.599" cy="234.706" rx="159.722" ry="18.432"/>
	<g>
		<g>
			<g>
				<path fill="#323131" d="M591.33,223.014l3.071,3.388c0,0,3.22,3.44-2.122,4.463c0,0-4.827,1.317-7.826-4.388
					c0,0-1.462-2.195-2.192-2.343c0,0-1.755-0.583-1.535-1.828h10.021L591.33,223.014z"/>
				<path fill="#D8D9DD" d="M585.568,224.761c1.07,1.646,3.249,3.739,5.413,3.134c1.213-0.341,2.199-1.227,2.66-2.332l0.76,0.839
					c0,0,3.22,3.44-2.122,4.463c0,0-4.827,1.317-7.826-4.388c0,0-1.462-2.195-2.192-2.343c0,0-1.755-0.583-1.535-1.828h3.177
					C584.677,222.915,585.032,223.938,585.568,224.761z"/>
				<path d="M581.39,222.306c0.381,0.721,1.406,1.067,1.406,1.067c0.73,0.146,2.193,2.341,2.193,2.341
					c2.999,5.703,7.828,4.388,7.828,4.388c1.271-0.244,2.048-0.629,2.508-1.067c-0.231,0.745-1.031,1.453-3.006,1.83
					c0,0-4.828,1.317-7.826-4.388c0,0-1.461-2.195-2.193-2.343c0,0-1.756-0.583-1.534-1.828H581.39z"/>
			</g>
			<g>
				<path fill="#323131" d="M562.151,223.014l-3.073,3.388c0,0-3.22,3.44,2.122,4.463c0,0,4.827,1.317,7.826-4.388
					c0,0,1.461-2.195,2.194-2.343c0,0,1.756-0.583,1.535-1.828h-10.021L562.151,223.014z"/>
				<path fill="#D8D9DD" d="M567.912,224.761c-1.071,1.646-3.249,3.739-5.415,3.134c-1.213-0.341-2.199-1.227-2.659-2.332
					l-0.76,0.839c0,0-3.22,3.44,2.122,4.463c0,0,4.827,1.317,7.826-4.388c0,0,1.461-2.195,2.194-2.343c0,0,1.756-0.583,1.535-1.828
					h-3.179C568.802,222.915,568.447,223.938,567.912,224.761z"/>
				<path d="M572.091,222.306c-0.381,0.721-1.407,1.067-1.407,1.067c-0.73,0.146-2.193,2.341-2.193,2.341
					c-2.997,5.703-7.826,4.388-7.826,4.388c-1.272-0.244-2.05-0.629-2.508-1.067c0.229,0.745,1.03,1.453,3.004,1.83
					c0,0,4.827,1.317,7.825-4.388c0,0,1.463-2.195,2.195-2.343c0,0,1.756-0.583,1.534-1.828H572.091z"/>
			</g>
			<path fill="#E6B998" d="M551.206,79.224l19.131-6.862h5.608h0.519h5.61l19.131,6.862c0,0,5.585,2.058,5.12,13.267h-11.606v46.477
				h-37.027V92.49h-11.604C545.622,81.281,551.206,79.224,551.206,79.224z"/>
			<polygon fill="#180000" points="573.372,135.497 579.919,135.497 592.279,135.497 592.279,148.726 592.279,223.492 
				579.919,223.492 578.544,148.726 574.427,148.726 573.372,223.492 561.006,223.492 561.006,148.726 561.006,135.497 			"/>
			<path fill="#FFFFFF" d="M584.606,73.276l16.599,5.948c0,0,5.585,2.058,5.12,13.267h-11.606v46.477h-37.027V92.49h-11.604
				c-0.465-11.209,5.119-13.267,5.119-13.267l16.581-5.948H584.606z"/>
			<g>
				<polygon fill="#A01127" points="579.944,72.362 572.14,72.362 574.466,80.521 577.859,80.521 				"/>
				<path fill="#AEADB3" d="M575.39,78.383c1.813-1.337,2.899-3.674,3.107-6.021h1.447l-2.085,8.159h-3.394l-0.391-1.37
					C574.545,78.932,574.99,78.679,575.39,78.383z"/>
			</g>
			<g>
				<polygon fill="#9A999E" points="582.155,69.221 576.464,72.362 580.421,80.733 585.98,74.512 				"/>
				<polygon fill="#FFFFFF" points="582.273,68.509 576.464,72.362 580.537,80.022 586.101,73.803 				"/>
			</g>
			<g>
				<polygon fill="#9A999E" points="570.56,69.221 576.249,72.362 572.296,80.733 566.733,74.512 				"/>
				<polygon fill="#FFFFFF" points="570.439,68.509 576.249,72.362 572.177,80.022 566.614,73.803 				"/>
			</g>
			<polygon fill="#A01127" points="576.147,124.721 571.201,114.795 574.417,80.521 576.147,80.521 576.157,80.521 577.885,80.521 
				581.103,114.795 576.157,124.721 576.157,124.743 576.153,124.733 576.147,124.743 			"/>
			<path fill="#00263A" d="M566.313,73.803l-15.106,5.421c0,0-5.584,2.058-5.119,13.267h11.604v46.477h37.027V92.49h11.606
				c0.465-11.209-5.12-13.267-5.12-13.267l-15.104-5.421l-9.852,39.848L566.313,73.803z"/>
			<path fill="#AEADB3" d="M595.397,92.509c-0.879,17.502-13.949,31.167-30.166,33.881c0.036,0.226,0.079,0.447,0.115,0.672
				l-0.79,0.343c0,0-2.471,0.888-5.191-0.801c0,0-2.604-0.977-1.797,1.426c0,0,1.033,0.69,2.491,1.718c0,0-3.728,0.952-6.475-0.272
				c0,0-1.573-0.019-0.716,1.497c0,0,2.059,0.748,4.225,0.988c-1.584-0.015-3.495-0.212-5.095-0.91c0,0-1.803,0.164-0.519,1.705
				c0,0,2.907,1.138,6.006,1.211c-1.068,0.058-2.276,0.044-3.38-0.149c0,0-1.825,0.922-0.057,1.98c0,0,3.648,0.6,6.644-0.023
				c-0.949,0.231-2.409,0.54-3.688,0.611c0,0-0.699,0.95,0.692,1.236c0,0,4.124-0.063,6.475-1.275c0,0,2.219-0.847,2.854-1.188
				c0.116,0.467,0.227,0.933,0.346,1.398c20.825-3.688,37.525-21.426,38.417-44.037c-0.085-0.002-0.169-0.006-0.253-0.01H595.397z"
				/>
			<g>
				<path fill="#E8C39E" d="M593.114,41.546l0.162,17.176c0,0-2.9,7.106-12.017,11.956c0,0-9.175,4.271-12.263,2.485
					c0,0-10.113-3.962-9.749-22.465c0,0-2.534-23.952,16.533-24.258C575.781,26.44,592.373,26.844,593.114,41.546z"/>
				<path fill="#E8C39E" d="M591.758,49.44c0,0,2.458-2.295,3.895-1.052c0,0,2.853,3.285-0.237,8.097c0,0-1.328,2.784-2.988,1.678
					L591.758,49.44z"/>
				<path fill="#120000" d="M592.252,55.881h-1.229c1.001-5.687-1.501-7.86-1.501-7.86c-3.33-4.211-2.02-8.463-2.02-8.463
					c-0.188-6.67-7.15-7.336-7.15-7.336c-0.499-8.505,7.208-7.503,7.208-7.503c11.633,1.721,10.134,15.563,10.134,15.563
					S595.817,53.028,592.252,55.881z"/>
				<path fill="#290700" d="M583.597,33.248c0,0,8.26-7.029,0.923-11.198c0,0-6.835-4.169-15.004-1c0,0-8.172,5.935-14.507,4.936
					C555.009,25.985,562.426,36.603,583.597,33.248z"/>
			</g>
			<g>
				<path fill="#2D3136" d="M511.823,220.716c0,1.695,1.371,3.064,3.063,3.064h38.396c1.69,0,3.062-1.369,3.062-3.064v-28.619
					c0-1.688-1.371-3.063-3.062-3.063h-38.396c-1.691,0-3.063,1.374-3.063,3.063V220.716z"/>
				<path fill="#C2C3C9" d="M529.627,214.563c5.411-1.279,10.898-3.299,15.312-6.771c4.229-3.331,7.265-8.313,9.352-13.218
					c0.573-1.339,1.1-2.747,1.529-4.19c0.33,0.488,0.524,1.078,0.524,1.713v28.619c0,1.695-1.371,3.064-3.062,3.064h-38.396
					c-1.691,0-3.063-1.369-3.063-3.064v-5.398C517.613,216.582,523.981,215.896,529.627,214.563z"/>
				<path fill="#9A999E" d="M514.414,207.408l-2.591-15.312c0-1.688,1.371-3.063,3.063-3.063h38.396c1.69,0,3.062,1.374,3.062,3.063
					l-2.825,15.312H514.414z"/>
				<path fill="#2B2F34" d="M514.905,206.407l-2.525-14.476c0-1.6,1.335-2.897,2.985-2.897h37.437c1.649,0,2.986,1.298,2.986,2.897
					l-2.756,14.476H514.905z"/>
				<path fill="#C2C3C9" d="M515.365,189.034h8.692c-0.27,1.798-0.281,3.628,0.382,5.286c0.856,2.141,2.924,3.668,4.85,4.798
					c5.236,3.066,12.158,4.001,18.015,2.304c2.687-0.774,5.15-2.108,7.395-3.767l-1.666,8.752h-38.127l-2.525-14.476
					C512.38,190.332,513.715,189.034,515.365,189.034z"/>
				<g>
					<path fill="#E6B54A" d="M529.131,203.973v6.872c0,0.542,0.44,0.98,0.981,0.98h6.871c0.543,0,0.98-0.438,0.98-0.98v-6.872
						c0-0.541-0.438-0.98-0.98-0.98h-6.871C529.571,202.992,529.131,203.432,529.131,203.973z M530.385,204.949
						c0-0.388,0.316-0.702,0.704-0.702h4.918c0.387,0,0.701,0.314,0.701,0.702v4.919c0,0.387-0.314,0.701-0.701,0.701h-4.918
						c-0.388,0-0.704-0.314-0.704-0.701V204.949z"/>
					<rect x="532.368" y="203.522" fill="#E6B54A" width="2.358" height="5.182"/>
				</g>
				<path fill="#D8D9DD" d="M538.515,189.034v-2.308c0-0.571-0.462-1.033-1.033-1.033h-6.796c-0.57,0-1.032,0.462-1.032,1.033v2.308
					h-3.372v-4.893c0-1.007,0.814-1.819,1.818-1.819h11.968c1.005,0,1.818,0.813,1.818,1.819v4.893H538.515z"/>
				<path fill="#C2C3C9" d="M528.1,182.322h11.968c1.005,0,1.818,0.813,1.818,1.819v4.893h-1.778v-3.718
					c0-0.777-0.631-1.404-1.404-1.404h-9.237c-0.776,0-1.406,0.627-1.406,1.404v3.718h-1.778v-4.893
					C526.281,183.135,527.096,182.322,528.1,182.322z"/>
			</g>
			<g>
				<path fill="#E6B998" d="M566.086,128.391c0,0-2.445,0.956-5.209-0.657c0,0-2.63-0.906-1.759,1.475c0,0,1.053,0.662,2.538,1.648
					c0,0-3.703,1.055-6.48-0.099c0,0-1.573,0.028-0.675,1.517c0,0,4.805,1.604,7.436,0.583c0,0-4.837,0.922-8.304-0.479
					c0,0-1.798,0.213-0.472,1.721c0,0,5.207,1.874,9.069,0.604c0,0-3.545,0.809-6.416,0.383c0,0-1.8,0.971,0,1.981
					c0,0,4.564,0.627,7.638-0.494c0,0-2.575,0.827-4.667,1.005c0,0-0.673,0.966,0.725,1.214c0,0,4.12-0.177,6.438-1.448
					c0,0,2.555-1.058,2.939-1.344l-1.393-8.266L566.086,128.391z"/>
				<path fill="#00263A" d="M566.733,127.36c16.26-3.18,29.03-17.384,29.245-35.092c3.46,0.042,6.916,0.085,10.374,0.125
					c-0.275,22.629-16.484,40.815-37.201,45.07C568.197,134.133,567.372,130.771,566.733,127.36z"/>
			</g>
			<g>
				<path fill="#E6B998" d="M503.665,80.418c0,0-2.304-1.26-2.843-4.417c0,0-0.994-2.596-2.261-0.399c0,0,0.171,1.231,0.369,3.003
					c0,0-3.188-2.159-4.089-5.029c0,0-1.03-1.189-1.596,0.458c0,0,1.858,4.713,4.329,6.07c0,0-3.813-3.113-4.965-6.671
					c0,0-1.316-1.239-1.62,0.745c0,0,1.904,5.193,5.36,7.341c0,0-2.897-2.199-4.414-4.672c0,0-1.9-0.757-1.521,1.272
					c0,0,2.451,3.899,5.287,5.537c0,0-2.29-1.443-3.768-2.934c0,0-1.175,0.106-0.467,1.336c0,0,2.781,3.045,5.248,4.005
					c0,0,2.452,1.28,2.914,1.391l5.444-6.376L503.665,80.418z"/>
				<path fill="#00263A" d="M504.872,80.251c12.879,10.421,31.945,10.548,45.654-0.659c2.188,2.677,4.975,10.221,7.165,12.897
					c-17.519,14.323-42.445,9.249-59.009-3.897C500.618,85.723,502.667,82.932,504.872,80.251z"/>
			</g>
		</g>
		<g>
			<path fill="#B5382A" d="M565.597,112.468c-2.536,0-4.866,0.88-6.707,2.347c-0.477,0.287-1.183,0.646-2.156,0.999V89.519
				c0-5.045-4.09-9.134-9.134-9.134h-26.794c0.491-1.851,1.071-3.056,1.5-3.762c1.465-1.843,2.344-4.17,2.344-6.708
				c0-5.952-4.825-10.778-10.777-10.778s-10.777,4.826-10.777,10.778c0,2.537,0.878,4.865,2.345,6.708
				c0.427,0.706,1.007,1.911,1.498,3.762h-26.796c-5.046,0-9.135,4.089-9.135,9.134v27.217c2.975-0.539,4.745-1.363,5.669-1.921
				c1.843-1.467,4.172-2.347,6.708-2.347c5.954,0,10.78,4.826,10.78,10.778c0,5.954-4.826,10.777-10.78,10.777
				c-2.536,0-4.865-0.879-6.708-2.344c-0.924-0.56-2.694-1.387-5.669-1.923v27.217c0,5.044,4.089,9.133,9.135,9.133h25.588
				c-0.103,0.196-0.198,0.372-0.29,0.521c-1.465,1.84-2.345,4.17-2.345,6.704c0,5.954,4.825,10.777,10.778,10.777
				c5.951,0,10.776-4.823,10.776-10.777c0-2.534-0.879-4.864-2.344-6.704c-0.091-0.149-0.188-0.325-0.291-0.521H547.6
				c5.044,0,9.134-4.089,9.134-9.133v-26.295c0.974,0.354,1.68,0.712,2.156,1.001c1.841,1.465,4.171,2.344,6.707,2.344
				c5.951,0,10.776-4.825,10.776-10.777S571.548,112.468,565.597,112.468z"/>
			<path fill="#B6B6BB" d="M550.534,165.618c-10.206-7.015-18.547-16.295-24.466-27.638c-8.376-16.046-13.593-34.509-12.809-52.712
				c0.381-8.803,2.288-16.873,5.134-25.126c-1.375-0.637-2.904-1.005-4.521-1.005c-5.952,0-10.777,4.826-10.777,10.778
				c0,2.537,0.878,4.865,2.345,6.708c0.427,0.706,1.007,1.911,1.498,3.762h-26.796c-5.046,0-9.135,4.089-9.135,9.134v27.217
				c2.975-0.539,4.745-1.363,5.669-1.921c1.843-1.467,4.172-2.347,6.708-2.347c5.954,0,10.78,4.826,10.78,10.778
				c0,5.954-4.826,10.777-10.78,10.777c-2.536,0-4.865-0.879-6.708-2.344c-0.924-0.56-2.694-1.387-5.669-1.923v27.217
				c0,5.044,4.089,9.133,9.135,9.133h25.588c-0.103,0.196-0.198,0.372-0.29,0.521c-1.465,1.84-2.345,4.17-2.345,6.704
				c0,5.954,4.825,10.777,10.778,10.777c5.951,0,10.776-4.823,10.776-10.777c0-2.534-0.879-4.864-2.344-6.704
				c-0.091-0.149-0.188-0.325-0.291-0.521H547.6C548.628,166.106,549.611,165.932,550.534,165.618z"/>
		</g>
		<g>
			<path fill="#6E4600" d="M360.462,45.863c0,0-3.102,23.016,5.254,30.429c0,0-16.297,1.168-18.948-8.044
				C346.768,68.248,345.345,44.934,360.462,45.863z"/>
			<rect x="333.397" y="59.034" width="10.718" height="12.054"/>
			<rect x="337.992" y="64.238" fill="#C49E81" width="10.34" height="6.02"/>
			<path fill="#E6B998" d="M327.353,87.575h-9.906c-0.397-10.268,4.372-12.154,4.372-12.154l16.327-6.286h4.789h0.441h4.791
				l16.328,6.286c0,0,4.768,1.886,4.371,12.154h-9.905l-4.782,20.386l3.57,18.963l-28.647,0.095l2.779-19.247L327.353,87.575z"/>
			<polygon fill="#E6B998" points="346.932,213.868 345.207,139.086 341.436,139.096 340.324,213.868 332.693,213.868 
				329.142,139.136 329.102,127.019 340.427,126.979 346.424,126.96 357.749,126.924 357.789,139.042 354.489,213.868 			"/>
			<g>
				<path fill="#E6B998" d="M364.521,75.622c13.45,12.041,32.898,20.442,55.541,20.874c-0.258,1.352-0.541,2.708-0.848,4.062
					c-23.762,1.429-44.131-1.094-60.253-12.981C361.365,85.186,362.403,78.177,364.521,75.622z"/>
				<path fill="#E6B998" d="M419.214,100.557c0.003,0.008,2.831-0.407,4.985,0.68c0.003,0.006,2.567-0.055,0.311-1.656
					c-0.01,0.042,5.416-0.394,6.491,0.151c0.012-0.01,1.729-0.977-1.682-1.503c0.006-0.04-2.981-1.654-9.258-1.733
					C419.804,97.847,419.521,99.203,419.214,100.557z"/>
			</g>
			<g>
				<path fill="#E6B998" d="M346.912,213.868h7.63c0.001,0.004,0.002,0.011,0.002,0.015c0.148,0.78,0.127,2.249,0.286,3.083
					c1.606,8.381-1.036,8.955-2.892,9.131c-0.132,0.013-0.437,0.394-0.598,0.359c-3.432-0.714-5.43-0.282-4.854-7.895
					C346.606,216.951,346.772,215.414,346.912,213.868z"/>
				<path d="M345.785,224.219c0.546,5.461,4.732,6.776,4.732,6.776c5.027-0.018,5.309-6.811,5.309-6.811
					c-0.073-0.749-0.528-2.436-0.528-2.436c0.256,0.68-0.385,2.438-0.385,2.438c-0.692,1.144-1.921,2.156-4.089,2.164
					c0,0-2.454,0.041-3.96-2.134c0,0-0.445-1.804-0.462-2.604C346.402,221.612,345.841,222.938,345.785,224.219z"/>
			</g>
			<g>
				<path fill="#E6B998" d="M332.693,213.868h7.631c0,0.004,0.001,0.011,0.003,0.015c0.146,0.78,0.126,2.249,0.286,3.083
					c1.604,8.381-1.037,8.955-2.893,9.131c-0.133,0.013-0.436,0.394-0.599,0.359c-3.431-0.714-5.429-0.282-4.854-7.895
					C332.389,216.951,332.554,215.414,332.693,213.868z"/>
				<path d="M331.567,224.219c0.546,5.461,4.732,6.776,4.732,6.776c5.026-0.018,5.31-6.811,5.31-6.811
					c-0.074-0.749-0.53-2.436-0.53-2.436c0.257,0.68-0.383,2.438-0.383,2.438c-0.693,1.144-1.923,2.156-4.091,2.164
					c0,0-2.455,0.041-3.959-2.134c0,0-0.444-1.804-0.462-2.604C332.185,221.612,331.623,222.938,331.567,224.219z"/>
			</g>
			<path fill="#003951" d="M329.262,114.177c2.536-5.13,1.046-10.39,1.046-10.39c-2.81-8.729-3.792-19.118-3.792-19.118
				s2.363-3.193,0.013-11.997l3.106-0.795c0,0,2.173,11.47,13.315,15.502c11.138-4.032,13.313-15.502,13.313-15.502l3.105,0.795
				c-2.354,8.803,0.015,11.997,0.015,11.997s-0.985,10.39-3.796,19.118c0,0-1.486,5.26,1.046,10.39c0,0,6.382,8.472,3.697,31.644
				l-2.541,30.663h-29.804l-2.4-30.495C324.173,124.181,329.262,114.177,329.262,114.177z"/>
			<polygon fill="#3C2C17" points="329.795,112.942 356.18,112.942 355.313,109.835 330.581,109.835 			"/>
			<g>
				<path fill="#E6B54A" d="M337.87,109.613v4.211c0,0.907,0.736,1.645,1.646,1.645h7.281c0.907,0,1.646-0.737,1.646-1.645v-4.211
					c0-0.907-0.739-1.646-1.646-1.646h-7.281C338.606,107.967,337.87,108.706,337.87,109.613z M339.018,110.069
					c0-0.712,0.577-1.287,1.287-1.287h5.7c0.712,0,1.291,0.575,1.291,1.287v3.297c0,0.712-0.579,1.287-1.291,1.287h-5.7
					c-0.71,0-1.287-0.575-1.287-1.287V110.069z"/>
				<rect x="342.196" y="108.112" fill="#E6B54A" width="1.919" height="6.942"/>
			</g>
			<g>
				<path fill="#E6B998" d="M331.305,42.52l-0.132,14.125c0,0,2.385,5.843,9.883,9.834c0,0,7.542,3.512,10.083,2.043
					c0,0,8.315-3.258,8.017-18.476c0,0,2.084-19.699-13.597-19.949C345.559,30.098,331.915,30.43,331.305,42.52z"/>
				<path fill="#E8C39E" d="M332.42,49.013c0,0-2.021-1.887-3.202-0.866c0,0-2.345,2.7,0.195,6.659c0,0,1.093,2.29,2.457,1.381
					L332.42,49.013z"/>
				<path fill="#6E4600" d="M332.014,54.31h1.011c-0.822-4.678,1.233-6.466,1.233-6.466c2.74-3.462,1.663-6.958,1.663-6.958
					c0.153-5.485,5.88-6.034,5.88-6.034c0.411-6.993-5.926-6.171-5.926-6.171c-9.57,1.417-8.336,12.799-8.336,12.799
					S329.084,51.964,332.014,54.31z"/>
				<path fill="#6E4600" d="M329.469,32.625c0,0-9.195,27.856,0,42.31c0,0,1.839,4.819,9.448,5.326c0,0-4.113-7.912-4.267-17.414
					c-0.006-0.401-0.005-0.806,0.003-1.212c0.287-13.98,0.669-12.722,2.996-26.261L329.469,32.625z"/>
				<path fill="#6E4600" d="M341.801,34.852c0,0,7.6,8.24,17.446,8.818l-0.249,10.64c0,0,7.062-22.237-8.538-25.659
					c0,0-6.122-4.336-15.807,1.447L341.801,34.852z"/>
			</g>
			<g>
				<path fill="#E6B998" d="M317.446,87.575c5.502,24.304,25.461,47.516,47.902,48.88c0.143-1.287,0.285-2.574,0.427-3.861
					c-20.647-3.249-36.549-26.245-39.184-46.432C323.342,86.749,320.696,86.988,317.446,87.575z"/>
				<path fill="#E6B998" d="M365.775,132.594c-0.021,0.004,2.457,0.603,4.577-0.575c-0.016,0.002,2.279-0.129-0.023,1.562
					c-0.013,0.068,4.941-0.168,5.902-1.063c-0.019-0.016,1.591,0.571-1.6,1.781c0.04-0.068-2.936,2.482-9.283,2.157
					C365.491,135.168,365.634,133.881,365.775,132.594z"/>
			</g>
		</g>
		<g>
			<path fill="#E6B54A" d="M458.284,109.24c-2.535,0-4.865,0.88-6.706,2.345c-0.479,0.288-1.184,0.647-2.157,0.998V86.291
				c0-5.045-4.089-9.134-9.135-9.134h-26.793c0.492-1.851,1.072-3.056,1.498-3.765c1.466-1.84,2.345-4.17,2.345-6.705
				c0-5.952-4.825-10.777-10.777-10.777c-5.951,0-10.776,4.826-10.776,10.777c0,2.535,0.879,4.865,2.345,6.705
				c0.427,0.708,1.008,1.914,1.499,3.765h-26.794c-5.045,0-9.134,4.089-9.134,9.134v27.218c2.974-0.54,4.743-1.363,5.669-1.924
				c1.841-1.463,4.171-2.343,6.706-2.343c5.952,0,10.778,4.826,10.778,10.775c0,5.954-4.826,10.778-10.778,10.778
				c-2.535,0-4.865-0.878-6.706-2.345c-0.926-0.559-2.695-1.384-5.669-1.923v27.217c0,5.044,4.089,9.136,9.134,9.136h27.027
				c-0.529-2.413-1.236-3.908-1.732-4.733c-1.466-1.84-2.345-4.17-2.345-6.706c0-5.952,4.825-10.778,10.776-10.778
				c5.952,0,10.777,4.826,10.777,10.778c0,2.536-0.879,4.866-2.345,6.706c-0.496,0.825-1.203,2.32-1.733,4.733h27.028
				c5.046,0,9.135-4.092,9.135-9.136V127.45c0.974,0.354,1.679,0.713,2.157,1.001c1.841,1.467,4.171,2.345,6.706,2.345
				c5.952,0,10.777-4.824,10.777-10.778C469.062,114.066,464.236,109.24,458.284,109.24z"/>
			<path fill="#B6B6BB" d="M411.159,128.947c-11.039-13.602-18.495-30.548-16.858-48.401c0.105-1.145,0.25-2.272,0.425-3.389
				h-21.894c-5.045,0-9.134,4.089-9.134,9.134v27.218c2.974-0.54,4.743-1.363,5.669-1.924c1.841-1.463,4.171-2.343,6.706-2.343
				c5.952,0,10.778,4.826,10.778,10.775c0,5.954-4.826,10.778-10.778,10.778c-2.535,0-4.865-0.878-6.706-2.345
				c-0.926-0.559-2.695-1.384-5.669-1.923v27.217c0,5.044,4.089,9.136,9.134,9.136h27.027c-0.529-2.413-1.236-3.908-1.732-4.733
				c-1.466-1.84-2.345-4.17-2.345-6.706c0-5.952,4.825-10.778,10.776-10.778c5.952,0,10.777,4.826,10.777,10.778
				c0,2.536-0.879,4.866-2.345,6.706c-0.496,0.825-1.203,2.32-1.733,4.733h27.028c4.129,0,7.615-2.742,8.746-6.503
				C433.822,152.295,420.905,140.956,411.159,128.947z"/>
		</g>
	</g>
</g>
<g>
	<g>
		<path fill="#88BECC" d="M37,87.931c0.557-10.3,20.236-13.308,28-13c-0.72-1.254-1.439-2.508-2.159-3.762
			c-4.974,6.748-12.583,11.27-19.603,15.604c1.01,1.309,2.02,2.617,3.029,3.926c5.111-5.586,19.877-9.701,25.465-3
			c0-1.179,0-2.356,0-3.535C67.625,88.057,60.098,86.041,55,85.931c-3.226-0.07-3.219,4.931,0,5
			c6.838,0.147,14.774,1.975,20.268-3.232c1.055-0.999,0.854-2.512,0-3.535c-7.37-8.839-25.672-4.501-32.535,3
			c-1.871,2.045,0.534,5.467,3.029,3.926c7.817-4.824,15.872-9.9,21.397-17.396c1.194-1.62-0.445-3.694-2.159-3.762
			c-10.992-0.436-32.252,4.16-33,18C31.826,91.154,36.827,91.138,37,87.931L37,87.931z"/>
	</g>
</g>
<rect x="-5" y="-5.069" fill="#88BECC" width="275" height="297.199"/>
</svg>
