<svg id="Layer_1" data-name="Layer 1" xmlns="http://www.w3.org/2000/svg" viewBox="0 0 500 350"><title>palomos_sofa_sin_corbata</title><rect width="500" height="350" style="fill:#2a6b97"/><path d="M279.86,134.47l-3.85-1-.56.09h0l-4.25.7-.09.12-3.21.61a1,1,0,0,0-.79,1.2l.9,4.27c.1.43.42.59.86.72l7.14.45h.06l.21,0,4.17-1.58,6.39-1.25.08-5.09Z" style="fill:#f8a97a"/><path d="M300.83,138.47c-6.87-.14-8.15,3.43-16.75,1.72l-1-6.45a17.77,17.77,0,0,0,3.52-1.13c.51-.53,2-.51,2.31-.51,29.41.18,38.26-4,47.48-10.12a36.85,36.85,0,0,0,11.28-11.49,4,4,0,0,1,5.07-1.73l3.08,1.35C355.4,111.47,345.27,139.36,300.83,138.47Z" style="fill:#eaf4fc"/><g id="_Grupo_" data-name="&lt;Grupo&gt;"><ellipse id="_Trazado_" data-name="&lt;Trazado&gt;" cx="250" cy="281.72" rx="161" ry="4.54" style="fill:#205071"/><polygon id="_Trazado_2" data-name="&lt;Trazado&gt;" points="111.48 281.72 103.35 281.72 103.35 259.1 115.88 259.1 111.48 281.72" style="fill:#7a3811"/><polygon id="_Trazado_3" data-name="&lt;Trazado&gt;" points="382.7 281.72 390.82 281.72 390.82 259.1 378.3 259.1 382.7 281.72" style="fill:#7a3811"/><path id="_Trazado_4" data-name="&lt;Trazado&gt;" d="M386.28,149.07c0-7.26-4.3-13.21-9.55-13.21H123.24c-5.25,0-9.55,5.94-9.55,13.21v81.68H386.28Z" style="fill:#88d0c8"/><path id="_Trazado_5" data-name="&lt;Trazado&gt;" d="M382.7,182a9.58,9.58,0,0,0-9.55-9.55H363.6a9.58,9.58,0,0,0-9.55,9.55v46.36H382.7Z" style="fill:#669c96"/><path id="_Trazado_6" data-name="&lt;Trazado&gt;" d="M357.07,228.33H254.54a12.28,12.28,0,0,1-12.28-12.28v-.49c0-6.78,5.5-11.79,12.28-11.79l62.24,2.92,40.28-2.92a12.28,12.28,0,0,1,12.28,12.28h0A12.28,12.28,0,0,1,357.07,228.33Z" style="fill:#b8e3de"/><path id="_Trazado_7" data-name="&lt;Trazado&gt;" d="M133.61,182a9.58,9.58,0,0,0-9.55-9.55h-9.55A9.58,9.58,0,0,0,105,182v46.36h28.65Z" style="fill:#669c96"/><path id="_Trazado_8" data-name="&lt;Trazado&gt;" d="M232.24,228.34H137.11a12.28,12.28,0,0,1-12.28-12.28h0a12.28,12.28,0,0,1,12.28-12.28l35.23,1.09,59.9-1.09a12.07,12.07,0,0,1,12.28,12v.25A12.28,12.28,0,0,1,232.24,228.34Z" style="fill:#b8e3de"/><path id="_Trazado_9" data-name="&lt;Trazado&gt;" d="M398,182a9.58,9.58,0,0,0-9.55-9.55h-9.23a9.58,9.58,0,0,0-9.55,9.55l-.32,84.24h21.72a6.93,6.93,0,0,0,6.93-6.93Z" style="fill:#a0d9d3"/></g><path d="M131.83,176.46l-8,1.29a9.4,9.4,0,0,1,1,4.23v4.51l8.78-2.58V182A9.47,9.47,0,0,0,131.83,176.46Z" style="fill:#b8e3de"/><rect x="117.47" y="145.03" width="266.2" height="9.31" style="fill:#d4eeeb;opacity:0.2"/><rect id="_Rectángulo_" data-name="&lt;Rectángulo&gt;" x="113.69" y="227.86" width="272.59" height="38.36" style="fill:#a0d9d3"/><path d="M119.51,173.43a9.45,9.45,0,0,0-4.23-1h-9.55c-.25,0-.49,0-.73,0A9.58,9.58,0,0,0,96.18,182v78.78a5.47,5.47,0,0,0,5.47,5.47h23.18V182A9.57,9.57,0,0,0,119.51,173.43Z" style="fill:#a0d9d3"/><rect id="_Rectángulo_2" data-name="&lt;Rectángulo&gt;" x="358.99" y="86.6" width="6.42" height="28.48" transform="translate(725.08 199.22) rotate(179.61)" style="fill:#f8a97a"/><path id="_Trazado_10" data-name="&lt;Trazado&gt;" d="M371.59,68.92l-11.89,1.51h-.32l-10.76.08a12.68,12.68,0,0,0,0,1.59c.18,4.15,0,14.83,0,15.81,0,6.2.07,11.08,4.18,13.34h0l0,0,.32.15a26.59,26.59,0,0,0,6.44.74h.32a26.59,26.59,0,0,0,6.43-.83l.32-.16,0,0h0c4.08-2.32,4-7.19,4-13.39,0-1,.74-11.67.86-15.83C371.59,71.12,371.62,69.1,371.59,68.92Z" style="fill:#f8a97a"/><path id="_Trazado_11" data-name="&lt;Trazado&gt;" d="M371.28,83.1l-.17-1.56-2,.3-.26,4.26-.21.21-.18-10.42L371.94,74C372,76.15,371.75,81.62,371.28,83.1Z" style="fill:#542813"/><path id="_Trazado_12" data-name="&lt;Trazado&gt;" d="M352.72,83.34a1.31,1.31,0,0,0-2.61,0,1.28,1.28,0,0,0,.57,1,1.19,1.19,0,0,1,1.49,0A1.28,1.28,0,0,0,352.72,83.34Z" style="fill:#615852"/><path id="_Trazado_13" data-name="&lt;Trazado&gt;" d="M360.71,84.33a1.28,1.28,0,0,0,.55-1,1.31,1.31,0,0,0-2.61,0,1.28,1.28,0,0,0,.57,1,1.19,1.19,0,0,1,1.49,0Z" style="fill:#615852"/><path id="_Trazado_14" data-name="&lt;Trazado&gt;" d="M360.73,80.15l-2.33,0a.38.38,0,1,1,0-.76l2.33,0a.38.38,0,0,1,0,.76Z" style="fill:#542813"/><path id="_Trazado_15" data-name="&lt;Trazado&gt;" d="M352.2,80.15l-2.33,0a.38.38,0,0,1,0-.76l2.33,0a.38.38,0,0,1,0,.76Z" style="fill:#542813"/><path id="_Trazado_16" data-name="&lt;Trazado&gt;" d="M356.06,94.84c2.32,0,4.19-.79,4.19-1.73l-8.4.06C351.86,94.1,353.75,94.85,356.06,94.84Z" style="fill:#fce9dc"/><path d="M367.63,65.49s-3.73-5-8.91-3.66c0,0-8.75-1.19-12.68,8.84-.07.26-2.09,6.68,1.78,6.46,0,0,.1-.37.1-.37.72-1,2.48-1.34,5.47-.95,10.19,1.32,5.61-6.66,12.21-5.47,0,0,3.22.64,2.88,5.5,0,3.23,2.08-.69,3-.35C371.53,75.49,375.57,66.42,367.63,65.49Z" style="fill:#542813"/><path d="M348.39,81.27h2.89A1.71,1.71,0,0,1,353,83v3.79a0,0,0,0,1,0,0h-6.31a0,0,0,0,1,0,0V83A1.71,1.71,0,0,1,348.39,81.27Z" transform="translate(699.66 168.04) rotate(180)" style="fill:#f0f9f7;opacity:0.47000000000000003"/><polygon points="371.99 82.23 372.14 81.19 369.07 80.75 361.84 80.75 361.84 81.79 369 81.79 371.99 82.23" style="fill:#483b35"/><rect x="353.34" y="80.75" width="2.19" height="1.04" style="fill:#1a0a03"/><path d="M357.24,81.27h2.89A1.71,1.71,0,0,1,361.84,83v3.79a0,0,0,0,1,0,0h-6.31a0,0,0,0,1,0,0V83A1.71,1.71,0,0,1,357.24,81.27Z" transform="translate(717.37 168.04) rotate(180)" style="fill:#f0f9f7;opacity:0.47000000000000003"/><path d="M356.05,81.79l2.87.74a2.41,2.41,0,0,1,1.77,1.9l.33,1.81.76-.75.06-4h-5.79Z" style="fill:#f0f9f7;opacity:0.7000000000000001"/><path d="M352.46,81.79l-3,.27A2,2,0,0,0,347.59,84l-.1,2.23-.76-.75-.06-4h5.79Z" style="fill:#f0f9f7"/><path d="M355,85.06V80.75h7.35v4.31a2.23,2.23,0,0,1-2.23,2.23h-2.89A2.23,2.23,0,0,1,355,85.06Zm1-3.27v3.27a1.19,1.19,0,0,0,1.19,1.19h2.89a1.19,1.19,0,0,0,1.19-1.19V81.79Z" style="fill:#1a0a03"/><path d="M346.15,85.06V80.75h7.35v4.31a2.23,2.23,0,0,1-2.23,2.23h-2.89A2.23,2.23,0,0,1,346.15,85.06Zm1-3.27v3.27a1.19,1.19,0,0,0,1.19,1.19h2.89a1.19,1.19,0,0,0,1.19-1.19V81.79Z" style="fill:#1a0a03"/><polygon points="354.59 83.94 351.85 89.43 352.99 89.83 355.44 90.64 354.59 83.94" style="fill:#f9ba95"/><path id="_Trazado_17" data-name="&lt;Trazado&gt;" d="M372.75,85.38c-.25,1.44-.65,1.67-2.1,1.68l.1-5C372.27,80.56,373.35,82,372.75,85.38Z" style="fill:#f8a97a"/><path id="_Trazado_18" data-name="&lt;Trazado&gt;" d="M296.7,208.12l0-.47c-.24-3.3,3-6.25,7.18-6.55l48.57-3.3c4.19-.3,7.81,2.16,8,5.46l0,.46c.17,2.32-2.08,4.36-5,4.57l-53.16,3.63C299.38,212.15,296.87,210.44,296.7,208.12Z" style="fill:#183c55"/><path d="M373,108.72l-4.39-.26-3-.17-5.07-.3-2.05-.12-5.23-.31a5.75,5.75,0,0,0-6.23,5.18l-.53,6.89c0,.06-4.4,46.3-9.55,68.88l9.35.53.14-.12,22.32,1.26c5.15-22.59,9.55-68.88,9.55-68.88h0l.23-6.7A5.75,5.75,0,0,0,373,108.72Z" style="fill:#fff"/><polygon id="_Trazado_19" data-name="&lt;Trazado&gt;" points="368.56 203.2 368.66 203.21 368.66 203.21 368.56 203.2 368.56 203.2" style="fill:#c8cace;opacity:0.41000000000000003"/><path id="_Trazado_20" data-name="&lt;Trazado&gt;" d="M367.71,196.52l.79-5L336.87,190l-.68,3.26c-1.52,7.78.15,14.22,6.31,17.32l14.66.82C363,209.28,366.17,204.85,367.71,196.52Z" style="fill:#205071"/><g id="_Grupo_2" data-name="&lt;Grupo&gt;"><polygon id="_Trazado_21" data-name="&lt;Trazado&gt;" points="368.5 192.51 336.72 190.72 337.04 188.32 368.85 190.11 368.5 192.51" style="fill:#a75025"/><rect id="_Rectángulo_3" data-name="&lt;Rectángulo&gt;" x="345.42" y="188.55" width="3.94" height="3.09" transform="translate(11.23 -19.22) rotate(3.22)" style="fill:#efebeb"/><rect id="_Rectángulo_4" data-name="&lt;Rectángulo&gt;" x="340.47" y="188.54" width="0.72" height="2.73" transform="translate(11.21 -18.85) rotate(3.22)" style="fill:#2a6b97"/><rect id="_Rectángulo_5" data-name="&lt;Rectángulo&gt;" x="356.22" y="189.42" width="0.72" height="2.73" transform="translate(11.28 -19.73) rotate(3.22)" style="fill:#2a6b97"/></g><path id="_Trazado_22" data-name="&lt;Trazado&gt;" d="M291.4,193.69l.12-.51c.85-3.64,4.89-5.84,9-4.88l41.86,9.85c4.09,1,6.73,4.72,5.88,8.36l-.12.51a5.06,5.06,0,0,1-6.27,3.41l-46.34-10.9A5.07,5.07,0,0,1,291.4,193.69Z" style="fill:#205071"/><path id="_Trazado_23" data-name="&lt;Trazado&gt;" d="M368,214.07c-24.68-8.78-47.62-3-47.62-3l.51.68Z" style="fill:#c6e9e5"/><polygon points="264.73 264.46 265.72 264.76 265.07 266.88 262.48 265.99 264.73 264.46" style="fill:none"/><path d="M245.86,260.24c-.83-.59-.89-.87-.89-.87l.17-.55,18.48,6.39-1.15.77Z" style="fill:#0a0a0e"/><path d="M268,257.28l6.71,2.23-1.9,7.71-7.1-2.46-.31-.11h0l-.67-.2-1.11.75-18.48-6.39.28-.91a.91.91,0,0,1,1.18-.57C260.19,262.24,268,257.28,268,257.28Z" style="fill:#f36f21"/><polygon points="265.72 264.76 265.4 264.67 265.4 264.66 265.72 264.76" style="fill:#29293a"/><polygon points="273.31 267.42 272.8 269.55 265.07 266.88 265.72 264.76 272.82 267.22 272.81 267.24 273.31 267.42" style="fill:#0a0a0e"/><polygon points="286.31 283.21 287.32 283.17 287.39 285.34 284.71 285.34 286.31 283.21" style="fill:none"/><path d="M267.51,285.33c-1-.28-1.1-.52-1.1-.52l0-.56h19.13l-.81,1.08Z" style="fill:#0a0a0e"/><path d="M287,275.52l6.92-.08.71,7.74H287l-.68,0-.79,1H266.4l0-.93a.89.89,0,0,1,.91-.91C281.4,282.6,287,275.52,287,275.52Z" style="fill:#f36f21"/><polygon points="287.32 283.17 287 283.18 287 283.17 287.32 283.17" style="fill:#29293a"/><polygon points="295.19 283.2 295.4 285.34 287.39 285.34 287.32 283.17 294.67 283.17 294.67 283.2 295.19 283.2" style="fill:#0a0a0e"/><path id="_Trazado_24" data-name="&lt;Trazado&gt;" d="M305.37,197.37a7.34,7.34,0,0,0-5.14-8.82,7.13,7.13,0,0,0-5.45.76,6.35,6.35,0,0,0-3.29,4l-24.36,64.38,7.42,2.55Z" style="fill:#205071"/><path id="_Trazado_25" data-name="&lt;Trazado&gt;" d="M306.88,209.87c0-3.91,1.17-6.7-3.93-8.65-1.79-.69-4.7.81-6.07,2.16a7.14,7.14,0,0,0-2.15,5.07l-8.79,67.93,8.56.71Z" style="fill:#183c55"/><g id="_Grupo_3" data-name="&lt;Grupo&gt;"><g id="_Grupo_4" data-name="&lt;Grupo&gt;"><path id="_Trazado_26" data-name="&lt;Trazado&gt;" d="M327.63,162.39h-2v1.08h2a.54.54,0,0,1,.54.54l-.07,6.89a.54.54,0,0,1-.54.54h-2v1.08h2a1.62,1.62,0,0,0,1.63-1.61l.07-6.89A1.62,1.62,0,0,0,327.63,162.39Z" style="fill:#fff"/><path id="_Trazado_27" data-name="&lt;Trazado&gt;" d="M326.08,160.21l-11.89-.08a.67.67,0,0,0-.67.67l-.1,14.15a.67.67,0,0,0,.67.67l11.89.08a.67.67,0,0,0,.67-.67l0-3.86V170.1l0-5.4v-1.08l0-2.73A.67.67,0,0,0,326.08,160.21Z" style="fill:#fff"/></g></g><path id="_Trazado_28" data-name="&lt;Trazado&gt;" d="M326.05,152.67h-9.68c-.71,0-1.3-.43-1.3-1s.58-1,1.3-1h3.84a1,1,0,0,0,0-1.91h-1.51c-.71,0-1.3-.43-1.3-1s.58-1,1.3-1h4.75a1,1,0,0,0,0-1.91H303.33a1,1,0,1,0,0,1.91H314c.71,0,1.3.43,1.3,1s-.58,1-1.3,1h-4.88a1,1,0,0,0,0,1.91h2.55c.71,0,1.3.43,1.3,1s-.58,1-1.3,1h.18a1,1,0,0,0-1,1h0a1,1,0,0,0,1,1h4.49c.71,0,1.3.43,1.3,1s-.58,1-1.3,1H316a1,1,0,0,0,0,1.91h6.91a1,1,0,0,0,0-1.91H321c-.71,0-1.3-.43-1.3-1s.58-1,1.3-1h5a1,1,0,0,0,1-1h0A1,1,0,0,0,326.05,152.67Z" style="fill:#fff;opacity:0.6000000000000001"/><rect x="315.07" y="160.7" width="1.72" height="13.67" style="fill:#f0ecec"/><path d="M337,165.51l-2.17-2.28-2.08-1-1.06-.15-2.83-.42a.16.16,0,0,0-.18.13l-.06.44a.9.9,0,0,0,.76,1l2.06.43,0,.16-3.42-.37a.72.72,0,0,0-.67.32c-.2.31-.29.79-.58,2.89a17.76,17.76,0,0,0,.57,4.14.84.84,0,0,0,.71.57l2.6.32H331l4.18-.81,6.47.44,1.26-5.15Z" style="fill:#f0a98a"/><path d="M343.45,172.52c-2.37-.13-3.26-.84-5.83-1.17l.43-6c2.59.33,3.83-.18,6.2,0,14.45,1.12,23.93-1.77,28.93-8.74C382,144.32,374.66,123,371.39,115a3.7,3.7,0,0,1,1.82-4.73h0a3.7,3.7,0,0,1,5,1.92c3.75,9.14,12,33.41.95,48.75C372.58,170.14,360.79,173.5,343.45,172.52Z" style="fill:#eaf4fc"/><rect x="136.37" y="88.5" width="6.71" height="30.75" transform="translate(279.44 207.76) rotate(180)" style="fill:#f8a97a"/><path d="M151.15,105.27l-5.22.61a2.37,2.37,0,0,1-1.67-.44l-8.5-6.22a2.37,2.37,0,0,1-.93-1.49l-2.77-15.49,23.61-1.9V98.64a2.37,2.37,0,0,1-.31,1.16l-2.42,4.28A2.37,2.37,0,0,1,151.15,105.27Z" style="fill:#f8a97a"/><path d="M155.66,82.75l-23.51-.21-.1-1.67A11.45,11.45,0,0,1,143.68,69h.5c6.72,0,11.49,5.45,11.49,12.17Z" style="fill:#f8a97a"/><path d="M143.81,75.66s5.46,4.82,19.89-1.65a16.46,16.46,0,0,1-8.87-5.62c-3.56-4.57-8.09-5.56-15.13.93C133.09,75.4,143.81,75.66,143.81,75.66Z" style="fill:#01192c"/><path d="M139.1,67.64c-11.44.83-7.2,14.69-7.2,14.69l.69,2.51,2.54-.11c.74-.81,1.83-3.56,2.47-5.66l.13-.39c1.87-5.29,6.08-3,6.08-3C145.78,68.17,139.1,67.64,139.1,67.64Z" style="fill:#01192c"/><path d="M137.73,78.67l1.23,3.4-.34.68s-3.25,3-3.61,1.77a27.88,27.88,0,0,1-.53-4.19s.65-1.1.83-1.1S137.73,78.67,137.73,78.67Z" style="fill:#01192c"/><circle cx="146.38" cy="87.11" r="0.63" style="fill:#68260b"/><circle cx="153.33" cy="86.65" r="0.63" style="fill:#68260b"/><path d="M151,84.39h6.24a0,0,0,0,1,0,0v3.75a1.69,1.69,0,0,1-1.69,1.69h-2.86A1.69,1.69,0,0,1,151,88.14V84.39A0,0,0,0,1,151,84.39Z" style="fill:#f1faf8;opacity:0.47000000000000003"/><polygon points="136.37 90.55 135.02 90.55 134.5 84.48 137.23 83.67 136.37 90.55" style="fill:#01192c"/><polygon points="132.16 85.34 132.02 84.31 135.05 83.88 142.21 83.87 142.21 84.91 135.13 84.91 132.16 85.34" style="fill:#483b35"/><path d="M134.5,90.39l-1.93-.12a1.73,1.73,0,0,1-1.51-1.39l-.39-2a1.73,1.73,0,0,1,2.12-2l1.7.68Z" style="fill:#f8a97a"/><rect x="148.46" y="83.87" width="2.16" height="1.03" style="fill:#1a0a03"/><polygon points="147.9 82.43 143.86 82.75 142.93 83.06 142.79 81.96 143.72 81.7 147.79 81.61 147.9 82.43" style="fill:#68260b"/><polygon points="150.35 82.25 154.36 82.86 155.26 83.23 155.48 82.15 154.57 81.82 150.52 81.44 150.35 82.25" style="fill:#68260b"/><path d="M142.21,84.39h6.24a0,0,0,0,1,0,0v3.75a1.69,1.69,0,0,1-1.69,1.69H143.9a1.69,1.69,0,0,1-1.69-1.69V84.39A0,0,0,0,1,142.21,84.39Z" style="fill:#f1faf8;opacity:0.47000000000000003"/><path d="M147.94,84.91l-2.84.73a2.39,2.39,0,0,0-1.75,1.88L143,89.32l-.75-.74-.06-4h5.73Z" style="fill:#f1faf8"/><path d="M151.49,84.91l3,.27a2,2,0,0,1,1.84,1.93l.1,2.21.75-.74.06-4h-5.73Z" style="fill:#f1faf8"/><path d="M146.76,90.35H143.9a2.21,2.21,0,0,1-2.21-2.21V83.87H149v4.27A2.21,2.21,0,0,1,146.76,90.35Zm-4-5.44v3.23a1.18,1.18,0,0,0,1.17,1.17h2.86a1.18,1.18,0,0,0,1.17-1.17V84.91Z" style="fill:#1a0a03"/><path d="M155.53,90.35h-2.86a2.21,2.21,0,0,1-2.21-2.21V83.87h7.28v4.27A2.21,2.21,0,0,1,155.53,90.35Zm-4-5.44v3.23a1.18,1.18,0,0,0,1.17,1.17h2.86a1.18,1.18,0,0,0,1.17-1.17V84.91Z" style="fill:#1a0a03"/><polygon points="149.85 85.42 152.7 91.97 151.36 92.37 148.46 93.16 149.85 85.42" style="fill:#f9ba95"/><path d="M135.76,99.22l8.5,6.22a2.37,2.37,0,0,0,1.67.44l5.22-.61a2.37,2.37,0,0,0,1.79-1.19l2.42-4.28a2.37,2.37,0,0,0,.31-1.16V97.17l-2.75,1.43-7.17-.41L140.14,96l-3.77-5.4H135l-1,2.53.83,4.65A2.37,2.37,0,0,0,135.76,99.22Z" style="fill:#01192c;opacity:0.1"/><polygon points="145.75 99.64 153.32 99.92 152.08 101.95 147.2 101.47 145.75 99.64" style="fill:#f9ba95"/><polygon id="_Trazado_29" data-name="&lt;Trazado&gt;" points="161.21 202.12 161.31 202.13 161.31 202.13 161.21 202.12 161.21 202.12" style="fill:#c8cace;opacity:0.41000000000000003"/><path d="M127.6,110.63l4.39-.26,3-.17,5.07-.3,2.05-.12,5.23-.31a5.75,5.75,0,0,1,6.23,5.18l.53,6.89c0,.06,11.93,44.79,13.87,68.46l-13.67.95-.14-.12-22.43.42c-1.23-22.82-9.44-68-9.44-68h0l-.23-6.7A5.75,5.75,0,0,1,127.6,110.63Z" style="fill:#fff"/><polygon points="169.16 202.64 169.27 202.64 169.27 202.64 169.16 202.64 169.16 202.64" style="fill:#c9ccd0;opacity:0.41000000000000003"/><path d="M168.09,194.28l-.25-5-36.15,1.37.16,4.32c.32,8.37,3.71,18.62,10.9,18.35l16.83-.64C166.2,212.48,168.44,203.46,168.09,194.28Z" style="fill:#122d40"/><rect x="131.59" y="188.36" width="36.31" height="2.77" transform="translate(-7.1 5.83) rotate(-2.18)" style="fill:#c65a28"/><rect x="147.7" y="187.94" width="4.52" height="3.54" transform="translate(-7.1 5.84) rotate(-2.18)" style="fill:#f0ecec"/><rect x="139.21" y="188.74" width="0.82" height="3.13" transform="translate(-7.11 5.42) rotate(-2.17)" style="fill:#022333"/><rect x="159.77" y="187.96" width="0.82" height="3.13" transform="matrix(1, -0.04, 0.04, 1, -7.09, 6.22)" style="fill:#022333"/><path d="M132.53,201.07l21.15-12.18,1.09,10.65L140,212.16S134.57,212.82,132.53,201.07Z" style="fill:#022333"/><path d="M132.53,201.07l21.15-12.18,1.09,10.65L144.13,212.8S134.85,215.71,132.53,201.07Z" style="fill:#183c55"/><path d="M225.2,133.49a1,1,0,0,0-1.22-.89l-3.71.43,0,0-4.31.53-.06-.16,2.28-.63a1,1,0,0,0,.78-1.19l-.1-.49a.18.18,0,0,0-.21-.14l-3.14.68-1.18.25-1.61.53-3.3,4-6.21.67,1.78,5.68,7.22-1,4.95.11a1,1,0,0,0,.23,0l.06,0h0l7.48-2.86c.43-.27.72-.53.69-1Z" style="fill:#f0a98a"/><path d="M198.26,143.74c-29.15,0-46.3-18.74-52.47-27a4.15,4.15,0,0,1,1.3-6.1h0a4.15,4.15,0,0,1,5.41,1.19c5.42,7.51,21.67,25.72,50.67,23.38.25,0,1.37,1.06,1.62,1,.79-.07,1.21.06,2,0l.67,6.42c-.84.11-1.06.13-1.89.21-.32,0-1.35.7-1.66.72Q201,143.75,198.26,143.74Z" style="fill:#fff"/><path id="_Trazado_30" data-name="&lt;Trazado&gt;" d="M146.4,155.59h-9.68c-.71,0-1.3-.43-1.3-1s.58-1,1.3-1h3.84a1,1,0,0,0,0-1.91h-1.51c-.71,0-1.3-.43-1.3-1s.58-1,1.3-1h4.75a1,1,0,0,0,0-1.91H123.68a1,1,0,1,0,0,1.91h10.71c.71,0,1.3.43,1.3,1s-.58,1-1.3,1h-4.88a1,1,0,0,0,0,1.91h2.55c.71,0,1.3.43,1.3,1s-.58,1-1.3,1h.18a1,1,0,0,0-1,1h0a1,1,0,0,0,1,1h4.49c.71,0,1.3.43,1.3,1s-.58,1-1.3,1h-.34a1,1,0,1,0,0,1.91h6.91a1,1,0,0,0,0-1.91h-1.9c-.71,0-1.3-.43-1.3-1s.58-1,1.3-1h5a1,1,0,0,0,1-1h0A1,1,0,0,0,146.4,155.59Z" style="fill:#ccebef"/><polygon points="135.65 174.37 130.26 174.15 130.26 167.48 135.65 167.48 135.65 174.37" style="fill:#f0a98a"/><path d="M131.69,174.46c-.64-.13-1.38-.08-2-.25-.17,0-.64.35-.81.3-6.57-1.89-11.3-5.73-14.08-11.43-7-14.28,3.41-39.5,7.91-49.18a4.22,4.22,0,0,1,5.7-2h0a4.21,4.21,0,0,1,2,5.49c-4.64,10.27-13,31.95-8,42,1.93,4,5.4,6.4,10.6,7.46Z" style="fill:#eaf4fc"/><path id="_Trazado_31" data-name="&lt;Trazado&gt;" d="M135.07,162.8l11.89-.08a.67.67,0,0,1,.67.67l.1,14.15a.67.67,0,0,1-.67.67l-11.89.08a.67.67,0,0,1-.67-.67l0-3.86v-1.08l0-5.4v-1.08l0-2.73A.67.67,0,0,1,135.07,162.8Z" style="fill:#336781"/><rect x="144.27" y="163.29" width="1.72" height="13.67" transform="translate(290.26 340.25) rotate(180)" style="fill:#5c859a"/><path d="M144.48,168.37h-5.85v-.1h5a1,1,0,0,0,1-1V167a1,1,0,0,0-1-1h-5.53l-3.5-.27c-.53,0-2.67-.31-2.67,2.35l.39,5.68a1.54,1.54,0,0,0,1.73,1.57h0l3.05-.23.23,0h0l4.74-.35a.85.85,0,0,0,.8-.85v-.28a.85.85,0,0,0-.85-.85h-3.48l0-.1H143a.91.91,0,0,0,.91-.91v-.44a.91.91,0,0,0-.91-.91h-4.27s0-.07,0-.1h5.72a.73.73,0,0,0,.73-.73v-.48A.73.73,0,0,0,144.48,168.37Z" style="fill:#f3baa1"/><path d="M129.35,213.64s20.65-6,31,1Z" style="fill:#b8e3de"/><path d="M154.35,282.3l-.59-.37-1,.41s-2.09,3.07-4.24,1.41c0,0,.64,1.64,1.28,2s3.1.31,3.81-.94A4.33,4.33,0,0,0,154.35,282.3Z" style="fill:#5b2a0d"/><rect x="148.52" y="270.22" width="5.03" height="18.36" transform="translate(-7.53 4.21) rotate(-1.56)" style="fill:#f2a16d"/><path d="M147.95,282.48c-.94-.58-1.91-.19-2.7.75a17.32,17.32,0,0,1-11,8.72s-3.65,4.47,4.93,2.29L156,289.63a6.56,6.56,0,0,0-1.65-7.33s-2.62,6.36-5.64,1.67C148.35,283.41,148.8,283,147.95,282.48Z" style="fill:#c57547"/><path d="M137.2,293.12a15.27,15.27,0,0,0,11.63-9c3,4.35,5.53-1.84,5.53-1.84.64.08.42.44.59.66a6.51,6.51,0,0,1,1.34,5.83,5,5,0,0,1-.28.84l-16.83,4.61c-7.12,1.8-5.83-1-5.18-2A3.16,3.16,0,0,0,137.2,293.12Z" style="fill:#b65319"/><path d="M150.21,286a8.16,8.16,0,0,1-1.76-1.07c.14-.28.27-.54.38-.79,3,4.35,5.53-1.84,5.53-1.84.64.08.42.44.59.66C155,283,152.94,287.27,150.21,286Z" style="fill:#893e13"/><path d="M156.22,289s.36.36-.22.61c0,0-16.79,4.9-18.87,5Z" style="fill:#893e13"/><path d="M148.73,201.76h0a6.35,6.35,0,0,1,6.44,6.26L154.56,281l-8.92.13-3.17-72.88A6.35,6.35,0,0,1,148.73,201.76Z" style="fill:#122d40"/><path d="M168.78,269.85l.47-.51,1.11.12s2.83,2.41,4.46.25a5.42,5.42,0,0,1-.71,2.28c-.52.53-2.9,1.11-3.93.1A4.33,4.33,0,0,1,168.78,269.85Z" style="fill:#5b2a0d"/><rect x="168.71" y="256.99" width="5.03" height="18.36" transform="translate(-58.13 48.09) rotate(-13.69)" style="fill:#f2a16d"/><path d="M175,268.33c.75-.81,1.8-.68,2.8,0a17.32,17.32,0,0,0,12.91,5.51s4.7,3.35-4.16,3.51l-17.45,0a6.56,6.56,0,0,1-.33-7.5s4.2,5.44,5.88.13C174.87,269.33,174.33,269.07,175,268.33Z" style="fill:#c57547"/><path d="M188.18,275.78a15.27,15.27,0,0,1-13.58-5.61c-1.72,5-5.81-.32-5.81-.32-.6.24-.29.53-.4.79a6.51,6.51,0,0,0,.24,6,4.94,4.94,0,0,0,.5.74l17.45,0c7.34-.13,5.37-2.46,4.48-3.25A3.16,3.16,0,0,1,188.18,275.78Z" style="fill:#b65319"/><path d="M173.75,272.33a8.15,8.15,0,0,0,1.41-1.5c-.21-.23-.4-.45-.57-.66-1.72,5-5.81-.32-5.81-.32-.6.24-.29.53-.4.79C168.38,270.64,171.45,274.27,173.75,272.33Z" style="fill:#893e13"/><path d="M168.75,276.83s-.26.44.37.53c0,0,17.49.31,19.54-.1Z" style="fill:#893e13"/><path d="M152.88,189.12h0a6.35,6.35,0,0,0-4.81,7.59l18.26,70.7,8.7-2-14.57-71.53A6.35,6.35,0,0,0,152.88,189.12Z" style="fill:#022333"/><path d="M152.88,189.12h0a6.35,6.35,0,0,0-4.81,7.59l18.26,70.7,8.7-2-14.57-71.53A6.35,6.35,0,0,0,152.88,189.12Z" style="fill:#183c55"/></svg>